<svg width="16" height="20" viewBox="0 0 16 20" fill="none" xmlns="http://www.w3.org/2000/svg">
<path d="M10.8906 3.18979C11.2621 2.7541 11.5453 2.24802 11.724 1.70062C11.9028 1.15323 11.9735 0.57529 11.9321 0C10.7917 0.0936807 9.73312 0.639514 8.9844 1.5199C8.62586 1.94185 8.35415 2.43272 8.18538 2.96345C8.0166 3.49418 7.95418 4.05397 8.00182 4.60969C8.5581 4.61441 9.10799 4.4888 9.60892 4.24258C10.1099 3.99636 10.5484 3.63613 10.8906 3.18979ZM13.3667 10.6293C13.3733 9.86308 13.5716 9.11121 13.9429 8.44464C14.3143 7.77807 14.8464 7.21878 15.4891 6.81955C15.0835 6.22482 14.5473 5.73445 13.9231 5.38732C13.2988 5.04018 12.6037 4.84583 11.8928 4.81968C10.36 4.65969 8.9451 5.72962 8.12956 5.72962C7.31402 5.72962 6.1644 4.83968 4.88705 4.85968C4.05199 4.88767 3.23831 5.13544 2.52538 5.57882C1.81245 6.02219 1.2246 6.64604 0.819185 7.38951C-0.910151 10.4493 0.377025 14.999 2.10636 17.4688C2.89242 18.6788 3.875 20.0487 5.172 19.9987C6.469 19.9487 6.89151 19.1787 8.39485 19.1787C9.8982 19.1787 10.36 19.9987 11.6374 19.9687C12.9147 19.9387 13.8187 18.7288 14.644 17.5188C15.2287 16.6404 15.6854 15.6805 16 14.669C15.2213 14.3311 14.5569 13.7684 14.0889 13.0504C13.6209 12.3325 13.3699 11.4908 13.3667 10.6293Z" fill="#101010"/>
</svg>
