<svg width="262" height="205" viewBox="0 0 262 205" fill="none" xmlns="http://www.w3.org/2000/svg">
<path d="M116.631 204.788C181.045 204.788 233.263 192.474 233.263 177.284C233.263 162.094 181.045 149.78 116.631 149.78C52.2176 149.78 0 162.094 0 177.284C0 192.474 52.2176 204.788 116.631 204.788Z" fill="#DFEDE0"/>
<path d="M121.277 52.6967C122.179 53.4425 106.167 50.7694 117.754 31.1269C129.342 11.4845 121.647 0 121.647 0C121.647 0 136.089 10.4927 131.618 21.819C127.147 33.1453 111.973 44.9985 121.277 52.6967Z" fill="#FFC79C"/>
<path d="M130.161 47.3325C130.161 47.3325 123.705 42.3079 133.401 32.5144C143.097 22.721 137.294 16.1836 137.294 16.1836C137.294 16.1836 149.637 24.2551 135.982 36.411C128.061 43.4624 130.161 47.0187 130.161 47.0187" fill="#FFC79C"/>
<path d="M179.089 63.4878C179.021 62.3146 179.63 61.1957 180.634 60.5209L180.659 60.5041C183.405 58.6756 189.532 55.0354 192.091 57.208C193.437 58.3509 193.877 60.0483 193.912 61.6592C193.932 62.4786 194.049 63.8041 194.194 65.1891C194.51 68.2044 191.749 70.7141 188.631 70.2001C184.331 69.4912 179.338 67.7505 179.089 63.4878Z" fill="#874217"/>
<path d="M184.101 63.852C182.307 62.5362 181.247 61.4288 180.659 60.5049C183.405 58.6764 189.532 55.0361 192.091 57.2088C193.437 58.3516 193.877 60.049 193.912 61.66C191.649 64.4602 187.683 66.4683 184.101 63.852Z" fill="#9E5729"/>
<path d="M188.623 59.0617C188.623 59.7332 187.878 60.2775 186.958 60.2775C186.039 60.2775 185.294 59.7332 185.294 59.0617C185.294 58.3902 186.039 57.8459 186.958 57.8459C187.878 57.8453 188.623 58.3896 188.623 59.0617Z" fill="#AD7434"/>
<path d="M190.681 60.865C191.044 60.865 191.338 60.6771 191.338 60.4453C191.338 60.2135 191.044 60.0256 190.681 60.0256C190.318 60.0256 190.024 60.2135 190.024 60.4453C190.024 60.6771 190.318 60.865 190.681 60.865Z" fill="#AD7434"/>
<path d="M134.175 196.828C179.231 196.828 215.755 182.168 215.755 164.084C215.755 146 179.231 131.34 134.175 131.34C89.1198 131.34 52.5952 146 52.5952 164.084C52.5952 182.168 89.1198 196.828 134.175 196.828Z" fill="#FF8519"/>
<path d="M131.818 191.25C203.329 191.25 261.301 169.115 261.301 141.81C261.301 114.505 203.329 92.3704 131.818 92.3704C60.3068 92.3704 2.33545 114.505 2.33545 141.81C2.33545 169.115 60.3068 191.25 131.818 191.25Z" fill="#F0FBF2"/>
<path d="M132.604 94.2983C64.8527 94.2983 9.92773 114.423 9.92773 139.252C9.92773 164.074 64.8527 184.199 132.604 184.199C200.363 184.199 255.288 164.074 255.288 139.252C255.288 114.423 200.363 94.2983 132.604 94.2983ZM132.604 183.309C65.6107 183.309 11.1003 163.545 11.1003 139.251C11.1003 114.951 65.6107 95.1874 132.604 95.1874C199.605 95.1874 254.107 114.951 254.107 139.251C254.107 163.546 199.605 183.309 132.604 183.309Z" fill="#FFE882"/>
<path d="M219.865 107.252C196.533 98.7056 165.55 94.002 132.604 94.002C99.6665 94.002 68.6829 98.7056 45.3511 107.252C21.7539 115.9 8.75537 127.911 8.75537 139.252C8.75537 151.618 21.7539 163.19 45.3511 171.838C68.6823 180.385 99.6659 185.089 132.604 185.089C165.549 185.089 196.533 180.385 219.865 171.838C243.462 163.19 256.453 151.619 256.453 139.252C256.453 128.628 243.462 115.9 219.865 107.252ZM132.604 183.309C65.6109 183.309 11.1004 163.545 11.1004 139.251C11.1004 114.951 65.6109 95.1874 132.604 95.1874C199.605 95.1874 254.107 114.951 254.107 139.251C254.107 163.546 199.605 183.309 132.604 183.309Z" fill="#CDDFCF"/>
<path d="M171.447 176.047C186.844 176.047 199.326 172.542 199.326 168.217C199.326 163.893 186.844 160.387 171.447 160.387C156.051 160.387 143.569 163.893 143.569 168.217C143.569 172.542 156.051 176.047 171.447 176.047Z" fill="#F0E7BD"/>
<path d="M234.813 127.606C234.813 152.68 188.474 173.077 131.508 173.077C74.5496 173.077 28.2036 152.68 28.2036 127.606C28.2036 102.527 74.5496 82.1294 131.508 82.1294C188.474 82.1294 234.813 102.526 234.813 127.606Z" fill="#F0E7BD"/>
<path d="M234.758 119.073C234.758 140.933 204.674 159.433 163.15 165.716C157.987 166.501 152.649 167.091 147.166 167.476C142.221 167.826 137.153 168.007 132.004 168.007C75.2531 168.007 29.25 146.103 29.25 119.073C29.25 92.0501 75.2531 70.1465 132.004 70.1465C188.748 70.1465 234.758 92.0501 234.758 119.073Z" fill="#FFE882"/>
<path d="M123.158 90.7208C123.158 103.205 106.209 113.324 85.3019 113.324C64.3946 113.324 47.4458 103.204 47.4458 90.7208C47.4458 78.2375 88.7594 58.4497 116.058 62.2146C136.769 65.0717 123.158 78.2368 123.158 90.7208Z" fill="#FFE882"/>
<path d="M213.338 98.4691C216.597 81.7649 194.483 63.3933 163.945 57.435C133.407 51.4768 106.009 60.1881 102.749 76.8923C99.4902 93.5965 121.604 111.968 152.142 117.926C182.68 123.885 210.078 115.173 213.338 98.4691Z" fill="#FFE882"/>
<path d="M204.489 106.984L206.703 107.521C205.727 108.845 204.434 110.038 202.732 110.999C201.314 111.401 199.61 111.529 197.666 111.057L199.033 112.523C196.739 113.189 193.719 113.574 191.947 110.516C191.947 110.516 186.604 109.862 188.348 102.637L190.78 105.266C190.78 105.266 188.259 100.333 189.336 95.303C190.14 93.2149 191.5 91.3812 193.652 90.1112L193.876 93.0167C193.876 93.0167 194.547 90.1428 197.469 88.6804C197.477 88.6823 197.477 88.6823 197.478 88.6752C198.47 88.4647 199.559 88.335 200.76 88.2949L200.334 89.6502C200.334 89.6502 202.377 88.2517 207.702 88.8676C207.702 88.8676 207.708 88.8767 207.711 88.8928C207.787 89.2654 208.773 93.8121 208.302 96.777L209.32 96.4975C209.502 98.9026 209.363 101.581 208.494 104.096C207.65 105.317 206.384 106.38 204.489 106.984Z" fill="#E8D890"/>
<path d="M205.545 91.5136C205.403 91.8048 204.195 94.2681 202.413 97.3886C202.314 97.5461 202.222 97.7127 202.13 97.8793C201.274 99.3494 200.306 100.943 199.273 102.511C198.993 102.934 198.712 103.356 198.427 103.77L198.425 103.777C198.248 104.02 198.079 104.266 197.912 104.504C197.71 104.78 197.509 105.055 197.31 105.323C196.454 106.465 195.582 107.548 194.701 108.484C194.499 108.705 194.3 108.912 194.093 109.117C192.312 110.884 190.548 112.013 188.996 111.905L189.033 111.165C190.375 111.255 192.099 110.215 194.127 108.093C194.317 107.891 194.508 107.682 194.703 107.458C195.166 106.954 195.635 106.391 196.116 105.785C196.334 105.507 196.563 105.215 196.787 104.916C197.413 104.096 198.054 103.188 198.715 102.209C198.882 101.971 199.044 101.723 199.206 101.476C199.302 101.325 199.396 101.182 199.5 101.034C200.15 100.036 200.78 99.0492 201.383 98.1085C201.496 97.9245 201.607 97.7475 201.718 97.5706C203.838 94.1731 205.394 91.4814 205.413 91.4407L205.545 91.5136Z" fill="#E8D890"/>
<path d="M199.274 102.511C198.993 102.933 198.713 103.356 198.427 103.769C198.527 103.245 198.618 102.726 198.715 102.209C199.646 96.9487 200.255 92.2069 200.258 92.1624L200.406 92.1785C200.383 92.5627 200.158 96.4347 199.5 101.033C199.426 101.519 199.351 102.011 199.274 102.511Z" fill="#E8D890"/>
<path d="M194.7 108.484C194.498 108.705 194.299 108.912 194.092 109.117C194.103 108.776 194.114 108.435 194.125 108.093C194.254 103.025 194.177 98.636 194.174 98.5889H194.318C194.343 98.9705 194.682 102.825 194.702 107.458C194.701 107.795 194.704 108.14 194.7 108.484Z" fill="#E8D890"/>
<path d="M206.779 96.2947C206.523 96.387 204.716 97.0527 202.131 97.8785C201.888 97.9515 201.635 98.0296 201.382 98.1077C201.495 97.9237 201.606 97.7468 201.717 97.5699C201.959 97.504 202.191 97.4433 202.413 97.3878C204.966 96.6834 206.7 96.1739 206.728 96.1584L206.779 96.2947Z" fill="#E8D890"/>
<path d="M206.151 101.468C205.785 101.645 201.971 103.513 197.31 105.323C196.916 105.479 196.516 105.632 196.116 105.785C196.334 105.507 196.563 105.216 196.787 104.916C197.166 104.78 197.539 104.642 197.911 104.504C202.392 102.86 206.044 101.362 206.091 101.337L206.151 101.468Z" fill="#E8D890"/>
<path d="M178.587 101.953L177.503 100.008C179.196 99.8574 181.001 100.02 182.904 100.628C184.179 101.391 185.434 102.539 186.385 104.247L186.599 102.313C188.674 103.54 191.022 105.47 189.843 108.724C189.843 108.724 192.959 113.004 186.151 116.411L186.549 112.958C186.549 112.958 184.419 117.964 179.773 120.435C177.602 121.203 175.253 121.406 172.805 120.672L174.914 118.633C174.914 118.633 172.222 120.006 169.102 118.841C169.099 118.834 169.099 118.834 169.091 118.837C168.256 118.258 167.415 117.556 166.569 116.714L167.913 116.145C167.913 116.145 165.439 115.574 162.306 111.332C162.306 111.332 162.309 111.322 162.32 111.309C162.557 111.013 165.428 107.365 168.056 105.79L167.148 105.236C168.896 103.551 171.076 101.921 173.623 100.925C175.146 100.748 176.832 100.975 178.587 101.953Z" fill="#E8D890"/>
<path d="M165.83 111.184C166.152 111.098 168.889 110.379 172.526 109.65C172.716 109.619 172.908 109.578 173.1 109.537C174.825 109.205 176.722 108.875 178.643 108.607C179.163 108.537 179.682 108.467 180.198 108.406L180.205 108.403C180.514 108.373 180.82 108.337 181.12 108.303C181.47 108.27 181.821 108.238 182.165 108.209C183.634 108.09 185.069 108.019 186.395 108.05C186.705 108.054 187.001 108.064 187.301 108.08C189.884 108.225 191.959 108.768 192.928 109.959L192.327 110.41C191.486 109.382 189.508 108.81 186.481 108.717C186.195 108.711 185.902 108.708 185.596 108.711C184.89 108.703 184.133 108.728 183.335 108.772C182.97 108.795 182.589 108.817 182.203 108.849C181.14 108.926 179.999 109.05 178.788 109.205C178.489 109.238 178.186 109.282 177.884 109.325C177.702 109.353 177.526 109.377 177.341 109.398C176.124 109.574 174.928 109.756 173.787 109.929C173.567 109.967 173.354 110.001 173.14 110.034C169.057 110.699 165.907 111.313 165.863 111.326L165.83 111.184Z" fill="#E8D890"/>
<path d="M178.644 108.607C179.163 108.536 179.682 108.466 180.198 108.405C179.722 108.672 179.256 108.942 178.788 109.205C174.062 111.931 169.958 114.555 169.921 114.58L169.833 114.464C170.148 114.232 173.314 111.893 177.34 109.398C177.767 109.137 178.202 108.874 178.644 108.607Z" fill="#E8D890"/>
<path d="M186.394 108.05C186.704 108.053 187.001 108.063 187.3 108.079C187.027 108.292 186.754 108.504 186.481 108.717C182.449 111.898 179.085 114.788 179.051 114.821L178.953 114.717C179.233 114.451 182.003 111.717 185.596 108.71C185.859 108.494 186.125 108.269 186.394 108.05Z" fill="#E8D890"/>
<path d="M168.714 107.204C168.96 107.329 170.704 108.204 173.101 109.537C173.322 109.665 173.555 109.797 173.786 109.929C173.566 109.966 173.353 110 173.14 110.034C172.925 109.902 172.721 109.774 172.527 109.649C170.247 108.261 168.674 107.339 168.643 107.328L168.714 107.204Z" fill="#E8D890"/>
<path d="M173.166 104.316C173.553 104.467 177.594 106.013 182.164 108.209C182.552 108.393 182.943 108.582 183.334 108.772C182.969 108.795 182.587 108.817 182.202 108.849C181.838 108.662 181.479 108.483 181.119 108.303C176.799 106.131 173.157 104.462 173.104 104.445L173.166 104.316Z" fill="#E8D890"/>
<path d="M191.606 97.386L192.67 96.2134C193.234 97.273 193.61 98.4816 193.701 99.8614C193.513 100.872 193.052 101.962 192.117 102.991L193.525 102.662C193.231 104.302 192.519 106.29 189.927 106.314C189.927 106.314 187.783 109.366 183.559 105.782L186.079 105.204C186.079 105.204 182.006 105.036 179.021 102.625C177.896 101.405 177.117 99.9325 176.966 98.1691L178.961 99.0421C178.961 99.0421 177.274 97.6313 177.241 95.3282C177.245 95.3243 177.245 95.3243 177.241 95.3205C177.419 94.6393 177.682 93.9252 178.04 93.1736L178.801 93.9065C178.801 93.9065 178.529 92.1657 180.643 89.1111C180.643 89.1111 180.65 89.1111 180.663 89.1143C180.934 89.197 184.259 90.1732 186.071 91.4936L186.212 90.7717C187.863 91.4962 189.592 92.5131 190.978 93.9219C191.515 94.8659 191.813 96.0126 191.606 97.386Z" fill="#E8D890"/>
<path d="M181.702 91.3567C181.849 91.5446 183.094 93.1433 184.588 95.323C184.661 95.438 184.742 95.5522 184.823 95.6672C185.522 96.7035 186.267 97.8521 186.974 99.0324C187.164 99.3513 187.354 99.6703 187.536 99.9899L187.54 99.9938C187.644 100.187 187.753 100.377 187.857 100.562C187.974 100.781 188.092 101 188.206 101.216C188.688 102.138 189.125 103.05 189.463 103.917C189.544 104.118 189.618 104.313 189.688 104.511C190.287 106.219 190.47 107.694 189.901 108.61L189.423 108.33C189.913 107.537 189.776 106.117 189.021 104.134C188.948 103.948 188.871 103.757 188.786 103.56C188.6 103.101 188.378 102.616 188.13 102.11C188.016 101.88 187.897 101.638 187.77 101.396C187.428 100.727 187.032 100.017 186.596 99.2706C186.492 99.0847 186.379 98.8994 186.267 98.7141C186.198 98.603 186.133 98.4952 186.069 98.3802C185.616 97.6345 185.165 96.9043 184.735 96.2069C184.649 96.0733 184.568 95.9435 184.486 95.8137C182.916 93.3305 181.632 91.4387 181.612 91.4129L181.702 91.3567Z" fill="#E8D890"/>
<path d="M186.974 99.0323C187.164 99.3513 187.354 99.6703 187.536 99.9899C187.221 99.7464 186.906 99.5101 186.595 99.2699C183.41 96.8687 180.467 94.8458 180.438 94.8278L180.497 94.7432C180.744 94.8904 183.235 96.3754 186.069 98.3796C186.366 98.5933 186.668 98.8109 186.974 99.0323Z" fill="#E8D890"/>
<path d="M189.464 103.917C189.545 104.118 189.619 104.313 189.689 104.511C189.467 104.386 189.244 104.26 189.022 104.134C185.707 102.292 182.777 100.813 182.745 100.799L182.791 100.71C183.052 100.827 185.712 101.96 188.786 103.56C189.008 103.677 189.238 103.795 189.464 103.917Z" fill="#E8D890"/>
<path d="M185.263 92.2618C185.242 92.451 185.104 93.7927 184.823 95.6671C184.793 95.8414 184.764 96.0242 184.735 96.2062C184.649 96.0726 184.568 95.9428 184.486 95.813C184.52 95.6419 184.554 95.4786 184.589 95.3229C184.94 93.5106 185.158 92.2689 185.157 92.2463L185.263 92.2618Z" fill="#E8D890"/>
<path d="M188.486 94.4469C188.486 94.7335 188.501 97.7249 188.206 101.216C188.183 101.511 188.157 101.811 188.13 102.11C188.016 101.879 187.897 101.637 187.77 101.396C187.802 101.115 187.829 100.838 187.858 100.562C188.205 97.2387 188.382 94.4766 188.38 94.4385L188.486 94.4469Z" fill="#E8D890"/>
<path d="M200.513 112.032L202.112 111.735C201.424 110.744 200.507 109.834 199.293 109.074C198.278 108.728 197.054 108.568 195.651 108.83L196.65 107.83C195.007 107.259 192.839 106.861 191.531 108.99C191.531 108.99 187.68 109.246 188.857 114.513L190.634 112.719C190.634 112.719 188.768 116.166 189.487 119.827C190.043 121.361 191 122.735 192.535 123.735L192.728 121.654C192.728 121.654 193.178 123.748 195.264 124.917C195.27 124.916 195.27 124.916 195.271 124.921C195.981 125.112 196.764 125.25 197.627 125.326L197.336 124.334C197.336 124.334 198.79 125.422 202.627 125.193C202.627 125.193 202.631 125.186 202.634 125.175C202.693 124.91 203.451 121.679 203.145 119.527L203.874 119.769C204.031 118.047 203.961 116.114 203.363 114.271C202.768 113.358 201.87 112.542 200.513 112.032Z" fill="#E8D890"/>
<path d="M201.103 123.202C201.004 122.987 200.163 121.167 198.914 118.851C198.846 118.734 198.781 118.61 198.716 118.487C198.117 117.395 197.438 116.21 196.712 115.04C196.515 114.725 196.318 114.41 196.117 114.102L196.116 114.096C195.991 113.914 195.872 113.731 195.754 113.553C195.612 113.347 195.47 113.141 195.33 112.939C194.727 112.084 194.112 111.27 193.489 110.561C193.346 110.394 193.205 110.237 193.058 110.082C191.797 108.739 190.54 107.857 189.422 107.872L189.441 108.406C190.407 108.395 191.635 109.212 193.071 110.82C193.205 110.973 193.34 111.13 193.479 111.299C193.805 111.68 194.137 112.104 194.477 112.559C194.63 112.768 194.793 112.987 194.95 113.211C195.392 113.826 195.843 114.505 196.307 115.235C196.425 115.414 196.539 115.598 196.653 115.783C196.72 115.895 196.786 116.002 196.859 116.113C197.316 116.856 197.758 117.591 198.181 118.293C198.26 118.43 198.339 118.561 198.416 118.693C199.904 121.222 200.994 123.22 201.007 123.25L201.103 123.202Z" fill="#E8D890"/>
<path d="M196.713 115.04C196.516 114.725 196.318 114.41 196.118 114.102C196.184 114.483 196.243 114.86 196.308 115.235C196.92 119.056 197.306 122.491 197.308 122.524L197.414 122.518C197.402 122.241 197.282 119.446 196.86 116.112C196.812 115.76 196.763 115.403 196.713 115.04Z" fill="#E8D890"/>
<path d="M193.489 110.561C193.345 110.394 193.205 110.237 193.058 110.081C193.063 110.327 193.067 110.573 193.071 110.819C193.108 114.47 193.005 117.624 193.002 117.657L193.105 117.663C193.129 117.389 193.414 114.631 193.479 111.299C193.481 111.056 193.487 110.808 193.489 110.561Z" fill="#E8D890"/>
<path d="M202.043 119.813C201.86 119.736 200.567 119.184 198.717 118.487C198.542 118.425 198.361 118.358 198.181 118.292C198.26 118.429 198.338 118.561 198.416 118.692C198.589 118.749 198.755 118.802 198.914 118.851C200.743 119.46 201.984 119.896 202.004 119.908L202.043 119.813Z" fill="#E8D890"/>
<path d="M201.648 116.066C201.386 115.924 198.664 114.428 195.331 112.939C195.05 112.811 194.763 112.685 194.477 112.559C194.631 112.768 194.793 112.986 194.95 113.211C195.222 113.324 195.488 113.438 195.755 113.552C198.96 114.915 201.57 116.138 201.603 116.159L201.648 116.066Z" fill="#E8D890"/>
<path d="M115.583 136.248C115.583 137.215 113.25 136.444 110.389 136.444C107.528 136.444 105.223 137.215 105.223 136.248C105.223 135.281 107.542 134.498 110.403 134.498C113.264 134.497 115.583 135.281 115.583 136.248Z" fill="#D6B23C"/>
<path d="M40.9811 105.297C40.9811 106.264 39.6995 105.202 36.8385 105.202C33.9776 105.202 30.6201 106.264 30.6201 105.297C30.6201 104.331 32.9394 103.547 35.8003 103.547C38.6613 103.547 40.9811 104.331 40.9811 105.297Z" fill="#D6B23C"/>
<path d="M179.8 67.7575C179.8 68.7241 177.608 67.8602 174.747 67.8602C171.887 67.8602 169.439 68.7247 169.439 67.7575C169.439 66.7909 171.759 66.0071 174.62 66.0071C177.481 66.0071 179.8 66.7909 179.8 67.7575Z" fill="#D6B23C"/>
<path d="M59.1543 146.26C59.1543 147.227 56.8351 148.011 53.9741 148.011C51.1132 148.011 48.7939 147.227 48.7939 146.26C48.7939 145.294 51.1132 144.51 53.9741 144.51C56.8351 144.509 59.1543 145.293 59.1543 146.26Z" fill="#D6B23C"/>
<path d="M130.937 152.432C130.331 153.205 127.984 152.499 125.697 150.854C123.409 149.209 122.046 147.249 122.652 146.475C123.259 145.702 124.607 147.72 126.895 149.365C129.183 151.01 131.543 151.659 130.937 152.432Z" fill="#FFCF33"/>
<path d="M141.447 147.305C141.447 148.121 139.49 148.782 137.077 148.782C134.663 148.782 132.707 148.121 132.707 147.305C132.707 146.49 134.568 146.948 136.983 146.948C139.395 146.948 141.447 146.49 141.447 147.305Z" fill="#D6B23C"/>
<path d="M135.133 126.868C135.736 127.445 133.604 128.141 131.897 129.775C130.191 131.409 129.555 133.363 128.953 132.786C128.35 132.209 129.246 130.417 130.952 128.783C132.659 127.149 134.531 126.292 135.133 126.868Z" fill="#FFCF33"/>
<path d="M77.491 149.349C79.9044 149.349 81.8608 148.687 81.8608 147.872C81.8608 147.056 79.9044 146.395 77.491 146.395C75.0776 146.395 73.1211 147.056 73.1211 147.872C73.1211 148.687 75.0776 149.349 77.491 149.349Z" fill="#D6B23C"/>
<path d="M75.5475 127.435C76.1499 128.011 75.2544 129.804 73.5479 131.438C71.8414 133.072 69.9696 133.929 69.3672 133.352C68.7648 132.776 70.9813 131.362 72.6878 129.728C74.3943 128.094 74.9451 126.858 75.5475 127.435Z" fill="#FFCF33"/>
<path d="M26.8956 131.401C27.498 131.978 26.6025 133.77 24.896 135.404C23.1895 137.038 21.3177 137.895 20.7153 137.318C20.1129 136.742 22.3295 135.329 24.036 133.694C25.7425 132.06 26.2932 130.824 26.8956 131.401Z" fill="#FFCF33"/>
<path d="M79.5646 133.614C79.6201 134.446 77.7503 135.165 75.3878 135.22C73.0259 135.275 71.0657 134.644 71.0102 133.812C70.9546 132.98 73.5444 133.433 75.9062 133.378C78.2687 133.322 79.5091 132.782 79.5646 133.614Z" fill="#FFCF33"/>
<path d="M75.9331 160.415C78.7941 160.415 81.1133 159.632 81.1133 158.665C81.1133 157.698 78.7941 156.915 75.9331 156.915C73.0722 156.915 70.7529 157.698 70.7529 158.665C70.7529 159.632 73.0722 160.415 75.9331 160.415Z" fill="#D6B23C"/>
<path d="M93.9658 164.12C93.9658 164.936 92.0095 165.597 89.596 165.597C87.1824 165.597 85.2261 164.936 85.2261 164.12C85.2261 163.305 86.9984 164.087 89.4119 164.087C91.8254 164.087 93.9658 163.305 93.9658 164.12Z" fill="#D6B23C"/>
<path d="M92.0165 142.783C92.4581 143.332 90.1589 143.833 88.8288 145.533C87.3728 147.394 86.4386 149.278 85.8361 148.701C85.2337 148.124 86.1293 146.332 87.8358 144.698C89.5429 143.064 91.4941 142.134 92.0165 142.783Z" fill="#FFCF33"/>
<path d="M46.8075 147.12C46.1935 147.888 43.8542 147.159 41.5841 145.492C39.3132 143.826 37.9703 141.853 38.5843 141.086C39.1983 140.318 41.5376 141.047 43.8084 142.714C46.0792 144.38 47.4215 146.353 46.8075 147.12Z" fill="#D6B23C"/>
<path d="M63.8068 161.625C63.289 162.272 61.3159 161.657 59.4002 160.251C57.4845 158.846 56.3513 157.181 56.8698 156.534C57.3883 155.887 59.3608 156.501 61.2765 157.907C63.1922 159.312 64.3253 160.977 63.8068 161.625Z" fill="#D6B23C"/>
<path d="M109.852 169.141C109.333 169.789 107.361 169.174 105.445 167.769C103.529 166.363 102.396 164.699 102.915 164.052C103.433 163.404 104.699 165.193 106.615 166.599C108.531 168.004 110.37 168.494 109.852 169.141Z" fill="#D6B23C"/>
<path d="M30.5285 129.48C30.0107 130.127 28.0375 129.512 26.1218 128.107C24.2061 126.701 23.073 125.037 23.5915 124.39C24.1093 123.742 25.3761 125.531 27.2918 126.937C29.2068 128.342 31.0463 128.832 30.5285 129.48Z" fill="#D6B23C"/>
<path d="M58.1472 151.258C58.2589 152.067 56.4097 152.968 54.0169 153.271C51.624 153.574 49.594 153.164 49.4823 152.355C49.3706 151.547 51.2198 150.646 53.6127 150.343C56.0055 150.04 58.0355 150.45 58.1472 151.258Z" fill="#FFCF33"/>
<path d="M125.337 160.36C125.61 161.292 123.597 162.645 120.843 163.385C118.088 164.124 115.634 163.968 115.361 163.037C115.089 162.106 117.745 162.184 120.5 161.445C123.255 160.706 125.065 159.43 125.337 160.36Z" fill="#D6B23C"/>
<path d="M223.64 144.255C223.912 145.186 221.477 145.118 218.722 145.857C215.967 146.597 213.936 147.863 213.663 146.932C213.391 146.001 215.403 144.647 218.158 143.907C220.913 143.169 223.367 143.324 223.64 144.255Z" fill="#D6B23C"/>
<path d="M181.745 67.9222C180.823 68.3154 180.47 66.1182 179.306 63.6156C178.142 61.113 176.608 59.2541 177.531 58.8602C178.453 58.467 180.144 60.1767 181.308 62.6787C182.472 65.1813 182.668 67.529 181.745 67.9222Z" fill="#D6B23C"/>
<path d="M113.297 164.254C112.922 165.151 110.465 165.054 107.809 164.036C105.152 163.019 103.303 161.466 103.678 160.568C104.053 159.671 105.939 161.293 108.595 162.311C111.251 163.329 113.672 163.356 113.297 164.254Z" fill="#D6B23C"/>
<path d="M133.966 173.748C133.649 174.505 131.576 174.423 129.335 173.564C127.094 172.706 125.534 171.396 125.851 170.639C126.167 169.881 127.205 171.108 129.447 171.966C131.688 172.825 134.283 172.991 133.966 173.748Z" fill="#D6B23C"/>
<path d="M211.58 153.228C211.264 153.985 210.418 152.197 208.178 151.338C205.937 150.479 203.149 150.876 203.466 150.119C203.782 149.361 205.855 149.443 208.096 150.302C210.337 151.161 211.897 152.47 211.58 153.228Z" fill="#D6B23C"/>
<path d="M125.594 165.229C125.929 165.979 124.403 167.325 122.184 168.234C119.966 169.144 117.895 169.274 117.56 168.525C117.224 167.775 118.751 166.43 120.97 165.52C123.188 164.61 125.259 164.48 125.594 165.229Z" fill="#FFCF33"/>
<path d="M237.983 127.501C238.319 128.25 236.028 128.417 233.809 129.328C231.591 130.238 230.284 131.546 229.949 130.796C229.613 130.046 231.14 128.701 233.358 127.791C235.578 126.881 237.648 126.751 237.983 127.501Z" fill="#FFCF33"/>
<path d="M237.889 123.415C236.964 124.079 234.85 122.87 233.166 120.717C231.483 118.564 230.868 116.281 231.793 115.618C232.717 114.955 232.597 117.517 234.28 119.67C235.964 121.823 238.814 122.753 237.889 123.415Z" fill="#FFCF33"/>
<path d="M216.67 139.911C216.204 140.768 215.225 138.934 212.687 137.671C210.149 136.407 207.012 136.192 207.477 135.334C207.943 134.476 210.378 134.805 212.917 136.069C215.455 137.333 217.136 139.053 216.67 139.911Z" fill="#D6B23C"/>
<path d="M234.492 140.637C234.026 141.494 233.047 139.66 230.509 138.397C227.971 137.133 224.834 136.918 225.299 136.06C225.765 135.203 228.2 135.531 230.739 136.795C233.278 138.059 234.958 139.779 234.492 140.637Z" fill="#D6B23C"/>
<path d="M155.789 125.573C154.878 125.992 154.379 123.524 153.142 121.054C151.905 118.584 150.398 117.047 151.308 116.629C152.219 116.211 153.96 117.874 155.197 120.344C156.434 122.814 156.699 125.155 155.789 125.573Z" fill="#FFCF33"/>
<path d="M218.936 157.328C218.025 157.747 217.526 155.28 216.289 152.809C215.052 150.34 213.545 148.802 214.455 148.384C215.366 147.966 217.107 149.629 218.344 152.099C219.581 154.569 219.846 156.911 218.936 157.328Z" fill="#FFCF33"/>
<path d="M99.6793 159.369C98.7689 159.787 97.0276 158.124 95.7905 155.653C94.5534 153.184 94.288 150.843 95.1984 150.424C96.1088 150.006 96.2347 152.406 97.4724 154.875C98.7102 157.345 100.59 158.95 99.6793 159.369Z" fill="#FFCF33"/>
<path d="M169.579 128.46C169.186 129.184 167.941 127.532 165.8 126.466C163.658 125.4 161.432 125.323 161.825 124.6C162.218 123.876 164.273 124.153 166.414 125.219C168.555 126.285 169.972 127.736 169.579 128.46Z" fill="#D6B23C"/>
<path d="M116.5 163.412C116.107 164.136 114.052 163.858 111.911 162.792C109.77 161.726 108.352 160.275 108.746 159.551C109.139 158.828 110.139 160.546 112.281 161.612C114.422 162.678 116.893 162.688 116.5 163.412Z" fill="#D6B23C"/>
<path d="M191.994 69.2246C192.25 70.002 189.703 69.3647 187.401 70.0607C185.1 70.7567 183.916 72.5226 183.659 71.7453C183.403 70.9679 185.061 69.7727 187.362 69.0767C189.663 68.3807 191.737 68.4465 191.994 69.2246Z" fill="#FFCF33"/>
<path d="M199.663 156.382C199.663 156.382 194.132 156.282 194.028 153.784C193.923 151.286 193.923 151.286 193.923 151.286C193.923 151.286 195.071 153.385 197.158 153.284L197.263 151.786C197.263 151.786 199.454 154.283 199.663 156.382Z" fill="#A7B322"/>
<path d="M166.897 62.9828C166.897 62.9828 161.366 62.8827 161.262 60.3853C161.157 57.8872 161.157 57.8872 161.157 57.8872C161.157 57.8872 162.305 59.9856 164.392 59.8855L164.497 58.3869C164.497 58.3869 166.688 60.885 166.897 62.9828Z" fill="#A7B322"/>
<path d="M171.216 89.3539C171.216 89.3539 169.592 93.4655 167.693 92.8438C165.794 92.222 165.794 92.222 165.794 92.222C165.794 92.222 167.686 91.9508 168.196 90.3605L167.103 89.8627C167.103 89.8627 169.587 88.9226 171.216 89.3539Z" fill="#A7B322"/>
<path d="M77.4407 74.0366C77.4407 74.0366 76.7789 68.7783 79.3487 68.3341C81.9184 67.8899 81.9178 67.8899 81.9178 67.8899C81.9178 67.8899 86.2599 68.6202 86.6518 70.5856L81.8629 71.1253C81.8629 71.1253 79.5824 73.5485 77.4407 74.0366Z" fill="#A7B322"/>
<path d="M47.0244 102.903C47.0244 102.903 51.75 102.374 51.4098 105.098C51.0727 107.795 53.1124 105.685 53.1124 105.685C53.1124 105.685 53.0737 109.322 51.3833 109.918L50.2314 106.095C50.2314 106.095 47.7585 104.578 47.0244 102.903Z" fill="#A7B322"/>
<path d="M214.199 111.615C214.199 111.615 218.769 110.314 219.332 111.753C219.895 113.193 219.895 113.193 219.895 113.193C219.895 113.193 219.547 115.881 217.849 116.453L217.052 113.72C217.052 113.72 214.772 112.794 214.199 111.615Z" fill="#A7B322"/>
<path d="M158.195 129.337C158.893 129.273 159.632 129.249 160.39 129.281C164.646 129.456 168.034 131.226 167.95 133.239C167.868 135.252 164.346 136.738 160.09 136.562C159.156 136.524 158.267 136.41 157.445 136.229C158.766 136.631 160.312 136.888 161.972 136.957C166.964 137.163 171.084 135.563 171.174 133.388C171.263 131.22 167.289 129.286 162.296 129.081C160.829 129.02 159.434 129.117 158.195 129.337Z" fill="#E32B12"/>
<path d="M158.263 131.047C156.735 131.402 155.707 132.07 155.674 132.888C155.656 133.304 155.902 133.701 156.348 134.059C155.053 133.674 154.236 133.138 154.258 132.582C154.291 131.795 155.963 131.199 158.263 131.047Z" fill="#A11E0D"/>
<path d="M158.195 129.337C155.231 129.864 153.163 131.115 153.101 132.642C153.041 134.093 154.777 135.432 157.419 136.22C157.429 136.229 157.44 136.229 157.445 136.229C158.267 136.41 159.156 136.524 160.09 136.562C164.346 136.738 167.867 135.252 167.95 133.239C168.034 131.226 164.646 129.455 160.39 129.281C159.632 129.249 158.893 129.273 158.195 129.337ZM165.909 133.062C165.869 134.049 163.225 134.744 160.01 134.612C158.617 134.554 157.341 134.347 156.348 134.059C155.053 133.674 154.236 133.138 154.258 132.582C154.291 131.795 155.963 131.199 158.263 131.047C158.859 131.01 159.495 131.005 160.157 131.032C163.372 131.165 165.95 132.075 165.909 133.062Z" fill="#FF4242"/>
<path d="M167.432 68.522C167.976 68.5788 168.547 68.6685 169.124 68.7996C172.366 69.5331 174.724 71.237 174.386 72.6084C174.048 73.9792 171.142 74.4924 167.9 73.7583C167.188 73.5969 166.522 73.3909 165.916 73.1488C166.875 73.615 168.026 74.0147 169.291 74.3007C173.094 75.1614 176.474 74.6564 176.84 73.1746C177.204 71.6986 174.418 69.7978 170.615 68.9371C169.497 68.684 168.413 68.5497 167.432 68.522Z" fill="#E32B12"/>
<path d="M167.251 69.7067C166.031 69.7299 165.15 70.0411 165.013 70.5977C164.943 70.8811 165.077 71.1891 165.37 71.4997C164.429 71.0484 163.875 70.5622 163.968 70.1838C164.101 69.6479 165.465 69.48 167.251 69.7067Z" fill="#A11E0D"/>
<path d="M167.432 68.522C165.086 68.4567 163.329 69.0185 163.072 70.0586C162.827 71.0459 163.978 72.2158 165.898 73.1385C165.905 73.1456 165.912 73.1475 165.916 73.1482C166.522 73.3909 167.188 73.5969 167.9 73.7577C171.142 74.4911 174.048 73.9785 174.386 72.6077C174.725 71.2363 172.367 69.5331 169.125 68.7989C168.547 68.6685 167.977 68.5788 167.432 68.522ZM172.844 72.1926C172.678 72.8647 170.554 72.9609 168.106 72.4069C167.044 72.1667 166.094 71.8407 165.371 71.4998C164.43 71.0484 163.875 70.5623 163.969 70.1839C164.101 69.648 165.466 69.4801 167.252 69.7067C167.714 69.7668 168.203 69.8553 168.708 69.9695C171.156 70.5235 173.01 71.5198 172.844 72.1926Z" fill="#FF4242"/>
<path d="M60.0752 83.958C60.4206 83.5512 60.81 83.1418 61.2387 82.7493C63.6444 80.543 66.4202 79.5745 67.4377 80.5921C68.4553 81.6097 67.3254 84.2227 64.9196 86.4289C64.3915 86.9132 63.8485 87.3367 63.3061 87.6919C64.2365 87.1753 65.2121 86.467 66.1509 85.6063C68.9731 83.0185 70.3684 80.0271 69.2689 78.9282C68.1732 77.8332 64.992 79.0386 62.1697 81.6264C61.3394 82.387 60.6331 83.1851 60.0752 83.958Z" fill="#E32B12"/>
<path d="M61.0156 84.7476C60.3718 85.7412 60.1665 86.6174 60.5797 87.0306C60.7902 87.2411 61.1331 87.3005 61.5644 87.234C60.6572 87.7447 59.9296 87.9255 59.6493 87.6453C59.251 87.2476 59.8456 86.0596 61.0156 84.7476Z" fill="#A11E0D"/>
<path d="M60.0752 83.958C58.7426 85.8078 58.279 87.5259 59.0512 88.2975C59.784 89.0303 61.435 88.7423 63.2874 87.7015C63.2971 87.6996 63.3036 87.6944 63.3061 87.6919C63.8479 87.3367 64.3915 86.9138 64.9197 86.4289C67.3254 84.2227 68.4553 81.609 67.4378 80.5921C66.4202 79.5745 63.6445 80.543 61.2387 82.7493C60.81 83.1418 60.4206 83.5512 60.0752 83.958ZM66.2349 81.6052C66.734 82.1043 65.6635 83.8631 63.8466 85.5295C63.0588 86.252 62.2563 86.8383 61.5641 87.2341C60.657 87.7448 59.9293 87.9256 59.6491 87.6454C59.2514 87.2476 59.846 86.0603 61.016 84.7476C61.3201 84.4093 61.6636 84.0639 62.038 83.721C63.8543 82.0545 65.7358 81.1061 66.2349 81.6052Z" fill="#FF4242"/>
<path d="M216.698 126.225C217.044 125.819 217.433 125.409 217.862 125.017C220.267 122.81 223.043 121.842 224.061 122.859C225.078 123.877 223.948 126.49 221.543 128.696C221.015 129.181 220.472 129.604 219.929 129.959C220.86 129.443 221.835 128.734 222.774 127.874C225.596 125.286 226.991 122.295 225.892 121.196C224.796 120.1 221.615 121.306 218.793 123.894C217.963 124.655 217.256 125.452 216.698 126.225Z" fill="#E32B12"/>
<path d="M217.639 127.015C216.995 128.009 216.79 128.885 217.203 129.298C217.414 129.508 217.757 129.568 218.188 129.501C217.281 130.012 216.553 130.193 216.273 129.913C215.875 129.515 216.469 128.327 217.639 127.015Z" fill="#A11E0D"/>
<path d="M216.698 126.225C215.365 128.075 214.902 129.793 215.674 130.565C216.407 131.298 218.058 131.01 219.91 129.969C219.92 129.967 219.926 129.962 219.929 129.959C220.471 129.604 221.014 129.181 221.542 128.696C223.948 126.49 225.078 123.876 224.061 122.859C223.043 121.842 220.267 122.81 217.861 125.017C217.433 125.41 217.044 125.819 216.698 126.225ZM222.858 123.872C223.357 124.372 222.286 126.13 220.469 127.797C219.682 128.519 218.879 129.106 218.187 129.501C217.28 130.012 216.552 130.193 216.272 129.913C215.874 129.515 216.468 128.328 217.639 127.015C217.943 126.677 218.286 126.331 218.66 125.988C220.477 124.322 222.359 123.373 222.858 123.872Z" fill="#FF4242"/>
<path d="M180.375 125.671C180.295 126.19 180.18 126.732 180.022 127.28C179.135 130.354 177.268 132.547 175.849 132.172C174.431 131.797 174.005 128.998 174.892 125.923C175.087 125.248 175.328 124.618 175.603 124.047C175.08 124.947 174.621 126.033 174.275 127.233C173.234 130.84 173.634 134.093 175.166 134.498C176.693 134.902 178.781 132.307 179.822 128.701C180.128 127.64 180.309 126.609 180.375 125.671Z" fill="#E32B12"/>
<path d="M179.145 125.454C179.167 124.284 178.875 123.431 178.299 123.278C178.006 123.201 177.679 123.318 177.345 123.586C177.851 122.703 178.379 122.191 178.77 122.294C179.324 122.442 179.448 123.753 179.145 125.454Z" fill="#A11E0D"/>
<path d="M180.375 125.671C180.531 123.429 180.011 121.726 178.934 121.441C177.913 121.171 176.649 122.227 175.614 124.03C175.606 124.036 175.604 124.044 175.603 124.048C175.327 124.619 175.087 125.248 174.892 125.924C174.005 128.998 174.431 131.797 175.849 132.172C177.267 132.548 179.134 130.356 180.021 127.281C180.18 126.732 180.295 126.19 180.375 125.671ZM176.341 130.711C175.645 130.527 175.625 128.491 176.295 126.17C176.585 125.163 176.961 124.266 177.345 123.587C177.851 122.704 178.379 122.192 178.77 122.295C179.325 122.442 179.449 123.754 179.146 125.454C179.065 125.894 178.954 126.359 178.817 126.837C178.146 129.158 177.036 130.895 176.341 130.711Z" fill="#FF4242"/>
<path d="M55.4112 85.9106C55.4112 85.9106 60.3732 82.9412 63.198 84.1951C66.0234 85.4489 68.0908 88.8135 66.2991 90.3315C64.5074 91.8494 54.4466 95.2799 55.4112 85.9106Z" fill="#FFE882"/>
<path d="M62.5352 88.9659C62.0697 89.824 60.4594 88.789 57.9212 87.5248C55.3831 86.2612 52.8773 85.2475 53.3428 84.3894C53.8083 83.5313 56.2438 83.8606 58.7826 85.1242C61.3207 86.3884 63.0007 88.1084 62.5352 88.9659Z" fill="#D6B23C"/>
<path d="M170.606 133.895C170.606 133.895 172.278 126.55 181.916 126.267C191.555 125.985 177.195 139.827 170.606 133.895Z" fill="#FFE882"/>
<path d="M189.406 123.41C189.663 124.188 187.586 124.071 185.284 124.767C182.983 125.463 181.328 126.709 181.072 125.931C180.816 125.153 182.473 123.958 184.775 123.262C187.076 122.566 189.149 122.633 189.406 123.41Z" fill="#FFCF33"/>
<path d="M157.109 58.5375C157.444 59.2871 155.038 59.4053 152.819 60.315C150.601 61.2248 149.41 62.5826 149.075 61.833C148.739 61.0834 150.266 59.7378 152.484 58.828C154.703 57.9177 156.774 57.7872 157.109 58.5375Z" fill="#FFCF33"/>
<path d="M146.031 61.2757C145.566 62.1332 144.713 60.3402 142.174 59.0766C139.636 57.813 136.373 57.558 136.839 56.6999C137.304 55.8425 139.74 56.1711 142.279 57.4347C144.817 58.6982 146.497 60.4183 146.031 61.2757Z" fill="#D6B23C"/>
<path d="M98.9809 68.7157C98.5153 69.5732 97.6624 67.7802 95.1237 66.5166C92.5849 65.253 89.3223 64.998 89.7885 64.1399C90.2547 63.2818 92.6895 63.6111 95.2283 64.8747C97.7664 66.1382 99.447 67.8576 98.9809 68.7157Z" fill="#D6B23C"/>
<path d="M123.546 174.677C123.08 175.535 122.227 173.741 119.689 172.478C117.15 171.214 113.887 170.959 114.353 170.101C114.819 169.243 117.254 169.572 119.793 170.836C122.331 172.099 124.011 173.819 123.546 174.677Z" fill="#D6B23C"/>
<path d="M115.434 62.5948C115.363 63.4109 113.619 62.4314 111.23 62.1602C108.841 61.8897 106.711 62.4301 106.783 61.6146C106.855 60.7985 108.85 60.3569 111.239 60.6274C113.628 60.8979 115.507 61.7786 115.434 62.5948Z" fill="#FFCF33"/>
<path d="M223.954 94.0092C224.226 94.9402 222.213 96.2942 219.459 97.0335C216.705 97.7728 214.25 97.6172 213.977 96.6861C213.705 95.7551 216.683 95.7557 219.438 95.0164C222.193 94.2771 223.681 93.0781 223.954 94.0092Z" fill="#D6B23C"/>
<path d="M212.93 84.6643C212.465 85.5224 210.029 85.1931 207.49 83.9296C204.952 82.666 203.272 80.9459 203.738 80.0885C204.203 79.2304 205.714 81.0124 208.252 82.276C210.79 83.5396 213.396 83.8062 212.93 84.6643Z" fill="#D6B23C"/>
<path d="M132.419 58.2495C132.675 59.0269 130.192 59.3955 127.89 60.0916C125.589 60.7876 124.341 61.5482 124.084 60.7702C123.828 59.9921 125.485 58.7976 127.787 58.1016C130.089 57.4056 132.162 57.4714 132.419 58.2495Z" fill="#FFCF33"/>
<path d="M149.095 138.177C149.23 142.88 136.169 148.636 130.609 143.27C129.745 142.435 129.425 141.212 129.709 140.068C129.711 140.059 129.713 140.049 129.716 140.039C130.503 136.927 132.564 130.311 135.985 130.311C137.784 130.311 139.29 131.301 140.432 132.484C142.123 134.229 143.042 136.387 143.042 136.387C143.042 136.387 148.955 133.076 149.095 138.177Z" fill="#874217"/>
<path d="M134.611 140.358C132.356 140.513 130.797 140.358 129.716 140.041C130.504 136.929 132.565 130.312 135.985 130.312C137.784 130.312 139.29 131.303 140.433 132.486C140.679 136.019 139.104 140.04 134.611 140.358Z" fill="#9E5729"/>
<path d="M88.2133 78.6634C88.2133 78.6634 75.8372 82.4703 71.4131 76.6825C71.4131 76.6825 72.4319 75.4551 74.0997 74.2284C75.9605 72.8389 78.6316 71.4488 81.581 71.7445C83.5884 71.944 85.0089 72.8976 86.0051 74.0359C87.7885 76.0537 88.2133 78.6634 88.2133 78.6634Z" fill="#874217"/>
<path d="M86.0055 74.0359C83.6043 78.3458 76.8719 75.603 74.1001 74.2284C75.9609 72.8389 78.632 71.4488 81.5814 71.7445C83.5888 71.944 85.0093 72.8976 86.0055 74.0359Z" fill="#AD7434"/>
<path d="M233.397 110.802C233.397 110.802 220.644 108.393 219.701 101.277C219.701 101.277 221.213 100.676 223.294 100.375C225.625 100.022 228.664 100.045 231.095 101.672C232.75 102.777 233.511 104.271 233.806 105.729C234.346 108.322 233.397 110.802 233.397 110.802Z" fill="#874217"/>
<path d="M233.806 105.729C229.525 108.386 225.023 102.864 223.293 100.376C225.624 100.023 228.664 100.046 231.095 101.672C232.75 102.778 233.51 104.271 233.806 105.729Z" fill="#AD7434"/>
<path d="M82.681 83.351C82.0437 82.6007 83.3267 80.592 85.5458 78.8629C87.7656 77.1345 90.081 76.3416 90.7183 77.0912C91.3555 77.8415 89.0266 78.493 86.8068 80.2221C84.5877 81.9512 83.3176 84.1012 82.681 83.351Z" fill="#FFCF33"/>
<path d="M67.5153 102.944C67.3191 103.089 67.1079 103.213 66.8684 103.322C66.8245 103.336 66.7812 103.358 66.7451 103.38C62.5489 105.213 48.3468 93.6282 44.609 95.0538C43.3293 95.5484 42.5803 95.4393 42.4273 95.0538C42.1148 94.3119 43.9621 92.5305 48.3978 91.8758C52.8774 91.2069 61.335 94.3268 66.4907 96.4788C67.6613 96.9734 68.4251 97.8896 68.7595 98.9078C69.2315 100.348 68.839 101.991 67.5153 102.944Z" fill="#B5C225"/>
<path d="M67.5153 102.944C67.319 103.089 67.1079 103.213 66.8683 103.322C66.8244 103.336 66.7811 103.358 66.745 103.38C62.5488 105.213 48.3467 93.6282 44.609 95.0539C43.3292 95.5484 42.5803 95.4393 42.4272 95.0539C43.4016 94.4431 44.9654 93.8393 47.1684 93.5049C50.2082 93.0613 54.6078 95.5923 59.3637 98.4061C61.6326 99.744 66.0393 103.358 68.3372 99.3585C68.4973 99.0893 68.6355 98.944 68.7588 98.9078C69.2315 100.348 68.8389 101.991 67.5153 102.944Z" fill="#A7B322"/>
<path d="M68.2185 100.645C68.2185 100.645 72.5968 101.689 73.2832 101.295C73.9701 100.9 73.996 102.695 73.1172 102.871C72.2385 103.047 68.9695 101.346 68.4445 101.647C67.9196 101.949 66.7684 99.1208 68.2185 100.645Z" fill="#A7B322"/>
<path d="M123.721 78.7003C123.721 79.8147 125.45 80.718 127.584 80.718C129.718 80.718 131.447 79.8147 131.447 78.7003C131.447 77.5859 129.717 76.6826 127.584 76.6826C125.45 76.6826 123.721 77.5859 123.721 78.7003Z" fill="#AD7434"/>
<path d="M159.035 85.7628C157.969 82.785 156.189 80.1739 153.861 77.9883C145.715 70.3217 130.84 67.8287 116.16 72.6338C103.728 76.7021 89.2672 89.1306 83.5582 100.187C81.9318 103.328 81.4837 106.486 81.6632 109.22C67.6122 115.97 51.0592 117.626 46.3245 117.975C45.0222 117.548 41.4452 116.572 39.5625 119.764C39.3772 120.077 39.2571 120.383 39.1828 120.683C38.7651 121.932 38.3777 124.175 40.2527 125.615C42.9658 127.697 43.3732 127.625 43.3732 127.625C43.3732 127.625 40.4761 134.456 44.354 135.103C47.6527 135.653 49.7705 133.597 51.2671 131.094C62.6696 118.506 86.1958 119.541 86.1958 119.541C86.1325 120.762 89.2485 121.146 89.2569 120.999C98.517 129.492 117.104 126.655 133.601 121.251C152.464 115.079 163.858 99.1875 159.035 85.7628Z" fill="#E8D890"/>
<path d="M43.5943 115.724C43.3392 115.724 38.3275 113.515 36.0335 117.593C33.7401 121.671 40.7908 124.474 40.7908 124.474C40.7908 124.474 38.5819 131.61 42.1499 132.63C45.7178 133.649 48.5162 129.255 48.5162 129.255L43.5943 115.724Z" fill="#FFEFD9"/>
<path d="M134.609 117.123C114.976 124.005 88.1931 124.915 81.4988 111.505C80.7576 110.02 80.1171 107.979 79.924 105.636C79.6767 102.775 80.0783 99.4559 81.7151 96.1294C87.4596 84.4203 102.345 71.0847 115.285 66.5527C130.564 61.2008 146.206 63.4923 154.907 71.3501C157.393 73.5899 159.316 76.2881 160.497 79.3854C165.84 93.3499 154.243 110.248 134.609 117.123Z" fill="#874217"/>
<path d="M122.003 104.809C104.681 106.183 84.1144 115.643 79.924 105.636C79.6767 102.775 80.0783 99.4559 81.7151 96.1294C87.4596 84.4203 102.345 71.0847 115.285 66.5527C130.564 61.2008 146.206 63.4923 154.907 71.3501C158.046 76.7097 156.51 82.9772 152.206 88.8134C147.042 95.8157 141.503 103.261 122.003 104.809Z" fill="#9E5729"/>
<path d="M104.32 75.8317C104.32 75.8317 102.514 77.8913 107.491 78.5415C112.468 79.1911 118.571 75.1821 126.941 74.7489C135.31 74.3156 139.156 69.3343 132.37 67.8183C125.583 66.3016 112.689 69.1174 104.32 75.8317Z" fill="#AD7434"/>
<path d="M89.3471 106.303C89.3471 107.077 88.396 107.705 87.2229 107.705C86.0497 107.705 85.0986 107.077 85.0986 106.303C85.0986 105.528 86.0497 104.9 87.2229 104.9C88.396 104.9 89.3471 105.528 89.3471 106.303Z" fill="#874217"/>
<path d="M106.912 83.1604C106.912 83.9352 105.961 84.5628 104.787 84.5628C103.614 84.5628 102.663 83.9346 102.663 83.1604C102.663 82.3863 103.614 81.7581 104.787 81.7581C105.961 81.7574 106.912 82.3856 106.912 83.1604Z" fill="#874217"/>
<path d="M142.39 95.0932C142.728 95.7905 142.145 96.77 141.089 97.2814C140.033 97.7928 138.903 97.6417 138.566 96.9443C138.228 96.247 138.81 95.2676 139.867 94.7562C140.923 94.2455 142.052 94.3959 142.39 95.0932Z" fill="#874217"/>
<path d="M92.5864 108.238C92.5864 108.575 92.9867 108.849 93.4807 108.849C93.9746 108.849 94.3749 108.575 94.3749 108.238C94.3749 107.9 93.9746 107.626 93.4807 107.626C92.9867 107.626 92.5864 107.9 92.5864 108.238Z" fill="#874217"/>
<path d="M109.639 81.4708C109.639 81.8085 110.039 82.0823 110.533 82.0823C111.027 82.0823 111.427 81.8085 111.427 81.4708C111.427 81.1331 111.027 80.8594 110.533 80.8594C110.039 80.8587 109.639 81.1325 109.639 81.4708Z" fill="#874217"/>
<path d="M90.6064 105.913C90.8885 105.913 91.1171 105.708 91.1171 105.455C91.1171 105.202 90.8885 104.996 90.6064 104.996C90.3244 104.996 90.0957 105.202 90.0957 105.455C90.0957 105.708 90.3244 105.913 90.6064 105.913Z" fill="#874217"/>
<path d="M82.6219 102.305C82.6219 102.609 82.2932 102.856 81.8871 102.856C81.4816 102.856 81.1523 102.609 81.1523 102.305C81.1523 102.001 81.481 101.754 81.8871 101.754C82.2926 101.754 82.6219 102.001 82.6219 102.305Z" fill="#874217"/>
<path d="M102.593 79.2175C102.593 79.5216 102.264 79.7676 101.858 79.7676C101.453 79.7676 101.124 79.521 101.124 79.2175C101.124 78.9134 101.452 78.6667 101.858 78.6667C102.264 78.6667 102.593 78.9134 102.593 79.2175Z" fill="#874217"/>
<path d="M134.682 100.531C134.682 100.836 134.31 101.082 133.852 101.082C133.393 101.082 133.021 100.836 133.021 100.531C133.021 100.227 133.393 99.9807 133.852 99.9807C134.31 99.9807 134.682 100.227 134.682 100.531Z" fill="#874217"/>
<path d="M136.024 99.0331C136.024 98.8814 136.31 98.7581 136.662 98.7581C137.015 98.7581 137.301 98.8814 137.301 99.0331C137.301 99.1855 137.015 99.3082 136.662 99.3082C136.31 99.3082 136.024 99.1848 136.024 99.0331Z" fill="#874217"/>
<path d="M138.685 71.8439C138.685 72.1648 138.277 72.4243 137.775 72.4243C137.273 72.4243 136.865 72.1641 136.865 71.8439C136.865 71.5236 137.273 71.2634 137.775 71.2634C138.277 71.2628 138.685 71.523 138.685 71.8439Z" fill="#AD7434"/>
<path d="M100.065 81.1325C100.065 81.4534 99.6572 81.7129 99.1549 81.7129C98.6525 81.7129 98.2451 81.4527 98.2451 81.1325C98.2451 80.8116 98.6525 80.552 99.1549 80.552C99.6572 80.552 100.065 80.8116 100.065 81.1325Z" fill="#AD7434"/>
<path d="M105.126 80.2485C105.628 80.2485 106.035 79.9887 106.035 79.6681C106.035 79.3475 105.628 79.0876 105.126 79.0876C104.623 79.0876 104.216 79.3475 104.216 79.6681C104.216 79.9887 104.623 80.2485 105.126 80.2485Z" fill="#AD7434"/>
<path d="M134.945 74.118C134.945 73.9308 135.262 73.7791 135.652 73.7791C136.043 73.7791 136.36 73.9308 136.36 74.118C136.36 74.3053 136.043 74.457 135.652 74.457C135.262 74.4563 134.945 74.3053 134.945 74.118Z" fill="#AD7434"/>
<path d="M84.8963 116.354C84.8963 116.354 53.2341 121.714 48.5168 129.254C46.6638 132.204 44.116 130.474 42.1318 127.391C39.0513 122.608 37.3294 114.566 41.6915 115.689C41.6915 115.689 62.715 114.344 79.924 105.636C79.924 105.636 84.2241 106.294 84.8575 113.272C84.9344 114.189 84.9576 115.209 84.8963 116.354Z" fill="#F5E1C4"/>
<path d="M84.8577 113.272C77.4073 114.462 49.1652 119.356 44.417 125.89C43.7223 126.844 42.9423 127.309 42.1313 127.391C39.0509 122.608 37.3289 114.565 41.691 115.689C41.691 115.689 62.7145 114.343 79.9235 105.635C79.9235 105.635 84.2243 106.294 84.8577 113.272Z" fill="#FFEFD9"/>
<path d="M42.1199 117.489C41.3987 117.628 41.4872 118.689 42.2213 118.723C42.5467 118.737 42.9212 118.737 43.3519 118.718C46.5447 118.573 79.8953 109.586 80.3518 108.276C80.7424 107.152 64.008 113.27 42.1199 117.489Z" fill="white"/>
<path d="M46.9073 123.794C46.9073 123.794 44.5287 127.107 42.4896 124.134C42.4896 124.134 35.6088 122.265 36.0336 117.593C36.0336 117.593 33.9946 121.586 36.8833 123.709C39.7714 125.833 40.1962 125.748 40.1962 125.748C40.1962 125.748 37.3082 132.969 41.3855 133.563C45.4629 134.158 47.757 131.015 49.2859 127.787C50.8155 124.559 46.9073 123.794 46.9073 123.794Z" fill="#F5E1C4"/>
<path d="M196.769 146.925C193.816 152.299 176.087 160.364 163.15 165.716C157.987 166.501 152.649 167.091 147.166 167.476C145.035 164.4 142.032 160.335 141.327 158.83C140.134 156.284 195.1 126.575 195.776 126.234C196.46 125.899 201.532 138.257 196.769 146.925Z" fill="#E8D890"/>
<path d="M204.548 143.983C203.844 154.32 197.775 164.096 187.554 169.403C172.174 177.383 153.062 172.283 144.133 158.065L148.717 155.353C148.885 155.618 149.053 155.883 149.227 156.141C156.865 167.447 172.419 171.385 184.984 164.864C189.297 162.623 192.726 159.427 195.134 155.702C200.099 148.025 200.751 138.082 195.935 129.578C195.709 129.178 195.47 128.784 195.224 128.397C195.147 128.268 195.063 128.138 194.979 128.009L199.563 125.291C199.944 125.885 200.319 126.492 200.674 127.118C203.708 132.477 204.935 138.314 204.548 143.983Z" fill="#FFD447"/>
<path d="M195.134 155.702C192.726 159.427 189.297 162.623 184.984 164.864C172.42 171.385 156.866 167.447 149.227 156.141C149.053 155.883 148.885 155.618 148.717 155.353L150.913 154.055L157.711 150.039L168.72 143.531L174.97 139.831L192.778 129.307L194.979 128.009C195.063 128.138 195.147 128.268 195.225 128.397C195.47 128.784 195.709 129.178 195.935 129.578C200.752 138.082 200.1 148.025 195.134 155.702Z" fill="#FFE882"/>
<path d="M196.264 154.934C193.533 159.789 189.297 163.915 184.132 166.594C171.561 173.116 156.833 167.524 149.227 156.141C149.053 155.883 148.885 155.618 148.717 155.353L150.913 154.055L157.711 150.039L168.72 143.531L174.97 139.831L192.778 129.307L194.979 128.009C195.063 128.138 195.147 128.268 195.225 128.397C195.464 128.784 195.696 129.184 195.935 129.578C201.145 138.036 200.533 147.373 196.264 154.934Z" fill="#FFF5C7"/>
<path d="M194.902 152.926C194.773 153.184 194.644 153.436 194.502 153.687C193.753 155.063 192.836 156.361 191.758 157.555C190.073 159.421 188 161.042 185.521 162.327C180.194 165.09 173.899 165.845 167.991 164.819C167.578 164.748 167.165 164.67 166.758 164.58C160.243 163.166 154.335 159.557 150.913 154.056L157.712 150.039L168.721 143.531L174.971 139.831L192.778 129.307C193.088 129.772 193.385 130.256 193.669 130.753C197.768 137.998 198.189 146.269 194.902 152.926Z" fill="#FFD64F"/>
<path d="M175.229 143.764C175.125 143.925 175.015 144.08 174.886 144.229C174.596 144.571 174.228 144.868 173.795 145.094C173.311 145.346 172.788 145.481 172.271 145.513C172.039 145.526 171.813 145.52 171.593 145.494C170.444 145.358 169.379 144.713 168.785 143.66C168.765 143.622 168.733 143.576 168.72 143.531L174.97 139.832C175.086 139.974 175.19 140.129 175.287 140.29C175.919 141.42 175.855 142.731 175.229 143.764Z" fill="#FFF5C7"/>
<path d="M167.853 166.106C167.821 166.451 166.418 165.907 166.418 165.907L171.835 144.518L172.52 144.677C172.52 144.677 168.726 156.792 167.853 166.106Z" fill="#FFF5C7"/>
<path d="M194.907 153.835C179.842 148.556 173.556 143.245 173.556 143.245C173.556 143.245 173.754 142.528 173.88 142.646C179.615 148.02 194.123 151.557 195.231 153.237C195.325 153.379 195.072 153.893 194.907 153.835Z" fill="#FFF5C7"/>
<path d="M149.796 166.426C150.069 167.357 148.056 168.711 145.302 169.451C142.547 170.19 140.092 170.034 139.82 169.103C139.547 168.172 142.08 167.981 144.835 167.242C147.59 166.503 149.524 165.495 149.796 166.426Z" fill="#D6B23C"/>
<path d="M73.4195 82.7396C72.5091 83.158 72.3961 80.7683 71.1584 78.298C69.9213 75.8283 68.0282 74.2135 68.9386 73.7951C69.849 73.3767 71.5903 75.04 72.8274 77.5103C74.0652 79.98 74.3299 82.3212 73.4195 82.7396Z" fill="#FFCF33"/>
<path d="M172.843 82.1302C172.128 81.5472 173.039 78.743 177.177 75.689C181.356 72.5982 191.598 71.1984 197.987 70.6012C201.493 70.2796 203.916 73.7404 202.513 76.5981C202.392 76.848 201.987 77.4084 201.959 77.4523C198.702 81.5723 178.072 77.495 175.058 80.9538C174.027 82.1379 173.21 82.4356 172.843 82.1302Z" fill="#A7B322"/>
<path d="M172.922 81.1848C172.777 80.7774 173.886 79.5093 175.623 77.6382C180.067 72.8512 191.554 72.8157 197.939 72.2249C199.875 72.0441 200.687 72.0093 201.102 72.8925C201.407 73.5408 201.31 74.3085 200.948 74.9264C200.671 75.399 200.373 75.8975 200.357 75.9226C197.1 80.0426 178.147 76.1551 175.134 79.6133C174.103 80.7981 173.289 81.4909 172.922 81.1848Z" fill="#B5C225"/>
<path d="M202.763 73.8249C202.763 73.8249 205.701 74.3143 205.612 72.1133C205.575 71.2048 207.089 73.1463 206.293 73.7991C205.498 74.4512 203.12 74.1917 202.75 74.7812C202.382 75.37 200.472 73.0637 202.763 73.8249Z" fill="#A7B322"/>
<path d="M195.121 73.0599C195.121 73.0599 186.677 73.5506 186.726 73.9929C186.775 74.4346 193.698 74.0911 195.416 74.1401C197.134 74.1892 200.767 73.6004 200.08 72.9618C199.393 72.3239 195.121 73.0599 195.121 73.0599Z" fill="#C8D629"/>
<path d="M179.067 75.8096C178.92 75.8154 175.679 77.8719 176.318 77.97C176.956 78.0682 180.343 75.7605 179.067 75.8096Z" fill="#C8D629"/>
<path d="M122.514 156.05C122.197 156.893 119.14 157.022 114.7 154.325C110.209 151.602 105.226 142.837 102.388 137.274C100.836 134.22 103.357 130.86 106.64 131.157C106.927 131.181 107.215 131.235 107.513 131.321C107.564 131.339 107.616 131.356 107.669 131.366C112.839 132.907 116.146 152.905 120.584 154.451C122.103 154.979 122.682 155.615 122.514 156.05Z" fill="#A7B322"/>
<path d="M122.513 156.05C121.161 155.847 119.295 155.201 117.088 153.866C112.591 151.136 109.229 143.044 106.398 137.484C105.252 135.236 104.692 132.151 106.64 131.157C106.926 131.181 107.214 131.236 107.512 131.322C107.564 131.34 107.615 131.357 107.668 131.367C112.838 132.908 116.145 152.905 120.584 154.451C122.103 154.979 122.682 155.615 122.513 156.05Z" fill="#B5C225"/>
<path d="M104.182 132.555C104.182 132.555 101.148 128.488 100.226 128.314C99.3045 128.14 100.713 126.631 101.63 127.127C102.548 127.623 104.078 131.425 104.783 131.558C105.488 131.691 104.249 134.88 104.182 132.555Z" fill="#A7B322"/>
<path d="M110.593 137.504C111.372 139.729 111.71 141.635 111.347 141.762C110.985 141.89 109.348 138.271 108.568 136.046C107.79 133.821 108.164 133.833 108.526 133.706C108.889 133.579 109.814 135.28 110.593 137.504Z" fill="#C8D629"/>
<path d="M113.658 144.592C114.011 145.475 114.128 146.26 113.917 146.343C113.707 146.427 113.25 145.78 112.897 144.897C112.544 144.015 112.428 143.23 112.638 143.146C112.848 143.062 113.304 143.709 113.658 144.592Z" fill="#C8D629"/>
<path d="M64.4606 96.6414C66.1929 97.3716 67.4642 98.2775 67.3008 98.6662C67.1375 99.0543 65.2108 97.6422 63.4785 96.9119C61.7462 96.1823 60.8642 96.4109 61.0275 96.0228C61.1915 95.6341 62.7282 95.9111 64.4606 96.6414Z" fill="#D4E32B"/>
<path d="M59.9058 95.3372C59.8541 95.5019 59.4693 95.529 59.0471 95.3966C58.6241 95.2642 58.3233 95.0234 58.3749 94.8588C58.4266 94.6941 58.8107 94.667 59.2336 94.7994C59.6566 94.9311 59.9574 95.1726 59.9058 95.3372Z" fill="#D4E32B"/>
<path d="M204.489 104.838L206.703 105.375C205.727 106.698 204.434 107.892 202.732 108.853C201.314 109.255 199.61 109.383 197.666 108.91L199.033 110.377C196.739 111.042 193.719 111.428 191.947 108.369C191.947 108.369 186.604 107.715 188.348 100.49L190.78 103.119C190.78 103.119 188.259 98.1865 189.336 93.1568C190.14 91.0687 191.5 89.235 193.652 87.965L193.876 90.8705C193.876 90.8705 194.547 87.9966 197.469 86.5342C197.477 86.5361 197.477 86.5361 197.478 86.529C198.47 86.3185 199.559 86.1887 200.76 86.1487L200.334 87.5039C200.334 87.5039 202.377 86.1054 207.702 86.7214C207.702 86.7214 207.708 86.7304 207.711 86.7466C207.787 87.1191 208.773 91.6659 208.302 94.6308L209.32 94.3512C209.502 96.7563 209.363 99.4352 208.494 101.949C207.65 103.172 206.384 104.234 204.489 104.838Z" fill="#858F1B"/>
<path d="M205.545 89.3674C205.403 89.6586 204.195 92.1212 202.413 95.2423C202.314 95.3999 202.222 95.5665 202.13 95.733C201.274 97.2032 200.306 98.7967 199.273 100.365C198.993 100.787 198.712 101.21 198.427 101.623L198.425 101.631C198.248 101.874 198.079 102.12 197.912 102.358C197.71 102.633 197.509 102.909 197.31 103.177C196.454 104.318 195.582 105.402 194.701 106.337C194.499 106.559 194.3 106.766 194.093 106.971C192.312 108.737 190.548 109.867 188.996 109.759L189.033 109.019C190.375 109.109 192.099 108.069 194.127 105.947C194.317 105.745 194.508 105.536 194.703 105.312C195.166 104.808 195.635 104.245 196.116 103.639C196.334 103.36 196.563 103.069 196.787 102.769C197.413 101.949 198.054 101.042 198.715 100.063C198.882 99.8246 199.044 99.5767 199.206 99.3294C199.302 99.1789 199.396 99.0356 199.5 98.8878C200.15 97.8902 200.78 96.903 201.383 95.9622C201.496 95.7782 201.607 95.6013 201.718 95.4244C203.838 92.0269 205.394 89.3351 205.413 89.2944L205.545 89.3674Z" fill="#A7B322"/>
<path d="M199.274 100.365C198.993 100.787 198.713 101.21 198.427 101.624C198.527 101.099 198.618 100.58 198.715 100.063C199.646 94.8027 200.255 90.0609 200.258 90.0164L200.406 90.0325C200.383 90.4167 200.158 94.2887 199.5 98.8872C199.426 99.3733 199.351 99.8653 199.274 100.365Z" fill="#A7B322"/>
<path d="M194.7 106.338C194.498 106.559 194.299 106.766 194.092 106.971C194.103 106.63 194.114 106.289 194.125 105.947C194.254 100.879 194.177 96.4902 194.174 96.4431H194.318C194.343 96.8247 194.682 100.679 194.702 105.313C194.701 105.649 194.704 105.994 194.7 106.338Z" fill="#A7B322"/>
<path d="M206.779 94.1493C206.523 94.2416 204.716 94.9073 202.131 95.7331C201.888 95.8061 201.635 95.8842 201.382 95.9623C201.495 95.7783 201.606 95.6014 201.717 95.4245C201.959 95.3586 202.191 95.2979 202.413 95.243C204.966 94.5386 206.7 94.0292 206.728 94.0137L206.779 94.1493Z" fill="#A7B322"/>
<path d="M206.151 99.3215C205.785 99.4991 201.971 101.367 197.31 103.177C196.916 103.332 196.516 103.485 196.116 103.639C196.334 103.361 196.563 103.07 196.787 102.77C197.166 102.634 197.539 102.496 197.911 102.358C202.392 100.714 206.044 99.2163 206.091 99.1904L206.151 99.3215Z" fill="#A7B322"/>
<path d="M178.587 99.8071L177.503 97.8623C179.196 97.7119 181.001 97.8746 182.904 98.4822C184.179 99.2454 185.434 100.393 186.385 102.101L186.599 100.167C188.674 101.394 191.022 103.325 189.843 106.579C189.843 106.579 192.959 110.858 186.151 114.265L186.549 110.812C186.549 110.812 184.419 115.818 179.773 118.289C177.602 119.057 175.253 119.26 172.805 118.526L174.914 116.487C174.914 116.487 172.222 117.86 169.102 116.694C169.099 116.688 169.099 116.688 169.091 116.691C168.256 116.111 167.415 115.41 166.569 114.568L167.913 113.999C167.913 113.999 165.439 113.427 162.306 109.186C162.306 109.186 162.309 109.176 162.32 109.163C162.557 108.867 165.428 105.219 168.056 103.644L167.148 103.09C168.896 101.405 171.076 99.7748 173.623 98.7785C175.146 98.6016 176.832 98.8295 178.587 99.8071Z" fill="#858F1B"/>
<path d="M165.83 109.037C166.152 108.952 168.889 108.233 172.526 107.504C172.716 107.473 172.908 107.432 173.1 107.391C174.825 107.058 176.722 106.729 178.643 106.461C179.163 106.391 179.682 106.32 180.198 106.26L180.205 106.257C180.514 106.227 180.82 106.191 181.12 106.157C181.47 106.124 181.821 106.092 182.165 106.063C183.634 105.943 185.069 105.873 186.395 105.904C186.705 105.907 187.001 105.918 187.301 105.934C189.884 106.078 191.959 106.622 192.928 107.813L192.327 108.263C191.486 107.236 189.508 106.664 186.481 106.571C186.195 106.565 185.902 106.561 185.596 106.565C184.89 106.557 184.133 106.581 183.335 106.626C182.97 106.648 182.589 106.67 182.203 106.703C181.14 106.78 179.999 106.904 178.788 107.059C178.489 107.092 178.186 107.135 177.884 107.179C177.702 107.206 177.526 107.231 177.341 107.252C176.124 107.428 174.928 107.61 173.787 107.783C173.567 107.82 173.354 107.855 173.14 107.888C169.057 108.553 165.907 109.167 165.863 109.18L165.83 109.037Z" fill="#A7B322"/>
<path d="M178.644 106.461C179.163 106.391 179.682 106.32 180.198 106.26C179.722 106.526 179.256 106.796 178.788 107.06C174.062 109.786 169.958 112.409 169.921 112.435L169.833 112.318C170.148 112.086 173.314 109.748 177.34 107.253C177.767 106.992 178.202 106.728 178.644 106.461Z" fill="#A7B322"/>
<path d="M186.394 105.904C186.704 105.907 187.001 105.918 187.3 105.934C187.027 106.146 186.754 106.359 186.481 106.571C182.449 109.752 179.085 112.642 179.051 112.675L178.953 112.571C179.233 112.306 182.003 109.571 185.596 106.565C185.859 106.349 186.125 106.123 186.394 105.904Z" fill="#A7B322"/>
<path d="M168.714 105.058C168.96 105.184 170.704 106.058 173.101 107.391C173.322 107.52 173.555 107.651 173.786 107.783C173.566 107.821 173.353 107.855 173.14 107.888C172.925 107.757 172.721 107.629 172.527 107.503C170.247 106.115 168.674 105.193 168.643 105.183L168.714 105.058Z" fill="#A7B322"/>
<path d="M173.166 102.17C173.553 102.321 177.594 103.867 182.164 106.063C182.552 106.246 182.943 106.436 183.334 106.626C182.969 106.649 182.587 106.67 182.202 106.703C181.838 106.516 181.479 106.337 181.119 106.157C176.799 103.984 173.157 102.316 173.104 102.299L173.166 102.17Z" fill="#A7B322"/>
<path d="M191.606 95.2404L192.67 94.0679C193.234 95.1274 193.61 96.3361 193.701 97.7159C193.513 98.7264 193.052 99.8169 192.117 100.845L193.525 100.516C193.231 102.157 192.519 104.145 189.927 104.168C189.927 104.168 187.783 107.221 183.559 103.637L186.079 103.059C186.079 103.059 182.006 102.89 179.021 100.479C177.896 99.2591 177.117 97.7869 176.966 96.0236L178.961 96.8966C178.961 96.8966 177.274 95.4858 177.241 93.1827C177.245 93.1788 177.245 93.1788 177.241 93.175C177.419 92.4938 177.682 91.779 178.04 91.0281L178.801 91.7609C178.801 91.7609 178.529 90.0202 180.643 86.9656C180.643 86.9656 180.65 86.9656 180.663 86.9688C180.934 87.0515 184.259 88.0277 186.071 89.3481L186.212 88.6262C187.863 89.3507 189.592 90.3682 190.978 91.7764C191.515 92.7198 191.813 93.8665 191.606 95.2404Z" fill="#A7B322"/>
<path d="M181.702 89.2112C181.849 89.3991 183.094 90.9977 184.588 93.1775C184.661 93.2924 184.742 93.4074 184.823 93.5216C185.522 94.5579 186.267 95.7066 186.974 96.8869C187.164 97.2058 187.354 97.5254 187.536 97.8444L187.54 97.8483C187.644 98.0413 187.753 98.2311 187.857 98.4164C187.974 98.636 188.092 98.8549 188.206 99.0705C188.688 99.9925 189.125 100.905 189.463 101.771C189.544 101.973 189.618 102.167 189.688 102.365C190.287 104.074 190.47 105.548 189.901 106.465L189.423 106.184C189.913 105.392 189.776 103.972 189.021 101.989C188.948 101.802 188.871 101.612 188.786 101.414C188.6 100.955 188.378 100.471 188.13 99.9648C188.016 99.7343 187.897 99.4921 187.77 99.2507C187.428 98.5811 187.032 97.8715 186.596 97.1251C186.492 96.9392 186.379 96.7539 186.267 96.5685C186.198 96.4575 186.133 96.3497 186.069 96.2347C185.616 95.489 185.165 94.7587 184.735 94.0614C184.649 93.9278 184.568 93.798 184.486 93.6682C182.916 91.185 181.632 89.2932 181.612 89.2674L181.702 89.2112Z" fill="#858F1B"/>
<path d="M186.974 96.8863C187.164 97.2053 187.354 97.5249 187.536 97.8439C187.221 97.6004 186.906 97.3641 186.595 97.1239C183.41 94.7227 180.467 92.6998 180.438 92.6818L180.497 92.5972C180.744 92.7444 183.235 94.2301 186.069 96.2336C186.366 96.4479 186.668 96.6655 186.974 96.8863Z" fill="#858F1B"/>
<path d="M189.464 101.771C189.545 101.972 189.619 102.167 189.689 102.365C189.467 102.24 189.244 102.114 189.022 101.988C185.707 100.146 182.777 98.6671 182.745 98.6529L182.791 98.5645C183.052 98.6813 185.712 99.8138 188.786 101.414C189.008 101.532 189.238 101.649 189.464 101.771Z" fill="#858F1B"/>
<path d="M185.263 90.1163C185.242 90.3055 185.104 91.6472 184.823 93.5216C184.793 93.6959 184.764 93.8786 184.735 94.0607C184.649 93.927 184.568 93.7973 184.486 93.6675C184.52 93.4964 184.554 93.333 184.589 93.1774C184.94 91.3651 185.158 90.1234 185.157 90.1008L185.263 90.1163Z" fill="#858F1B"/>
<path d="M188.486 92.3007C188.486 92.5874 188.501 95.5788 188.206 99.0699C188.183 99.365 188.157 99.6645 188.13 99.9635C188.016 99.733 187.897 99.4909 187.77 99.2494C187.802 98.9692 187.829 98.6922 187.858 98.4158C188.205 95.0932 188.382 92.3304 188.38 92.293L188.486 92.3007Z" fill="#858F1B"/>
<path d="M200.513 109.886L202.112 109.589C201.424 108.598 200.507 107.688 199.293 106.928C198.278 106.582 197.054 106.422 195.651 106.684L196.65 105.684C195.007 105.113 192.839 104.715 191.531 106.844C191.531 106.844 187.68 107.099 188.857 112.367L190.634 110.573C190.634 110.573 188.768 114.02 189.487 117.681C190.043 119.215 191 120.589 192.535 121.589L192.728 119.508C192.728 119.508 193.178 121.602 195.264 122.771C195.27 122.77 195.27 122.77 195.271 122.775C195.981 122.966 196.764 123.103 197.627 123.18L197.336 122.188C197.336 122.188 198.79 123.276 202.627 123.047C202.627 123.047 202.631 123.04 202.634 123.029C202.693 122.764 203.451 119.533 203.145 117.381L203.874 117.623C204.031 115.9 203.961 113.968 203.363 112.125C202.768 111.212 201.87 110.397 200.513 109.886Z" fill="#A7B322"/>
<path d="M201.103 121.057C201.004 120.842 200.163 119.022 198.914 116.706C198.846 116.588 198.781 116.465 198.716 116.342C198.117 115.25 197.438 114.065 196.712 112.895C196.515 112.58 196.318 112.265 196.117 111.956L196.116 111.951C195.991 111.769 195.872 111.586 195.754 111.407C195.612 111.201 195.47 110.995 195.33 110.794C194.727 109.938 194.112 109.124 193.489 108.416C193.346 108.249 193.205 108.092 193.058 107.936C191.797 106.594 190.54 105.711 189.422 105.727L189.441 106.26C190.407 106.249 191.635 107.067 193.071 108.674C193.205 108.827 193.34 108.985 193.479 109.153C193.805 109.534 194.137 109.958 194.477 110.414C194.63 110.623 194.793 110.841 194.95 111.066C195.392 111.68 195.843 112.36 196.307 113.09C196.425 113.268 196.539 113.453 196.653 113.637C196.72 113.75 196.786 113.856 196.859 113.967C197.316 114.711 197.758 115.446 198.181 116.147C198.26 116.284 198.339 116.416 198.416 116.547C199.904 119.077 200.994 121.075 201.007 121.105L201.103 121.057Z" fill="#858F1B"/>
<path d="M196.713 112.895C196.516 112.58 196.318 112.265 196.118 111.956C196.184 112.337 196.243 112.714 196.308 113.09C196.92 116.911 197.306 120.346 197.308 120.378L197.414 120.372C197.402 120.095 197.282 117.301 196.86 113.967C196.812 113.614 196.763 113.257 196.713 112.895Z" fill="#858F1B"/>
<path d="M193.489 108.415C193.345 108.248 193.205 108.091 193.058 107.936C193.063 108.182 193.067 108.428 193.071 108.674C193.108 112.324 193.005 115.478 193.002 115.512L193.105 115.518C193.129 115.244 193.414 112.485 193.479 109.153C193.481 108.91 193.487 108.663 193.489 108.415Z" fill="#858F1B"/>
<path d="M202.043 117.667C201.86 117.59 200.567 117.039 198.717 116.341C198.542 116.279 198.361 116.213 198.181 116.146C198.26 116.283 198.338 116.415 198.416 116.547C198.589 116.604 198.755 116.657 198.914 116.706C200.743 117.314 201.984 117.75 202.004 117.763L202.043 117.667Z" fill="#858F1B"/>
<path d="M201.648 113.921C201.386 113.778 198.664 112.282 195.331 110.793C195.05 110.665 194.763 110.539 194.477 110.413C194.631 110.622 194.793 110.84 194.95 111.065C195.222 111.178 195.488 111.292 195.755 111.407C198.96 112.769 201.57 113.992 201.603 114.013L201.648 113.921Z" fill="#858F1B"/>
<path d="M91.7928 146.347C93.9965 157.524 82.0071 166.976 69.9357 166.976C57.8643 166.976 48.0786 157.74 48.0786 146.347C48.0786 134.955 53.8373 122.542 58.5584 129.329C59.5179 130.708 67.1419 126.086 71.3943 129.624C75.646 133.163 77.3745 140.314 81.4267 138.329C86.1994 135.99 89.675 135.607 91.7928 146.347Z" fill="#E8D890"/>
<path d="M54.5544 127.499C54.5544 127.499 54.5647 130.216 58.1198 130.723C61.6748 131.23 63.8636 130.917 67.5 135.095C71.8796 140.126 68.9528 153.325 57.2178 157.8C45.4828 162.274 54.2929 128.349 54.5544 127.499Z" fill="#CC0000"/>
<path d="M57.217 157.8C51.9283 160.253 39.8434 161.625 32.9825 146.426C32.8088 146.041 32.65 145.658 32.506 145.276L32.5054 145.276C32.0334 144.025 31.7151 142.792 31.5343 141.586C30.5148 134.804 33.7999 128.852 38.0245 125.141C38.0852 125.089 38.1472 125.035 38.2079 124.983C38.6127 124.636 39.0259 124.309 39.4437 124.004C39.5179 123.952 39.5909 123.899 39.6639 123.846C39.7375 123.794 39.8098 123.743 39.8827 123.693C43.2854 121.354 46.958 120.459 49.3721 121.651C53.1234 123.504 54.8493 126.493 55.6422 128.778C56.1458 130.229 57.3913 131.261 58.8744 131.525C59.0616 131.558 59.254 131.58 59.4484 131.588C60.3969 131.628 61.4635 131.817 62.5037 132.302C62.5037 132.302 62.5043 132.302 62.5056 132.303C63.7795 132.897 65.0147 133.937 65.9419 135.693C66.0122 135.825 66.0807 135.961 66.1465 136.103C66.6172 137.1 66.951 138.118 67.1615 139.144C68.7473 146.826 63.4522 154.908 57.217 157.8Z" fill="#E60000"/>
<path d="M59.0141 132.807C57.562 132.799 56.3927 132.281 55.0904 130.985C53.6525 129.554 52.6782 126.211 49.5306 124.657C43.8849 121.87 30.2277 132.976 35.7224 145.842C40.7753 157.674 52.1933 157.509 56.6297 155.451C62.5582 152.701 67.9895 144.065 64.6372 136.952C63.242 133.99 61.3857 132.819 59.0141 132.807Z" fill="#E63A3A"/>
<path d="M49.681 135.53C49.681 135.53 51.9273 133.363 49.4228 129.947C46.9182 126.531 36.215 134.514 38.0784 142.885C39.9418 151.257 42.9487 149.968 44.2833 148.739C45.6178 147.51 52.6847 139.963 50.8077 138.739C49.9638 138.189 46.3281 144.869 45.4229 143.779C44.5176 142.689 43.2521 136.37 49.681 135.53Z" fill="#E60000"/>
<path d="M61.5664 139.13C59.4273 136.983 55.9161 137.088 53.8197 139.276C50.2756 142.975 45.8412 149.99 47.9925 152.695C51.0207 156.502 58.1695 152.956 61.8311 146.33C63.3058 143.661 62.8099 140.378 61.5664 139.13Z" fill="#E60000"/>
<path d="M57.2271 137.444C57.2271 137.444 54.3733 139.269 54.9434 141.89C55.5129 144.512 52.0779 147.284 51.6072 145.006C51.1365 142.727 50.2468 141.832 49.4856 143.315C48.7237 144.796 52.8153 135.409 57.2271 137.444Z" fill="#E63A3A"/>
<path d="M46.6107 134.987C46.6107 134.987 49.4226 133.555 47.924 131.792C46.4254 130.028 39.0397 133.952 39.1772 139.68C39.3205 145.659 43.0092 146.418 43.7511 145.621C44.493 144.824 41.5287 140.201 43.3585 137.653C45.1883 135.105 46.6107 134.987 46.6107 134.987Z" fill="#CC0000"/>
<path d="M44.1693 144.702C43.667 145.048 43.0581 145.035 42.8095 144.674C42.561 144.312 42.7669 143.739 43.2699 143.393C43.7722 143.048 44.3817 143.061 44.6297 143.422C44.8776 143.783 44.6716 144.356 44.1693 144.702Z" fill="#FFC95F"/>
<path d="M41.5615 138.617C41.0243 138.328 40.757 137.781 40.9642 137.394C41.1715 137.008 41.7758 136.929 42.313 137.218C42.8502 137.506 43.1175 138.053 42.9103 138.44C42.703 138.826 42.0993 138.905 41.5615 138.617Z" fill="#FFC95F"/>
<path d="M42.6893 141.404C42.2302 141.468 41.8215 141.252 41.7757 140.922C41.7298 140.592 42.0649 140.273 42.5234 140.209C42.9824 140.145 43.3911 140.361 43.437 140.691C43.4828 141.021 43.1484 141.34 42.6893 141.404Z" fill="#FFC95F"/>
<path d="M45.1464 134.15C44.8668 133.781 44.8558 133.318 45.1212 133.118C45.3866 132.917 45.8288 133.053 46.1084 133.422C46.388 133.792 46.399 134.254 46.1336 134.455C45.8676 134.656 45.4259 134.519 45.1464 134.15Z" fill="#FFC95F"/>
<path d="M44.0153 137.173C43.6427 136.898 43.5007 136.458 43.6989 136.19C43.8971 135.922 44.3594 135.928 44.732 136.203C45.1045 136.478 45.2466 136.918 45.0483 137.186C44.8508 137.454 44.3878 137.448 44.0153 137.173Z" fill="#FFC95F"/>
<path d="M47.5804 133.546C47.4442 133.18 47.5462 132.805 47.809 132.706C48.0717 132.608 48.3952 132.825 48.5321 133.191C48.6683 133.556 48.5663 133.932 48.3035 134.03C48.0408 134.128 47.7166 133.911 47.5804 133.546Z" fill="#FFC95F"/>
<path d="M51.4333 148.173C51.4333 148.173 48.2831 148.353 48.9462 150.57C49.6093 152.787 57.7537 152.581 59.5145 145.017C60.8704 139.193 59.3272 139.155 58.3277 139.586C57.3283 140.017 58.1831 145.442 55.4836 147.039C52.7834 148.636 51.4333 148.173 51.4333 148.173Z" fill="#CC0000"/>
<path d="M57.5749 140.259C58.1741 140.144 58.7261 140.401 58.8088 140.832C58.8908 141.263 58.4717 141.705 57.8725 141.819C57.2734 141.933 56.7213 141.677 56.6387 141.246C56.5567 140.815 56.9757 140.373 57.5749 140.259Z" fill="#FFC95F"/>
<path d="M57.515 146.879C57.8908 147.359 57.916 147.968 57.5706 148.238C57.2251 148.509 56.6402 148.338 56.2644 147.858C55.8886 147.377 55.8634 146.769 56.2089 146.499C56.5543 146.229 57.1393 146.399 57.515 146.879Z" fill="#FFC95F"/>
<path d="M57.6046 143.873C58.0501 143.999 58.3381 144.361 58.247 144.682C58.1566 145.002 57.7215 145.16 57.2759 145.034C56.8304 144.908 56.5425 144.546 56.6335 144.225C56.7239 143.905 57.1591 143.747 57.6046 143.873Z" fill="#FFC95F"/>
<path d="M52.4372 149.527C52.5444 149.978 52.3688 150.406 52.0446 150.483C51.7205 150.56 51.3712 150.257 51.2634 149.807C51.1562 149.356 51.3318 148.928 51.6559 148.851C51.9807 148.774 52.33 149.077 52.4372 149.527Z" fill="#FFC95F"/>
<path d="M54.6884 147.215C54.9189 147.616 54.8718 148.077 54.5825 148.242C54.2933 148.408 53.8723 148.216 53.6418 147.814C53.4113 147.413 53.4584 146.952 53.7477 146.786C54.0363 146.621 54.4579 146.812 54.6884 147.215Z" fill="#FFC95F"/>
<path d="M49.9656 149.102C49.9437 149.491 49.699 149.795 49.4188 149.779C49.1385 149.762 48.9293 149.434 48.9513 149.044C48.9732 148.654 49.2179 148.352 49.4982 148.368C49.7784 148.384 49.9876 148.713 49.9656 149.102Z" fill="#FFC95F"/>
<path d="M57.6448 147.794C57.4285 147.943 57.0701 147.797 56.8435 147.468C56.6175 147.139 56.6091 146.752 56.8254 146.603C57.0417 146.455 57.4001 146.6 57.6267 146.93C57.8527 147.258 57.8604 147.646 57.6448 147.794Z" fill="#FFC95F"/>
<path d="M57.5949 140.485C57.327 140.669 57.2172 140.976 57.3509 141.17C57.4845 141.363 57.81 141.372 58.0779 141.187C58.3459 141.002 58.4556 140.696 58.322 140.502C58.1883 140.308 57.8629 140.3 57.5949 140.485Z" fill="#FFC95F"/>
<path d="M42.2312 138.303C42.0239 138.446 41.6947 138.326 41.4951 138.036C41.2956 137.746 41.3021 137.395 41.5093 137.253C41.7166 137.11 42.0459 137.23 42.2454 137.52C42.4449 137.81 42.4385 138.16 42.2312 138.303Z" fill="#FFC95F"/>
<path d="M44.8234 137.11C44.6994 137.195 44.4753 137.085 44.3236 136.865C44.1719 136.644 44.1493 136.395 44.2739 136.31C44.3979 136.225 44.6219 136.334 44.7736 136.555C44.9254 136.776 44.9473 137.025 44.8234 137.11Z" fill="#FFC95F"/>
<path d="M44.134 144.212C43.835 144.418 43.4819 144.424 43.3456 144.226C43.2094 144.028 43.3417 143.701 43.6407 143.495C43.9396 143.289 44.2928 143.284 44.429 143.481C44.5653 143.679 44.4329 144.006 44.134 144.212Z" fill="#FFC95F"/>
<path d="M46.1688 134.123C46.0126 134.231 45.7698 134.15 45.6278 133.943C45.4851 133.736 45.4967 133.481 45.653 133.373C45.8092 133.265 46.052 133.346 46.194 133.553C46.3367 133.76 46.3251 134.015 46.1688 134.123Z" fill="#FFC95F"/>
<path d="M48.4693 133.523C48.3544 133.602 48.1529 133.51 48.0206 133.317C47.8876 133.124 47.8734 132.903 47.9883 132.823C48.1032 132.745 48.3047 132.837 48.437 133.03C48.57 133.223 48.5842 133.444 48.4693 133.523Z" fill="#FFC95F"/>
<path d="M52.644 127.443C52.644 127.443 54.255 129.839 53.9244 131.526C53.5938 133.213 54.6534 133.727 55.4224 133.046C56.1913 132.365 54.3066 134.492 55.9505 134.485C57.5944 134.479 58.6629 132.936 60.804 133.071C60.804 133.071 57.9269 133.339 55.6645 131.473C55.0989 131.006 54.9484 130.554 54.4797 129.78C53.5376 128.223 52.644 127.443 52.644 127.443Z" fill="#FF4040"/>
<path d="M51.7224 134.701C51.5681 134.823 45.9114 137.369 47.7354 138.425C49.5594 139.481 51.233 136.551 52.2841 137.772C53.3353 138.993 50.7558 143.628 52.525 143.235C54.2941 142.841 55.8372 138.638 54.3851 136.873C52.933 135.108 54.7822 134.306 53.6 133.863C52.4178 133.42 52.3235 134.226 51.7224 134.701Z" fill="#FF4040"/>
<path d="M36.2499 132.999C36.2499 132.999 35.4757 132.151 34.925 134.499C34.3736 136.848 31.4506 146.193 40.6882 153.069C49.9264 159.945 57.821 156.032 59.3538 153.936C60.8866 151.84 55.0788 157.951 47.1655 155.46C39.2522 152.969 35.2594 144.088 34.9482 140.57C34.637 137.05 36.2499 132.999 36.2499 132.999Z" fill="#FF4040"/>
<path d="M73.822 137.477C73.822 137.477 73.8323 140.194 77.3873 140.701C80.9424 141.208 83.1312 140.895 86.7676 145.073C91.1472 150.105 88.2203 163.303 76.4853 167.778C64.7504 172.252 73.5605 138.328 73.822 137.477Z" fill="#CC0000"/>
<path d="M76.4845 167.778C71.1959 170.231 59.1109 171.602 52.2501 156.403C52.0764 156.019 51.9176 155.635 51.7736 155.254L51.7729 155.253C51.301 154.002 50.9826 152.77 50.8019 151.564C49.7823 144.782 53.0675 138.83 57.2921 135.119C57.3528 135.066 57.4148 135.013 57.4755 134.96C57.8803 134.614 58.2935 134.286 58.7113 133.982C58.7855 133.929 58.8585 133.876 58.9314 133.823C59.0051 133.772 59.0774 133.72 59.1503 133.67C62.553 131.331 66.2255 130.436 68.6397 131.628C72.391 133.481 74.1169 136.471 74.9098 138.756C75.4134 140.207 76.6589 141.239 78.142 141.502C78.3292 141.537 78.5216 141.558 78.716 141.566C79.6645 141.606 80.7311 141.794 81.7713 142.279C81.7713 142.279 81.7719 142.28 81.7732 142.28C83.0471 142.874 84.2823 143.915 85.2094 145.671C85.2798 145.803 85.3483 145.939 85.4141 146.081C85.8848 147.078 86.2186 148.097 86.4291 149.122C88.0149 156.805 82.7197 164.886 76.4845 167.778Z" fill="#E60000"/>
<path d="M78.2817 142.785C76.8296 142.777 75.6603 142.258 74.358 140.963C72.9201 139.532 71.9458 136.189 68.7982 134.634C63.1524 131.847 49.4953 142.954 54.9899 155.82C60.0429 167.651 71.4609 167.487 75.8973 165.429C81.8258 162.679 87.2571 154.043 83.9048 146.93C82.5095 143.968 80.6532 142.798 78.2817 142.785Z" fill="#E63A3A"/>
<path d="M68.9487 145.508C68.9487 145.508 71.195 143.341 68.6905 139.925C66.1859 136.509 55.4821 144.491 57.3461 152.863C59.2101 161.235 62.2164 159.946 63.551 158.717C64.8856 157.487 71.9524 149.941 70.0754 148.717C69.2315 148.167 65.5958 154.847 64.6906 153.757C63.7853 152.667 62.5198 146.348 68.9487 145.508Z" fill="#E60000"/>
<path d="M80.8336 149.108C78.6945 146.96 75.1834 147.066 73.0863 149.254C69.5422 152.953 65.1078 159.968 67.2591 162.673C70.2873 166.479 77.4361 162.933 81.0977 156.308C82.573 153.639 82.0765 150.356 80.8336 149.108Z" fill="#E60000"/>
<path d="M76.4945 147.421C76.4945 147.421 73.6407 149.247 74.2108 151.868C74.7803 154.489 71.3454 157.262 70.8747 154.983C70.404 152.705 69.5143 151.81 68.753 153.292C67.9918 154.774 72.0834 145.387 76.4945 147.421Z" fill="#E63A3A"/>
<path d="M65.8783 144.964C65.8783 144.964 68.6902 143.532 67.1916 141.769C65.693 140.006 58.3072 143.929 58.4448 149.658C58.5881 155.636 62.2768 156.395 63.0187 155.599C63.7605 154.802 60.7963 150.178 62.6261 147.63C64.4559 145.083 65.8783 144.964 65.8783 144.964Z" fill="#CC0000"/>
<path d="M63.4369 154.68C62.9339 155.025 62.3257 155.012 62.0771 154.652C61.8285 154.29 62.0345 153.717 62.5375 153.371C63.0398 153.026 63.6487 153.039 63.8972 153.4C64.1452 153.761 63.9392 154.335 63.4369 154.68Z" fill="#FFC95F"/>
<path d="M60.8291 148.595C60.2919 148.306 60.0245 147.759 60.2318 147.372C60.4391 146.986 61.0434 146.907 61.5806 147.195C62.1178 147.484 62.3851 148.031 62.1779 148.418C61.9699 148.804 61.3662 148.883 60.8291 148.595Z" fill="#FFC95F"/>
<path d="M61.9564 151.382C61.4973 151.446 61.0886 151.229 61.0428 150.9C60.9969 150.57 61.332 150.251 61.7905 150.187C62.2489 150.123 62.6582 150.339 62.7041 150.669C62.7499 151 62.4148 151.319 61.9564 151.382Z" fill="#FFC95F"/>
<path d="M64.4139 144.128C64.1344 143.758 64.1234 143.296 64.3888 143.095C64.6541 142.894 65.0964 143.03 65.376 143.399C65.6556 143.769 65.6665 144.231 65.4012 144.432C65.1352 144.634 64.6929 144.497 64.4139 144.128Z" fill="#FFC95F"/>
<path d="M63.2826 147.151C62.91 146.876 62.7686 146.435 62.9662 146.167C63.1644 145.899 63.6267 145.905 63.9993 146.18C64.3718 146.455 64.5132 146.896 64.3156 147.164C64.1174 147.432 63.6551 147.426 63.2826 147.151Z" fill="#FFC95F"/>
<path d="M66.848 143.523C66.7117 143.158 66.8137 142.782 67.0765 142.684C67.3393 142.586 67.6628 142.803 67.7997 143.168C67.9359 143.534 67.8339 143.909 67.5711 144.008C67.3083 144.106 66.9842 143.889 66.848 143.523Z" fill="#FFC95F"/>
<path d="M70.6999 158.15C70.6999 158.15 67.5497 158.331 68.2128 160.548C68.8759 162.765 77.0203 162.559 78.7811 154.995C80.137 149.17 78.5938 149.133 77.5943 149.563C76.5948 149.994 77.4497 155.42 74.7502 157.017C72.0506 158.614 70.6999 158.15 70.6999 158.15Z" fill="#CC0000"/>
<path d="M76.8425 150.236C77.4416 150.122 77.9937 150.378 78.0763 150.81C78.159 151.241 77.7393 151.683 77.1401 151.797C76.5409 151.911 75.9889 151.655 75.9062 151.224C75.8242 150.793 76.2433 150.351 76.8425 150.236Z" fill="#FFC95F"/>
<path d="M76.7826 156.856C77.1584 157.337 77.1836 157.945 76.8382 158.216C76.4927 158.486 75.9078 158.316 75.532 157.835C75.1562 157.355 75.131 156.747 75.4764 156.476C75.8219 156.206 76.4068 156.376 76.7826 156.856Z" fill="#FFC95F"/>
<path d="M76.8712 153.851C77.3167 153.977 77.6047 154.339 77.5136 154.66C77.4226 154.981 76.9881 155.138 76.5426 155.012C76.097 154.886 75.8091 154.524 75.9001 154.203C75.9911 153.882 76.4257 153.725 76.8712 153.851Z" fill="#FFC95F"/>
<path d="M71.7048 159.505C71.812 159.956 71.6363 160.384 71.3122 160.461C70.9881 160.538 70.6388 160.235 70.531 159.785C70.4238 159.334 70.5994 158.906 70.9235 158.829C71.2477 158.752 71.5976 159.054 71.7048 159.505Z" fill="#FFC95F"/>
<path d="M73.9555 157.192C74.186 157.594 74.1389 158.054 73.8496 158.219C73.561 158.385 73.1394 158.194 72.9089 157.792C72.6784 157.39 72.7255 156.93 73.0148 156.765C73.304 156.599 73.725 156.791 73.9555 157.192Z" fill="#FFC95F"/>
<path d="M69.2332 159.079C69.2113 159.469 68.9665 159.772 68.6863 159.756C68.4061 159.74 68.1969 159.412 68.2189 159.022C68.2408 158.633 68.4855 158.329 68.7657 158.345C69.046 158.361 69.2552 158.69 69.2332 159.079Z" fill="#FFC95F"/>
<path d="M76.9114 157.772C76.6951 157.921 76.3367 157.775 76.1101 157.445C75.8841 157.117 75.8757 156.729 76.092 156.581C76.3083 156.432 76.6667 156.578 76.8933 156.908C77.1199 157.237 77.1277 157.624 76.9114 157.772Z" fill="#FFC95F"/>
<path d="M76.8615 150.462C76.5936 150.647 76.4838 150.954 76.6175 151.147C76.7511 151.341 77.0766 151.35 77.3445 151.165C77.6125 150.98 77.7222 150.674 77.5886 150.48C77.4556 150.286 77.1301 150.278 76.8615 150.462Z" fill="#FFC95F"/>
<path d="M61.4988 148.281C61.2915 148.423 60.9622 148.303 60.7627 148.013C60.5632 147.724 60.5697 147.373 60.7769 147.23C60.9842 147.088 61.3135 147.208 61.513 147.498C61.7119 147.788 61.706 148.139 61.4988 148.281Z" fill="#FFC95F"/>
<path d="M64.0906 147.088C63.966 147.173 63.7425 147.064 63.5908 146.843C63.4391 146.622 63.4165 146.373 63.5405 146.288C63.6651 146.203 63.8885 146.313 64.0409 146.534C64.1926 146.754 64.2152 147.002 64.0906 147.088Z" fill="#FFC95F"/>
<path d="M63.4015 154.19C63.1026 154.396 62.7494 154.402 62.6132 154.204C62.477 154.006 62.6093 153.679 62.9083 153.473C63.2072 153.267 63.5604 153.261 63.6966 153.459C63.8329 153.657 63.7005 153.985 63.4015 154.19Z" fill="#FFC95F"/>
<path d="M65.4366 144.101C65.2803 144.208 65.0376 144.128 64.8955 143.92C64.7535 143.713 64.7644 143.458 64.9213 143.35C65.0776 143.242 65.3204 143.323 65.4624 143.53C65.6045 143.738 65.5928 143.993 65.4366 144.101Z" fill="#FFC95F"/>
<path d="M67.7369 143.501C67.622 143.58 67.4205 143.487 67.2882 143.294C67.1552 143.101 67.1409 142.88 67.2559 142.801C67.3708 142.722 67.5722 142.814 67.7053 143.007C67.837 143.201 67.8518 143.421 67.7369 143.501Z" fill="#FFC95F"/>
<path d="M71.9116 137.42C71.9116 137.42 73.5226 139.816 73.192 141.504C72.8614 143.191 73.9209 143.705 74.6899 143.024C75.4583 142.342 73.5742 144.469 75.2181 144.463C76.8619 144.456 77.9305 142.914 80.0716 143.049C80.0716 143.049 77.1945 143.317 74.932 141.451C74.3664 140.984 74.216 140.531 73.7473 139.757C72.8052 138.2 71.9116 137.42 71.9116 137.42Z" fill="#FF4040"/>
<path d="M70.99 144.678C70.8357 144.8 65.179 147.347 67.003 148.403C68.827 149.458 70.5006 146.529 71.5517 147.75C72.6029 148.971 70.0234 153.605 71.7925 153.212C73.5617 152.818 75.1048 148.616 73.6527 146.85C72.2006 145.085 74.0498 144.285 72.8676 143.841C71.6854 143.397 71.5905 144.204 70.99 144.678Z" fill="#FF4040"/>
<path d="M55.5164 142.977C55.5164 142.977 54.7423 142.128 54.1915 144.476C53.6401 146.825 50.7172 156.17 59.9554 163.046C69.1936 169.921 77.0882 166.009 78.621 163.913C80.1538 161.817 74.346 167.928 66.4327 165.437C58.5194 162.946 54.5273 154.066 54.2154 150.547C53.9036 147.028 55.5164 142.977 55.5164 142.977Z" fill="#FF4040"/>
<path d="M90.4062 126.67C90.8272 127.364 91.2333 128.12 91.6014 128.921C93.6649 133.416 93.8599 137.745 92.0281 138.586C90.197 139.427 87.041 136.457 84.9775 131.962C84.5242 130.975 84.162 130.001 83.894 129.066C84.2259 130.621 84.8038 132.343 85.6089 134.097C88.0302 139.37 91.5994 142.908 93.5784 141.999C95.5503 141.094 95.1945 136.081 92.7733 130.808C92.0611 129.256 91.2475 127.854 90.4062 126.67Z" fill="#E32B12"/>
<path d="M88.9232 127.528C87.8114 126.105 86.6821 125.347 85.9383 125.689C85.5593 125.863 85.3353 126.3 85.2494 126.927C84.9169 125.407 84.9666 124.312 85.4715 124.08C86.1869 123.751 87.5873 125.212 88.9232 127.528Z" fill="#A11E0D"/>
<path d="M90.4061 126.67C88.3929 123.838 86.2028 122.269 84.8133 122.907C83.4942 123.512 83.2108 125.93 83.8881 129.033C83.8862 129.048 83.8913 129.059 83.8939 129.065C84.1619 130.001 84.5241 130.974 84.9773 131.961C87.0409 136.457 90.1969 139.426 92.028 138.585C93.8591 137.745 93.6648 133.416 91.6012 128.92C91.2332 128.12 90.8271 127.364 90.4061 126.67ZM91.1209 136.386C90.2227 136.799 88.227 134.376 86.6683 130.98C85.9923 129.508 85.5113 128.09 85.2492 126.927C84.9166 125.406 84.9664 124.312 85.4713 124.079C86.1867 123.751 87.5878 125.211 88.923 127.527C89.2665 128.127 89.6029 128.785 89.9238 129.485C91.4824 132.881 92.019 135.974 91.1209 136.386Z" fill="#FF4242"/>
<path opacity="0.4" d="M204.548 143.983C203.108 148.315 200.177 152.112 196.264 154.934C195.896 155.205 195.522 155.457 195.134 155.702C194.069 156.393 192.939 157.013 191.757 157.555C188.109 159.227 183.938 160.176 179.516 160.176C175.797 160.176 172.258 159.505 169.056 158.297C168.836 158.22 168.623 158.136 168.41 158.046C164.039 156.277 160.333 153.487 157.711 150.039L168.72 143.531L174.97 139.831L192.778 129.307L194.979 128.009L199.564 125.291C199.944 125.885 200.319 126.492 200.674 127.118C203.709 132.477 204.936 138.314 204.548 143.983Z" fill="white"/>
</svg>
