<svg width="21" height="23" viewBox="0 0 21 23" fill="none" xmlns="http://www.w3.org/2000/svg">
<path d="M8.56333 12.1718C8.7675 12.6093 8.5785 13.1308 8.141 13.335C8.02083 13.391 7.89483 13.4167 7.77233 13.4167C7.44217 13.4167 7.12717 13.23 6.97783 12.9115C6.22883 11.3085 5.8345 9.36483 5.8345 7.29167C5.8345 6.80867 6.2265 6.41667 6.7095 6.41667C7.1925 6.41667 7.5845 6.80867 7.5845 7.29167C7.5845 9.086 7.931 10.8185 8.56333 12.1718ZM13.7083 6.41667C13.2253 6.41667 12.8333 6.80867 12.8333 7.29167C12.8333 9.086 12.4857 10.8185 11.8533 12.1718C11.6492 12.6093 11.8382 13.1308 12.2757 13.335C12.3958 13.391 12.5218 13.4167 12.6443 13.4167C12.9745 13.4167 13.2895 13.23 13.4388 12.9115C14.1878 11.3085 14.5822 9.36483 14.5822 7.29167C14.5822 6.80867 14.1902 6.41667 13.7072 6.41667H13.7083ZM20.4167 7.875C20.4167 9.18167 19.9477 10.4475 19.0948 11.4392C18.6328 11.9758 18.0833 12.8403 18.0833 13.9032V19.5417C18.0833 21.3115 16.6448 22.75 14.875 22.75H5.54167C3.77183 22.75 2.33333 21.3115 2.33333 19.5417V13.9032C2.33333 12.8403 1.78267 11.977 1.32183 11.4392C0.470166 10.4463 0 9.1805 0 7.875C0 5.1135 1.98917 2.835 4.68883 2.422C5.94067 0.898334 7.97183 0 10.2083 0C12.4448 0 14.476 0.898334 15.7278 2.422C18.4263 2.835 20.4167 5.1135 20.4167 7.875ZM16.3333 19.5417V18.0833H4.08333V19.5417C4.08333 20.3455 4.73783 21 5.54167 21H14.875C15.6788 21 16.3333 20.3455 16.3333 19.5417ZM18.6667 7.875C18.6667 5.89867 17.171 4.28283 15.1877 4.1195C14.9298 4.09733 14.6965 3.96433 14.546 3.7555C13.6663 2.51883 12.0038 1.75117 10.2083 1.75117C8.41283 1.75117 6.75033 2.51883 5.87067 3.7555C5.72017 3.9655 5.48683 4.0985 5.229 4.1195C3.24567 4.284 1.75 5.89867 1.75 7.875C1.75 8.77567 2.0615 9.6145 2.6495 10.2993C3.5875 11.3925 4.08333 12.6385 4.08333 13.9032V16.3333H16.3333V13.9032C16.3333 12.6385 16.8292 11.3913 17.7672 10.2993C18.3563 9.6145 18.6667 8.77567 18.6667 7.875Z" fill="#56C269"/>
</svg>
