<svg width="20" height="20" viewBox="0 0 20 20" fill="none" xmlns="http://www.w3.org/2000/svg">
<path d="M18.6875 15.95L12.0875 8.9375H12.775C13.5313 8.9375 14.2875 8.59375 14.8375 8.04375L17.9313 4.8125C18.2063 4.5375 18.2063 4.125 17.9313 3.85C17.6562 3.575 17.2437 3.575 16.9688 3.85L13.875 7.15C13.6 7.425 13.2562 7.63125 12.8438 7.63125H10.9187V5.6375C10.9187 5.225 11.0563 4.8125 11.3313 4.46875L14.425 1.16875C14.7 0.89375 14.7 0.48125 14.425 0.20625C14.15 -0.06875 13.7375 -0.06875 13.4625 0.20625L10.3688 3.50625C9.81875 4.05625 9.54375 4.8125 9.54375 5.6375V6.325L3.76875 0.20625C3.63125 0.06875 3.49375 3.58559e-08 3.2875 3.58559e-08C3.08125 3.58559e-08 2.875 0.06875 2.80625 0.20625L0.95 2.13125C0.88125 2.2 0.88125 2.26875 0.8125 2.3375C-0.21875 3.7125 0.0562503 5.84375 1.5 7.35625L4.86875 10.8625L0.675 15.2625C-0.15 16.0875 -0.21875 17.325 0.46875 18.0812L0.88125 18.5625C1.15625 18.9062 1.56875 19.0438 2.05 19.0438C2.6 19.0438 3.21875 18.7688 3.63125 18.2875L8.375 13.2687C9.0625 13.3375 9.68125 13.2688 10.2312 12.9937L15.8 18.8375C16.075 19.1125 16.4188 19.25 16.7625 19.25C17.1063 19.25 17.45 19.1125 17.725 18.8375L18.6188 17.875C19.1688 17.325 19.1688 16.5 18.6875 15.95ZM9.8875 11.55C9.13125 12.2375 7.75625 11.9625 6.79375 11L2.4625 6.4625C1.56875 5.43125 1.29375 3.91875 1.98125 3.09375C2.05 2.95625 3.21875 1.7875 3.2875 1.71875L17.6562 16.9125L16.7625 17.875L10.85 11.6187C10.7125 11.4812 10.5063 11.4125 10.3688 11.4125C10.2312 11.3438 10.025 11.4125 9.8875 11.55ZM2.05 17.6C1.9125 17.6 1.9125 17.5312 1.9125 17.5312L1.5 17.05C1.3625 16.9125 1.43125 16.5 1.70625 16.1562L5.83125 11.825C6.175 12.1688 6.51875 12.4438 6.93125 12.7188L2.66875 17.325C2.4625 17.5312 2.1875 17.6 2.05 17.6Z" fill="#FF8519"/>
</svg>
