<svg width="20" height="20" viewBox="0 0 20 20" fill="none" xmlns="http://www.w3.org/2000/svg">
<path d="M14.1667 2.91675H5.83335C3.33335 2.91675 1.66669 4.16675 1.66669 7.08342V12.9167C1.66669 15.8334 3.33335 17.0834 5.83335 17.0834H14.1667C16.6667 17.0834 18.3334 15.8334 18.3334 12.9167V7.08342C18.3334 4.16675 16.6667 2.91675 14.1667 2.91675ZM14.5584 7.99175L11.95 10.0751C11.4 10.5167 10.7 10.7334 10 10.7334C9.30002 10.7334 8.59169 10.5167 8.05002 10.0751L5.44169 7.99175C5.17502 7.77508 5.13335 7.37508 5.34169 7.10841C5.55835 6.84175 5.95002 6.79175 6.21669 7.00841L8.82502 9.09175C9.45835 9.60008 10.5334 9.60008 11.1667 9.09175L13.775 7.00841C14.0417 6.79175 14.4417 6.83341 14.65 7.10841C14.8667 7.37508 14.825 7.77508 14.5584 7.99175Z" fill="white"/>
</svg>
