<svg width="18" height="18" viewBox="0 0 18 18" fill="none" xmlns="http://www.w3.org/2000/svg">
<path d="M16.4995 4.875H11.9995" stroke="#56C269" stroke-width="1.5" stroke-miterlimit="10" stroke-linecap="round" stroke-linejoin="round"/>
<path d="M4.50049 4.875H1.50049" stroke="#56C269" stroke-width="1.5" stroke-miterlimit="10" stroke-linecap="round" stroke-linejoin="round"/>
<path d="M7.50049 7.5C8.95024 7.5 10.1255 6.32475 10.1255 4.875C10.1255 3.42525 8.95024 2.25 7.50049 2.25C6.05074 2.25 4.87549 3.42525 4.87549 4.875C4.87549 6.32475 6.05074 7.5 7.50049 7.5Z" stroke="#56C269" stroke-width="1.5" stroke-miterlimit="10" stroke-linecap="round" stroke-linejoin="round"/>
<path d="M16.5 13.125H13.5" stroke="#56C269" stroke-width="1.5" stroke-miterlimit="10" stroke-linecap="round" stroke-linejoin="round"/>
<path d="M6.00049 13.125H1.50049" stroke="#56C269" stroke-width="1.5" stroke-miterlimit="10" stroke-linecap="round" stroke-linejoin="round"/>
<path d="M10.8755 15.75C12.3252 15.75 13.5005 14.5747 13.5005 13.125C13.5005 11.6753 12.3252 10.5 10.8755 10.5C9.42574 10.5 8.25049 11.6753 8.25049 13.125C8.25049 14.5747 9.42574 15.75 10.8755 15.75Z" stroke="#56C269" stroke-width="1.5" stroke-miterlimit="10" stroke-linecap="round" stroke-linejoin="round"/>
</svg>
