<svg width="19" height="19" viewBox="0 0 19 19" fill="none" xmlns="http://www.w3.org/2000/svg">
<path d="M18.0381 9.40657C18.0381 8.64834 17.977 8.09503 17.8447 7.52124H9.24213V10.9435H14.2916C14.1899 11.794 13.6401 13.0748 12.4184 13.9355L12.4013 14.05L15.1213 16.1708L15.3097 16.1897C17.0404 14.581 18.0381 12.2141 18.0381 9.40657Z" fill="#4285F4"/>
<path d="M9.21918 18.4206C11.6973 18.4206 13.7777 17.6013 15.2973 16.1881L12.401 13.9351C11.626 14.4779 10.5857 14.8568 9.21918 14.8568C6.79201 14.8568 4.73199 13.2491 3.99764 11.0269L3.89001 11.036L1.05683 13.2378L1.01978 13.3412C2.5291 16.3519 5.62937 18.4206 9.21918 18.4206Z" fill="#34A853"/>
<path d="M4.01556 11.0164C3.81892 10.4452 3.70512 9.83315 3.70512 9.2008C3.70512 8.56837 3.81892 7.95641 4.00521 7.38523L4 7.26358L1.08878 5.0354L0.993526 5.08005C0.362236 6.32444 0 7.72184 0 9.2008C0 10.6798 0.362236 12.0771 0.993526 13.3215L4.01556 11.0164Z" fill="#FBBC05"/>
<path d="M9.22065 3.56372C10.9444 3.56372 12.1072 4.31128 12.7702 4.936L15.3611 2.39631C13.7699 0.91142 11.6992 0 9.22065 0C5.6302 0 2.52937 2.06859 1.01978 5.07931L3.98798 7.39373C4.73265 5.17151 6.79305 3.56372 9.22065 3.56372Z" fill="#EB4335"/>
</svg>
