<svg width="16" height="16" viewBox="0 0 16 16" fill="none" xmlns="http://www.w3.org/2000/svg">
<path d="M4.98669 12.2334L7.05336 13.8334C7.32003 14.1001 7.92003 14.2334 8.32003 14.2334H10.8534C11.6534 14.2334 12.52 13.6334 12.72 12.8334L14.32 7.96673C14.6534 7.03339 14.0534 6.23339 13.0534 6.23339H10.3867C9.98669 6.23339 9.65336 5.90006 9.72003 5.43339L10.0534 3.30006C10.1867 2.70006 9.78669 2.03339 9.18669 1.83339C8.65336 1.63339 7.98669 1.90006 7.72003 2.30006L4.98669 6.36673" stroke="white" stroke-width="1.3" stroke-miterlimit="10"/>
<path d="M1.58667 12.2333V5.70002C1.58667 4.76668 1.98667 4.43335 2.92 4.43335H3.58667C4.52 4.43335 4.92 4.76668 4.92 5.70002V12.2333C4.92 13.1667 4.52 13.5 3.58667 13.5H2.92C1.98667 13.5 1.58667 13.1667 1.58667 12.2333Z" stroke="white" stroke-width="1.3" stroke-linecap="round" stroke-linejoin="round"/>
</svg>
