<svg width="138" height="3" viewBox="0 0 138 3" fill="none" xmlns="http://www.w3.org/2000/svg">
<path d="M136.686 2.98476C135.912 3.02384 134.899 2.98205 134.128 2.9247C133.887 2.90691 134.009 2.8274 133.842 2.81154C133.516 2.78062 133.213 2.81962 132.891 2.78279C132.784 2.7702 132.917 2.64425 132.805 2.63393C132.191 2.57827 131.611 2.61035 130.99 2.58357C127.929 2.45148 124.92 2.4042 121.822 2.34682C120.8 2.328 119.558 2.2137 118.503 2.26369C118.38 2.26964 118.453 2.38019 118.43 2.3893C118.062 2.52879 118.185 2.30561 117.945 2.27596C116.992 2.15888 115.933 2.1487 115.016 2.19136C114.626 2.20984 115.017 2.42942 114.624 2.30617C114.597 2.29784 114.696 2.18045 114.589 2.16792C114.347 2.13976 113.886 2.16075 113.698 2.15144C113.336 2.13292 113.276 2.13411 112.934 2.13277C112.465 2.12992 111.908 2.07156 111.405 2.09816C111.298 2.10419 111.44 2.22453 111.269 2.24501C111.098 2.26546 110.645 2.25525 110.492 2.22688C110.339 2.1985 110.404 2.10391 110.377 2.08223C110.155 1.89924 109.631 2.15268 109.563 2.15895C108.334 2.26575 107.28 2.12137 106.126 2.12178C105.25 2.1224 104.313 2.17006 103.479 2.16353C102.486 2.15528 101.645 2.09006 100.68 2.10127C100.578 2.10232 100.697 2.24381 100.573 2.24538C99.2518 2.26184 97.9398 2.24642 96.6243 2.15089C96.4923 2.14119 96.6624 2.01696 96.5306 1.99983C95.7236 1.89774 94.4467 1.65247 93.9674 2.19337C93.4207 2.17225 92.7571 2.15043 92.2681 2.0414C91.9528 1.97122 92.259 1.83588 91.8717 1.89363C91.7843 1.9065 91.8979 2.02502 91.7669 2.03535C91.2153 2.07874 90.6127 2.04022 90.0671 2.10146C89.9561 2.11419 89.9864 2.22039 89.9549 2.23952C89.6907 2.3944 89.2507 2.13837 89.1548 2.11977C88.4244 1.98103 87.891 2.03563 87.2107 2.03224C87.0528 2.0314 87.2394 2.17405 87.0875 2.17836C86.2995 2.1988 85.4833 2.18654 84.7117 2.12324C84.5401 2.10882 84.6979 1.98731 84.6159 1.9742C84.2543 1.91787 84.1741 2.14738 83.8273 2.09779C83.7542 2.08763 83.7954 1.98361 83.782 1.97218C83.5733 1.79284 83.392 2.04696 83.3383 2.05257C82.6591 2.12922 82.225 1.86394 81.5689 1.9015C81.4904 1.90627 81.6674 2.03789 81.4468 2.04323C79.9769 2.07956 78.4223 2.0434 76.9674 1.93812C76.7412 1.92193 76.9027 1.82306 76.8884 1.81087C76.6564 1.62041 76.5063 1.8756 76.4326 1.88521C75.8506 1.95438 75.3071 1.74038 74.9117 2.04433C72.4473 1.93885 69.9942 2.10953 67.5501 1.83723C67.519 1.83408 67.5747 1.7084 67.5127 1.70265C66.7662 1.63208 66.9096 1.82741 66.4156 2.0663C66.2912 2.12628 65.9127 1.83787 65.8792 1.81672C65.7572 1.73882 65.8837 1.55185 65.8429 1.53676C65.5048 1.41828 65.5599 2.03662 65.1038 2.03682C65.0895 2.03579 65.1494 1.92197 65.1112 1.91066C64.9922 1.87513 64.8743 1.92036 64.7579 1.88118C64.4916 1.79052 64.3967 1.49007 63.9899 1.66493C63.9384 1.68763 64.017 2.03837 63.6098 2.0218C63.4475 2.0149 62.7289 2.02091 62.5274 1.99818C62.3263 1.97548 62.4644 1.86245 62.4501 1.85756C61.9081 1.7081 62.1136 1.64615 61.842 1.42488C61.5705 1.20444 61.6458 1.73021 61.5351 1.78889C61.4242 1.84741 61.0269 1.7241 60.9292 1.68123C60.8316 1.63834 60.9533 1.56652 60.8666 1.54225C60.2911 1.38369 60.614 1.80322 60.4244 1.88667C59.9773 2.08426 59.6292 1.69435 59.2199 1.65614C59.1092 1.64582 59.1995 1.73463 59.1009 1.74293C58.7104 1.77465 58.4755 1.65299 58.0312 1.76454C57.9585 1.78272 57.5994 2.01714 57.3669 1.84511C57.3339 1.8203 57.4275 1.72313 57.261 1.70137C57.0124 1.6687 56.5644 1.64747 56.2972 1.67994C56.0998 1.70397 56.326 1.86408 56.0776 1.81434C55.9673 1.79214 56.1718 1.69847 55.9644 1.66456C55.7582 1.63066 55.2308 1.63478 55.03 1.63801C54.8297 1.64132 54.9393 1.76277 54.9232 1.77095C54.8252 1.81782 54.4408 1.87638 54.4067 1.87623C52.693 1.89106 51.1127 1.68635 49.4441 1.7541C49.3132 1.75924 49.4004 1.88731 49.3804 1.88942C48.9321 1.94307 49.2856 1.60257 48.9724 1.4886C49.0177 1.74849 48.8328 1.70143 48.517 1.72993C48.3649 1.74388 48.4478 1.84451 48.4339 1.85481C48.2082 2.00765 48.0511 1.81023 48.0106 1.76985C47.8612 1.62129 47.6985 1.79682 47.5969 1.69752C47.4952 1.59896 47.7291 1.45285 47.4263 1.45472C47.3414 1.54776 47.5662 1.79087 47.3363 1.83027C46.4688 1.97931 44.8494 1.78856 44.1519 1.76875C43.4558 1.74895 43.2309 1.76612 42.8253 1.73249C42.0926 1.6717 42.3611 1.85208 41.9062 1.93464C41.4499 2.0172 41.6717 1.57339 41.6061 1.47798C41.5417 1.38261 41.4714 1.48078 41.3913 1.42836C41.3115 1.37595 41.4843 1.31108 41.2966 1.29139C41.1087 1.27173 40.5951 1.44139 40.5285 1.54115C40.3877 1.7525 40.6192 1.97431 40.1221 1.89637C40.0935 1.89175 40.1863 1.77505 40.0768 1.76326C39.2073 1.67342 38.3041 1.66785 37.4357 1.58839C37.3163 1.57728 37.4231 1.44746 37.3536 1.43953C36.6298 1.35649 36.8885 1.57539 36.4918 1.81855C36.5809 1.49495 36.3615 1.29697 35.8122 1.29506C35.482 1.29379 35.5388 1.43513 35.3253 1.53474C35.2612 1.56477 35.0275 1.46772 34.9852 1.53419C34.8456 1.75146 35.0657 1.99469 34.4993 1.89784C34.4744 1.89324 34.5536 1.7743 34.4677 1.7671C33.9127 1.71996 33.8463 1.94722 33.2464 1.97474C32.7762 1.99634 31.9398 1.85775 31.4044 1.83522C31.4157 1.47139 30.9099 1.5547 30.7048 1.80555C30.3573 1.79528 29.982 1.80946 29.6461 1.77479C29.5306 1.76297 29.6065 1.65763 29.5919 1.64625C29.3684 1.46771 29.2174 1.71176 29.1424 1.72132C28.3294 1.81433 27.6671 1.62936 26.8913 1.81013C26.8638 1.81664 26.8192 2.06936 26.6118 1.88484C26.5984 1.87212 26.8546 1.75713 26.4897 1.74824C26.1247 1.73933 25.4366 1.60385 24.9299 1.72096C24.8072 1.74915 24.4971 1.95431 24.2481 1.79402C24.215 1.77225 24.2513 1.69977 24.2034 1.65943C24.0486 1.53092 23.9641 1.78636 23.7823 1.56935C23.6003 1.35235 23.222 1.18983 22.711 1.33955C22.6947 1.3439 22.5737 1.54636 22.413 1.54316C22.1565 1.53788 21.7923 1.4957 21.5244 1.49702C21.3961 1.49772 21.4782 1.62344 21.456 1.62574C20.5936 1.69619 19.9798 1.58411 19.056 1.53547C18.8866 1.52631 18.3999 1.69774 18.0721 1.5622C17.7121 1.41383 18.082 0.796632 17.2545 0.943677C16.9208 1.00249 16.4982 1.78552 15.8984 1.37983C14.7352 1.48036 13.6595 1.27273 12.493 1.41627C12.4405 1.42263 12.2746 1.64117 12.1513 1.63819C11.9682 1.63335 11.8678 1.53121 11.737 1.52448C11.1892 1.49372 10.688 1.58111 10.1598 1.56751C9.95932 1.56258 10.0295 1.45696 9.79028 1.45106C9.55128 1.44526 9.39191 1.58433 9.06802 1.51716C8.82342 1.46596 8.57883 1.1817 8.25416 1.14857C8.24182 1.42896 8.01876 1.42319 7.62245 1.4972C7.54627 1.51156 7.62796 1.60915 7.59192 1.62098C7.44524 1.67128 7.30952 1.5904 7.17024 1.64515C7.13637 1.6583 7.13479 1.75406 7.10707 1.77021C6.87157 1.91123 6.48358 1.69584 6.41693 1.65833C6.16152 1.51591 6.04216 1.64045 5.84628 1.58436C5.65069 1.52828 5.94312 1.45817 5.71467 1.42414C5.24109 1.35375 4.63267 1.36922 4.1517 1.36482C3.95983 1.36365 4.0907 1.49147 4.06326 1.49427C3.66644 1.52669 3.26516 1.39073 3.04515 1.64533C2.77003 0.987019 2.80583 1.70919 2.23866 1.5774C2.19396 1.56674 2.13715 1.25543 2.30867 1.20973C2.4802 1.16407 2.74031 1.26138 2.97828 1.19013C3.03462 1.17342 3.35752 0.881696 3.40153 0.864025C3.74656 0.72592 3.79547 1.19113 3.81373 1.21668C4.02074 1.49243 4.41527 1.17816 4.51915 1.15644C4.99441 1.05694 5.39823 1.12237 5.79574 1.05134C6.05571 1.00544 6.08118 0.700706 6.28532 0.710034C6.96395 0.740864 7.20088 1.16597 7.84039 0.797375C7.97752 0.718761 7.84125 0.385698 8.33259 0.647595C8.36346 0.664106 8.7283 0.903694 8.93904 0.752148C8.96555 0.733041 8.96469 0.635974 8.99959 0.62782C9.23355 0.575075 9.38957 0.652405 9.64447 0.615369C9.89929 0.578333 10.2058 0.52312 10.4967 0.556043C10.6721 0.57573 10.8971 0.756579 10.9811 0.800854C11.2181 0.928402 11.4723 0.719277 11.6191 0.87373C11.7672 1.02896 11.4777 1.2647 11.866 1.365C11.8804 1.11281 11.9134 0.853971 11.9365 0.600354C12.7875 0.609234 13.6248 0.69078 14.4787 0.679639C14.5845 0.678006 14.4763 0.54243 14.5897 0.537184C15.0685 0.515645 15.4867 0.612293 15.9832 0.573805C16.3675 0.543494 16.789 0.399948 17.1908 0.363783C17.4363 0.652355 18.0327 0.554392 18.4658 0.580763C18.6176 0.589875 18.6074 0.666947 18.7154 0.692091C19.1225 0.785083 18.9317 0.530074 19.0433 0.489943C19.5222 0.318668 19.5632 0.895866 20.1278 0.881604C20.1577 0.881044 20.5233 0.573372 20.5737 0.554213C20.8936 0.429276 20.6266 0.661302 20.8269 0.684034C21.1925 0.725577 21.4466 0.799054 21.8755 0.708937C22.0006 0.682244 22.3007 0.490476 22.5436 0.638807C22.5755 0.658231 22.5579 0.759927 22.5836 0.765882C23.0491 0.865158 23.0614 0.545614 23.3274 0.437392C23.5935 0.329194 24.0045 0.54978 24.0881 0.613356C24.3069 0.777822 23.9205 0.683643 23.9086 0.699781C23.7694 0.891851 24.0691 0.858783 24.2982 0.875013C24.3313 1.18833 24.6516 1.16952 24.5356 0.890577C24.5224 0.860108 24.3441 0.889327 24.2982 0.875013C24.4992 0.567606 24.8512 0.528237 25.2399 0.815504C25.4219 0.950142 25.2499 1.10712 25.8027 1.0497C26.0536 1.02377 25.9566 0.808037 26.178 0.74922C26.6839 0.615024 27.3411 0.816268 27.8626 0.784559C28.0518 0.773048 27.8675 0.654956 27.9968 0.643019C28.3401 0.610972 28.6428 0.699578 28.9876 0.654189C29.0188 0.649926 28.9425 0.526309 29.0497 0.524734C29.8624 0.510377 30.5701 0.589555 31.4186 0.59175C31.8286 0.592755 32.5616 0.524576 32.9863 0.538284C33.7225 0.561311 34.628 0.741071 35.2568 0.697402C35.667 0.669449 35.577 0.545806 35.7527 0.461563C36.0918 0.298265 36.6921 0.590769 36.7729 0.636062C36.7754 0.637561 36.4225 0.666709 36.6108 0.730178C36.7203 0.862427 36.769 0.636636 36.7729 0.636062C36.826 0.665321 37.531 0.693389 37.671 0.669753C37.7471 0.656837 37.7045 0.539692 37.7442 0.535171C38.6869 0.430338 39.6313 0.400564 40.5875 0.455338C40.6043 0.457705 40.5789 0.588738 40.6185 0.592667C41.172 0.650927 41.5265 0.490632 41.983 0.395463C42.4395 0.300336 42.8014 0.332196 43.0717 0.557144C43.4161 0.528822 43.9102 0.628271 44.1945 0.688614C44.4789 0.748956 44.5186 0.493888 44.5436 0.488847C45.3239 0.327453 45.775 0.473449 46.5845 0.496171C46.9694 0.50741 47.7329 0.470413 48.1496 0.442521C48.479 0.420052 48.6774 0.479827 48.9808 0.441606C49.0219 0.436501 48.9804 0.322932 48.993 0.318559C49.3316 0.182681 49.1689 0.460318 49.2388 0.509904C49.4923 0.690222 49.6489 0.786259 50.0827 0.701432C50.1827 0.682005 50.4741 0.282246 50.6565 0.258867C50.8936 0.229205 50.8041 0.372495 51.0523 0.337786C51.0736 0.334946 51.0692 0.246547 51.2224 0.250444C51.9336 0.267375 52.709 0.318813 53.4481 0.309954C53.5491 0.309083 53.4196 0.168867 53.5655 0.165301C54.25 0.14868 55.0002 0.15387 55.667 0.2195C55.8311 0.236096 55.7283 0.334271 55.7639 0.363421C55.9826 0.539798 56.2928 0.283526 56.344 0.278643C57.5649 0.155491 58.4993 0.387414 59.7437 0.276995C59.8114 0.270513 60.3328 -0.00421545 60.5654 0.231402C60.5814 0.247078 60.8115 0.488139 61.015 0.323321C61.0276 0.31301 60.8843 0.188908 61.1345 0.201556C61.3848 0.214177 61.7876 0.131303 62.1316 0.267657C62.2405 0.310611 62.4979 0.551078 62.8228 0.359393C62.844 0.346011 63.3455 -0.0874149 63.5245 0.211627C63.5535 0.260853 63.5231 0.577308 63.9109 0.415057C63.985 0.383602 63.8505 0.313015 64.0457 0.268939C64.3447 0.201008 64.7409 0.285765 65.1085 0.144794C65.1726 0.119837 65.4455 -0.0949531 65.6644 0.0680733C65.6987 0.093606 65.6336 0.199255 65.7492 0.211078C66.2989 0.267793 66.8745 0.197124 67.4327 0.270221C67.6304 0.295906 67.5293 0.4667 67.7354 0.512469C67.9415 0.558223 68.3568 0.602236 68.5724 0.524188C68.7881 0.446105 68.5525 0.173901 68.8757 0.152119C70.2805 0.0575175 71.6722 0.2172 73.075 0.240559C73.283 0.244047 73.1106 0.146644 73.4172 0.144795C74.5476 0.137549 76.4992 0.0462228 77.4801 0.253193C78.2661 0.418965 77.277 0.54517 77.8776 0.612628C78.1674 0.644808 78.4809 0.328342 78.5509 0.318379C79.2343 0.217174 79.7093 0.357361 80.3244 0.314351C80.4515 0.305426 80.3269 0.177159 80.435 0.170979C80.8043 0.148735 81.1924 0.205988 81.5452 0.195516C81.7035 0.190523 81.6744 0.0925568 81.82 0.100118C82.1686 0.117081 82.4768 0.158262 82.8166 0.250081C82.8475 0.258448 82.6387 0.380313 82.8966 0.384846C83.3139 0.391836 83.832 0.482415 84.3121 0.388875C84.4546 0.360736 84.4602 0.136837 84.7665 0.291463C84.8307 0.323758 84.7487 0.592611 85.1055 0.36031C85.1655 0.321707 85.7647 0.00837671 86.0588 0.210348C86.1364 0.263504 86.3345 0.483508 86.5058 0.448933C86.529 0.443416 86.4359 0.323152 86.5779 0.311421C87.0782 0.272172 87.6026 0.285003 88.1167 0.247335C88.2539 0.237038 88.0495 0.112589 88.2541 0.101217C88.8167 0.0697616 89.519 0.101449 90.0692 0.140402C90.272 0.154999 90.1318 0.258089 90.1466 0.269308C90.3839 0.451782 90.5242 0.205483 90.603 0.191122C91.0929 0.105126 91.4659 0.220823 91.9175 0.190207C92.0421 0.182069 91.9537 0.0646313 91.9785 0.0541596C92.2358 -0.0481562 92.0442 0.162747 92.207 0.185995C92.6632 0.251822 93.1718 0.242384 93.6331 0.227377C93.8026 0.221692 93.6121 0.08552 93.7642 0.0819916C94.6643 0.058527 95.6 0.0715573 96.4785 0.146628C96.6439 0.16101 96.5398 0.265867 96.5743 0.289816C96.8119 0.457373 97.1601 0.228824 97.2402 0.207053C97.6045 0.107647 97.746 0.200373 98.0677 0.183066C99.6394 0.0968939 101.58 0.158308 103.064 0.19625C104.997 0.245081 106.497 0.344833 108.34 0.318931C108.458 0.317416 108.34 0.177924 108.441 0.174827C109.745 0.1412 111.028 0.195708 112.335 0.155418C112.442 0.152359 112.288 0.0201203 112.46 0.0107655C112.813 -0.00934974 113.26 -0.00216197 113.617 0.0400625C113.791 0.0604071 113.557 0.17388 113.733 0.19204C114.141 0.234583 114.578 0.244001 114.997 0.222801C115.176 0.213491 114.906 0.0782445 115.138 0.0766836C116.717 0.0632661 118.268 0.0399732 119.864 0.215111C119.973 0.22714 120.069 0.502015 120.302 0.449302C120.32 0.373017 120.319 0.283282 120.326 0.201745C122.625 0.157822 124.9 0.253113 127.206 0.267846C127.303 0.268436 127.135 0.122793 127.323 0.123193C128.412 0.125347 129.47 0.0849993 130.584 0.22976C130.694 0.243918 130.638 0.500139 130.963 0.461388C131.021 0.454317 131.511 0.420147 131.638 0.364526C131.655 0.356136 131.566 0.236542 131.724 0.233056C132.643 0.214896 133.605 0.242199 134.522 0.315271C134.67 0.327293 134.513 0.45465 134.618 0.464318C135.366 0.531925 136.179 0.43511 136.894 0.550744C137.372 0.628603 137.195 0.848752 137.449 1.06545C137.485 1.09603 137.782 1.10087 137.797 1.22695C137.836 1.54399 137.693 1.89115 137.752 2.22908C137.764 2.30187 138.161 2.22347 137.926 2.39937C137.909 2.41114 137.622 2.46952 137.551 2.52919C137.502 2.57045 137.591 2.69867 137.49 2.75148C137.389 2.80424 137.279 2.69676 137.112 2.75881C136.945 2.82162 137.019 2.96749 136.686 2.98476ZM45.4748 0.958327C45.7381 1.08082 45.777 0.632178 45.4922 0.739517C45.4784 0.745238 45.4612 0.952318 45.4748 0.958327ZM13.6201 1.02919C13.9643 1.22707 14.1998 0.936102 13.957 0.783276C13.7142 0.630615 13.5152 0.969201 13.6201 1.02919ZM10.0509 1.17366C10.4531 1.32968 10.5165 0.693485 10.0856 0.822094C10.0606 0.829362 10.0274 1.1646 10.0509 1.17366ZM136.271 1.12716C136.274 1.13312 136.487 1.13892 136.492 1.13302C136.606 0.99053 136.18 0.979017 136.271 1.12716ZM6.50905 1.33094C6.63464 1.417 6.9962 1.31766 6.84018 1.21064C6.71458 1.12455 6.35264 1.22389 6.50905 1.33094ZM59.2088 1.43715C59.213 1.44383 59.3656 1.44985 59.3625 1.41206C59.3522 1.29035 59.1398 1.3247 59.2088 1.43715ZM0.489332 1.33827C1.37872 1.36221 1.91796 1.88774 0.94943 1.82844C0.774034 1.81771 1.32746 1.66085 1.1042 1.61347C0.695725 1.52716 0.42448 1.85712 0.00764142 1.68031C-0.0677914 1.64794 0.438603 1.33573 0.490903 1.33753C0.490364 1.33778 0.489884 1.33802 0.489332 1.33827ZM45.6264 1.49721C45.6317 1.50314 45.843 1.50876 45.8481 1.50288C45.9625 1.36045 45.5368 1.34903 45.6264 1.49721ZM68.1155 1.71455C68.1272 1.72719 68.6175 1.73902 68.6335 1.72737C68.8893 1.49446 67.8979 1.46986 68.1155 1.71455ZM31.396 1.82551C31.1654 1.9688 30.8896 1.98567 30.7059 1.80574C30.935 1.81529 31.1656 1.81669 31.396 1.82551Z" fill="url(#paint0_linear_1_3793)"/>
<defs>
<linearGradient id="paint0_linear_1_3793" x1="-4.37114e-08" y1="2" x2="138" y2="2.00001" gradientUnits="userSpaceOnUse">
<stop stop-color="white"/>
<stop offset="0.5" stop-color="#FF8518" stop-opacity="0.7"/>
</linearGradient>
</defs>
</svg>
