<svg width="22" height="22" viewBox="0 0 22 22" fill="none" xmlns="http://www.w3.org/2000/svg">
<path d="M18.3334 7.56242V16.4999C18.3334 19.2499 16.6926 20.1666 14.6667 20.1666H7.33341C5.30758 20.1666 3.66675 19.2499 3.66675 16.4999V7.56242C3.66675 4.58325 5.30758 3.89575 7.33341 3.89575C7.33341 4.46409 7.56256 4.97742 7.93839 5.35325C8.31422 5.72908 8.82758 5.95825 9.39591 5.95825H12.6042C13.7409 5.95825 14.6667 5.03242 14.6667 3.89575C16.6926 3.89575 18.3334 4.58325 18.3334 7.56242Z" stroke="#777A82" stroke-width="1.5" stroke-linecap="round" stroke-linejoin="round"/>
<path d="M14.6666 3.89575C14.6666 5.03242 13.7408 5.95825 12.6041 5.95825H9.39575C8.82742 5.95825 8.31406 5.72908 7.93823 5.35325C7.56239 4.97742 7.33325 4.46409 7.33325 3.89575C7.33325 2.75909 8.25909 1.83325 9.39575 1.83325H12.6041C13.1724 1.83325 13.6858 2.06242 14.0616 2.43826C14.4374 2.81409 14.6666 3.32742 14.6666 3.89575Z" stroke="#777A82" stroke-width="1.5" stroke-linecap="round" stroke-linejoin="round"/>
<path d="M7.33325 11.9167H10.9999" stroke="#777A82" stroke-width="1.5" stroke-linecap="round" stroke-linejoin="round"/>
<path d="M7.33325 15.5833H14.6666" stroke="#777A82" stroke-width="1.5" stroke-linecap="round" stroke-linejoin="round"/>
</svg>
