<svg width="16" height="16" viewBox="0 0 16 16" fill="none" xmlns="http://www.w3.org/2000/svg">
<path d="M7.99975 11.5666C8.5999 11.5666 9.08642 11.0801 9.08642 10.48C9.08642 9.87983 8.5999 9.39331 7.99975 9.39331C7.3996 9.39331 6.91309 9.87983 6.91309 10.48C6.91309 11.0801 7.3996 11.5666 7.99975 11.5666Z" fill="currentColor"/>
<path d="M12.1873 6.3535V5.52016C12.1873 3.72016 11.754 1.3335 8.00065 1.3335C4.24732 1.3335 3.81398 3.72016 3.81398 5.52016V6.3535C1.94732 6.58683 1.33398 7.5335 1.33398 9.86016V11.1002C1.33398 13.8335 2.16732 14.6668 4.90065 14.6668H11.1006C13.834 14.6668 14.6673 13.8335 14.6673 11.1002V9.86016C14.6673 7.5335 14.054 6.58683 12.1873 6.3535ZM8.00065 12.4935C6.88732 12.4935 5.98732 11.5868 5.98732 10.4802C5.98732 9.36683 6.89398 8.46683 8.00065 8.46683C9.10732 8.46683 10.014 9.3735 10.014 10.4802C10.014 11.5935 9.11398 12.4935 8.00065 12.4935ZM4.90065 6.2935C4.84732 6.2935 4.80065 6.2935 4.74732 6.2935V5.52016C4.74732 3.56683 5.30065 2.26683 8.00065 2.26683C10.7007 2.26683 11.254 3.56683 11.254 5.52016V6.30016C11.2007 6.30016 11.154 6.30016 11.1006 6.30016H4.90065V6.2935Z" fill="currentColor"/>
</svg>
