<svg width="14" height="14" viewBox="0 0 14 14" fill="none" xmlns="http://www.w3.org/2000/svg">
<path d="M6.99966 10.1207C7.52479 10.1207 7.9505 9.69496 7.9505 9.16983C7.9505 8.6447 7.52479 8.21899 6.99966 8.21899C6.47453 8.21899 6.04883 8.6447 6.04883 9.16983C6.04883 9.69496 6.47453 10.1207 6.99966 10.1207Z" fill="#56C269"/>
<path d="M10.6637 5.55925V4.83008C10.6637 3.25508 10.2845 1.16675 7.00033 1.16675C3.71616 1.16675 3.33699 3.25508 3.33699 4.83008V5.55925C1.70366 5.76341 1.16699 6.59175 1.16699 8.62758V9.71258C1.16699 12.1042 1.89616 12.8334 4.28783 12.8334H9.71282C12.1045 12.8334 12.8337 12.1042 12.8337 9.71258V8.62758C12.8337 6.59175 12.297 5.76341 10.6637 5.55925ZM7.00033 10.9317C6.02616 10.9317 5.23866 10.1384 5.23866 9.17008C5.23866 8.19591 6.03199 7.40841 7.00033 7.40841C7.96866 7.40841 8.76199 8.20175 8.76199 9.17008C8.76199 10.1442 7.97449 10.9317 7.00033 10.9317ZM4.28783 5.50675C4.24116 5.50675 4.20033 5.50675 4.15366 5.50675V4.83008C4.15366 3.12091 4.63783 1.98341 7.00033 1.98341C9.36283 1.98341 9.84699 3.12091 9.84699 4.83008V5.51258C9.80032 5.51258 9.75949 5.51258 9.71282 5.51258H4.28783V5.50675Z" fill="#56C269"/>
</svg>
