<svg width="239" height="269" viewBox="0 0 239 269" fill="none" xmlns="http://www.w3.org/2000/svg">
<path d="M77.8267 264.964C112.822 266.138 103.111 265.813 104.865 265.871L111.846 266.105C112.521 266.127 113.038 265.514 112.909 264.85L112.274 261.638C111.987 260.186 111.004 258.966 109.644 258.375L109.115 258.142L104.794 256.259L100.966 250.793L77.624 252.278C77.5411 253.463 77.9234 247.991 76.8169 263.84C76.7763 264.434 77.2373 264.944 77.8267 264.964Z" fill="#ECCCAF"/>
<path d="M111.832 266.298L77.812 265.157H77.8126C77.119 265.134 76.5701 264.535 76.6193 263.829L77.4265 252.267C77.4334 252.171 77.5095 252.096 77.6049 252.09L100.947 250.605C101.012 250.593 101.077 250.632 101.115 250.686L104.913 256.108L109.714 258.203C111.131 258.819 112.156 260.09 112.454 261.604L113.09 264.816C113.231 265.549 112.705 266.298 111.832 266.298ZM77.7951 252.46L76.9998 263.855C76.9662 264.339 77.3404 264.758 77.8244 264.774C77.8244 264.774 77.8244 264.774 77.8251 264.774L111.845 265.916C112.369 265.946 112.823 265.447 112.714 264.888L112.079 261.678C111.805 260.286 110.863 259.117 109.56 258.552L104.711 256.437C104.679 256.422 104.651 256.4 104.631 256.37L100.864 250.992L77.7951 252.46Z" fill="#ECCCAF"/>
<path d="M77.8259 264.965L84.9909 265.206C84.3185 261.471 81.347 258.269 77.2545 257.586L76.8173 263.841C76.7755 264.435 77.2364 264.945 77.8259 264.965Z" fill="black"/>
<path d="M84.9835 265.396C73.915 265.024 79.3972 265.208 77.8122 265.155H77.8128C77.1192 265.132 76.5703 264.533 76.6196 263.827L77.0575 257.572C77.0662 257.46 77.1673 257.38 77.2789 257.397C81.3308 258.072 84.4652 261.24 85.1719 265.171C85.1925 265.287 85.1033 265.396 84.9835 265.396ZM77.423 257.81L77.0001 263.853C76.9664 264.337 77.3407 264.756 77.8247 264.773C77.8247 264.773 77.8247 264.773 77.8253 264.773L84.7509 265.006C84.0161 261.462 81.1911 258.526 77.423 257.81Z" fill="black"/>
<path d="M104.853 265.871L111.834 266.105C112.509 266.127 113.026 265.514 112.897 264.85L112.262 261.638C111.975 260.185 110.992 258.965 109.632 258.375L109.103 258.141C108.565 258.382 108.047 258.695 107.56 259.079C105.435 260.759 104.494 263.372 104.853 265.871Z" fill="black"/>
<path d="M111.798 266.296L104.816 266.062C104.724 266.058 104.647 265.99 104.634 265.898C104.254 263.255 105.318 260.585 107.412 258.931C107.906 258.54 108.439 258.216 108.995 257.968C109.043 257.945 109.1 257.945 109.15 257.967L109.678 258.2C111.096 258.815 112.12 260.087 112.419 261.602L113.054 264.813C113.196 265.547 112.671 266.296 111.798 266.296ZM104.991 265.686L111.81 265.914C112.335 265.945 112.788 265.446 112.68 264.887L112.044 261.676C111.77 260.285 110.829 259.116 109.526 258.551L109.075 258.352C108.575 258.582 108.096 258.878 107.649 259.231C105.703 260.768 104.694 263.229 104.991 265.686Z" fill="black"/>
<path d="M84.4388 251.634L103.127 253.933L100.928 250.793L84.4388 251.634Z" fill="black"/>
<path d="M103.097 254.122L84.4083 251.823C84.3103 251.81 84.238 251.725 84.2405 251.627C84.2442 251.528 84.3228 251.448 84.422 251.443L100.91 250.601C100.978 250.593 101.039 250.628 101.076 250.682L103.276 253.823C103.37 253.958 103.262 254.143 103.097 254.122ZM86.6351 251.712L102.718 253.691L100.825 250.989L86.6351 251.712Z" fill="black"/>
<path d="M0.640055 249.041C29.8231 268.392 21.7242 263.021 23.1876 263.992L29.0091 267.852C29.5717 268.224 30.3339 267.973 30.5722 267.341L31.7149 264.273C32.2326 262.886 32.0355 261.331 31.1872 260.115L30.8591 259.639L28.167 255.771L27.7734 249.109L7.119 238.134C6.42726 239.1 9.6215 234.64 0.369347 247.556C0.023787 248.04 0.147912 248.715 0.640055 249.041Z" fill="#ECCCAF"/>
<path d="M28.9221 268.011L0.552452 249.201C-0.0282638 248.818 -0.177965 248.019 0.232465 247.446L6.98211 238.023C7.03763 237.945 7.14367 237.921 7.22663 237.966L27.881 248.941C27.9397 248.972 27.9783 249.032 27.9821 249.098L28.3725 255.706L31.3622 260.007C32.2454 261.274 32.4513 262.894 31.9111 264.341L30.7684 267.408C30.4858 268.162 29.5808 268.447 28.9221 268.011ZM7.19544 238.382L0.543094 247.668C0.258662 248.065 0.361583 248.617 0.763281 248.883C0.763281 248.883 0.763278 248.883 0.763902 248.883L29.1329 267.693C29.5895 267.997 30.2157 267.795 30.4116 267.274L31.5543 264.208C32.0502 262.879 31.8612 261.39 31.0484 260.226L28.0288 255.881C28.0089 255.852 27.997 255.818 27.9952 255.783L27.6078 249.229L7.19544 238.382Z" fill="#ECCCAF"/>
<path d="M0.63997 249.042L6.6143 253.005C8.0009 249.471 7.14885 245.187 4.02197 242.46L0.369886 247.557C0.0237024 248.041 0.147827 248.717 0.63997 249.042Z" fill="black"/>
<path d="M6.52684 253.164L0.55251 249.202C-0.0282053 248.819 -0.177903 248.02 0.232528 247.446L3.88461 242.35C3.94449 242.267 4.06987 242.235 4.1653 242.317C7.33585 245.082 8.2328 249.449 6.81002 253.076C6.76698 253.186 6.62788 253.233 6.52684 253.164ZM4.07174 242.744L0.543156 247.668C0.258724 248.066 0.361642 248.618 0.76334 248.883C0.76334 248.883 0.763341 248.883 0.763964 248.884L6.53869 252.714C7.76873 249.317 6.91107 245.335 4.07174 242.744Z" fill="black"/>
<path d="M23.198 263.994L29.0195 267.853C29.5821 268.226 30.3444 267.975 30.5826 267.343L31.7253 264.275C32.2431 262.888 32.046 261.333 31.1977 260.117L30.8696 259.641C30.2857 259.563 29.6801 259.559 29.0638 259.631C26.3735 259.946 24.2022 261.678 23.198 263.994Z" fill="black"/>
<path d="M28.9407 268.012L23.1186 264.152C23.0419 264.1 23.0126 264.002 23.0494 263.917C24.1116 261.466 26.4183 259.751 29.068 259.44C29.6948 259.366 30.318 259.37 30.9211 259.451C30.9748 259.457 31.0228 259.487 31.0534 259.531L31.3815 260.007C32.2647 261.274 32.4706 262.894 31.9304 264.34L30.7877 267.407C30.5045 268.163 29.5994 268.448 28.9407 268.012ZM23.4642 263.923L29.1516 267.693C29.6081 267.997 30.2344 267.795 30.4303 267.274L31.573 264.207C32.0689 262.879 31.8799 261.39 31.0671 260.225L30.787 259.819C30.2419 259.753 29.6793 259.753 29.1116 259.819C26.6497 260.109 24.5002 261.675 23.4642 263.923Z" fill="black"/>
<path d="M13.3284 241.684L28.021 252.935L27.7952 249.107L13.3284 241.684Z" fill="black"/>
<path d="M27.8977 253.084L13.2051 241.832C13.1265 241.771 13.1072 241.661 13.1596 241.578C13.2126 241.494 13.3199 241.467 13.4085 241.51L27.8752 248.934C27.9351 248.965 27.9744 249.025 27.9781 249.093L28.2039 252.921C28.2139 253.084 28.0262 253.183 27.8977 253.084ZM15.1219 242.819L27.7985 252.527L27.6033 249.224L15.1219 242.819Z" fill="black"/>
<path d="M128.365 46.7344C125.396 68.9269 112.318 82.7175 94.5916 86.5973C92.2319 87.1181 89.793 87.4556 87.2787 87.6203C81.8233 87.9671 76.0392 87.4749 70.0587 86.0958L70.9643 62.9183C93.18 71.9434 104.729 59.3673 112.774 38.043L128.365 46.7344Z" fill="#96D8A2"/>
<path d="M94.622 86.6019C92.2624 87.1227 89.8235 87.4602 87.3091 87.6249L86.9573 73.9465L94.622 86.6019Z" fill="black"/>
<path d="M194.511 7.18533V123.038C194.511 126.862 191.409 129.958 187.585 129.958H180.061C183.885 129.958 186.981 126.862 186.981 123.038V7.18533C186.981 3.36109 183.885 0.264771 180.061 0.264771H187.585C191.409 0.264771 194.511 3.36109 194.511 7.18533Z" fill="#FEF2E7"/>
<path d="M187.585 130.216H180.061V129.693C183.733 129.693 186.72 126.706 186.72 123.034V7.18191C186.72 3.51049 183.733 0.523331 180.061 0.523331V0H187.585C191.548 0 194.772 3.22169 194.772 7.18191V123.034C194.772 126.994 191.548 130.216 187.585 130.216ZM182.752 129.693H187.585C191.259 129.693 194.249 126.706 194.249 123.034V7.18191C194.249 3.51049 191.259 0.523331 187.585 0.523331H182.752C185.383 1.58995 187.243 4.17292 187.243 7.18191V123.034C187.243 126.043 185.383 128.626 182.752 129.693Z" fill="#FAE6D4"/>
<path d="M186.893 7.18697V123.035C186.893 126.859 183.794 129.958 179.97 129.958H109.784C105.96 129.958 102.861 126.859 102.861 123.035V7.18697C102.861 3.36336 105.96 0.263916 109.784 0.263916H179.97C183.794 0.263916 186.893 3.36336 186.893 7.18697Z" fill="white"/>
<path d="M179.997 130.149H109.81C105.888 130.149 102.696 126.957 102.696 123.035V7.18705C102.696 3.26487 105.888 0.0731201 109.81 0.0731201H179.997C183.919 0.0731201 187.111 3.26487 187.111 7.18705V123.035C187.111 126.957 183.919 130.149 179.997 130.149ZM109.81 0.455482C106.098 0.455482 103.079 3.47508 103.079 7.18705V123.035C103.079 126.747 106.098 129.767 109.81 129.767H179.997C183.709 129.767 186.729 126.747 186.729 123.035V7.18705C186.729 3.47508 183.709 0.455482 179.997 0.455482H109.81Z" fill="black"/>
<path d="M159.435 0.456299L156.285 4.74586C155.413 5.93287 154.029 6.63459 152.556 6.63459H136.815C135.342 6.63459 133.957 5.93349 133.085 4.74586L129.935 0.456299H159.435Z" fill="#FCDBBD"/>
<path d="M102.861 110.888V123.033C102.861 126.857 105.96 129.956 109.784 129.956H179.97C183.794 129.956 186.893 126.857 186.893 123.033V110.888H102.861Z" fill="white"/>
<path d="M179.997 130.146H109.81C105.888 130.146 102.696 126.954 102.696 123.032V110.888C102.696 110.782 102.783 110.697 102.887 110.697H186.92C187.025 110.697 187.11 110.783 187.11 110.888V123.032C187.111 126.954 183.919 130.146 179.997 130.146ZM103.079 111.079V123.033C103.079 126.745 106.098 129.764 109.81 129.764H179.997C183.709 129.764 186.729 126.745 186.729 123.033V111.079H103.079Z" fill="black"/>
<path d="M152.078 91.3852C152.078 96.9122 147.599 101.396 142.068 101.396C136.541 101.396 132.057 96.9122 132.057 91.3852C132.057 85.8531 136.541 81.3745 142.068 81.3745C147.599 81.3745 152.078 85.8537 152.078 91.3852Z" fill="#FFF0E4"/>
<path d="M141.968 93.8332L138.868 90.5335C138.795 90.4568 138.799 90.3358 138.876 90.264C138.953 90.1923 139.075 90.1954 139.145 90.2721L142.117 93.434L151.406 84.8698C151.483 84.7987 151.604 84.8037 151.675 84.881C151.747 84.9584 151.741 85.0794 151.664 85.1505L142.236 93.8431C142.161 93.9136 142.04 93.9099 141.968 93.8332Z" fill="black"/>
<path d="M151.515 120.421C151.515 121.856 150.352 123.02 148.916 123.02H137.55C136.115 123.02 134.952 121.856 134.952 120.421C134.952 118.986 136.115 117.823 137.55 117.823H148.916C150.351 117.823 151.515 118.986 151.515 120.421Z" fill="#FFE3CA"/>
<path d="M26.5247 133.859C26.5247 133.859 49.1446 145.889 61.0221 145.882C72.8996 145.875 64.3985 124.93 64.3985 124.93C64.3985 124.93 40.2872 122.234 26.5247 133.859Z" fill="black"/>
<path d="M106.003 250.483L77.4825 252.007C77.4825 252.007 72.6366 237.442 66.492 217.764C64.6956 212.018 62.7912 205.835 60.8582 199.451C51.9971 170.129 42.6533 136.58 41.3958 121.658L78.7444 120.134L106.003 250.483Z" fill="white"/>
<path d="M77.4789 252.198C77.3972 252.198 77.3236 252.146 77.2974 252.067C77.2487 251.922 72.3809 237.276 66.3055 217.82C64.4299 211.821 62.5337 205.659 60.6712 199.506C52.5037 172.478 42.4956 137.035 41.2013 121.674C41.1919 121.567 41.2736 121.472 41.3834 121.467L78.732 119.943C78.8249 119.92 78.9079 120.003 78.9266 120.094L106.185 250.444C106.208 250.557 106.126 250.666 106.008 250.673L77.4882 252.198C77.4851 252.198 77.4826 252.198 77.4789 252.198ZM41.5992 121.84C42.959 137.273 52.9098 172.501 61.0373 199.396C62.8992 205.548 64.7948 211.708 66.6704 217.707C72.4296 236.15 77.104 250.271 77.6142 251.809L105.767 250.304L78.5873 120.33L41.5992 121.84Z" fill="black"/>
<path d="M70.8288 194.088C70.8288 194.088 69.0648 207.035 66.4662 217.763C64.6698 212.017 62.7655 205.834 60.8325 199.45L70.8288 194.088Z" fill="black"/>
<path d="M90.401 233.751C90.3923 233.751 90.3829 233.751 90.3742 233.749C90.2694 233.734 90.1977 233.638 90.212 233.533C91.8375 222.248 90.3923 210.735 86.0335 200.239C84.0188 195.388 81.3678 190.738 78.8035 186.242C77.6864 184.282 76.5312 182.256 75.4427 180.238C66.8961 164.394 61.4064 147.306 59.1266 129.447C59.1135 129.343 59.1871 129.247 59.2919 129.234C59.3948 129.222 59.4921 129.294 59.5052 129.399C61.7788 147.21 67.2541 164.254 75.7783 180.057C76.8649 182.071 78.0182 184.095 79.1348 186.053C81.704 190.559 84.3612 195.219 86.3847 200.093C90.7703 210.652 92.2243 222.234 90.5888 233.588C90.5763 233.683 90.4946 233.751 90.401 233.751Z" fill="black"/>
<path d="M6.99139 238.07C50.3399 168.491 27.289 198.761 34.3393 127.165C46.0665 127.807 60.6799 126.471 72.4071 127.165C77.2274 177.764 84.342 187.96 33.3051 252.009L6.99139 238.07Z" fill="white"/>
<path d="M33.2452 252.178L6.93151 238.24C6.83545 238.189 6.79928 238.065 6.85916 237.97C35.3485 192.241 35.1215 189.673 33.6476 172.965C32.8984 164.478 31.7663 151.65 34.179 127.147C34.189 127.045 34.285 126.963 34.3792 126.975C46.064 127.614 60.7535 126.283 72.4482 126.975C72.5424 126.981 72.6185 127.054 72.6272 127.148C73.0807 131.908 73.5473 136.243 73.9983 140.435C76.1546 160.472 77.5786 173.71 72.694 189.421C67.8044 205.147 56.4446 223.314 33.4841 252.128C33.4243 252.203 33.3226 252.22 33.2452 252.178ZM7.29079 237.999L33.2839 251.767C79.3657 193.913 77.9173 180.43 73.6178 140.475C73.1718 136.33 72.7108 132.044 72.2617 127.346C60.6736 126.681 46.1464 127.98 34.5408 127.366C32.1549 151.715 33.2814 164.479 34.0268 172.932C35.5101 189.729 35.7378 192.33 7.29079 237.999Z" fill="black"/>
<path d="M90.6642 99.4887C88.8759 117.938 81.9067 136.25 81.9067 136.25C79.2882 134.816 76.3434 133.74 73.1966 132.952C52.6663 127.8 26.5247 133.857 26.5247 133.857C38.6711 56.3317 74.2108 62.5524 76.0371 63.1375C89.9182 67.6154 92.2117 83.6016 90.6642 99.4887Z" fill="#96D8A2"/>
<path d="M124.382 93.8504C124.382 93.8504 125.113 89.0381 126.503 89.224C127.893 89.4099 126.823 93.8148 126.823 93.8148" fill="white"/>
<path d="M124.376 94.0402C124.259 94.0402 124.169 93.9361 124.187 93.8207C124.265 93.3092 125 88.8281 126.522 89.034C126.755 89.0652 126.946 89.1868 127.089 89.3964C127.816 90.4605 127.035 93.7209 127.002 93.8587C126.977 93.961 126.873 94.024 126.772 93.9991C126.669 93.9741 126.606 93.8706 126.631 93.7689C126.878 92.7547 127.461 89.4082 126.418 89.4082C125.564 89.4082 124.831 92.1253 124.565 93.8774C124.55 93.9722 124.469 94.0402 124.376 94.0402Z" fill="black"/>
<path d="M124.793 93.8969C124.793 93.8969 127.286 91.7288 128.15 91.0002C129.837 89.5756 133.842 86.1755 134.612 87.0082C135.567 88.0417 130.168 92.7274 130.168 92.7274C130.168 92.7274 132.118 92.1068 131.751 93.9649C132.55 93.1871 133.652 94.7097 132.583 95.6503C132.583 95.6503 134.304 95.9291 132.643 97.6956C131.296 99.1277 129.912 99.8288 128.694 100.226C127.709 100.547 126.454 100.638 125.479 102.838L124.793 93.8969Z" fill="white"/>
<path d="M125.264 102.855L124.578 93.9127C124.574 93.8522 124.598 93.7935 124.644 93.7536C126.064 92.5073 128.014 90.8463 128.072 90.7958C131.537 87.871 133.994 86.087 134.728 86.8792C134.847 87.0083 134.901 87.1767 134.89 87.3795C134.82 88.6432 131.965 91.349 130.757 92.4394C131.495 92.4119 131.987 92.8018 131.962 93.5989C132.833 93.3182 133.638 94.6025 132.905 95.56C133.12 95.6517 133.383 95.8226 133.487 96.1295C133.641 96.5786 133.394 97.1499 132.756 97.828C131.599 99.0586 130.281 99.9032 128.729 100.408C127.469 100.819 126.509 100.931 125.628 102.917C125.547 103.101 125.279 103.049 125.264 102.855ZM124.966 93.9794L125.593 102.142C126.5 100.554 127.495 100.411 128.611 100.047C130.101 99.5608 131.367 98.7499 132.479 97.5672C133.143 96.8605 133.198 96.4626 133.127 96.2524C133.016 95.928 132.533 95.8419 132.528 95.8407C132.369 95.8151 132.311 95.6161 132.432 95.5089C133.083 94.9362 132.786 94.1017 132.323 93.9613C132.163 93.912 132.006 93.9601 131.86 94.1035C131.726 94.2333 131.504 94.1135 131.539 93.9301C131.628 93.4779 131.577 93.1623 131.388 92.9926C131.079 92.7175 130.428 92.8417 130.202 92.9115C130.118 92.939 130.022 92.9022 129.978 92.823C129.934 92.7444 129.951 92.6452 130.019 92.5859C131.247 91.5199 134.447 88.5041 134.51 87.3595C134.515 87.2622 134.495 87.1905 134.448 87.1399C133.759 86.3864 128.878 90.6617 128.249 91.1482C127.478 91.7969 125.383 93.617 124.966 93.9794Z" fill="black"/>
<path d="M59.962 87.9232C73.9971 114.647 101.13 123.86 127.82 106.485L124.247 88.9948C102.831 96.7936 85.7655 96.2335 78.1288 73.502" fill="#96D8A2"/>
<path d="M88.9004 113.86C88.8823 113.86 88.8642 113.858 88.8455 113.852C86.822 113.247 84.8191 112.472 82.8917 111.547C73.4999 107.052 65.5102 98.913 59.7872 88.011C59.738 87.9175 59.7748 87.8021 59.8677 87.7534C59.9613 87.7054 60.076 87.7403 60.1253 87.8339C65.8096 98.6629 73.7388 106.744 83.0564 111.204C84.9657 112.12 86.9505 112.888 88.9546 113.488C89.0557 113.518 89.1131 113.624 89.0831 113.725C89.0588 113.806 88.9827 113.86 88.9004 113.86Z" fill="black"/>
<path d="M130.169 92.7292C130.169 92.7292 129.692 93.0729 128.95 93.814Z" fill="white"/>
<path d="M128.807 93.9487C128.733 93.8739 128.733 93.7529 128.808 93.6787C129.552 92.9358 130.03 92.5896 130.051 92.5752C130.135 92.5129 130.255 92.5328 130.317 92.6183C130.379 92.7043 130.359 92.8229 130.274 92.8846C130.27 92.8884 129.798 93.2302 129.078 93.9494C129.002 94.0236 128.882 94.023 128.807 93.9487Z" fill="black"/>
<path d="M131.847 93.9102C131.847 93.9102 131.37 94.2538 130.628 94.9949Z" fill="white"/>
<path d="M130.463 95.1298C130.388 95.055 130.388 94.9346 130.463 94.8604C131.207 94.1169 131.685 93.77 131.706 93.7557C131.79 93.6939 131.91 93.712 131.972 93.7994C132.034 93.8848 132.014 94.004 131.929 94.0657C131.924 94.0694 131.452 94.4119 130.733 95.1304C130.658 95.2053 130.538 95.2053 130.463 95.1298Z" fill="black"/>
<path d="M132.685 95.5774C132.685 95.5774 132.207 95.9211 131.465 96.6621Z" fill="white"/>
<path d="M131.323 96.795C131.249 96.7202 131.249 96.5991 131.323 96.5255C132.068 95.782 132.545 95.4352 132.566 95.4209C132.651 95.3585 132.77 95.3778 132.832 95.4639C132.894 95.55 132.875 95.6685 132.789 95.7302C132.785 95.734 132.313 96.0758 131.593 96.795C131.519 96.8699 131.398 96.8699 131.323 96.795Z" fill="black"/>
<path d="M100.15 115.342C94.1237 115.305 88.3347 113.941 82.9778 111.373C83.0309 111.226 83.0839 111.08 83.1413 110.935C84.9452 106.392 90.0893 104.174 94.6327 105.978C98.4744 107.504 100.661 111.422 100.15 115.342Z" fill="black"/>
<path d="M121.28 110.196L116.583 96.409C116.55 96.3092 116.603 96.2006 116.703 96.1663C116.803 96.1339 116.911 96.1863 116.945 96.2855L121.642 110.072C121.676 110.172 121.623 110.281 121.523 110.315C121.416 110.35 121.313 110.291 121.28 110.196Z" fill="black"/>
<path d="M120.531 97.4172C119.626 97.0579 119.182 96.0287 119.541 95.123C119.899 94.2198 120.926 93.7651 121.836 94.1288C122.75 94.4905 123.185 95.5216 122.824 96.4273C122.464 97.3367 121.43 97.7752 120.531 97.4172ZM119.895 95.264C119.614 95.9732 119.962 96.7803 120.672 97.0629C121.379 97.3417 122.188 96.9968 122.47 96.2863C122.753 95.5721 122.409 94.7669 121.695 94.4837C120.988 94.2017 120.18 94.5479 119.895 95.264Z" fill="black"/>
<path d="M72.8153 62.8851L72.4023 56.7399C71.985 56.0457 71.6844 55.2529 71.5253 54.3759C70.7656 50.2335 73.3922 45.8385 77.3699 44.553C81.3663 43.2581 85.213 45.5709 85.9727 49.7127C86.0289 49.994 86.057 50.2759 86.085 50.5522C86.6196 51.6781 88.1914 53.1982 87.6332 53.9436C87.3425 54.3328 86.0008 54.5206 85.203 54.4975C84.3684 57.1385 83.9742 59.7651 79.893 59.6054L80.1038 69.9348" fill="white"/>
<path d="M80.0898 70.1275C79.9863 70.1275 79.9008 70.0445 79.8989 69.9404L79.6881 59.611C79.6856 59.49 79.7979 59.4002 79.8871 59.4164C83.4955 59.5505 83.9864 57.6593 85.0075 54.4407C85.0337 54.3596 85.1104 54.3066 85.1952 54.3072C86.0398 54.3384 87.2524 54.1169 87.467 53.83C87.7614 53.4364 87.1725 52.5887 86.6536 51.8409C86.5793 51.7342 85.9007 50.7674 85.882 50.5728C85.8539 50.294 85.8259 50.0189 85.7722 49.7513C85.4129 47.7921 84.3432 46.1953 82.7601 45.2503C81.1864 44.3109 79.2895 44.1269 77.4151 44.7351C73.5223 45.9932 70.9587 50.3027 71.6997 54.3415C71.8519 55.1798 72.1388 55.9539 72.5524 56.6419C72.5679 56.6681 72.5773 56.6974 72.5792 56.728L72.9921 62.8732C72.999 62.9786 72.9197 63.0691 72.8143 63.0766C72.7095 63.0759 72.6185 63.0036 72.611 62.8988L72.2012 56.7997C71.7764 56.0818 71.4814 55.2784 71.3236 54.4107C70.5495 50.1904 73.2291 45.6869 77.2973 44.372C79.2771 43.7308 81.2862 43.9273 82.9553 44.9228C84.6345 45.9245 85.7678 47.6137 86.1471 49.6796C86.2026 49.9553 86.2313 50.2322 86.2587 50.501C86.8207 51.6506 88.4331 53.1782 87.7732 54.0589C87.4139 54.5405 86.0417 54.6883 85.3306 54.6908C84.3582 57.804 83.8049 59.8779 80.0761 59.8031L80.2832 69.9316C80.285 70.037 80.2015 70.1244 80.096 70.1269C80.0923 70.1275 80.0911 70.1275 80.0898 70.1275Z" fill="black"/>
<path d="M85.1678 47.5431C85.1678 47.5431 82.7988 49.8167 77.6303 48.0228C71.9405 46.0479 80.8782 50.1523 75.1403 53.364C75.1403 53.364 72.9173 55.3319 72.4407 57.4464C72.4407 57.4464 63.7799 45.907 72.0683 43.9303C72.0683 43.9303 68.0763 41.5731 76.5169 39.9383C84.9564 38.3028 90.398 43.9322 85.1678 47.5431Z" fill="black"/>
<path d="M76.3432 52.9468C76.2035 51.748 75.1069 50.8816 73.9075 51.0275C72.7017 51.1666 71.8354 52.2638 71.9819 53.4627C72.121 54.6684 73.2176 55.5348 74.4239 55.3888" fill="white"/>
<path d="M71.8193 53.4829C71.6596 52.1811 72.5983 50.9885 73.912 50.8363C75.2293 50.6766 76.4089 51.631 76.5592 52.9228C76.5717 53.0276 76.4962 53.1217 76.3914 53.1342C76.2904 53.1467 76.1918 53.0712 76.1799 52.9664C76.0539 51.8855 75.0678 51.0827 73.9569 51.2149C72.8466 51.3434 72.0657 52.3495 72.1979 53.4374C72.3239 54.5346 73.3188 55.3298 74.4272 55.1976C74.5326 55.1808 74.6268 55.26 74.6399 55.3641C74.6524 55.4689 74.5781 55.5637 74.4734 55.5768C73.1678 55.7353 71.9708 54.8009 71.8193 53.4829Z" fill="black"/>
<path d="M83.8896 49.9929C83.9882 50.2973 84.3162 50.4657 84.6175 50.3684C84.9219 50.2698 85.0903 49.9411 84.9918 49.6373C84.8932 49.3329 84.5657 49.1683 84.2614 49.2668C83.9607 49.3635 83.7917 49.6885 83.8896 49.9929Z" fill="black"/>
<path d="M82.2568 48.8577C82.1707 48.7966 82.1507 48.6774 82.2113 48.5913C82.5169 48.1609 82.9716 47.8753 83.4924 47.7867C84.0127 47.6987 84.5366 47.8185 84.967 48.1235C85.0531 48.1846 85.073 48.3038 85.0125 48.3899C84.9514 48.4759 84.831 48.4953 84.7462 48.4354C84.3988 48.189 83.9759 48.093 83.5561 48.1634C83.1357 48.2352 82.7683 48.4653 82.5225 48.8128C82.462 48.8982 82.3435 48.9188 82.2568 48.8577Z" fill="black"/>
<path d="M79.9104 59.5954C79.9104 59.5954 78.6466 59.5667 77.222 58.5874C77.9586 59.7438 78.8625 60.599 79.9016 61.2115L79.9098 59.6777L79.9104 59.5954Z" fill="black"/>
<path d="M79.7985 61.3735C78.7014 60.7267 77.7782 59.8235 77.0553 58.6876C76.9442 58.5136 77.1526 58.3096 77.3247 58.4275C78.6795 59.3588 79.8971 59.4018 79.9096 59.4018C80.0137 59.405 80.0967 59.4904 80.0961 59.594L80.0873 61.2101C80.0855 61.3567 79.9283 61.4484 79.7985 61.3735ZM77.8905 59.2047C78.4151 59.8653 79.0226 60.4217 79.7068 60.8677L79.7125 59.7698C79.3956 59.7343 78.7107 59.6139 77.8905 59.2047Z" fill="black"/>
<path d="M82.1069 55.406C82.1069 55.406 82.773 56.8151 84.5352 56.6067Z" fill="white"/>
<path d="M84.1565 56.8159C82.5504 56.8159 81.9085 55.4991 81.9017 55.4848C81.8568 55.3894 81.8973 55.2764 81.9921 55.2309C82.0863 55.1841 82.2005 55.2259 82.2466 55.3207C82.2722 55.3731 82.8885 56.5988 84.4803 56.4142C84.5913 56.398 84.6799 56.4772 84.6924 56.5813C84.7048 56.6861 84.63 56.7809 84.5252 56.7934C84.3967 56.8084 84.2744 56.8159 84.1565 56.8159Z" fill="black"/>
<path d="M34.4312 240.024L13.5822 227.443L13.8529 226.996L34.7019 239.577L34.4312 240.024Z" fill="black"/>
<path d="M97.9506 240.492L74.4644 241.409L74.4848 241.932L97.971 241.015L97.9506 240.492Z" fill="black"/>
<path d="M26.6925 233.743L26.3195 233.376C47.0282 212.325 53.4079 187.759 55.1133 170.858C56.9609 152.542 53.8739 139.043 53.8421 138.909L54.3517 138.789C54.3829 138.924 57.4898 152.509 55.6335 170.909C53.92 187.895 47.5078 212.584 26.6925 233.743Z" fill="black"/>
<path d="M46.0685 23.1757C44.5091 21.4866 44.6145 18.845 46.3024 17.2868C47.9922 15.7281 50.6344 15.8328 52.1932 17.522C52.2624 17.5962 52.2574 17.7122 52.1832 17.7802C52.1083 17.8488 51.9929 17.8445 51.9249 17.7702C50.4722 16.1965 48.0639 16.1584 46.5513 17.555C45.0112 18.9766 44.9158 21.3861 46.338 22.9274C46.4072 23.0017 46.4022 23.1177 46.328 23.1857C46.2513 23.2562 46.1346 23.2487 46.0685 23.1757Z" fill="black"/>
<path d="M214.478 111.629C214.377 111.624 214.299 111.54 214.303 111.439C214.307 111.338 214.4 111.256 214.493 111.263C216.607 111.345 218.361 109.705 218.445 107.616C218.528 105.517 216.897 103.749 214.797 103.666C214.696 103.662 214.617 103.577 214.621 103.476C214.625 103.375 214.723 103.307 214.811 103.3C217.113 103.391 218.902 105.327 218.81 107.63C218.717 109.95 216.752 111.73 214.478 111.629Z" fill="black"/>
<path d="M189.732 23.8128V32.2416C189.732 32.8866 190.255 33.4099 190.9 33.4099C191.545 33.4099 192.068 32.8872 192.068 32.2416V23.8128C192.068 23.1679 191.546 22.6445 190.9 22.6445C190.255 22.6445 189.732 23.1679 189.732 23.8128Z" fill="black"/>
<path d="M192.068 18.0438V15.9517C192.068 15.3068 191.546 14.7834 190.9 14.7834C190.255 14.7834 189.732 15.3062 189.732 15.9517V18.0438C189.732 18.6888 190.255 19.2121 190.9 19.2121C191.546 19.2115 192.068 18.6888 192.068 18.0438Z" fill="black"/>
<path d="M175.633 238.167C172.98 237.24 170.522 234.391 171.174 231.404C171.782 228.62 174.557 227.072 177.466 225.813C180.098 224.673 182.961 223.23 183.606 220.525C184.438 217.03 181.407 214.322 178.764 212.192L178.635 212.089C174.386 208.663 170.199 205.044 166.189 201.332C163.788 199.109 161.492 196.886 159.788 194.15C153.546 184.125 160.926 175.358 169.869 175.213C175.453 175.106 180.747 178.192 184.514 182.492C188.122 186.61 190.487 191.87 191.175 197.303C191.727 201.672 191.281 206.39 193.271 210.284C194.662 213.002 197.114 215.071 198.497 217.842C200.736 222.331 199.745 227.604 199.357 232.33C199.349 232.43 199.269 232.509 199.16 232.498C199.059 232.489 198.984 232.401 198.992 232.3C199.37 227.672 200.368 222.413 198.169 218.006C196.816 215.294 194.348 213.194 192.946 210.45C190.908 206.465 191.366 201.718 190.812 197.349C190.134 191.988 187.798 186.798 184.238 182.733C180.542 178.514 175.414 175.506 169.875 175.579C161.447 175.717 153.89 183.983 160.099 193.958C161.778 196.655 164.055 198.858 166.437 201.063C170.441 204.77 174.623 208.384 178.865 211.804L178.993 211.908C181.746 214.125 184.85 216.884 183.962 220.609C183.279 223.479 180.326 224.973 177.611 226.148C174.792 227.368 172.105 228.859 171.532 231.482C170.921 234.273 173.248 236.945 175.753 237.822C178.468 238.771 181.505 238.245 184.12 237.606C187.41 236.801 190.657 235.716 193.771 234.378C193.864 234.337 193.972 234.381 194.012 234.474C194.052 234.566 194.009 234.674 193.916 234.714C190.783 236.06 187.516 237.153 184.206 237.962C181.402 238.647 178.372 239.127 175.633 238.167Z" fill="black"/>
<path d="M194.999 253.298C194.899 253.287 194.826 253.197 194.837 253.096C196.699 236.053 187.557 211.287 181.941 198.041C181.902 197.948 181.945 197.84 182.038 197.801C182.131 197.762 182.239 197.805 182.278 197.898C187.908 211.176 197.073 236.01 195.201 253.136C195.19 253.244 195.087 253.312 194.999 253.298Z" fill="black"/>
<path d="M203.432 246.929C205.008 247.266 206.34 248.506 207.951 248.445C209.562 248.385 211.234 247.248 211.369 245.642C211.504 244.037 210.173 242.727 208.948 241.681C207.724 240.634 206.383 239.343 206.488 237.736C206.552 236.747 207.186 235.867 207.975 235.267C208.764 234.667 209.701 234.303 210.622 233.935C213.486 232.793 216.31 231.552 219.089 230.216C220.711 229.436 222.337 228.611 223.696 227.431C225.056 226.251 226.141 224.665 226.382 222.881C226.803 219.773 224.431 216.727 221.449 215.756C218.468 214.784 215.125 215.587 212.456 217.233C209.842 218.844 207.726 221.25 206.461 224.047C205.433 226.32 204.903 228.919 203.164 230.708C201.96 231.946 200.294 232.657 199.103 233.906C197.329 235.766 195.932 239.183 196.267 241.503C196.383 242.307 195.86 245.31 203.432 246.929Z" fill="#FFE9D6"/>
<path d="M194.947 253.549C194.848 253.53 194.783 253.434 194.801 253.334C196.636 243.799 205.685 231.954 210.916 225.741C210.982 225.664 211.098 225.654 211.174 225.72C211.251 225.784 211.261 225.9 211.196 225.978C205.988 232.162 196.979 243.951 195.161 253.404C195.143 253.499 195.053 253.567 194.947 253.549Z" fill="black"/>
<path d="M120.237 165.309C118.675 163.618 118.777 160.983 120.471 159.421C122.16 157.862 124.803 157.967 126.361 159.656C126.431 159.73 126.426 159.846 126.351 159.914C126.276 159.983 126.161 159.978 126.093 159.904C124.667 158.36 122.265 158.263 120.719 159.689C119.177 161.113 119.08 163.516 120.506 165.061C120.575 165.135 120.57 165.251 120.496 165.319C120.419 165.39 120.302 165.382 120.237 165.309Z" fill="black"/>
<path d="M229.498 144.311L222.703 153.14L231.532 159.935L238.326 151.106L229.498 144.311Z" fill="#FFE9D6"/>
<path d="M228.629 140.539L217.49 140.594L217.545 151.733L228.684 151.678L228.629 140.539Z" fill="#B9DEBF"/>
<path d="M157.132 26.9909C157.132 34.2277 151.264 40.096 144.027 40.096C136.79 40.096 130.922 34.2277 130.922 26.9909C130.922 19.7516 136.789 13.8833 144.027 13.8833C151.264 13.8833 157.132 19.7516 157.132 26.9909Z" fill="white"/>
<path d="M143.997 40.2892C136.665 40.2892 130.701 34.3249 130.701 26.9939C130.701 19.661 136.666 13.6954 143.997 13.6954C151.328 13.6954 157.293 19.661 157.293 26.9939C157.293 34.3249 151.328 40.2892 143.997 40.2892ZM143.997 14.0765C136.876 14.0765 131.083 19.8706 131.083 26.9933C131.083 34.1134 136.876 39.9069 143.997 39.9069C151.118 39.9069 156.911 34.1141 156.911 26.9933C156.911 19.8712 151.118 14.0765 143.997 14.0765Z" fill="black"/>
<path d="M147.353 22.158C147.353 23.9875 145.87 25.4714 144.04 25.4714C142.21 25.4714 140.726 23.9881 140.726 22.158C140.726 20.3279 142.209 18.844 144.04 18.844C145.869 18.844 147.353 20.3279 147.353 22.158Z" fill="white"/>
<path d="M144.01 25.6588C142.078 25.6588 140.506 24.0869 140.506 22.1545C140.506 20.2221 142.077 18.6497 144.01 18.6497C145.942 18.6497 147.514 20.2221 147.514 22.1545C147.513 24.0869 145.942 25.6588 144.01 25.6588ZM144.01 19.0314C142.288 19.0314 140.888 20.4323 140.888 22.1545C140.888 23.8761 142.288 25.2764 144.01 25.2764C145.731 25.2764 147.132 23.8761 147.132 22.1545C147.132 20.4323 145.731 19.0314 144.01 19.0314Z" fill="black"/>
<path d="M137.129 34.1142C137.129 30.2793 140.237 27.1711 144.071 27.1711C147.904 27.1711 151.012 30.2793 151.012 34.1142" fill="white"/>
<path d="M150.982 34.3056C150.877 34.3056 150.792 34.2195 150.792 34.1147C150.792 30.3915 147.763 27.3626 144.041 27.3626C140.318 27.3626 137.29 30.3915 137.29 34.1147C137.29 34.2201 137.204 34.3056 137.099 34.3056C136.994 34.3056 136.908 34.2195 136.908 34.1147C136.908 30.1813 140.108 26.9802 144.041 26.9802C147.973 26.9802 151.173 30.1807 151.173 34.1147C151.173 34.2195 151.087 34.3056 150.982 34.3056Z" fill="black"/>
<path d="M170.179 48.2662V56.7673C170.179 57.5439 169.549 58.1739 168.773 58.1739H120.955C120.179 58.1739 119.549 57.5439 119.549 56.7673V48.2662C119.549 47.4896 120.179 46.8596 120.955 46.8596H168.773C169.549 46.8596 170.179 47.489 170.179 48.2662Z" fill="white"/>
<path d="M168.766 58.364H120.948C120.067 58.364 119.35 57.6473 119.35 56.7666V48.2654C119.35 47.3847 120.067 46.668 120.948 46.668H168.766C169.646 46.668 170.363 47.3847 170.363 48.2654V56.7666C170.363 57.6473 169.646 58.364 168.766 58.364ZM120.948 47.0491C120.278 47.0491 119.732 47.5942 119.732 48.2648V56.7659C119.732 57.4358 120.277 57.9816 120.948 57.9816H168.766C169.435 57.9816 169.981 57.4365 169.981 56.7659V48.2648C169.981 47.5949 169.436 47.0491 168.766 47.0491H120.948Z" fill="black"/>
<path d="M170.179 65.1282V73.6294C170.179 74.406 169.549 75.036 168.773 75.036H120.955C120.179 75.036 119.549 74.406 119.549 73.6294V65.1282C119.549 64.3517 120.179 63.7217 120.955 63.7217H168.773C169.549 63.7217 170.179 64.3511 170.179 65.1282Z" fill="white"/>
<path d="M168.766 75.2287H120.948C120.067 75.2287 119.35 74.512 119.35 73.6313V65.1302C119.35 64.2494 120.067 63.5327 120.948 63.5327H168.766C169.646 63.5327 170.363 64.2494 170.363 65.1302V73.6313C170.363 74.512 169.646 75.2287 168.766 75.2287ZM120.948 63.9145C120.278 63.9145 119.732 64.4596 119.732 65.1302V73.6313C119.732 74.3012 120.277 74.847 120.948 74.847H168.766C169.435 74.847 169.981 74.3018 169.981 73.6313V65.1302C169.981 64.4602 169.436 63.9145 168.766 63.9145H120.948Z" fill="black"/>
<path d="M127.344 69.3836C127.344 70.3947 126.524 71.2106 125.517 71.2106C124.506 71.2106 123.686 70.3941 123.686 69.3836C123.686 68.3725 124.506 67.5566 125.517 67.5566C126.524 67.5566 127.344 68.3725 127.344 69.3836Z" fill="white"/>
<path d="M125.51 71.404C124.395 71.404 123.488 70.4983 123.488 69.3855C123.488 68.2734 124.395 67.3677 125.51 67.3677C126.623 67.3677 127.528 68.2734 127.528 69.3855C127.528 70.4983 126.623 71.404 125.51 71.404ZM125.51 67.7494C124.606 67.7494 123.871 68.4836 123.871 69.3855C123.871 70.2881 124.606 71.0216 125.51 71.0216C126.412 71.0216 127.146 70.2875 127.146 69.3855C127.146 68.4836 126.412 67.7494 125.51 67.7494Z" fill="black"/>
<path d="M133.799 69.3836C133.799 70.3947 132.98 71.2106 131.973 71.2106C130.961 71.2106 130.142 70.3941 130.142 69.3836C130.142 68.3725 130.961 67.5566 131.973 67.5566C132.98 67.5566 133.799 68.3725 133.799 69.3836Z" fill="white"/>
<path d="M131.977 71.404C130.862 71.404 129.955 70.4983 129.955 69.3855C129.955 68.2734 130.862 67.3677 131.977 67.3677C133.089 67.3677 133.995 68.2734 133.995 69.3855C133.995 70.4983 133.089 71.404 131.977 71.404ZM131.977 67.7494C131.073 67.7494 130.337 68.4836 130.337 69.3855C130.337 70.2881 131.073 71.0216 131.977 71.0216C132.879 71.0216 133.613 70.2875 133.613 69.3855C133.612 68.4836 132.878 67.7494 131.977 67.7494Z" fill="black"/>
<path d="M140.205 69.3836C140.205 70.3947 139.386 71.2106 138.378 71.2106C137.367 71.2106 136.547 70.3941 136.547 69.3836C136.547 68.3725 137.367 67.5566 138.378 67.5566C139.385 67.5566 140.205 68.3725 140.205 69.3836Z" fill="white"/>
<path d="M138.373 71.404C137.259 71.404 136.352 70.4983 136.352 69.3855C136.352 68.2734 137.259 67.3677 138.373 67.3677C139.486 67.3677 140.392 68.2734 140.392 69.3855C140.392 70.4983 139.486 71.404 138.373 71.404ZM138.373 67.7494C137.47 67.7494 136.734 68.4836 136.734 69.3855C136.734 70.2881 137.47 71.0216 138.373 71.0216C139.276 71.0216 140.009 70.2875 140.009 69.3855C140.01 68.4836 139.276 67.7494 138.373 67.7494Z" fill="black"/>
<path d="M146.591 69.3836C146.591 70.3947 145.772 71.2106 144.764 71.2106C143.753 71.2106 142.934 70.3941 142.934 69.3836C142.934 68.3725 143.753 67.5566 144.764 67.5566C145.772 67.5566 146.591 68.3725 146.591 69.3836Z" fill="white"/>
<path d="M144.758 71.404C143.643 71.404 142.736 70.4983 142.736 69.3855C142.736 68.2734 143.643 67.3677 144.758 67.3677C145.87 67.3677 146.776 68.2734 146.776 69.3855C146.776 70.4983 145.87 71.404 144.758 71.404ZM144.758 67.7494C143.853 67.7494 143.118 68.4836 143.118 69.3855C143.118 70.2881 143.853 71.0216 144.758 71.0216C145.66 71.0216 146.394 70.2875 146.394 69.3855C146.393 68.4836 145.66 67.7494 144.758 67.7494Z" fill="black"/>
<path d="M145.573 51.173V53.8577C145.573 54.129 145.353 54.3486 145.082 54.3486H123.466C123.194 54.3486 122.975 54.129 122.975 53.8577V51.173C122.975 50.9017 123.194 50.6821 123.466 50.6821H145.082C145.353 50.6821 145.573 50.9017 145.573 51.173Z" fill="#FFF0E4"/>
</svg>
