<svg width="316" height="233" viewBox="0 0 316 233" fill="none" xmlns="http://www.w3.org/2000/svg">
<path d="M302.485 232.177H13.4845C-12.5155 222.977 4.98454 207.677 16.9845 201.177C-28.0155 61.1769 32.9845 117.677 45.9845 74.6769C58.9845 31.6769 70.9845 113.177 107.485 36.677C143.985 -39.823 139.485 31.1769 217.485 6.17691C295.485 -18.8231 295.485 50.1769 286.485 55.6769C277.485 61.1769 231.485 129.677 286.485 160.177C330.485 184.577 315.485 218.344 302.485 232.177Z" fill="#E4F2E6"/>
<path d="M253.484 32.2118L255.269 30.3989L258.939 33.2885L265.704 26.6769L267.484 28.3762L258.798 36.6769L253.484 32.2118Z" fill="#83B072" fill-opacity="0.2"/>
<path d="M274.484 31.7044C274.484 31.7044 274.484 31.6276 274.466 31.4776C274.449 31.3275 274.442 31.1042 274.421 30.8181C274.421 30.6715 274.403 30.511 274.393 30.3331C274.382 30.1551 274.337 29.9597 274.305 29.7503C274.274 29.541 274.235 29.3141 274.197 29.0734C274.15 28.8179 274.089 28.5651 274.015 28.3162C273.691 27.0143 273.169 25.7694 272.468 24.6243C271.554 23.0998 270.354 21.7647 268.935 20.6918L268.333 20.2486C268.123 20.109 267.903 19.9834 267.682 19.8473C267.462 19.7112 267.245 19.5647 267.004 19.4565L266.283 19.1075L265.916 18.9366L265.531 18.797L264.751 18.5109C264.485 18.4236 264.208 18.3678 263.932 18.2945C263.656 18.2137 263.376 18.1507 263.092 18.1061C262.515 17.9977 261.93 17.93 261.343 17.9037C261.042 17.9037 260.741 17.8618 260.437 17.8688L259.52 17.9142C259.366 17.9142 259.209 17.9142 259.055 17.9456L258.593 18.0154C258.285 18.0677 257.97 18.1026 257.659 18.1689C256.388 18.4554 255.159 18.9033 254.003 19.5019C253.709 19.6589 253.429 19.8508 253.139 20.0148C252.992 20.0981 252.849 20.189 252.712 20.287L252.303 20.5906C251.75 21.0009 251.224 21.4462 250.728 21.9235C250.241 22.428 249.787 22.9642 249.371 23.5287L249.052 23.9544L248.773 24.408L248.493 24.8651L248.353 25.0954L248.237 25.3362L247.765 26.3167L247.387 27.3391C246.937 28.75 246.701 30.2203 246.687 31.7009C246.701 33.1827 246.937 34.6541 247.387 36.0662L247.765 37.0921C247.922 37.4166 248.08 37.7411 248.234 38.0656L248.353 38.3064L248.493 38.5367L248.773 38.9973L249.052 39.4509L249.371 39.8767C249.787 40.44 250.241 40.975 250.728 41.4783C251.223 41.9578 251.749 42.4042 252.303 42.8148L252.708 43.1183C252.845 43.2195 252.995 43.2998 253.139 43.387C253.429 43.5615 253.709 43.736 254.003 43.9035C254.587 44.2077 255.192 44.4723 255.812 44.6956C256.415 44.9172 257.032 45.0979 257.659 45.2364C257.97 45.3027 258.285 45.3376 258.593 45.39L259.055 45.4597C259.212 45.4807 259.366 45.4807 259.52 45.4912L260.437 45.5365C260.741 45.5365 261.042 45.5121 261.343 45.5016C261.93 45.4753 262.515 45.4076 263.092 45.2992C263.377 45.2542 263.659 45.1913 263.935 45.1108C264.208 45.0375 264.485 44.9782 264.751 44.891L265.534 44.6083L265.919 44.4688L266.269 44.2943L267.007 43.9523C267.249 43.8441 267.462 43.6906 267.686 43.565C267.91 43.4394 268.127 43.3033 268.34 43.1637L268.938 42.7171C270.359 41.6471 271.559 40.3129 272.472 38.788C273.168 37.641 273.685 36.3949 274.004 35.0926C274.078 34.8436 274.139 34.5909 274.186 34.3354C274.225 34.0947 274.26 33.8679 274.295 33.6585C274.33 33.4491 274.365 33.2537 274.382 33.0758C274.4 32.8978 274.403 32.7268 274.41 32.5907C274.431 32.3046 274.445 32.0848 274.456 31.9277C274.466 31.7707 274.473 31.7044 274.473 31.7044C274.473 31.7044 274.473 31.7812 274.473 31.9312C274.473 32.0813 274.473 32.3046 274.449 32.5907L274.428 33.0792C274.428 33.2607 274.375 33.4526 274.347 33.6655C274.319 33.8783 274.284 34.1051 274.249 34.3633C274.214 34.6216 274.134 34.8589 274.074 35.1275C273.758 36.4403 273.243 37.6971 272.545 38.8543C271.634 40.3968 270.432 41.7489 269.005 42.8357L268.407 43.2544C268.193 43.3975 267.969 43.5231 267.749 43.6627C267.528 43.8023 267.308 43.9488 267.067 44.057L266.339 44.4059L265.968 44.5804C265.842 44.6293 265.713 44.6781 265.58 44.7235L264.793 45.0131C264.523 45.1038 264.243 45.1597 263.967 45.2364C263.688 45.3196 263.404 45.3849 263.117 45.4318C262.532 45.541 261.941 45.611 261.346 45.6412C261.042 45.6412 260.738 45.6831 260.43 45.6761L259.503 45.6307C259.345 45.6307 259.188 45.6307 259.034 45.6028L258.565 45.533C258.25 45.4807 257.935 45.4458 257.62 45.3795C256.984 45.241 256.357 45.0591 255.745 44.8351C255.118 44.611 254.506 44.344 253.915 44.0361C253.618 43.8755 253.331 43.6871 253.041 43.5161C252.894 43.4254 252.743 43.3486 252.604 43.244L252.191 42.9369C251.63 42.5217 251.097 42.0707 250.595 41.5865C250.1 41.0779 249.641 40.5357 249.22 39.9639L248.895 39.5347L248.612 39.0741L248.328 38.61L248.188 38.3762L248.069 38.1319C247.908 37.8039 247.751 37.4724 247.59 37.1444C247.429 36.8164 247.338 36.4465 247.209 36.0976C246.746 34.6684 246.502 33.1781 246.484 31.6765C246.503 30.1761 246.747 28.6869 247.209 27.2589L247.59 26.212C247.751 25.8805 247.912 25.5525 248.069 25.2245L248.188 24.9768L248.332 24.7465L248.615 24.2824L248.895 23.8218L249.22 23.3891C249.642 22.8182 250.102 22.2772 250.599 21.77C251.099 21.285 251.631 20.8339 252.191 20.4196L252.607 20.1125C252.743 20.0078 252.897 19.9311 253.041 19.8403C253.335 19.6659 253.618 19.4914 253.915 19.3204C254.506 19.011 255.117 18.744 255.745 18.5213C256.357 18.2973 256.984 18.1155 257.62 17.977C257.935 17.9107 258.25 17.8758 258.565 17.8234L259.03 17.7536C259.188 17.7327 259.345 17.7362 259.503 17.7257L260.43 17.6769C260.738 17.6769 261.042 17.7048 261.343 17.7153C261.938 17.7453 262.531 17.8153 263.117 17.9246C263.404 17.9716 263.688 18.0369 263.967 18.12C264.243 18.1968 264.523 18.2526 264.793 18.3434L265.58 18.633L265.968 18.7726L266.339 18.9505L267.067 19.2995C267.308 19.4111 267.521 19.5682 267.749 19.6973C267.976 19.8264 268.193 19.9625 268.407 20.102L269.008 20.5557C270.437 21.6416 271.64 22.9937 272.552 24.5371C273.25 25.694 273.766 26.9509 274.081 28.2638C274.141 28.5325 274.228 28.7803 274.256 29.028C274.284 29.2758 274.323 29.4956 274.354 29.7259C274.386 29.9562 274.417 30.1307 274.435 30.3086C274.452 30.4866 274.435 30.6576 274.456 30.7971C274.456 31.0868 274.473 31.3066 274.48 31.4601C274.487 31.6137 274.484 31.7044 274.484 31.7044Z" fill="#E0E0E0"/>
<path d="M239.14 34.4863C239.114 34.4863 239.114 34.2671 239.008 33.8982C238.859 33.3791 238.543 32.9243 238.11 32.6046C237.764 32.3389 237.35 32.176 236.917 32.1342C236.483 32.0923 236.047 32.1733 235.657 32.3678C235.266 32.5624 234.938 32.8628 234.708 33.2352C234.479 33.6076 234.357 34.0373 234.357 34.4756C234.357 34.9139 234.479 35.3435 234.708 35.716C234.938 36.0884 235.266 36.3888 235.657 36.5834C236.047 36.7779 236.483 36.8588 236.917 36.817C237.35 36.7752 237.764 36.6123 238.11 36.3466C238.543 36.0266 238.858 35.5719 239.008 35.0529C239.114 34.6787 239.114 34.4596 239.14 34.4596C239.151 34.5125 239.151 34.567 239.14 34.6199C239.146 34.7744 239.132 34.929 239.098 35.0797C238.984 35.6527 238.672 36.1662 238.216 36.5284C237.879 36.7954 237.48 36.9722 237.057 37.0423C236.633 37.1124 236.199 37.0735 235.794 36.9293C235.295 36.7489 234.863 36.4177 234.558 35.9809C234.252 35.5441 234.089 35.023 234.089 34.489C234.089 33.9549 234.252 33.4338 234.558 32.997C234.863 32.5602 235.295 32.229 235.794 32.0486C236.2 31.9066 236.635 31.8704 237.059 31.9433C237.482 32.0162 237.88 32.1959 238.216 32.4656C238.669 32.8221 238.983 33.3272 239.103 33.8929C239.137 34.0418 239.151 34.1946 239.146 34.3473C239.152 34.3936 239.15 34.4406 239.14 34.4863Z" fill="#E0E0E0"/>
<path d="M53.6266 130.299H38.4845V145.54H53.6266V130.299Z" fill="white" fill-opacity="0.4"/>
<path d="M53.6266 147.161H38.4845V162.402H53.6266V147.161Z" fill="white" fill-opacity="0.4"/>
<path d="M53.6266 164.015H38.4845V179.256H53.6266V164.015Z" fill="white" fill-opacity="0.4"/>
<path d="M70.7551 130.299H55.6129V145.54H70.7551V130.299Z" fill="white" fill-opacity="0.4"/>
<path d="M70.7551 147.161H55.6129V162.402H70.7551V147.161Z" fill="white" fill-opacity="0.4"/>
<path d="M70.7551 164.015H55.6129V179.256H70.7551V164.015Z" fill="white" fill-opacity="0.4"/>
<path d="M87.8889 130.299H72.7467V145.54H87.8889V130.299Z" fill="white" fill-opacity="0.4"/>
<path d="M87.8889 147.161H72.7467V162.402H87.8889V147.161Z" fill="white" fill-opacity="0.4"/>
<path d="M87.8889 164.015H72.7467V179.256H87.8889V164.015Z" fill="white" fill-opacity="0.4"/>
<path d="M105.023 130.299H89.8805V145.54H105.023V130.299Z" fill="white" fill-opacity="0.4"/>
<path d="M105.023 147.161H89.8805V162.402H105.023V147.161Z" fill="white" fill-opacity="0.4"/>
<path d="M105.023 164.015H89.8805V179.256H105.023V164.015Z" fill="white" fill-opacity="0.4"/>
<path d="M122.157 130.299H107.015V145.54H122.157V130.299Z" fill="white" fill-opacity="0.4"/>
<path d="M122.157 147.161H107.015V162.402H122.157V147.161Z" fill="white" fill-opacity="0.4"/>
<path d="M122.157 164.015H107.015V179.256H122.157V164.015Z" fill="white" fill-opacity="0.4"/>
<path d="M139.291 130.299H124.149V145.54H139.291V130.299Z" fill="white" fill-opacity="0.4"/>
<path d="M139.291 147.161H124.149V162.402H139.291V147.161Z" fill="white" fill-opacity="0.4"/>
<path d="M139.291 164.015H124.149V179.256H139.291V164.015Z" fill="white" fill-opacity="0.4"/>
<path d="M156.419 130.299H141.277V145.54H156.419V130.299Z" fill="white" fill-opacity="0.4"/>
<path d="M156.419 147.161H141.277V162.402H156.419V147.161Z" fill="white" fill-opacity="0.4"/>
<path d="M156.419 164.015H141.277V179.256H156.419V164.015Z" fill="white" fill-opacity="0.4"/>
<path d="M173.553 130.299H158.411V145.54H173.553V130.299Z" fill="#F5F5F5"/>
<path d="M173.553 147.161H158.411V162.402H173.553V147.161Z" fill="#F5F5F5"/>
<path d="M173.553 164.015H158.411V179.256H173.553V164.015Z" fill="#F5F5F5"/>
<path d="M190.687 130.299H175.545V145.54H190.687V130.299Z" fill="#F5F5F5"/>
<path d="M190.687 147.161H175.545V162.402H190.687V147.161Z" fill="#F5F5F5"/>
<path d="M190.687 164.015H175.545V179.256H190.687V164.015Z" fill="#F5F5F5"/>
<path d="M207.82 130.299H192.678V145.54H207.82V130.299Z" fill="#F5F5F5"/>
<path d="M207.82 147.161H192.678V162.402H207.82V147.161Z" fill="#F5F5F5"/>
<path d="M207.82 164.015H192.678V179.256H207.82V164.015Z" fill="#F5F5F5"/>
<path d="M224.954 130.299H209.812V145.54H224.954V130.299Z" fill="#F5F5F5"/>
<path d="M224.954 147.161H209.812V162.402H224.954V147.161Z" fill="#F5F5F5"/>
<path d="M224.954 164.015H209.812V179.256H224.954V164.015Z" fill="#F5F5F5"/>
<path d="M242.088 130.299H226.946V145.54H242.088V130.299Z" fill="#F5F5F5"/>
<path d="M242.088 147.161H226.946V162.402H242.088V147.161Z" fill="#F5F5F5"/>
<path d="M242.088 164.015H226.946V179.256H242.088V164.015Z" fill="#F5F5F5"/>
<path d="M259.217 130.299H244.075V145.54H259.217V130.299Z" fill="#F5F5F5"/>
<path d="M259.217 147.161H244.075V162.402H259.217V147.161Z" fill="#F5F5F5"/>
<path d="M259.217 164.015H244.075V179.256H259.217V164.015Z" fill="#F5F5F5"/>
<path d="M276.351 130.299H261.209V145.54H276.351V130.299Z" fill="#E4F2E6"/>
<path d="M276.351 147.161H261.209V162.402H276.351V147.161Z" fill="#E4F2E6"/>
<path d="M276.351 164.015H261.209V179.256H276.351V164.015Z" fill="#E4F2E6"/>
<path d="M293.485 130.299H278.342V145.54H293.485V130.299Z" fill="#E4F2E6"/>
<path d="M293.485 147.161H278.342V162.402H293.485V147.161Z" fill="#E4F2E6"/>
<path d="M293.485 164.015H278.342V179.256H293.485V164.015Z" fill="#E4F2E6"/>
<path d="M172.857 18.1493C172.857 18.1493 167.604 18.9939 164.752 28.3063C161.9 37.6187 158.995 52.3625 159.096 53.1002C159.335 54.8964 161.019 55.0781 162.399 56.3451C163.212 57.0988 163.377 56.8797 162.819 59.9107C162.32 62.6424 155.548 85.8967 154.162 90.6438C154.131 90.751 154.123 90.8635 154.138 90.974C154.153 91.0846 154.19 91.1908 154.248 91.2859C154.306 91.381 154.383 91.4629 154.474 91.5263C154.566 91.5897 154.669 91.6332 154.778 91.6541L160.525 92.7233C160.629 92.744 160.737 92.743 160.841 92.7206C160.945 92.6981 161.044 92.6545 161.131 92.5925C161.218 92.5305 161.291 92.4514 161.347 92.3599C161.402 92.2684 161.439 92.1665 161.454 92.0604L166.925 55.2813C166.925 55.2813 174.031 20.587 174.057 19.9989C174.084 19.4109 174.392 18.1867 172.857 18.1493Z" fill="#FFF2E6"/>
<path d="M67.5952 96.9257C66.1399 95.8299 65.6141 91.8846 63.633 89.3026C61.652 86.7206 48.852 79.4022 47.8907 78.8623C47.6344 78.6952 47.3283 78.6234 47.025 78.6591C46.9735 78.6701 46.9261 78.6958 46.8886 78.733C46.851 78.7702 46.8249 78.8175 46.8131 78.8692C46.8014 78.9209 46.8046 78.9749 46.8224 79.0248C46.8402 79.0747 46.8718 79.1185 46.9135 79.1509L58.0669 87.5332C58.1619 87.601 58.2304 87.7001 58.2604 87.8133C58.2905 87.9265 58.2803 88.0468 58.2316 88.1533C58.1992 88.2149 58.154 88.2688 58.0991 88.3113C58.0442 88.3538 57.9808 88.384 57.9133 88.3997C57.8458 88.4154 57.7757 88.4163 57.7079 88.4024C57.64 88.3885 57.5759 88.36 57.5199 88.319L46.2549 80.2682C46.1373 80.1803 45.9898 80.143 45.8448 80.1646C45.6999 80.1861 45.5694 80.2647 45.4821 80.3831C45.3948 80.5015 45.3577 80.65 45.3791 80.7958C45.4006 80.9417 45.4787 81.073 45.5963 81.161L56.5745 89.618C56.6686 89.6866 56.7359 89.786 56.765 89.8992C56.7941 90.0124 56.7831 90.1323 56.7338 90.2381C56.7021 90.3004 56.6572 90.355 56.6024 90.3981C56.5475 90.4411 56.484 90.4716 56.4162 90.4874C56.3484 90.5031 56.2781 90.5038 56.21 90.4894C56.1419 90.475 56.0778 90.4458 56.0221 90.4039L44.7677 82.3103C44.6438 82.2196 44.4891 82.1821 44.3377 82.2062C44.1863 82.2302 44.0506 82.3138 43.9604 82.4386C43.8703 82.5634 43.8331 82.7191 43.857 82.8715C43.8809 83.0238 43.964 83.1604 44.0879 83.2512L54.9811 91.7029C55.076 91.7708 55.1441 91.8702 55.1732 91.9837C55.2024 92.0971 55.1908 92.2173 55.1405 92.323C55.1087 92.3853 55.0639 92.4399 55.009 92.4829C54.9541 92.526 54.8906 92.5564 54.8228 92.5722C54.7551 92.588 54.6847 92.5887 54.6166 92.5743C54.5486 92.5599 54.4845 92.5307 54.4288 92.4887L43.2381 84.0958C43.192 84.0616 43.1371 84.0416 43.08 84.038C43.0229 84.0345 42.9659 84.0476 42.916 84.0758C42.8661 84.104 42.8254 84.1462 42.7987 84.1971C42.7719 84.2481 42.7604 84.3057 42.7654 84.3631C42.815 84.6722 42.9733 84.953 43.2116 85.1543C43.9976 85.9294 54.6253 96.1773 57.6473 97.3534C60.6694 98.5295 64.5837 97.888 66.039 98.9946C67.3721 99.9889 94.8893 122.04 99.6746 125.879C99.7674 125.952 99.8739 126.006 99.9877 126.037C100.102 126.068 100.22 126.076 100.337 126.06C100.454 126.044 100.567 126.004 100.668 125.944C100.77 125.883 100.858 125.803 100.928 125.708L103.164 122.682C103.236 122.587 103.288 122.479 103.316 122.363C103.345 122.248 103.35 122.128 103.331 122.01C103.313 121.892 103.27 121.78 103.207 121.68C103.143 121.579 103.06 121.493 102.962 121.426C97.9219 117.935 68.923 97.9201 67.5952 96.9257Z" fill="#FFF2E6"/>
<path d="M281.237 231.537C281.237 231.612 229.187 231.676 164.954 231.676C100.721 231.676 48.6393 231.612 48.6393 231.537C48.6393 231.462 100.689 231.398 164.954 231.398C229.219 231.398 281.237 231.457 281.237 231.537Z" fill="#263238"/>
<path d="M98.7877 205.461C98.9443 204.438 98.8983 203.394 98.6524 202.39C98.4065 201.385 97.9654 200.439 97.3547 199.607C96.744 198.775 95.9757 198.072 95.0941 197.54C94.2124 197.008 93.2349 196.657 92.2177 196.506C92.0386 196.466 91.8511 196.489 91.6866 196.571C91.5906 196.668 91.5211 196.788 91.4848 196.92C91.4485 197.052 91.4467 197.191 91.4795 197.324C91.667 199.312 92.4736 201.189 93.7842 202.688C95.0947 204.186 96.8422 205.23 98.777 205.669" fill="#455A64"/>
<path d="M87.8676 219.933C89.8328 224.012 92.6477 226.754 96.1584 226.882C96.8541 226.909 97.3852 226.444 98.0544 226.407C98.4455 226.495 98.8226 226.637 99.1751 226.829C99.3576 226.911 99.5543 226.956 99.754 226.963C103.371 226.77 106.451 224.209 108.528 219.927C111.417 213.935 110.525 207.493 106.536 205.537C106.014 205.272 105.468 205.058 104.906 204.895C104.259 204.716 103.59 204.637 102.919 204.66C101.365 204.76 99.8353 205.108 98.3891 205.692L98.1925 205.761C94.9527 204.323 92.3503 204.312 89.8487 205.537C85.86 207.498 84.973 213.94 87.8676 219.933Z" fill="#FF8518"/>
<path d="M87.9368 213.859C87.7489 213.484 87.6369 213.076 87.6076 212.657C87.4899 211.642 87.6119 210.615 87.9635 209.657C88.3152 208.699 88.8865 207.839 89.6311 207.145C89.9243 206.844 90.2747 206.606 90.6615 206.445C90.6615 206.488 90.2897 206.744 89.7639 207.284C89.0874 207.99 88.5635 208.83 88.2253 209.75C87.8871 210.67 87.7419 211.651 87.7988 212.63C87.8519 213.389 87.9846 213.843 87.9368 213.859Z" fill="#FAFAFA"/>
<path d="M88.6696 216.709C88.5952 216.709 88.4677 216.442 88.3828 216.078C88.2978 215.715 88.2925 215.399 88.3828 215.383C88.473 215.367 88.5846 215.651 88.6696 216.014C88.7545 216.378 88.7439 216.693 88.6696 216.709Z" fill="#FAFAFA"/>
<path d="M107.03 195.657C107.03 195.705 106.281 195.994 105.156 196.673C104.499 197.07 103.874 197.517 103.286 198.009C102.574 198.623 101.915 199.295 101.316 200.019C100.719 200.752 100.186 201.536 99.7222 202.361C99.3577 203.04 99.0452 203.746 98.7874 204.472C98.3519 205.713 98.2244 206.531 98.1713 206.52C98.1632 206.326 98.1829 206.131 98.2297 205.943C98.2601 205.717 98.3044 205.494 98.3625 205.274C98.4316 205.018 98.49 204.74 98.6015 204.408C98.8396 203.662 99.1398 202.938 99.4991 202.243C100.389 200.536 101.614 199.028 103.1 197.812C103.705 197.318 104.352 196.88 105.033 196.502C105.291 196.351 105.557 196.215 105.83 196.096C106.031 195.993 106.239 195.904 106.451 195.828C106.635 195.743 106.83 195.685 107.03 195.657Z" fill="#263238"/>
<path d="M68.588 222.2V222.959L78.2915 227.514C78.2915 227.514 79.0882 229.93 86.1574 230.053C93.2265 230.176 110.238 230.192 110.238 230.192C110.238 230.192 114.917 230.294 117.939 227.632L127.213 223.098L127.091 222.147L68.588 222.2Z" fill="#E0E0E0"/>
<path d="M109.548 230.112H86.8375V231.122H109.548V230.112Z" fill="#E0E0E0"/>
<path d="M118.099 227.588H117.998H117.695L116.537 227.62L112.288 227.7C108.682 227.754 103.705 227.813 98.2137 227.818C92.722 227.823 87.7348 227.786 84.1338 227.695C82.3333 227.652 80.878 227.61 79.8849 227.556L78.727 227.503H78.4243H78.3234H78.727L79.8902 227.529C80.894 227.567 82.3492 227.588 84.1391 227.62C87.7401 227.679 92.7166 227.706 98.219 227.695C103.721 227.684 108.687 227.652 112.288 227.626L116.537 227.594H118.099V227.588Z" fill="#263238"/>
<path d="M109.017 230.11C109.017 230.153 103.977 230.191 97.7677 230.191C91.559 230.191 86.5187 230.153 86.5187 230.11C86.5187 230.068 91.5537 230.036 97.7677 230.036C103.982 230.036 109.017 230.068 109.017 230.11Z" fill="#263238"/>
<path d="M127.016 223.098C127.016 223.141 113.919 223.173 97.7678 223.173C81.6165 223.173 68.5192 223.141 68.5192 223.098C68.5192 223.055 81.6112 223.023 97.7678 223.023C113.924 223.023 127.016 223.055 127.016 223.098Z" fill="#263238"/>
<path d="M145.759 58.4363C145.64 65.6252 143.404 72.6169 139.337 78.5272C135.269 84.4375 129.551 89.0009 122.907 91.6404C116.262 94.2799 108.989 94.8768 102.008 93.3557C95.0261 91.8346 88.6494 88.2638 83.6841 83.0949C78.7188 77.926 75.3878 71.3911 74.1126 64.3168C72.8373 57.2424 73.6749 49.9462 76.5196 43.351C79.3642 36.7558 84.088 31.1578 90.0937 27.2649C96.0994 23.372 103.117 21.3591 110.259 21.4807C119.836 21.6438 128.955 25.6288 135.613 32.5591C142.27 39.4895 145.92 48.7976 145.759 58.4363Z" fill="#86CF5F"/>
<g opacity="0.3">
<path d="M145.759 58.4366C145.64 65.6255 143.404 72.6172 139.337 78.5275C135.269 84.4378 129.551 89.0012 122.907 91.6407C116.262 94.2802 108.989 94.8771 102.008 93.356C95.0261 91.8349 88.6494 88.2641 83.6841 83.0952C78.7188 77.9263 75.3878 71.3914 74.1126 64.3171C72.8373 57.2427 73.6749 49.9465 76.5196 43.3513C79.3642 36.7561 84.088 31.1581 90.0937 27.2652C96.0994 23.3723 103.117 21.3594 110.259 21.481C119.836 21.6441 128.955 25.6291 135.613 32.5594C142.27 39.4898 145.92 48.7979 145.759 58.4366Z" fill="black"/>
</g>
<path d="M132.659 82.542C146.861 68.2477 146.861 45.0721 132.659 30.7779C118.458 16.4836 95.4322 16.4836 81.2306 30.7779C67.0289 45.0721 67.0289 68.2477 81.2306 82.542C95.4322 96.8362 118.458 96.8362 132.659 82.542Z" fill="#86CF5F"/>
<path d="M136.1 71.0848C144.012 54.8789 137.374 35.2855 121.273 27.3218C105.172 19.358 85.7058 26.0396 77.7936 42.2455C69.8815 58.4514 76.5198 78.0448 92.6207 86.0085C108.722 93.9723 128.188 87.2907 136.1 71.0848Z" fill="white"/>
<path d="M139.429 57.2122C139.429 57.2122 139.429 57.0305 139.429 56.6776C139.429 56.3248 139.429 55.8063 139.381 55.122C139.148 50.4552 137.923 45.8931 135.789 41.7432C133.655 37.5934 130.662 33.9524 127.011 31.0659C123.044 27.9258 118.403 25.7637 113.457 24.7525C109.274 23.9007 104.965 23.8789 100.774 24.6883C99.2945 24.9811 97.8361 25.3722 96.4081 25.8591C90.1381 28.0509 84.6883 32.1281 80.7958 37.5393C76.9032 42.9505 74.7558 49.4344 74.644 56.1141C74.5321 62.7938 76.4613 69.3468 80.1705 74.8869C83.8797 80.427 89.19 84.6867 95.383 87.0899C96.7876 87.6206 98.2246 88.0599 99.6851 88.405C101.11 88.7338 102.557 88.9624 104.014 89.0893C106.8 89.3488 109.609 89.2428 112.368 88.7739C117.339 87.9164 122.042 85.9028 126.103 82.8935C132.022 78.5248 136.299 72.27 138.239 65.1454C138.756 63.2202 139.101 61.2522 139.269 59.265C139.344 58.5861 139.338 58.0622 139.37 57.7147C139.402 57.3673 139.402 57.1801 139.402 57.1801C139.402 57.1801 139.402 57.9018 139.322 59.265C139.179 61.2518 138.85 63.2206 138.34 65.1454C136.436 72.3192 132.161 78.6262 126.22 83.0271C122.138 86.057 117.409 88.0836 112.411 88.9449C109.633 89.4265 106.805 89.5397 103.998 89.2817C102.531 89.1523 101.074 88.9237 99.6373 88.5975C98.1636 88.2538 96.714 87.8127 95.2981 87.2771C89.0404 84.8699 83.6707 80.582 79.9188 74.996C76.1668 69.41 74.2144 62.7968 74.327 56.055C74.4395 49.3131 76.6116 42.7697 80.5479 37.3137C84.4842 31.8577 89.9939 27.7538 96.3284 25.5597C97.7693 25.0953 99.2382 24.7239 100.726 24.4478C105.328 23.549 110.068 23.6616 114.622 24.7781C119.176 25.8945 123.437 27.9883 127.112 30.9162C130.384 33.5287 133.132 36.7456 135.206 40.3943C137.773 44.8909 139.222 49.9456 139.429 55.1274C139.46 56.5226 139.429 57.2122 139.429 57.2122Z" fill="#263238"/>
<path d="M91.9254 100.416L93.6675 90.2L99.3664 92.2848L95.0325 101.426C94.8731 101.768 94.6021 102.044 94.2646 102.208C93.9272 102.373 93.5439 102.416 93.1789 102.33C92.7652 102.235 92.4039 101.983 92.1704 101.626C91.9369 101.269 91.8491 100.836 91.9254 100.416Z" fill="#86CF5F"/>
<path d="M141.951 86.5281L136.168 77.9749L131.839 82.2515L139.53 88.752C139.817 88.9941 140.178 89.1303 140.552 89.1381C140.927 89.1459 141.293 89.0248 141.59 88.7948C141.931 88.5378 142.159 88.1578 142.226 87.7349C142.293 87.312 142.195 86.8794 141.951 86.5281Z" fill="#86CF5F"/>
<path d="M96.683 15.2807L95.0587 15.8021L97.373 23.1055L98.9973 22.5841L96.683 15.2807Z" fill="#86CF5F"/>
<path d="M96.4963 12.2818L93.4803 13.2494C92.885 13.4404 92.5563 14.0809 92.746 14.6801L92.9993 15.4797C93.189 16.0789 93.8254 16.4098 94.4207 16.2188L97.4366 15.2512C98.0319 15.0602 98.3607 14.4197 98.1709 13.8205L97.9177 13.0208C97.7279 12.4217 97.0915 12.0908 96.4963 12.2818Z" fill="#86CF5F"/>
<path d="M106.281 49.0861C105.894 47.894 107.158 45.4724 107.067 43.2378C106.977 41.0033 102.691 31.7978 102.367 31.1082C102.287 30.9126 102.142 30.7504 101.958 30.6484C101.927 30.6386 101.895 30.6369 101.863 30.6437C101.832 30.6504 101.802 30.6653 101.778 30.6868C101.754 30.7084 101.736 30.7359 101.726 30.7667C101.715 30.7975 101.713 30.8304 101.719 30.8623L104.677 40.0196C104.703 40.0956 104.701 40.1781 104.673 40.2531C104.645 40.3281 104.592 40.3911 104.523 40.4313C104.481 40.4539 104.434 40.4668 104.386 40.4692C104.338 40.4715 104.29 40.4632 104.245 40.4449C104.201 40.4265 104.161 40.3986 104.128 40.363C104.095 40.3274 104.071 40.285 104.056 40.2388L100.912 31.2258C100.88 31.1301 100.812 31.051 100.722 31.0059C100.633 30.9607 100.529 30.9533 100.434 30.9852C100.339 31.0171 100.26 31.0857 100.215 31.176C100.171 31.2662 100.163 31.3706 100.195 31.4663L102.989 40.5542C103.015 40.6301 103.014 40.713 102.986 40.7883C102.958 40.8635 102.904 40.9264 102.834 40.9658C102.792 40.9885 102.746 41.0014 102.698 41.0037C102.65 41.0061 102.603 40.9977 102.558 40.9793C102.514 40.9609 102.475 40.9329 102.442 40.8973C102.41 40.8617 102.386 40.8194 102.372 40.7734L99.276 31.7604C99.2369 31.67 99.1658 31.5975 99.0764 31.5572C98.987 31.5168 98.8859 31.5115 98.7929 31.5423C98.6999 31.5731 98.6216 31.6377 98.5734 31.7235C98.5252 31.8094 98.5106 31.9102 98.5324 32.0063L101.305 41.0941C101.33 41.1701 101.329 41.2526 101.301 41.3276C101.273 41.4026 101.22 41.4656 101.151 41.5058C101.108 41.5284 101.061 41.5413 101.013 41.5437C100.965 41.546 100.917 41.5377 100.873 41.5194C100.828 41.501 100.788 41.4731 100.755 41.4375C100.723 41.4019 100.698 41.3595 100.683 41.3133L97.7251 32.1506C97.7129 32.1134 97.6902 32.0806 97.6598 32.0561C97.6294 32.0316 97.5927 32.0164 97.5539 32.0125C97.5152 32.0085 97.4762 32.0159 97.4415 32.0338C97.4069 32.0517 97.3781 32.0792 97.3587 32.1132C97.2636 32.3053 97.241 32.5256 97.2949 32.7333C97.433 33.4764 99.3397 43.457 100.572 45.3227C101.804 47.1884 104.237 48.3965 104.624 49.5993C104.975 50.6685 111.694 74.019 112.862 78.0711C112.884 78.1492 112.922 78.2219 112.973 78.285C113.024 78.348 113.087 78.4001 113.159 78.438C113.23 78.4759 113.308 78.499 113.389 78.5057C113.469 78.5125 113.55 78.5029 113.627 78.4774L116.07 77.6809C116.147 77.6563 116.219 77.6161 116.281 77.5627C116.342 77.5093 116.393 77.4439 116.428 77.3704C116.464 77.297 116.485 77.2169 116.489 77.1352C116.493 77.0535 116.481 76.9718 116.452 76.895C114.997 72.9498 106.632 50.1713 106.281 49.0861Z" fill="#E0E0E0"/>
<path d="M126.538 33.979C126.538 33.979 123.224 33.0328 119.023 37.7211C114.822 42.4093 109.128 50.2356 108.985 50.706C108.634 51.8287 109.574 52.3953 110.047 53.5233C110.323 54.1862 110.482 54.0899 109.325 55.7257C108.289 57.1905 98.0117 68.9727 95.9138 71.3783C95.8695 71.4338 95.8366 71.4976 95.8171 71.5661C95.7976 71.6345 95.7919 71.7062 95.8003 71.777C95.8087 71.8477 95.831 71.916 95.8661 71.9779C95.9011 72.0398 95.948 72.094 96.0041 72.1374L99.0793 74.3505C99.194 74.4278 99.3342 74.4571 99.47 74.4322C99.6059 74.4072 99.7267 74.33 99.8069 74.2169L112.984 54.1434C112.984 54.1434 126.565 35.7485 126.745 35.3956C126.926 35.0428 127.425 34.4227 126.538 33.979Z" fill="#E0E0E0"/>
<path d="M118.795 3.20829C119.296 2.32119 120.075 1.62619 121.01 1.23186C121.945 0.837533 122.984 0.766081 123.964 1.02867C124.944 1.29125 125.81 1.87308 126.426 2.68328C127.043 3.49348 127.375 4.48642 127.372 5.50699L118.795 3.20829Z" fill="#86CF5F"/>
<path d="M102.017 12.6869C102.017 12.6869 108.624 -0.533292 123.569 3.6899C138.515 7.91309 137.692 22.2719 137.692 22.2719L102.017 12.6869Z" fill="#86CF5F"/>
<path d="M137.952 22.4649C137.421 24.3734 128.981 23.7479 119.06 21.0643C109.139 18.3807 101.507 14.6494 102.016 12.7462C102.526 10.8431 110.982 11.4633 120.908 14.1468C130.835 16.8304 138.462 20.5565 137.952 22.4649Z" fill="#263238"/>
<path d="M118.109 13.4348L116.187 21.7796L120.951 22.7685L123.086 14.7659L118.109 13.4348Z" fill="#86CF5F"/>
<g opacity="0.3">
<path d="M102.022 13.151C102.022 13.151 111.109 13.8246 114.062 14.3859C117.015 14.9472 127.181 17.5934 130.469 18.9245C133.756 20.2556 137.102 23.2011 137.102 23.2011L137.952 22.4688C137.952 22.4688 138.287 21.4798 136.29 20.2823C129.341 16.4164 121.776 13.7971 113.935 12.5416C102.569 10.7882 102.054 12.2262 101.926 12.9479" fill="black"/>
</g>
<path d="M129.704 6.38826C129.677 6.43103 129.093 5.99802 128.084 5.43136C126.768 4.69519 125.38 4.0986 123.941 3.65121C122.504 3.19706 121.016 2.92763 119.512 2.84934C118.359 2.80122 117.642 2.91349 117.637 2.84934C117.796 2.78973 117.962 2.75197 118.131 2.73708C118.328 2.70402 118.526 2.6826 118.726 2.67293C118.989 2.64768 119.253 2.63697 119.517 2.64085C121.048 2.66642 122.567 2.91675 124.026 3.38392C125.485 3.83492 126.884 4.46513 128.19 5.2603C128.588 5.50016 128.971 5.76439 129.337 6.05148C129.473 6.14766 129.596 6.26083 129.704 6.38826Z" fill="#263238"/>
<g opacity="0.3">
<path d="M119.883 3.49827C117.025 3.25755 114.154 3.76455 111.549 4.97004C108.943 6.17552 106.691 8.03856 105.012 10.3783L109.186 10.8327C111.194 6.73248 115.337 3.69606 119.883 3.49827Z" fill="white"/>
</g>
<g opacity="0.3">
<path d="M124.382 1.95159C123.743 1.73299 123.07 1.6316 122.395 1.65223C121.729 1.7631 121.088 1.99495 120.505 2.33649C120.478 2.33649 120.627 2.11197 120.945 1.88744C121.37 1.60122 121.859 1.4251 122.367 1.37474C122.876 1.32437 123.389 1.40133 123.861 1.59877C124.217 1.75914 124.398 1.91952 124.382 1.95159Z" fill="white"/>
</g>
<g opacity="0.3">
<path d="M74.4036 69.2868C74.3502 69.1895 74.3057 69.0875 74.2708 68.9821L73.9362 68.0893C73.7518 67.6224 73.5923 67.146 73.4582 66.662C73.2988 66.0953 73.0758 65.4592 72.9271 64.7322C72.7783 64.0051 72.5659 63.2193 72.4331 62.3586C72.3003 61.4979 72.1676 60.5731 72.0613 59.5948C71.8853 57.4727 71.8853 55.3394 72.0613 53.2173C72.2602 51.0953 72.6369 48.9941 73.1873 46.936C73.4582 45.9951 73.7184 45.097 74.0265 44.2631C74.3345 43.4291 74.6319 42.6914 74.9241 42.0071C75.2162 41.3229 75.5242 40.7348 75.7792 40.2056C76.0341 39.6764 76.2837 39.2327 76.4962 38.8798L76.9848 38.0566C77.0368 37.9605 77.0972 37.8692 77.1654 37.7839C77.1337 37.8906 77.0891 37.9929 77.0326 38.0886L76.5918 38.9279C76.3952 39.2915 76.1562 39.7352 75.9172 40.2751C75.6782 40.815 75.3861 41.3977 75.1046 42.0873C74.8231 42.7769 74.5098 43.5146 74.2442 44.3379C73.9787 45.1612 73.7131 46.0432 73.4316 47.0108C72.34 51.1036 71.9697 55.3573 72.3375 59.5788C72.4384 60.5464 72.5234 61.4712 72.6827 62.3212C72.8421 63.1712 72.9802 63.973 73.1395 64.6894C73.2988 65.4057 73.4794 66.0526 73.6281 66.6192C73.7768 67.1859 73.9256 67.6884 74.0583 68.0626L74.3451 68.966C74.3784 69.0699 74.3981 69.1778 74.4036 69.2868Z" fill="white"/>
</g>
<path d="M124.191 24.4473C124.076 24.4158 123.966 24.371 123.861 24.3137L122.964 23.8486L122.311 23.5278L121.509 23.1857L120.59 22.7955L119.528 22.4106C115.67 21.0331 111.626 20.2579 107.535 20.1119C106.473 20.0668 105.409 20.0775 104.348 20.1439C102.485 20.2032 100.634 20.4703 98.8299 20.9405C97.3795 21.2889 95.9502 21.7209 94.5491 22.2341C93.6019 22.5656 92.6729 22.9474 91.766 23.3781C91.1393 23.6829 90.8047 23.87 90.7941 23.8486C90.8662 23.7885 90.9445 23.7365 91.0278 23.6935C91.1818 23.5973 91.4102 23.453 91.7235 23.2926C92.6029 22.8231 93.5112 22.4106 94.4428 22.0577C95.8443 21.5184 97.2775 21.0667 98.7343 20.7052C99.5628 20.4914 100.448 20.3132 101.39 20.1707C102.357 20.0023 103.335 19.9094 104.316 19.8927C105.397 19.8211 106.48 19.8086 107.561 19.8553C111.678 19.9974 115.745 20.8042 119.607 22.2448L120.669 22.6511L121.588 23.0681L122.38 23.4263C122.624 23.5492 122.836 23.6722 123.033 23.7737L123.92 24.2602C124.014 24.3162 124.105 24.3787 124.191 24.4473Z" fill="#263238"/>
<path d="M97.2151 15.53C96.8593 15.7888 96.4543 15.9708 96.0254 16.0646C95.6249 16.2385 95.1921 16.3241 94.756 16.3159C95.1109 16.0556 95.5162 15.8735 95.9457 15.7813C96.3462 15.6074 96.779 15.5217 97.2151 15.53Z" fill="#263238"/>
<path d="M62.5121 23.9128C61.9738 23.0529 61.7319 22.0385 61.8239 21.0264C61.9159 20.0143 62.3367 19.0609 63.0211 18.3136C63.7055 17.5663 64.6154 17.0668 65.6102 16.8923C66.6049 16.7178 67.6291 16.878 68.5243 17.3482L62.5121 23.9128Z" fill="#86CF5F"/>
<path d="M63.0696 43.2903C63.0696 43.2903 54.4815 31.2675 65.1569 19.8917C75.8324 8.51578 88.064 15.9465 88.064 15.9465L63.0696 43.2903Z" fill="#86CF5F"/>
<path d="M88.2182 15.9528C89.6628 17.2946 85.2067 24.5061 78.2703 32.0597C71.334 39.6133 64.541 44.6544 63.1016 43.3126C61.6623 41.9708 66.1343 34.7593 73.0388 27.2057C79.9434 19.6521 86.7788 14.611 88.2182 15.9528Z" fill="#263238"/>
<path d="M71.1906 29.2904L77.633 34.8821L80.7241 31.0972L74.6747 25.4734L71.1906 29.2904Z" fill="#86CF5F"/>
<g opacity="0.3">
<path d="M63.4787 43.4946C63.4787 43.4946 68.2959 35.7058 70.1601 33.3376C72.0244 30.9694 79.0776 23.1378 81.781 20.8284C84.4844 18.519 88.5155 16.787 88.5155 16.787L88.4146 16.1989L88.2659 15.9744C88.2659 15.9744 87.5595 15.1779 85.2864 16.5571C83.3 17.7599 75.2907 23.2982 68.4712 32.5945C61.6516 41.8909 62.6714 43.0402 63.245 43.4839" fill="black"/>
</g>
<path d="M70.3832 15.6796C70.3832 15.7223 69.7565 16.0431 68.7899 16.6792C67.529 17.5093 66.3578 18.4696 65.2951 19.5446C64.2269 20.6134 63.2988 21.8153 62.5333 23.1209C61.9544 24.1259 61.7154 24.8102 61.6676 24.7942C61.6908 24.6252 61.7355 24.4599 61.8004 24.3024C61.8621 24.1199 61.9348 23.9413 62.0181 23.7678C62.1191 23.5233 62.2326 23.2842 62.3581 23.0514C63.0874 21.6984 64.0109 20.461 65.0986 19.3789C66.1724 18.287 67.3766 17.3336 68.6837 16.5402C69.0777 16.2955 69.4876 16.0776 69.9105 15.8881C70.0579 15.7972 70.217 15.7271 70.3832 15.6796Z" fill="#263238"/>
<path d="M83.5921 28.3395C83.5921 28.3769 83.0026 28.8741 82.0519 29.7828C80.8191 30.9372 79.6624 32.1711 78.589 33.4768C77.5204 34.7869 76.5662 36.1873 75.7369 37.6626C75.0996 38.7959 74.7809 39.5389 74.7384 39.5176C74.7777 39.3329 74.8383 39.1535 74.919 38.983C75.1076 38.5012 75.3221 38.03 75.5616 37.5717C76.3513 36.0525 77.2946 34.6193 78.3766 33.295C79.4558 31.9754 80.6425 30.7487 81.9244 29.6278C82.4131 29.2002 82.8273 28.8687 83.1194 28.6549C83.2623 28.529 83.4213 28.4229 83.5921 28.3395Z" fill="#263238"/>
<g opacity="0.3">
<path d="M63.7497 22.4526C62.2077 24.8892 61.3177 27.6856 61.166 30.5706C61.0143 33.4555 61.6061 36.3308 62.884 38.9177L65.2262 35.4055C62.5547 31.7008 61.8111 26.5849 63.7497 22.4526Z" fill="white"/>
</g>
<g opacity="0.3">
<path d="M63.808 18.2025C63.3201 18.672 62.9174 19.2238 62.6183 19.833C62.4094 20.4796 62.3159 21.1583 62.3422 21.8377C62.3103 21.8377 62.2041 21.6292 62.1563 21.2389C62.1005 20.7268 62.1717 20.2087 62.3636 19.7311C62.5554 19.2534 62.8619 18.8311 63.2557 18.5019C63.5584 18.2613 63.7868 18.1758 63.808 18.2025Z" fill="white"/>
</g>
<path d="M135.11 60.1949C134.351 60.0987 133.751 59.9062 133.767 59.7672C133.782 59.6282 134.415 59.5748 135.174 59.6496C135.934 59.7245 136.534 59.9222 136.518 60.0826C136.502 60.243 135.87 60.2911 135.11 60.1949Z" fill="#263238"/>
<path d="M124.382 79.2041C123.909 78.5947 123.623 78.0334 123.734 77.9425C123.846 77.8516 124.324 78.2686 124.796 78.862C125.269 79.4554 125.566 80.022 125.444 80.1236C125.322 80.2252 124.849 79.8082 124.382 79.2041Z" fill="#263238"/>
<path d="M103.434 85.0097C103.53 84.2452 103.721 83.6411 103.865 83.6572C104.008 83.6732 104.056 84.304 103.976 85.0685C103.897 85.8329 103.705 86.437 103.546 86.421C103.387 86.4049 103.339 85.7688 103.434 85.0097Z" fill="#263238"/>
<path d="M84.5532 74.2061C85.1534 73.7357 85.7164 73.4417 85.8014 73.5539C85.8863 73.6662 85.4827 74.1473 84.8878 74.6231C84.293 75.0989 83.7353 75.3982 83.6344 75.2753C83.5335 75.1523 83.9478 74.6979 84.5532 74.2061Z" fill="#263238"/>
<path d="M78.7853 53.1277C79.5448 53.2239 80.145 53.4163 80.1291 53.5553C80.1131 53.6943 79.4811 53.7478 78.7216 53.6676C77.9621 53.5874 77.3619 53.395 77.3779 53.2399C77.3938 53.0849 78.0258 53.0314 78.7853 53.1277Z" fill="#263238"/>
<path d="M89.5034 34.1176C89.9761 34.727 90.2629 35.2883 90.1514 35.3792C90.0398 35.4701 89.5618 35.0531 89.0891 34.4597C88.6164 33.8663 88.319 33.2943 88.4412 33.1981C88.5633 33.1019 89.0466 33.5349 89.5034 34.1176Z" fill="#263238"/>
<path d="M110.461 28.3123C110.366 29.0767 110.174 29.6808 110.031 29.6648C109.887 29.6487 109.84 29.0179 109.919 28.2535C109.999 27.489 110.19 26.8796 110.35 26.901C110.509 26.9224 110.557 27.5532 110.461 28.3123Z" fill="#263238"/>
<path d="M129.337 39.116C128.737 39.5865 128.174 39.8751 128.089 39.7682C128.004 39.6613 128.408 39.1695 129.003 38.6991C129.597 38.2286 130.155 37.9186 130.256 38.0469C130.357 38.1752 129.948 38.6456 129.337 39.116Z" fill="#263238"/>
<path d="M61.9491 12.943C61.905 13.0207 61.8515 13.0925 61.7897 13.1568L61.2905 13.7556C61.022 14.0489 60.7685 14.3558 60.531 14.675C60.2495 15.0492 59.8989 15.4555 59.5856 15.9473L59.0545 16.7118C58.8792 16.9791 58.7199 17.2731 58.5233 17.5671C58.1516 18.1552 57.8382 18.8234 57.4611 19.513C56.7509 21.0406 56.1785 22.6293 55.7509 24.2601C55.3694 25.9019 55.133 27.5746 55.0445 29.2584C55.0445 30.0335 54.9861 30.7713 55.0445 31.4662C55.0445 31.8083 55.0445 32.1451 55.087 32.4659C55.1295 32.7866 55.1508 33.0913 55.1773 33.3854C55.2198 33.9734 55.3313 34.4919 55.4004 34.957C55.4566 35.3531 55.5346 35.7457 55.6341 36.1331L55.7934 36.8762C55.818 36.9631 55.8305 37.0531 55.8306 37.1435C55.7879 37.0649 55.7575 36.9801 55.7403 36.8922L55.5278 36.1598C55.4095 35.7742 55.3154 35.3814 55.2464 34.9838C55.1324 34.454 55.0456 33.9187 54.9861 33.38C54.9489 33.086 54.9117 32.7759 54.8746 32.4552C54.8374 32.1344 54.8321 31.7977 54.8108 31.4448C54.7577 30.7499 54.8108 30.0015 54.8108 29.2156C54.8839 27.5166 55.1187 25.8285 55.5119 24.1745C55.946 22.5193 56.5327 20.9086 57.2646 19.3633C57.6258 18.6684 57.955 18.0001 58.3268 17.4121C58.5074 17.1181 58.6721 16.824 58.8579 16.5568L59.3891 15.7977C59.7184 15.3058 60.0795 14.9049 60.3716 14.5414C60.6218 14.2269 60.8895 13.9271 61.1736 13.6433C61.3914 13.4295 61.5666 13.2477 61.7047 13.1087C61.7786 13.0429 61.8607 12.9872 61.9491 12.943Z" fill="#263238"/>
<path d="M53.738 21.0424C53.8123 21.0798 53.3025 22.165 52.8988 23.571C52.4952 24.9769 52.3677 26.1691 52.2615 26.1637C52.2096 25.2568 52.3359 24.3485 52.6333 23.4908C52.8403 22.6103 53.2155 21.7787 53.738 21.0424Z" fill="#263238"/>
<path d="M143.486 17.9092C143.394 17.6398 143.326 17.3625 143.284 17.0806C143.231 16.8133 143.167 16.4873 143.061 16.113C142.955 15.7388 142.87 15.3058 142.716 14.8407C142.562 14.3757 142.419 13.8678 142.185 13.3332C141.951 12.7986 141.749 12.232 141.494 11.6439C140.908 10.3764 140.226 9.15581 139.455 7.99276C138.667 6.84403 137.795 5.75584 136.847 4.73716C136.39 4.28277 135.971 3.83907 135.541 3.46486C135.11 3.09066 134.712 2.73783 134.335 2.43312C133.958 2.12841 133.602 1.89854 133.273 1.6366C132.943 1.37465 132.688 1.21962 132.46 1.06994C132.215 0.927877 131.984 0.76323 131.77 0.578125C132.027 0.69292 132.276 0.826939 132.513 0.979061C132.804 1.14222 133.086 1.32066 133.358 1.51364C133.676 1.73817 134.053 1.97338 134.42 2.28344C134.786 2.5935 135.233 2.9089 135.657 3.29914C136.082 3.68939 136.528 4.11171 136.991 4.5661C137.963 5.58366 138.851 6.67965 139.646 7.84308C140.423 9.01931 141.105 10.2564 141.686 11.5424C141.935 12.1411 142.185 12.7078 142.36 13.2584C142.535 13.809 142.711 14.3275 142.838 14.7926C142.966 15.2577 143.067 15.7014 143.151 16.081C143.236 16.4605 143.29 16.7973 143.327 17.0699C143.402 17.345 143.455 17.6256 143.486 17.9092Z" fill="#263238"/>
<path d="M143.821 12.2857C143.669 11.5135 143.46 10.754 143.194 10.0137C142.842 9.30609 142.439 8.62534 141.988 7.97699C142.66 8.45429 143.17 9.12801 143.449 9.90683C143.81 10.6433 143.94 11.4731 143.821 12.2857Z" fill="#263238"/>
<path d="M87.4745 92.4136C87.3718 92.3966 87.2718 92.366 87.177 92.3227L86.3326 92.0126C85.8878 91.8583 85.4516 91.6798 85.026 91.478C84.5214 91.2428 83.9638 90.9969 83.3317 90.6494L82.3704 90.1149C82.0358 89.9331 81.7065 89.7086 81.356 89.4947C80.6496 89.0724 79.9432 88.5485 79.189 88.014C75.9611 85.6042 73.1966 82.6224 71.0311 79.2148C70.5531 78.4182 70.0804 77.6752 69.7139 76.9321C69.5227 76.5686 69.3262 76.2211 69.1828 75.8629C69.0394 75.5048 68.8747 75.1787 68.726 74.8579C68.4233 74.2271 68.2215 73.623 68.0196 73.1045C67.8439 72.662 67.6915 72.2106 67.5629 71.752L67.3079 70.8806C67.2764 70.7812 67.2533 70.6793 67.2389 70.5759C67.2935 70.6656 67.3347 70.7629 67.361 70.8646L67.6638 71.7146C67.7859 72.0888 67.9453 72.5378 68.163 73.0457C68.3808 73.5535 68.5932 74.1523 68.9066 74.7777C69.0553 75.0931 69.2093 75.4246 69.374 75.7667C69.5386 76.1088 69.7405 76.451 69.9317 76.8359C70.3034 77.5629 70.7814 78.3006 71.2594 79.0865C72.3542 80.7461 73.5759 82.3172 74.9135 83.7854C76.2819 85.2381 77.7631 86.5788 79.3431 87.7948C80.0866 88.3294 80.7824 88.8639 81.4675 89.2863C81.8127 89.5054 82.1367 89.73 82.466 89.9224L83.4167 90.457C84.0116 90.8152 84.5852 91.0718 85.0791 91.323C85.5731 91.5743 86.0033 91.7667 86.3644 91.9164L87.1823 92.2799C87.2839 92.3147 87.3817 92.3594 87.4745 92.4136Z" fill="#263238"/>
<path d="M75.3755 90.271C74.2352 89.3356 73.1533 88.3305 72.1357 87.2613C71.0544 86.2567 70.0363 85.1855 69.087 84.0538C70.23 84.986 71.3122 85.9913 72.3269 87.0635C73.4081 88.0681 74.4262 89.1393 75.3755 90.271Z" fill="#263238"/>
<path d="M146.333 40.8855C146.397 40.981 146.45 41.0832 146.492 41.1902L146.896 42.0883C147.077 42.4785 147.284 42.9597 147.486 43.5317C147.687 44.1037 147.958 44.7452 148.171 45.4775L148.532 46.6269C148.654 47.0278 148.75 47.4502 148.867 47.8885C149.111 48.7545 149.286 49.7007 149.488 50.6951C150.28 55.0287 150.395 59.4604 149.828 63.8297C149.674 64.8294 149.546 65.7863 149.35 66.663C149.254 67.1067 149.185 67.5343 149.079 67.9406C148.973 68.3469 148.877 68.7318 148.782 69.106C148.606 69.8491 148.378 70.5066 148.197 71.084C148.017 71.6613 147.841 72.1531 147.666 72.5541L147.31 73.4735C147.273 73.5816 147.225 73.6854 147.167 73.7836C147.184 73.6699 147.214 73.5586 147.257 73.4522L147.565 72.522C147.709 72.1157 147.873 71.6239 148.033 71.0412C148.192 70.4585 148.415 69.801 148.564 69.0526C148.654 68.6837 148.75 68.2935 148.845 67.8925C148.941 67.4916 149.01 67.0586 149.1 66.6202C149.286 65.7435 149.403 64.792 149.546 63.7976C149.804 61.6266 149.91 59.4403 149.865 57.2544C149.796 55.0697 149.578 52.8924 149.212 50.7378C149.015 49.7488 148.851 48.808 148.617 47.942C148.505 47.509 148.415 47.0866 148.298 46.6857C148.181 46.2848 148.07 45.9052 147.958 45.5363C147.757 44.804 147.507 44.1571 147.316 43.5851C147.124 43.0131 146.933 42.516 146.785 42.1311C146.636 41.7462 146.524 41.4522 146.429 41.2169C146.383 41.1109 146.351 40.9996 146.333 40.8855Z" fill="#263238"/>
<path d="M152.706 50.0323C152.788 50.2126 152.846 50.4032 152.876 50.599C152.967 50.9625 153.078 51.5024 153.19 52.1653C153.765 55.6562 153.756 59.2194 153.163 62.7073C153.052 63.3755 152.94 63.9101 152.844 64.2789C152.808 64.4717 152.751 64.6599 152.675 64.8402C152.627 64.8402 152.791 64.0116 152.972 62.7019C153.207 60.9637 153.33 59.2119 153.338 57.4577C153.34 55.7058 153.226 53.9557 152.998 52.2188C152.802 50.8609 152.643 50.043 152.706 50.0323Z" fill="#263238"/>
<path d="M91.5801 17.326C91.5801 17.326 91.3146 17.171 91.049 16.7647C90.7181 16.2295 90.5638 15.6027 90.6082 14.9739C90.6501 14.3426 90.8879 13.7405 91.288 13.2525C91.5907 12.889 91.8563 12.7179 91.8776 12.7714C91.8988 12.8248 91.6917 12.9959 91.442 13.3701C91.1107 13.8488 90.9153 14.4094 90.8769 14.9915C90.8385 15.5736 90.9586 16.1553 91.2243 16.6738C91.4261 17.0748 91.6279 17.2939 91.5801 17.326Z" fill="#263238"/>
<path d="M99.4565 16.2726C99.6347 15.6923 99.7452 15.0931 99.7858 14.4871C99.7382 13.8789 99.6224 13.2782 99.4406 12.6962C99.4724 12.6962 99.6211 12.8406 99.7698 13.156C99.964 13.5705 100.064 14.0234 100.062 14.4817C100.07 14.9412 99.9737 15.3965 99.7805 15.8128C99.6318 16.1336 99.483 16.294 99.4565 16.2726Z" fill="#263238"/>
<path d="M82.0359 18.8062C81.8611 18.9869 81.6689 19.1499 81.4623 19.2926C81.0852 19.5866 80.5435 20.025 79.8689 20.5756C78.1561 22.017 76.5198 23.548 74.9667 25.1623C73.145 27.0494 71.5888 28.8509 70.4735 30.166L69.1616 31.727C69.003 31.9228 68.825 32.1019 68.6305 32.2616C68.751 32.0405 68.8914 31.8312 69.0501 31.6361C69.3369 31.2512 69.7618 30.6952 70.2982 30.0323C71.3604 28.6852 72.9113 26.8569 74.7437 24.9645C76.3003 23.3385 77.9628 21.8187 79.7202 20.4152C80.4001 19.8807 80.9577 19.4637 81.3561 19.1964C81.5695 19.0443 81.7972 18.9136 82.0359 18.8062Z" fill="#263238"/>
<path d="M129.529 16.99C129.346 16.9604 129.167 16.9083 128.997 16.835L127.553 16.3378C126.326 15.9102 124.637 15.3382 122.773 14.7661C120.908 14.1941 119.156 13.7504 117.892 13.4618C116.628 13.1731 115.852 13.0181 115.858 12.9753C116.046 12.9621 116.236 12.9765 116.421 13.0181C116.782 13.0608 117.297 13.1464 117.934 13.2693C119.209 13.5099 120.956 13.9322 122.847 14.4989C124.738 15.0655 126.432 15.6803 127.627 16.1507C128.233 16.3859 128.716 16.5891 129.051 16.7334C129.218 16.8016 129.379 16.8877 129.529 16.99Z" fill="#263238"/>
<path d="M213.753 118.433C217.54 99.4444 222.698 80.7593 229.188 62.5265L240.453 48.002C245.302 46.7083 250.634 48.8627 254.023 52.5833C257.411 56.304 259.063 61.3505 259.61 66.3702C260.157 71.3899 259.7 76.4524 259.366 81.4935C258.611 92.9656 258.511 104.646 255.143 115.632C253.826 119.941 251.797 124.356 247.994 126.735C243.942 129.269 238.785 128.948 234.069 128.248C228.408 127.407 222.819 126.137 217.349 124.447C216.011 124.035 214.555 123.495 213.881 122.261C213.254 121.117 213.498 119.716 213.753 118.433Z" fill="#010101"/>
<path d="M213.079 32.1299C220.292 31.3708 226.389 34.5409 232.151 38.9779C237.914 43.4149 242.057 49.8192 244.24 56.7848C246.539 64.1139 246.699 72.2128 244.107 79.4457C241.515 86.6785 236.087 92.9545 229.066 96.0177C219.506 100.166 207.715 97.7444 199.812 90.891C191.909 84.0377 187.824 73.2499 188.095 62.7774C188.281 55.5445 190.464 48.2743 194.851 42.5435C199.238 36.8128 205.914 32.75 213.079 32.1566" fill="#010101"/>
<path d="M231.843 57.8693C230.977 55.0521 231.578 51.9889 231.349 49.0701C230.85 42.5963 226.038 37.1276 220.265 34.2408C214.89 31.5679 208.108 31.6321 201.315 33.3641C196.662 34.5562 192.206 36.8656 188.924 40.3992C186.762 42.7718 185.196 45.6306 184.356 48.7367C183.516 51.8429 183.427 55.1063 184.096 58.2542L216.998 55.5813C219.888 58.3237 222.841 61.1089 226.463 62.7661C227.501 63.3098 228.661 63.5733 229.83 63.5305C230.411 63.4956 230.969 63.2944 231.44 62.9506C231.91 62.6068 232.273 62.1347 232.486 61.59C232.847 60.3605 232.194 59.0882 231.843 57.8693Z" fill="#010101"/>
<path d="M194.962 131.162C194.962 131.162 196.896 109.019 196.89 109.073C196.885 109.126 185.339 106.838 183.315 91.5385C182.311 83.9314 183.002 71.5184 183.889 61.3775C184.691 52.2522 190.99 41.1863 200.019 42.3838L228.094 50.2902C229.417 50.462 230.627 51.1287 231.484 52.1578C232.342 53.187 232.783 54.5031 232.72 55.8445L227.881 110.842L226.187 133.359L194.962 131.162Z" fill="#FFBF9D"/>
<path d="M189.551 74.4359C189.533 74.9452 189.714 75.4413 190.054 75.8187C190.394 76.196 190.867 76.4249 191.372 76.4566C191.619 76.4831 191.868 76.4596 192.105 76.3874C192.343 76.3152 192.563 76.1958 192.754 76.0363C192.945 75.8768 193.102 75.6804 193.215 75.4588C193.329 75.2371 193.398 74.9948 193.417 74.746C193.435 74.2367 193.254 73.7406 192.914 73.3632C192.574 72.9859 192.101 72.757 191.595 72.7253C191.349 72.6988 191.1 72.7223 190.862 72.7945C190.625 72.8667 190.404 72.9861 190.214 73.1456C190.023 73.3051 189.866 73.5015 189.752 73.7231C189.638 73.9448 189.57 74.1871 189.551 74.4359Z" fill="#263238"/>
<path d="M186.406 67.9096C186.64 68.1662 188.137 67.113 190.23 67.1665C192.323 67.2199 193.82 68.3158 194.054 68.0646C194.171 67.9577 193.937 67.4872 193.279 66.9954C192.392 66.3397 191.325 65.9773 190.225 65.9583C189.138 65.9257 188.07 66.2442 187.176 66.8671C186.523 67.3376 186.289 67.792 186.406 67.9096Z" fill="#263238"/>
<path d="M208.394 74.4359C208.377 74.9452 208.557 75.4413 208.898 75.8187C209.238 76.196 209.711 76.4249 210.216 76.4566C210.463 76.4831 210.712 76.4596 210.949 76.3874C211.187 76.3152 211.407 76.1958 211.598 76.0363C211.788 75.8768 211.945 75.6804 212.059 75.4588C212.173 75.2372 212.242 74.9948 212.261 74.746C212.279 74.2376 212.099 73.7423 211.76 73.365C211.421 72.9878 210.949 72.7583 210.444 72.7253C210.198 72.6988 209.948 72.7223 209.71 72.7944C209.473 72.8666 209.252 72.9859 209.061 73.1453C208.87 73.3048 208.712 73.5011 208.598 73.7228C208.483 73.9444 208.414 74.1869 208.394 74.4359Z" fill="#263238"/>
<path d="M206.504 67.7003C206.743 67.9622 208.241 66.9037 210.328 66.9625C212.415 67.0213 213.923 68.1119 214.152 67.8606C214.269 67.7484 214.035 67.2833 213.376 66.7915C212.489 66.1376 211.422 65.7771 210.323 65.7597C209.237 65.7281 208.169 66.0445 207.274 66.6632C206.621 67.1283 206.392 67.5826 206.504 67.7003Z" fill="#263238"/>
<path d="M198.962 84.2237C198.962 84.1008 197.682 83.8442 195.584 83.5181C195.053 83.4486 194.521 83.331 194.468 82.9835C194.415 82.636 194.591 82.0213 194.861 81.3798C195.393 80.0914 195.956 78.7443 196.545 77.333C198.882 71.5649 200.587 66.8178 200.353 66.7269C200.119 66.636 198.043 71.2334 195.706 76.9962C195.143 78.4182 194.601 79.776 194.113 81.0697C193.895 81.6791 193.528 82.3634 193.783 83.1706C193.855 83.3621 193.969 83.5344 194.117 83.6744C194.266 83.8143 194.444 83.9181 194.638 83.9778C194.931 84.0685 195.235 84.1189 195.541 84.1275C197.634 84.32 198.946 84.32 198.962 84.2237Z" fill="#263238"/>
<path d="M196.89 109.072C204.016 109.362 211.082 107.656 217.301 104.143C217.301 104.143 211.544 115.321 196.428 113.514L196.89 109.072Z" fill="#FF9A6C"/>
<path d="M206.079 59.1951C206.27 59.7725 208.363 59.5533 210.806 59.9115C213.249 60.2696 215.214 60.9806 215.554 60.4888C215.703 60.2483 215.373 59.703 214.587 59.131C213.539 58.4232 212.343 57.9661 211.092 57.7947C209.841 57.6233 208.568 57.7421 207.369 58.142C206.461 58.5055 205.994 58.9439 206.079 59.1951Z" fill="#263238"/>
<path d="M187.229 58.7256C187.585 59.212 189.035 58.7576 190.766 58.7737C192.498 58.7897 193.953 59.18 194.304 58.6881C194.458 58.4476 194.24 57.9665 193.608 57.496C192.762 56.9324 191.768 56.6345 190.754 56.6402C189.739 56.6459 188.749 56.955 187.909 57.5281C187.298 58.0039 187.086 58.4903 187.229 58.7256Z" fill="#263238"/>
<path d="M237.319 53.7805C234.924 44.8636 222.798 32.146 213.626 32.3972L198.638 40.5603C199.004 43.088 200.041 45.4696 201.639 47.4538C203.238 49.438 205.338 50.9515 207.72 51.8346C210.269 52.7434 213.366 53.0962 214.805 55.4002C216.244 57.7043 215.209 61.0347 216.568 63.451C218.443 66.8028 223.977 66.8937 225.342 70.4915C225.937 72.0578 225.507 73.886 226.134 75.447C226.962 77.5265 231.976 80.3331 234.101 79.7557C236.225 79.1784 236.416 75.5379 237.192 73.6669C238.519 70.4594 238.105 68.7594 237.797 66.9258C237.08 62.569 238.461 58.0357 237.319 53.7805Z" fill="#010101"/>
<path d="M227.791 81.2625C227.823 80.1292 229.193 77.483 230.308 77.3386C233.293 76.9484 238.647 77.3386 238.503 84.9243C238.312 95.3166 227.987 92.9751 227.977 92.6811C227.966 92.3871 227.684 85.1809 227.791 81.2625Z" fill="#FFBF9D"/>
<path d="M231.2 88.8001C231.248 88.768 231.381 88.9337 231.684 89.0781C232.108 89.271 232.59 89.2902 233.027 89.1315C234.122 88.7466 235.072 87.0253 235.152 85.1489C235.196 84.2594 235.039 83.3713 234.695 82.5509C234.605 82.2248 234.437 81.9256 234.207 81.6788C233.977 81.4321 233.69 81.2453 233.373 81.1342C233.168 81.0791 232.951 81.0963 232.758 81.1829C232.565 81.2695 232.407 81.4203 232.31 81.61C232.167 81.8987 232.231 82.1071 232.172 82.1446C232.114 82.182 231.955 81.9682 232.045 81.5405C232.109 81.2853 232.257 81.0593 232.464 80.899C232.753 80.6887 233.111 80.6004 233.463 80.6531C234.26 80.7226 234.961 81.471 235.311 82.2996C235.737 83.2069 235.934 84.2056 235.885 85.2077C235.779 87.2979 234.679 89.2385 233.176 89.6447C232.897 89.7206 232.605 89.7325 232.321 89.6798C232.037 89.6271 231.769 89.511 231.535 89.34C231.216 89.0567 231.169 88.8215 231.2 88.8001Z" fill="#FF9A6C"/>
<path d="M201.83 37.6103C200.614 41.7693 193.895 46.7677 190.894 49.8682C185.158 55.7914 183.99 57.8014 183.134 71.786C180.925 66.7877 179.294 61.923 179.836 56.4757C180.378 51.0283 182.725 45.6932 186.741 42.0045C190.756 38.3159 196.503 36.4556 201.824 37.5836" fill="#010101"/>
<path d="M238.817 83.6212C239.213 83.2556 239.561 82.8406 239.852 82.3863C240.237 81.8917 240.592 81.374 240.914 80.836L242.147 78.6442C243.852 75.3298 245.201 70.1979 245.116 64.4832C245.044 61.7997 244.69 59.1315 244.059 56.5233C243.517 54.4035 242.761 52.3453 241.801 50.3809C241.382 49.547 240.936 48.8253 240.553 48.1945C240.171 47.5637 239.751 47.0719 239.422 46.671C239.085 46.2486 238.691 45.8745 238.254 45.559C238.121 45.6713 239.81 47.2643 241.281 50.6322C242.143 52.5902 242.828 54.6228 243.326 56.705C243.906 59.2612 244.238 61.8678 244.319 64.4885C244.393 70.0642 243.182 75.0679 241.663 78.3876L240.559 80.5954C240.245 81.253 239.858 81.7501 239.608 82.1992C239.281 82.6348 239.015 83.1132 238.817 83.6212Z" fill="#455A64"/>
<path d="M205.478 89.0249C205.379 88.5487 205.199 88.0931 204.947 87.6777C204.821 87.4708 204.646 87.2987 204.438 87.1773C204.229 87.056 203.993 86.9891 203.752 86.9828C203.403 87.024 203.07 87.1547 202.786 87.3623L198.914 89.6664L198.574 90.6179C199.346 91.8313 200.354 92.8751 201.537 93.6864C201.877 93.9579 202.289 94.1217 202.722 94.1569C203.271 94.0959 203.783 93.8467 204.172 93.4512C204.748 93.0569 205.223 92.5312 205.558 91.917C205.972 91.0296 205.728 89.9818 205.478 89.0249Z" fill="#FF9A6C"/>
<path d="M202.568 94.4776C202.525 94.3814 203.471 94.221 204.453 93.2213C205.017 92.6421 205.406 91.9135 205.574 91.1204C205.759 90.1514 205.609 89.1479 205.149 88.2764C205.03 88.0497 204.889 87.8349 204.73 87.6349C204.594 87.4484 204.424 87.2889 204.23 87.1645C204.153 87.113 204.064 87.0811 203.971 87.0718C203.879 87.0625 203.785 87.076 203.699 87.1111C203.494 87.2026 203.297 87.3117 203.11 87.4372C202.292 87.9397 201.554 88.378 200.932 88.7469C199.684 89.4739 198.887 89.8962 198.85 89.816C198.813 89.7359 199.53 89.212 200.725 88.3941C201.32 87.9878 202.037 87.512 202.849 86.9881C203.064 86.8347 203.294 86.704 203.535 86.5979C203.689 86.5372 203.856 86.5125 204.021 86.5254C204.187 86.5384 204.347 86.5887 204.491 86.6727C204.745 86.829 204.969 87.0321 205.149 87.2714C205.333 87.4976 205.495 87.741 205.632 87.9985C206.153 88.9813 206.305 90.1194 206.063 91.206C205.86 92.0869 205.391 92.8827 204.719 93.4833C204.281 93.8848 203.763 94.1874 203.2 94.3707C202.807 94.5043 202.573 94.5043 202.568 94.4776Z" fill="#263238"/>
<path d="M257.528 231.41L249.981 211.85C249.981 211.85 250.512 191.659 252.355 182.448C254.198 173.237 250.082 122.003 250.082 122.003L227.499 115.909C227.499 115.909 222.012 125.243 212.059 124.318C200.375 123.249 196.296 115.909 196.296 115.909L182.375 118.17C182.375 118.17 173.712 149.32 169.995 156.601C166.277 163.882 165.985 186.319 165.985 186.319C165.985 186.319 170.011 198.865 171.004 203.062C171.149 203.669 171.098 204.307 170.86 204.885L161.502 231.41H257.528Z" fill="#FF8518"/>
<g opacity="0.3">
<path d="M241 180.245C241.207 183.041 240.628 187.366 241.148 190.119L245.631 191.087C247.333 187.765 248.458 184.174 248.956 180.47C248.956 180.47 240.936 179.476 241 180.245Z" fill="black"/>
</g>
<g opacity="0.3">
<path d="M234.642 197.993C234.045 197.338 233.292 196.849 232.454 196.571C231.556 196.444 230.641 196.554 229.798 196.891L216.6 200.895L207.189 198.442C209.052 202.153 212.13 205.103 215.903 206.796C219.677 208.489 223.915 208.819 227.902 207.733C229.527 207.289 231.195 206.605 232.836 206.968C234.387 207.31 235.577 208.502 236.788 209.529C240.506 212.672 246.141 212.854 250.969 213.271C246.348 207.166 240.229 203.232 234.642 197.993Z" fill="black"/>
</g>
<path d="M242.131 187.244L251.341 188.96L249.747 154.587L250.061 121.977C250.061 121.977 261.703 125.719 267.497 136.732C273.292 147.744 274.397 162.905 275.018 171.084C275.735 180.514 276.346 203.72 275.453 209.333C274.561 214.946 268.23 220.768 257.528 217.309C252.121 215.561 233.017 199.166 233.017 199.166L242.131 187.244Z" fill="#FF8518"/>
<path d="M182.375 118.154C182.375 118.154 163.032 121.81 159.101 129.471C155.171 137.131 136.508 179.492 138.919 191.691C141.33 203.89 155.681 209.332 160.525 204.473C165.369 199.613 170 186.067 170 186.067L182.375 118.154Z" fill="#FF8518"/>
<path d="M253.327 215.032L253.221 214.967L252.918 214.754L251.771 213.909L247.522 210.701L232.932 199.737L232.826 199.652L232.911 199.545L237.962 193.13C239.598 191.066 241.186 189.062 242.699 187.143L242.752 187.078H242.837L250.687 188.805H250.639C253.079 188.467 255.563 188.671 257.916 189.404C259.734 189.957 261.449 190.808 262.993 191.922C263.988 192.637 264.9 193.462 265.713 194.381C265.999 194.696 266.185 194.963 266.323 195.135L266.472 195.332C266.49 195.354 266.506 195.377 266.52 195.402C266.52 195.402 266.52 195.402 266.456 195.343L266.291 195.161C266.148 194.996 265.946 194.739 265.659 194.434C263.533 192.165 260.843 190.508 257.868 189.634C255.541 188.933 253.091 188.75 250.687 189.099H250.645L242.79 187.399L242.922 187.351L238.19 193.338C236.437 195.557 234.733 197.711 233.129 199.753V199.566L247.639 210.627L251.856 213.877L252.982 214.759L253.269 214.989C253.3 215 253.332 215.026 253.327 215.032Z" fill="#263238"/>
<path d="M251.367 157.131C251.389 157.237 251.403 157.344 251.41 157.452C251.41 157.692 251.457 157.986 251.489 158.371C251.548 159.21 251.627 160.36 251.728 161.766C251.909 164.626 252.137 168.587 252.222 172.965C252.307 177.343 252.18 181.321 251.941 184.191C251.888 184.908 251.813 185.549 251.755 186.116C251.696 186.682 251.633 187.185 251.574 187.57L251.431 188.484C251.419 188.591 251.398 188.697 251.367 188.799C251.354 188.693 251.354 188.585 251.367 188.479C251.367 188.238 251.42 187.944 251.452 187.559C251.484 187.174 251.548 186.672 251.59 186.105C251.633 185.538 251.696 184.892 251.734 184.175C251.925 181.315 252.02 177.354 251.935 172.976C251.85 168.598 251.654 164.647 251.521 161.782C251.457 160.376 251.41 159.221 251.372 158.387C251.372 158.008 251.372 157.703 251.346 157.462C251.337 157.351 251.345 157.24 251.367 157.131Z" fill="#263238"/>
<path d="M169.517 146.412C169.523 146.462 169.523 146.512 169.517 146.562L169.411 146.989C169.299 147.38 169.156 147.925 168.964 148.593C168.773 149.261 168.529 150.16 168.274 151.165C168.019 152.17 167.7 153.303 167.414 154.591C166.688 157.565 166.119 160.575 165.709 163.61C165.613 164.47 165.48 165.347 165.406 166.245C165.332 167.143 165.273 168.068 165.204 169.003C165.135 169.939 165.156 170.901 165.135 171.869C165.114 172.836 165.178 173.825 165.194 174.82C165.378 178.572 165.82 182.307 166.516 185.998L167.047 188.468C167.212 189.269 167.371 190.071 167.578 190.793C167.966 192.279 168.274 193.68 168.641 194.936C169.007 196.192 169.315 197.331 169.602 198.331C169.889 199.33 170.17 200.175 170.388 200.881L170.877 202.484C170.924 202.655 170.961 202.794 170.993 202.901C171.011 202.949 171.022 203 171.025 203.051C171.002 203.006 170.983 202.96 170.967 202.912L170.823 202.5C170.691 202.115 170.51 201.581 170.292 200.897C170.075 200.212 169.761 199.346 169.464 198.363C169.166 197.379 168.832 196.224 168.465 194.973C168.099 193.723 167.759 192.301 167.366 190.83C167.159 190.087 166.999 189.307 166.835 188.505C166.67 187.703 166.484 186.901 166.304 186.03C165.587 182.337 165.133 178.598 164.944 174.841C164.944 173.836 164.875 172.847 164.886 171.874C164.896 170.901 164.933 169.939 164.96 168.998C164.986 168.057 165.103 167.132 165.172 166.224C165.241 165.315 165.385 164.444 165.486 163.583C165.906 160.541 166.495 157.525 167.249 154.548C167.552 153.276 167.876 152.132 168.152 151.132C168.428 150.133 168.683 149.267 168.89 148.566C169.097 147.866 169.262 147.342 169.384 146.963C169.437 146.792 169.48 146.653 169.517 146.546C169.513 146.501 169.513 146.457 169.517 146.412Z" fill="#263238"/>
<path d="M167.339 150.807C166.765 149.708 166.272 148.568 165.863 147.396C165.367 146.258 164.957 145.084 164.636 143.884C165.214 144.982 165.71 146.122 166.118 147.295C166.616 148.432 167.024 149.606 167.339 150.807Z" fill="#263238"/>
<path d="M255.037 148.786C254.481 150.249 253.839 151.677 253.114 153.063C252.472 154.491 251.747 155.88 250.942 157.222C251.498 155.759 252.14 154.331 252.865 152.945C253.507 151.517 254.232 150.129 255.037 148.786Z" fill="#263238"/>
<path d="M183.336 118.155L206.865 150.807L240.644 119.144L227.498 115.893H196.295L183.336 118.155Z" fill="#FFBF9D"/>
<g opacity="0.3">
<path d="M165.305 145.589C165.305 152.848 164.715 160.798 163.085 167.87L163.579 175.889C163.871 182.726 162.145 187.569 159.112 193.69C161.932 192.365 163.786 189.467 164.582 186.436C165.379 183.405 165.257 180.208 165.071 177.081C164.795 172.403 164.747 167.854 165.602 163.246C166.096 160.573 166.946 155.446 167.62 152.961C167.615 152.939 167.982 151.843 165.305 145.589Z" fill="black"/>
</g>
<g opacity="0.3">
<path d="M269.021 195.167C268.379 191.681 265.112 189.169 261.681 188.367C258.25 187.565 254.857 188.174 251.394 188.794C259.111 188.452 263.896 191.959 267.226 196.278C267.416 196.607 267.724 196.848 268.087 196.952C268.282 196.958 268.475 196.902 268.637 196.79C268.798 196.679 268.92 196.518 268.984 196.332C269.104 195.954 269.117 195.551 269.021 195.167Z" fill="black"/>
</g>
<path d="M209.77 175.082C209.683 174.582 209.729 174.066 209.906 173.59C210.082 173.113 210.382 172.693 210.774 172.372C211.573 171.736 212.571 171.41 213.589 171.453C214.479 171.452 215.351 171.708 216.101 172.19C216.527 172.457 216.883 172.821 217.141 173.253C217.398 173.686 217.55 174.173 217.583 174.677C217.617 175.18 217.53 175.683 217.332 176.146C217.133 176.609 216.828 177.018 216.441 177.338C215.586 178.076 214.485 178.458 213.361 178.408C212.418 178.415 211.509 178.057 210.822 177.408C210.174 176.734 209.685 175.804 209.76 175.088" fill="#FF8518"/>
<path d="M200.051 177.632C196.248 178.226 192.589 173.89 191.739 171.137C191.675 170.998 191.646 170.846 191.654 170.694C191.661 170.541 191.705 170.393 191.781 170.261C191.905 170.153 192.054 170.08 192.213 170.046C192.373 170.012 192.539 170.02 192.695 170.068C194.562 170.374 196.284 171.273 197.608 172.634C198.931 173.995 199.787 175.746 200.051 177.632Z" fill="#86CF5F"/>
<path d="M195.839 175.446C195.751 174.946 195.798 174.43 195.974 173.954C196.151 173.477 196.45 173.057 196.842 172.736C197.64 172.101 198.636 171.775 199.652 171.817C200.543 171.812 201.416 172.068 202.164 172.554C202.592 172.82 202.95 173.185 203.209 173.618C203.468 174.051 203.621 174.541 203.654 175.046C203.687 175.55 203.6 176.055 203.4 176.519C203.2 176.983 202.893 177.393 202.504 177.713C201.649 178.45 200.548 178.832 199.424 178.782C198.481 178.791 197.571 178.433 196.885 177.782C196.232 177.104 195.748 176.179 195.823 175.462" fill="#FF8518"/>
<path d="M234.313 175.445C234.223 174.944 234.268 174.429 234.444 173.952C234.619 173.475 234.919 173.055 235.311 172.735C236.11 172.098 237.109 171.772 238.126 171.815C239.017 171.812 239.889 172.068 240.638 172.553C241.066 172.819 241.424 173.183 241.683 173.617C241.942 174.05 242.095 174.539 242.128 175.044C242.161 175.549 242.074 176.054 241.874 176.518C241.674 176.982 241.367 177.391 240.978 177.711C240.123 178.448 239.022 178.83 237.898 178.781C236.954 178.789 236.042 178.431 235.354 177.781C234.706 177.102 234.217 176.177 234.292 175.461" fill="#FF8518"/>
<g opacity="0.3">
<path d="M209.77 175.082C209.683 174.582 209.729 174.066 209.906 173.59C210.082 173.113 210.382 172.693 210.774 172.372C211.573 171.736 212.571 171.41 213.589 171.453C214.479 171.452 215.351 171.708 216.101 172.19C216.527 172.457 216.883 172.821 217.141 173.253C217.398 173.686 217.55 174.173 217.583 174.677C217.617 175.18 217.53 175.683 217.332 176.146C217.133 176.609 216.828 177.018 216.441 177.338C215.586 178.076 214.485 178.458 213.361 178.408C212.418 178.415 211.509 178.057 210.822 177.408C210.174 176.734 209.685 175.804 209.76 175.088" fill="#86CF5F"/>
</g>
<g opacity="0.3">
<path d="M195.839 175.445C195.751 174.945 195.798 174.429 195.974 173.953C196.151 173.476 196.45 173.056 196.842 172.735C197.64 172.1 198.636 171.774 199.652 171.816C200.543 171.811 201.416 172.067 202.164 172.553C202.592 172.819 202.95 173.184 203.209 173.617C203.468 174.051 203.621 174.54 203.654 175.045C203.687 175.549 203.6 176.055 203.4 176.518C203.2 176.982 202.893 177.392 202.504 177.712C201.649 178.449 200.548 178.831 199.424 178.781C198.481 178.79 197.571 178.432 196.885 177.781C196.232 177.103 195.748 176.178 195.823 175.461" fill="#86CF5F"/>
</g>
<g opacity="0.3">
<path d="M234.313 175.444C234.223 174.944 234.268 174.428 234.444 173.951C234.619 173.475 234.919 173.054 235.311 172.734C236.11 172.098 237.109 171.771 238.126 171.814C239.017 171.811 239.889 172.067 240.638 172.552C241.066 172.818 241.424 173.183 241.683 173.616C241.942 174.049 242.095 174.539 242.128 175.043C242.161 175.548 242.074 176.053 241.874 176.517C241.674 176.981 241.367 177.39 240.978 177.711C240.123 178.447 239.022 178.829 237.898 178.78C236.954 178.788 236.042 178.43 235.354 177.78C234.706 177.101 234.217 176.176 234.292 175.46" fill="#86CF5F"/>
</g>
<path d="M215.379 176.717C215.458 174.734 216.876 172.339 218.071 170.762C219.282 169.168 220.951 167.988 222.851 167.383C222.981 167.333 223.125 167.333 223.255 167.383C223.317 167.422 223.37 167.474 223.411 167.535C223.452 167.595 223.48 167.664 223.494 167.736C223.87 168.908 223.931 170.16 223.672 171.364C223.414 172.567 222.844 173.681 222.02 174.592C221.197 175.504 220.149 176.18 218.983 176.553C217.817 176.926 216.573 176.983 215.379 176.717Z" fill="#86CF5F"/>
<path d="M229.262 173.632C230.032 172.779 230.723 171.858 231.328 170.879C231.931 169.892 232.249 168.756 232.247 167.597C232.255 167.512 232.243 167.426 232.214 167.345C232.185 167.265 232.138 167.192 232.077 167.132C232.005 167.091 231.925 167.065 231.843 167.057C231.761 167.049 231.678 167.058 231.599 167.084C229.446 167.517 227.482 168.62 225.985 170.238C224.488 171.855 223.533 173.904 223.255 176.097L223.133 176.658C224.914 177.769 227.054 178.141 229.103 177.695C230.756 177.439 232.342 176.852 233.766 175.968C235.199 175.071 236.24 173.659 236.676 172.018C235.399 171.724 234.072 171.716 232.791 171.995C231.509 172.274 230.305 172.833 229.262 173.632Z" fill="#86CF5F"/>
<path d="M205.744 169.726C204.013 167.855 201.575 166.797 199.116 166.15C198.935 167.409 199.003 168.691 199.318 169.924C199.632 171.156 200.186 172.313 200.948 173.328C201.71 174.343 202.664 175.196 203.755 175.838C204.846 176.479 206.053 176.897 207.306 177.066L207.46 176.799C208.368 174.409 207.476 171.597 205.744 169.726Z" fill="#86CF5F"/>
<path d="M239.741 177.583C239.815 175.6 241.233 173.205 242.428 171.623C243.642 170.033 245.31 168.854 247.208 168.244C247.338 168.194 247.482 168.194 247.612 168.244C247.673 168.284 247.725 168.336 247.765 168.396C247.805 168.457 247.833 168.525 247.846 168.597C248.225 169.768 248.291 171.02 248.036 172.225C247.781 173.43 247.215 174.546 246.394 175.46C245.573 176.374 244.527 177.053 243.362 177.43C242.196 177.807 240.953 177.867 239.757 177.605" fill="#86CF5F"/>
<path d="M192.068 175.702C192.068 175.702 197.23 191.178 201.692 193.583C206.153 195.989 216.112 198.266 221.163 198.208C226.214 198.149 229.257 198.026 233.32 195.754L233.442 195.684C238.392 192.878 242.238 188.45 244.341 183.138L247.527 175.119L192.068 175.702Z" fill="#E0E0E0"/>
<path d="M243.947 184.432C243.452 184.879 242.887 185.24 242.274 185.501C241.561 185.823 240.804 186.035 240.028 186.132C238.996 186.266 237.949 186.19 236.947 185.907C235.837 185.608 234.716 184.982 233.405 184.838C232.728 184.793 232.05 184.897 231.418 185.143C230.754 185.373 230.101 185.709 229.405 186.019C228.696 186.363 227.935 186.583 227.153 186.672C226.335 186.727 225.513 186.635 224.726 186.399C223.133 185.971 221.593 185.169 219.898 184.881C219.071 184.736 218.221 184.789 217.418 185.036C216.637 185.311 215.887 185.669 215.182 186.105C214.484 186.523 213.759 186.891 213.01 187.206C212.275 187.517 211.476 187.64 210.683 187.564C209.127 187.351 207.922 186.458 206.642 186.148C205.434 185.908 204.19 185.934 202.993 186.223C201.988 186.448 200.97 186.609 199.944 186.704C199.163 186.766 198.378 186.69 197.623 186.479C197.147 186.342 196.701 186.113 196.311 185.806C196.173 185.703 196.048 185.583 195.94 185.447C196.433 185.886 197.02 186.204 197.655 186.378C198.4 186.563 199.17 186.621 199.934 186.549C200.951 186.433 201.96 186.254 202.956 186.014C204.173 185.71 205.442 185.677 206.673 185.918C208.007 186.233 209.228 187.115 210.694 187.297C211.444 187.366 212.2 187.247 212.893 186.95C213.624 186.641 214.333 186.284 215.017 185.88C215.739 185.441 216.507 185.083 217.306 184.811C218.151 184.55 219.044 184.493 219.914 184.646C221.667 184.95 223.197 185.752 224.763 186.174C226.254 186.658 227.874 186.532 229.272 185.822C229.958 185.522 230.622 185.185 231.307 184.95C231.972 184.695 232.684 184.591 233.394 184.646C234.77 184.795 235.89 185.437 236.968 185.741C237.945 186.028 238.969 186.116 239.98 185.998C240.744 185.915 241.492 185.721 242.2 185.421C242.663 185.227 243.107 184.991 243.528 184.715C243.799 184.528 243.942 184.426 243.947 184.432Z" fill="#263238"/>
<path d="M243.947 182.64C243.446 183.09 242.874 183.451 242.253 183.71C241.531 184.033 240.765 184.247 239.98 184.346C238.938 184.481 237.879 184.403 236.868 184.116C235.747 183.816 234.61 183.191 233.283 183.047C232.6 183.004 231.915 183.108 231.275 183.351C230.6 183.587 229.942 183.923 229.235 184.228C228.52 184.574 227.751 184.794 226.962 184.88C226.133 184.935 225.301 184.845 224.503 184.613C222.91 184.18 221.317 183.383 219.628 183.089C218.789 182.947 217.93 183 217.115 183.244C216.324 183.519 215.564 183.878 214.848 184.314C214.142 184.731 213.409 185.098 212.654 185.415C211.911 185.726 211.102 185.848 210.301 185.768C208.708 185.554 207.507 184.661 206.212 184.356C204.99 184.113 203.732 184.137 202.52 184.426C201.506 184.652 200.479 184.812 199.445 184.907C198.656 184.968 197.862 184.894 197.098 184.688C196.617 184.549 196.167 184.32 195.77 184.014C195.63 183.911 195.504 183.79 195.393 183.656C195.895 184.092 196.489 184.408 197.129 184.581C197.883 184.769 198.662 184.827 199.435 184.752C200.461 184.636 201.479 184.458 202.483 184.217C203.722 183.911 205.012 183.876 206.265 184.116C207.614 184.431 208.851 185.313 210.333 185.495C211.091 185.566 211.856 185.449 212.558 185.153C213.302 184.836 214.024 184.47 214.72 184.057C215.452 183.619 216.228 183.26 217.036 182.988C217.896 182.723 218.805 182.667 219.691 182.822C221.46 183.127 223.016 183.929 224.599 184.351C226.105 184.842 227.742 184.715 229.156 183.998C229.852 183.699 230.521 183.362 231.217 183.127C231.894 182.871 232.619 182.768 233.341 182.822C234.733 182.972 235.864 183.613 236.958 183.918C237.945 184.206 238.98 184.295 240.001 184.18C240.773 184.094 241.529 183.9 242.248 183.603C242.703 183.412 243.14 183.181 243.554 182.913C243.679 182.813 243.81 182.722 243.947 182.64Z" fill="#263238"/>
<path d="M224.19 198.187C224.19 198.187 216.537 193.376 214.741 193.959C214.231 194.136 213.787 194.465 213.467 194.902C213.147 195.339 212.967 195.864 212.951 196.407C211.569 195.095 210.092 193.887 208.533 192.793C207.64 192.216 206.546 191.794 205.553 192.259L205.25 192.633L205.383 193.301C205.383 193.301 200.837 191.954 202.903 194.648C204.969 197.343 213.971 202.876 215.448 203.571C216.924 204.266 223.76 206.313 226.92 204.399C228.879 203.866 230.654 202.801 232.05 201.32C234.239 198.893 237.463 194.942 237.463 194.942L237.25 190.987L228.476 197.551L224.19 198.187Z" fill="#FFBF9D"/>
<path d="M243.034 188.661C242.96 188.115 242.733 187.601 242.38 187.18C242.003 186.79 241.084 186.453 240.67 186.811C239.635 187.549 238.424 189.714 238.424 189.714C237.728 190.2 236.83 190.248 236.198 190.81C235.86 191.064 235.582 191.391 235.385 191.766C235.188 192.141 235.075 192.556 235.056 192.98C235.112 193.484 235.312 193.961 235.633 194.352C235.954 194.743 236.381 195.032 236.862 195.183C237.832 195.466 238.853 195.521 239.847 195.343C240.909 195.215 242.072 194.979 242.742 194.14C243.248 193.369 243.47 192.444 243.368 191.526C243.345 190.563 243.233 189.603 243.034 188.661Z" fill="#FFBF9D"/>
<path d="M210.784 200.084C210.347 199.837 209.943 199.533 209.584 199.181C208.679 198.372 207.864 197.466 207.152 196.481C206.435 195.498 205.833 194.437 205.356 193.316C205.263 193.111 205.228 192.883 205.256 192.659C205.282 192.484 205.376 192.327 205.516 192.22C205.76 192.049 205.941 192.151 205.925 192.162C205.798 192.167 205.677 192.218 205.585 192.306C205.481 192.404 205.419 192.537 205.41 192.68C205.402 192.875 205.446 193.069 205.537 193.241C206.06 194.318 206.674 195.346 207.375 196.315C208.078 197.287 208.861 198.197 209.717 199.036C210.092 199.365 210.449 199.715 210.784 200.084Z" fill="#FF9A6C"/>
<path d="M226.633 203.976C226.42 204.006 226.205 204.015 225.99 204.002C225.738 204.004 225.487 203.991 225.236 203.965C224.944 203.938 224.604 203.922 224.237 203.858C223.377 203.73 222.528 203.531 221.699 203.265C220.683 202.931 219.698 202.507 218.756 201.998C217.818 201.474 216.929 200.866 216.101 200.18C215.432 199.617 214.811 199 214.242 198.336C214.02 198.085 213.81 197.823 213.615 197.55C213.458 197.351 213.312 197.142 213.18 196.925C213.05 196.752 212.943 196.563 212.861 196.363C212.903 196.363 213.392 197.112 214.385 198.208C214.968 198.843 215.594 199.436 216.26 199.982C217.081 200.644 217.955 201.236 218.873 201.752C219.8 202.251 220.764 202.677 221.757 203.024C222.573 203.295 223.408 203.508 224.253 203.66C225.719 203.917 226.638 203.917 226.633 203.976Z" fill="#FF9A6C"/>
<path d="M238.881 195.514C238.772 195.569 238.652 195.6 238.53 195.604C238.201 195.648 237.867 195.636 237.542 195.567C237.054 195.482 236.593 195.28 236.199 194.979C235.709 194.593 235.363 194.053 235.216 193.445C235.06 192.835 235.129 192.189 235.413 191.627C235.657 191.175 236.026 190.804 236.475 190.558C236.768 190.392 237.091 190.288 237.426 190.253C237.659 190.253 237.787 190.253 237.787 190.253C237.362 190.337 236.953 190.488 236.576 190.702C236.187 190.95 235.871 191.299 235.662 191.713C235.418 192.222 235.361 192.802 235.503 193.349C235.64 193.897 235.947 194.387 236.379 194.749C236.739 195.044 237.157 195.257 237.606 195.375C238.026 195.459 238.453 195.506 238.881 195.514Z" fill="#FF9A6C"/>
<g opacity="0.6">
<path d="M204.958 190.054C204.574 188.833 203.99 187.684 203.232 186.654L198.76 179.812C198.491 179.316 198.104 178.896 197.634 178.587C197.198 178.347 195.929 177.754 195.663 178.823C195.609 179.076 195.628 179.339 195.717 179.582C197.185 183.828 199.7 187.63 203.025 190.632C203.524 191.081 204.299 191.53 204.788 190.942C204.883 190.817 204.948 190.672 204.978 190.518C205.007 190.364 205 190.205 204.958 190.054Z" fill="white"/>
</g>
<path d="M144.496 105.35C143.508 103.795 142.493 102.207 141.054 101.074C140.816 100.845 140.535 100.667 140.228 100.549C139.92 100.43 139.593 100.374 139.264 100.384C138.983 100.432 138.717 100.546 138.488 100.717C138.259 100.888 138.074 101.111 137.947 101.368C137.698 101.886 137.584 102.46 137.618 103.036C137.666 105.035 138.738 106.868 139.96 108.451C141.181 110.033 142.616 111.482 143.545 113.262H149.504L144.496 105.35Z" fill="#FF9A6C"/>
<path d="M182.582 108.259C180.76 106.81 178.418 106.185 176.108 105.944C176.113 107.107 176.348 108.257 176.799 109.328C177.249 110.398 177.907 111.368 178.733 112.181C179.559 112.993 180.538 113.633 181.611 114.062C182.685 114.491 183.833 114.701 184.988 114.679L185.089 114.417C185.583 112.119 184.398 109.713 182.582 108.259Z" fill="#86CF5F"/>
<path d="M178.63 108.174C179.026 108.383 179.393 108.642 179.725 108.943C180.373 109.478 181.233 110.205 182.136 111.082C183.039 111.958 183.804 112.819 184.329 113.455C184.633 113.781 184.9 114.14 185.126 114.524C184.782 114.24 184.466 113.923 184.181 113.578C183.623 112.979 182.837 112.156 181.945 111.279C181.052 110.403 180.208 109.633 179.597 109.082C179.252 108.806 178.928 108.502 178.63 108.174Z" fill="#263238"/>
<path d="M190.655 107.571C190.496 105.251 189.375 103.096 188 101.22C187.155 102.006 186.473 102.953 185.995 104.006C185.516 105.06 185.25 106.198 185.212 107.355C185.173 108.513 185.363 109.666 185.77 110.749C186.178 111.833 186.795 112.823 187.585 113.665L187.851 113.563C189.848 112.398 190.82 109.896 190.655 107.571Z" fill="#86CF5F"/>
<path d="M188.291 103.715C188.315 104.165 188.292 104.617 188.222 105.062C188.143 105.987 188.047 107.083 187.941 108.269C187.835 109.456 187.76 110.574 187.686 111.504C187.677 111.955 187.627 112.404 187.537 112.845C187.473 112.398 187.459 111.944 187.495 111.493C187.495 110.664 187.558 109.51 187.665 108.243C187.771 106.976 187.909 105.832 188.031 105.009C188.072 104.569 188.159 104.135 188.291 103.715Z" fill="#263238"/>
<path d="M186.14 115.129C187.95 115.129 189.417 113.652 189.417 111.831C189.417 110.009 187.95 108.532 186.14 108.532C184.331 108.532 182.863 110.009 182.863 111.831C182.863 113.652 184.331 115.129 186.14 115.129Z" fill="#C8FFAA"/>
<path d="M173.134 116.182C170.048 116.182 166.888 113.648 164.753 111.483L164.678 111.408C164.596 111.327 164.505 111.255 164.407 111.194C164.139 111.032 163.833 110.942 163.52 110.932C149.605 110.275 131.122 105.319 130.936 105.271C130.757 105.223 130.605 105.105 130.512 104.944C130.42 104.782 130.394 104.59 130.442 104.41C130.49 104.23 130.607 104.077 130.768 103.983C130.928 103.89 131.119 103.865 131.297 103.913C131.483 103.967 149.823 108.879 163.584 109.526C164.148 109.545 164.697 109.711 165.177 110.007C165.361 110.124 165.531 110.262 165.682 110.419L165.762 110.499C168.592 113.37 171.306 114.888 173.383 114.776C176.931 114.583 185.87 111.916 185.96 111.889C186.048 111.862 186.14 111.853 186.231 111.862C186.322 111.871 186.41 111.898 186.491 111.942C186.571 111.986 186.642 112.045 186.7 112.117C186.757 112.188 186.8 112.271 186.826 112.359C186.879 112.538 186.859 112.731 186.772 112.895C186.684 113.059 186.536 113.182 186.358 113.236C185.987 113.348 177.17 115.973 173.458 116.176L173.134 116.182Z" fill="#E0E0E0"/>
<path d="M173.134 116.182H173.442C173.643 116.156 173.946 116.14 174.339 116.086C175.131 115.985 176.283 115.771 177.754 115.445C179.225 115.119 181.021 114.664 183.065 114.098C184.096 113.814 185.216 113.499 186.358 113.146C186.485 113.092 186.59 112.996 186.656 112.874C186.722 112.752 186.744 112.611 186.719 112.475C186.694 112.338 186.624 112.214 186.52 112.124C186.416 112.033 186.284 111.98 186.146 111.975C185.995 111.984 185.846 112.017 185.705 112.071L185.232 112.21L184.271 112.488C181.669 113.215 178.811 114.007 175.683 114.6C174.884 114.753 174.077 114.858 173.266 114.915C172.413 114.915 171.57 114.733 170.791 114.381C169.195 113.64 167.734 112.636 166.468 111.409C165.788 110.815 165.246 110.04 164.375 109.805C163.942 109.688 163.496 109.629 163.048 109.628L161.651 109.538C159.787 109.409 157.885 109.206 155.957 108.971C152.096 108.479 148.129 107.806 144.081 106.993C140.034 106.18 136.115 105.293 132.344 104.32L131.637 104.138L131.287 104.047C131.189 104.024 131.087 104.024 130.989 104.047C130.894 104.066 130.805 104.109 130.731 104.173C130.657 104.237 130.601 104.318 130.567 104.411C130.534 104.503 130.525 104.602 130.542 104.698C130.558 104.795 130.599 104.886 130.66 104.962C130.777 105.127 130.973 105.159 131.218 105.224L131.903 105.4L133.268 105.747C135.084 106.196 136.864 106.617 138.606 107.009C144.768 108.424 150.997 109.527 157.269 110.313C158.607 110.484 159.887 110.585 161.098 110.698L162.862 110.815C163.154 110.842 163.419 110.847 163.712 110.879C163.996 110.916 164.266 111.025 164.498 111.195C164.706 111.359 164.903 111.538 165.087 111.729L165.618 112.264C165.985 112.601 166.341 112.921 166.68 113.215C167.323 113.753 168.001 114.246 168.709 114.691C169.687 115.32 170.765 115.774 171.896 116.033C172.291 116.106 172.69 116.156 173.091 116.182H172.783C172.482 116.175 172.182 116.145 171.885 116.092C170.742 115.85 169.651 115.406 168.662 114.782C167.944 114.342 167.257 113.853 166.606 113.317C166.245 113.028 165.884 112.708 165.517 112.371L164.986 111.836C164.81 111.643 164.618 111.464 164.413 111.302C164.202 111.147 163.955 111.049 163.696 111.018C163.435 110.992 163.164 110.981 162.856 110.965L161.088 110.853C159.877 110.751 158.592 110.65 157.253 110.489C150.968 109.73 144.726 108.643 138.552 107.234C136.81 106.849 135.029 106.432 133.209 105.983L131.844 105.64L131.154 105.459C131.032 105.427 130.936 105.411 130.798 105.362C130.665 105.311 130.547 105.224 130.458 105.111C130.368 104.999 130.307 104.864 130.284 104.722C130.26 104.579 130.273 104.432 130.322 104.296C130.371 104.16 130.455 104.039 130.564 103.945C130.674 103.85 130.806 103.786 130.947 103.759C131.085 103.735 131.227 103.744 131.361 103.785L131.712 103.876L132.413 104.058C136.178 105.015 140.103 105.902 144.145 106.731C148.187 107.56 152.144 108.217 155.994 108.709C157.922 108.95 159.818 109.153 161.677 109.286L163.064 109.377C163.535 109.379 164.005 109.442 164.46 109.564C164.689 109.634 164.908 109.731 165.114 109.853C165.315 109.976 165.485 110.142 165.677 110.286C166.011 110.596 166.314 110.922 166.649 111.222C167.892 112.432 169.328 113.424 170.898 114.156C171.643 114.499 172.452 114.681 173.272 114.691C174.072 114.636 174.868 114.534 175.656 114.386C178.774 113.804 181.631 113.028 184.234 112.312L185.195 112.039L185.668 111.9C185.828 111.84 185.996 111.806 186.167 111.799C186.345 111.809 186.513 111.879 186.647 111.997C186.78 112.115 186.869 112.275 186.901 112.451C186.933 112.627 186.905 112.809 186.822 112.967C186.739 113.125 186.606 113.25 186.443 113.322C185.259 113.681 184.165 113.975 183.124 114.258C181.047 114.793 179.252 115.252 177.77 115.562C176.288 115.872 175.115 116.07 174.344 116.15C173.946 116.193 173.643 116.204 173.442 116.22C173.338 116.213 173.235 116.201 173.134 116.182Z" fill="#263238"/>
<path d="M132.838 117.71C132.838 117.71 133.517 106.484 134.845 105.362C136.173 104.239 141.548 102.902 142.254 103.223C142.961 103.544 147.034 105.137 147.178 105.816C147.244 106.038 147.259 106.273 147.222 106.502C147.185 106.732 147.096 106.949 146.962 107.139C146.828 107.328 146.653 107.484 146.45 107.595C146.247 107.706 146.022 107.768 145.791 107.778L142.605 107.195L139.418 108.927L139.041 112.022C139.041 112.022 142.286 109.414 143.375 108.644C144.464 107.874 147.162 107.906 147.268 109.916C147.268 109.916 151.464 110.424 151.591 112.862C151.591 112.862 155.309 115.572 155.516 116.962C155.723 118.352 153.886 121.132 153.886 121.132C153.886 121.132 159.553 126.649 159.399 128.525C159.245 130.401 159.813 136.308 159.813 136.308L146.923 137.912L146.641 132.566C146.641 132.566 133.677 120.346 132.838 117.71Z" fill="#FFBF9D"/>
<path d="M153.695 117.262C153.591 117.858 153.336 118.417 152.956 118.885C152.575 119.353 152.082 119.715 151.523 119.935C151.48 119.866 152.149 119.449 152.744 118.706C153.339 117.963 153.62 117.236 153.695 117.262Z" fill="#FF9A6C"/>
<path d="M154.597 118.38C154.661 118.428 154.348 118.77 153.833 118.748C153.317 118.727 153.031 118.358 153.094 118.315C153.158 118.273 153.44 118.46 153.843 118.47C154.247 118.481 154.55 118.321 154.597 118.38Z" fill="#FF9A6C"/>
<path d="M151.475 113.007C151.475 113.055 151.034 113.215 150.365 113.616C149.498 114.135 148.736 114.814 148.118 115.615C147.649 116.224 147.273 116.9 147.003 117.62V117.673H146.96C146.347 117.949 145.711 118.169 145.059 118.331C145.634 117.989 146.238 117.699 146.865 117.465L146.801 117.534C147.048 116.774 147.425 116.063 147.916 115.434C148.554 114.602 149.362 113.918 150.285 113.429C150.653 113.217 151.056 113.074 151.475 113.007Z" fill="#FF9A6C"/>
<path d="M140.852 116.273C140.852 116.273 140.905 116.145 141.091 115.989C141.364 115.785 141.672 115.633 141.999 115.54C142.46 115.418 142.895 115.213 143.285 114.936C143.721 114.534 144.128 114.1 144.501 113.637C145.345 112.67 146.094 111.809 146.689 111.194C146.979 110.841 147.305 110.518 147.661 110.232C147.424 110.616 147.148 110.975 146.838 111.301C146.307 111.948 145.553 112.835 144.713 113.798C144.33 114.273 143.907 114.715 143.449 115.118C143.03 115.403 142.559 115.603 142.063 115.706C141.747 115.778 141.443 115.895 141.16 116.054C140.964 116.193 140.868 116.289 140.852 116.273Z" fill="#FF9A6C"/>
<path d="M138.983 111.985C138.749 112.78 138.318 113.501 137.73 114.08C137.141 114.659 136.415 115.077 135.621 115.294C136.3 114.88 136.942 114.406 137.538 113.878C138.073 113.29 138.556 112.657 138.983 111.985Z" fill="#FF9A6C"/>
<path d="M154.024 121.208C154.024 121.25 153.833 121.208 153.546 121.208C153.173 121.202 152.805 121.3 152.484 121.491L152.287 121.609V121.379V121.309C152.282 120.916 152.214 120.526 152.085 120.154C151.979 119.876 151.852 119.732 151.878 119.7C151.905 119.668 152.091 119.775 152.261 120.064C152.458 120.443 152.562 120.865 152.563 121.293V121.363L152.351 121.25C152.714 121.035 153.14 120.952 153.557 121.015C153.875 121.042 154.04 121.159 154.024 121.208Z" fill="#FF9A6C"/>
<path d="M145.112 136.176C145.112 136.176 137.145 181.3 137.788 186.058C138.43 190.816 139.79 209.804 153.817 207.719C167.843 205.634 165.411 185.892 164.922 182.107C164.434 178.322 161.135 153.047 161.135 153.047L160.073 135.369L145.112 136.176Z" fill="#FF8518"/>
<path d="M163.579 174.495C163.541 174.366 163.516 174.233 163.505 174.099C163.473 173.811 163.42 173.436 163.361 172.966C163.239 171.977 163.08 170.55 162.899 168.78C162.538 165.241 162.118 160.35 161.693 154.94C161.269 149.53 160.876 144.639 160.562 141.1C160.408 139.352 160.281 137.93 160.19 136.908C160.155 136.434 160.123 136.055 160.095 135.77C160.088 135.636 160.088 135.502 160.095 135.369C160.134 135.496 160.159 135.627 160.169 135.759C160.205 136.048 160.252 136.427 160.313 136.898C160.435 137.881 160.594 139.314 160.775 141.084C161.136 144.617 161.555 149.514 161.986 154.919C162.416 160.323 162.798 165.22 163.096 168.786C163.25 170.534 163.377 171.961 163.467 172.977C163.505 173.452 163.536 173.832 163.563 174.121C163.575 174.245 163.58 174.37 163.579 174.495Z" fill="#263238"/>
<g opacity="0.6">
<path d="M191.526 188.759H169.819V231.414H191.526V188.759Z" fill="white"/>
</g>
<path d="M187.117 228.655H174.286C173.533 228.655 172.812 228.355 172.28 227.819C171.748 227.284 171.449 226.558 171.449 225.801V200.103L177.456 201.103C179.05 201.365 180.674 201.386 182.274 201.167L189.953 200.098V225.79C189.955 226.166 189.883 226.538 189.741 226.886C189.599 227.233 189.39 227.549 189.127 227.815C188.863 228.082 188.55 228.293 188.205 228.437C187.86 228.581 187.491 228.655 187.117 228.655Z" fill="#EBEBEB"/>
<path d="M191.478 189C191.213 189.116 190.939 189.21 190.66 189.284C189.91 189.52 189.147 189.716 188.376 189.872C187.236 190.115 186.084 190.293 184.924 190.406C183.501 190.543 182.072 190.598 180.643 190.572C178.043 190.514 175.454 190.199 172.915 189.631C171.949 189.412 171.168 189.209 170.637 189.043C170.357 188.973 170.084 188.88 169.819 188.765C170.105 188.796 170.388 188.854 170.663 188.936C171.195 189.07 171.986 189.246 172.958 189.439C175.488 189.952 178.058 190.244 180.638 190.31C182.056 190.338 183.474 190.289 184.887 190.166C186.188 190.043 187.356 189.877 188.328 189.684C189.3 189.492 190.086 189.326 190.623 189.187C190.902 189.099 191.188 189.037 191.478 189Z" fill="#263238"/>
<path d="M171.487 192.722C171.561 192.722 171.625 200.061 171.625 209.117C171.625 218.173 171.561 225.513 171.487 225.513C171.412 225.513 171.349 218.173 171.349 209.117C171.349 200.061 171.407 192.722 171.487 192.722Z" fill="#263238"/>
<path d="M185.965 228.827C185.965 228.901 183.362 228.966 180.154 228.966C176.946 228.966 174.344 228.901 174.344 228.827C174.344 228.752 176.941 228.688 180.154 228.688C183.368 228.688 185.965 228.752 185.965 228.827Z" fill="#263238"/>
<path d="M171.492 200.21C173.226 202.118 175.585 203.334 178.136 203.637C182.358 204.129 186.422 202.076 190.182 200.082C183.973 200.964 177.52 201.83 171.545 199.932" fill="white"/>
<g opacity="0.6">
<path d="M181.758 210.614C179.841 211.897 178.306 213.72 176.368 214.971C174.429 216.222 171.763 216.805 169.899 215.436V218.382C171.763 219.75 174.429 219.173 176.368 217.917C178.306 216.66 179.841 214.848 181.758 213.56C183.184 212.618 184.79 211.989 186.473 211.712C188.155 211.436 189.877 211.519 191.526 211.956V209.01C189.877 208.572 188.155 208.488 186.472 208.765C184.789 209.041 183.183 209.671 181.758 210.614Z" fill="white"/>
</g>
</svg>
