<svg width="259" height="140" viewBox="0 0 259 140" fill="none" xmlns="http://www.w3.org/2000/svg">
<path d="M97.5523 21.025C62.3876 -11.186 31.1699 28.611 19.9567 52.5358C-43.286 120.372 77.3686 146.193 83.648 121.247C89.9275 96.3008 225.383 159.76 225.383 133.501C225.383 65.8293 263.06 69.6042 257.677 31.5286C252.295 -6.54694 206.994 -6.1093 197.574 21.025C188.155 48.1593 141.508 61.2888 97.5523 21.025Z" fill="#E9F4E9"/>
<path d="M248.144 110.049C248.144 111.32 192.595 112.35 124.072 112.35C55.5488 112.35 0 111.32 0 110.049C0 108.778 55.5488 107.748 124.072 107.748C192.595 107.748 248.144 108.778 248.144 110.049Z" fill="white"/>
<path d="M79.5168 51.4302C79.5168 51.4302 77.1714 56.7176 75.8385 56.3802C74.5056 56.0428 74.0557 54.3437 74.0557 54.3437C74.0557 54.3437 72.3399 51.4017 74.0113 50.5833C75.8674 49.674 79.5168 51.4302 79.5168 51.4302Z" fill="#FF8519"/>
<path d="M65.4971 99.7292L68.1359 104.251L74.222 102.321L71.1045 97.1729L65.4971 99.7292Z" fill="#FF8519"/>
<path d="M53.9619 104.557L54.1287 99.5931L60.0355 99.2979V104.852L53.9619 104.557Z" fill="#FF8519"/>
<path d="M41.5938 51.6589C41.5938 51.6589 44.2508 58.3032 48.0815 60.4291C51.2157 62.1685 54.7216 61.4542 54.7216 61.4542L54.1224 55.1724L50.6663 54.3126C50.0223 54.0363 48.1582 52.7639 47.6331 52.2999L45.054 49.4077L41.5938 51.6589Z" fill="#FF8519"/>
<path d="M59.463 48.3584C59.463 48.3584 60.3855 45.8982 59.2627 45.5935C58.14 45.2888 57.0765 46.733 57.0765 46.733C57.0765 46.733 54.7652 47.3493 54.0759 48.8235C53.3867 50.2977 55.9309 52.2454 55.9309 52.2454L59.463 48.3584Z" fill="black"/>
<path d="M63.0002 68.6678L62.727 82.6881C62.727 82.6881 62.5792 89.6421 62.3243 95.3749C62.2392 97.3708 61.8851 100.727 61.7734 102.083H52.9614C52.9257 96.0728 52.5287 78.4057 52.7882 75.5283C53.1012 71.9886 53.7278 68.6055 53.7278 68.6055L61.8634 68.659L63.0002 68.6678Z" fill="#FFA63B"/>
<path d="M65.7616 102.284C64.719 100.534 62.2888 95.1788 61.3256 92.9553C60.8951 91.9613 61.8636 68.659 61.8636 68.659V68.6054L64.6738 67.8713C64.6738 67.8713 72.6692 92.2903 74.5891 99.2982L65.7616 102.284Z" fill="#FFA63B"/>
<path d="M54.4899 72.5422C54.3399 72.5422 54.1841 72.5248 54.023 72.4868C53.9721 72.475 53.9401 72.4237 53.9523 72.3724C53.9645 72.3211 54.0157 72.2899 54.0667 72.3017C55.8031 72.7117 56.9121 70.4605 56.9232 70.438C56.9463 70.3905 57.0033 70.3712 57.0501 70.3936C57.0976 70.4164 57.1173 70.4734 57.0945 70.5205C57.0839 70.5425 56.1006 72.5422 54.4899 72.5422Z" fill="white"/>
<path d="M62.2886 95.2741C62.2369 95.2741 62.1943 95.2331 62.1936 95.181L61.7696 74.0635C61.7688 74.0308 61.7851 74.0004 61.8121 73.9822L64.2567 72.3685C64.3001 72.34 64.359 72.351 64.3886 72.3955C64.4175 72.4392 64.4053 72.4984 64.3616 72.5273L61.9607 74.1121L62.3836 95.1772C62.3847 95.2297 62.3429 95.273 62.2905 95.2741C62.2905 95.2741 62.2893 95.2741 62.2886 95.2741Z" fill="white"/>
<path d="M60.1248 54.5392C60.1248 54.5392 62.4836 54.638 63.4187 56.385C64.3537 58.132 65.0604 68.5443 65.0604 68.5443C65.0604 68.5443 62.4452 69.6128 58.6286 69.5668C54.8119 69.5208 53.5212 68.6066 53.5212 68.6066L52.7871 62.1854C52.7871 62.1854 52.9034 55.2193 53.8548 54.7443C54.8066 54.2698 58.5453 54.1634 60.1248 54.5392Z" fill="#AF4D04"/>
<path d="M56.3311 52.4868L56.556 54.7863C56.556 54.7863 56.7475 55.1898 58.2711 55.3483C59.27 55.452 59.7313 55.107 59.7313 55.107L59.4775 53.9561L59.2286 52.8337L56.7475 52.537L56.3311 52.4868Z" fill="#FF8519"/>
<path d="M56.7471 52.5374C56.7592 52.5997 56.79 52.6715 56.8356 52.7528C57.4625 53.8512 58.8934 53.961 59.4771 53.9565L59.2282 52.8341L56.7471 52.5374Z" fill="black"/>
<path d="M59.1735 47.7327C59.1735 47.7327 60.5861 50.4977 60.2833 52.1459C59.9805 53.7942 58.5678 53.6612 57.7102 53.4218C56.8527 53.1824 56.4237 52.6775 56.4237 52.6775C56.4237 52.6775 55.6668 53.0232 55.0867 52.3051C54.5065 51.5874 54.7588 50.6835 55.1877 50.4441C55.6167 50.2047 56.1714 50.4973 56.1714 50.4973L55.6923 49.6997C55.6923 49.6997 57.105 45.3135 59.1735 47.7327Z" fill="#FF8519"/>
<path d="M56.1978 51.7508C56.1807 51.7508 56.1636 51.7463 56.1484 51.7371L55.0963 51.0935C55.0514 51.0661 55.0374 51.0072 55.0647 50.9624C55.0921 50.9172 55.1514 50.9039 55.1954 50.9309L56.2475 51.5745C56.2924 51.6019 56.3064 51.6608 56.2791 51.7056C56.2608 51.7349 56.2297 51.7508 56.1978 51.7508Z" fill="black"/>
<path d="M55.3 51.8303C55.2616 51.8303 55.2259 51.8071 55.2115 51.7695C55.1925 51.7205 55.2172 51.6657 55.2662 51.6467L55.8973 51.4043C55.9471 51.3842 56.0014 51.41 56.02 51.4591C56.039 51.5081 56.0143 51.5628 55.9657 51.5818L55.3346 51.8242C55.3228 51.8284 55.3114 51.8303 55.3 51.8303Z" fill="black"/>
<path d="M57.4501 49.1374C57.4334 49.1374 57.4167 49.1333 57.4015 49.1241C57.3563 49.0975 57.3415 49.039 57.3685 48.9938C57.6295 48.5542 58.0372 48.588 58.2165 48.6686C58.2644 48.6898 58.286 48.7457 58.2648 48.794C58.2439 48.8414 58.1876 48.8623 58.1398 48.8426C58.1018 48.8263 57.7659 48.6959 57.5315 49.0911C57.5144 49.1207 57.4824 49.1374 57.4501 49.1374Z" fill="black"/>
<path d="M59.5557 48.8112C59.5367 48.8112 59.5173 48.8055 59.5006 48.7937C59.2559 48.6204 59.0299 48.7895 59.0276 48.7914C58.9858 48.8233 58.9261 48.8157 58.8942 48.7739C58.8623 48.7325 58.8699 48.6725 58.9117 48.6406C59.0283 48.5509 59.3239 48.435 59.6104 48.6383C59.653 48.6687 59.6632 48.7279 59.6328 48.7709C59.6146 48.7971 59.5853 48.8112 59.5557 48.8112Z" fill="black"/>
<path d="M59.4634 51.107C59.3943 51.096 59.3605 51.0466 59.3696 50.995C59.5216 50.1705 58.9125 49.9239 58.8867 49.9136C58.8376 49.8946 58.8133 49.8399 58.8319 49.7909C58.8506 49.7419 58.9049 49.7175 58.9543 49.7358C58.9623 49.7388 59.7381 50.0451 59.5565 51.0288C59.5482 51.0751 59.5083 51.107 59.4634 51.107Z" fill="black"/>
<path d="M59.649 49.9171C59.6099 49.9171 59.5734 49.8932 59.5597 49.8544L59.3743 49.3407C59.3565 49.2913 59.3823 49.237 59.4313 49.2191C59.4803 49.2024 59.535 49.2267 59.5529 49.2761L59.7383 49.7898C59.7562 49.8392 59.7307 49.8935 59.6813 49.9114C59.6707 49.9152 59.66 49.9171 59.649 49.9171Z" fill="black"/>
<path d="M58.2706 50.0877C58.2315 50.0877 58.1954 50.0637 58.1814 50.025L57.9959 49.5117C57.9781 49.4623 58.0035 49.4079 58.0529 49.3901C58.1016 49.3726 58.1567 49.3977 58.1745 49.4471L58.3599 49.9604C58.3778 50.0098 58.352 50.0641 58.3029 50.082C58.2927 50.0858 58.2817 50.0877 58.2706 50.0877Z" fill="black"/>
<path d="M59.4633 48.3584C59.4633 48.3584 59.1833 47.9207 58.6388 47.9728C58.0943 48.0248 57.8139 48.4618 57.8139 48.4618C57.8139 48.4618 58.1422 49.4029 57.4499 49.9926C56.7577 50.5819 56.1714 50.4976 56.1714 50.4976L55.6159 50.3513L55.1455 49.5652L56.5346 47.6414L58.4409 46.3162L59.556 47.1904L59.4633 48.3584Z" fill="black"/>
<path d="M58.8129 52.0189C58.5937 52.0189 58.2794 51.9338 58.0948 51.6067C58.069 51.5611 58.0853 51.503 58.1309 51.4771C58.1765 51.4509 58.2342 51.4672 58.2605 51.5132C58.4808 51.9042 58.9121 51.8206 58.9166 51.8195C58.9664 51.8115 59.0185 51.8419 59.0291 51.8932C59.0397 51.9448 59.0067 51.995 58.9554 52.0056C58.9159 52.0136 58.8672 52.0189 58.8129 52.0189Z" fill="black"/>
<path d="M45.1786 49.1386C45.1786 49.1386 44.8051 47.4813 43.9198 46.7263C43.0345 45.9713 41.9869 45.4846 42.1701 46.1567C42.3532 46.8285 42.9665 47.9266 42.9665 47.9266L41.36 47.4987C41.36 47.4987 40.3125 47.012 39.5518 46.8095C38.7911 46.607 38.5514 47.1663 38.5514 47.1663C38.5514 47.1663 37.7903 46.9638 37.4594 47.1872C37.1284 47.4106 37.3633 47.8886 37.3633 47.8886C37.3633 47.8886 36.2713 47.9095 36.6824 48.7457C37.0935 49.582 39.2543 50.9882 40.3015 51.4746C41.349 51.9613 43.7089 52.2782 43.7089 52.2782C43.7089 52.2782 45.8287 52.7414 45.1786 49.1386Z" fill="#FF8519"/>
<path d="M39.3046 49.5066C39.2708 49.5066 39.2382 49.4884 39.2207 49.4565C39.196 49.4101 39.2135 49.3528 39.2598 49.3277L42.0464 47.8337C42.0928 47.8098 42.1501 47.8261 42.1752 47.8728C42.1999 47.9192 42.1824 47.9766 42.1361 48.0016L39.3499 49.4956C39.3354 49.5028 39.3198 49.5066 39.3046 49.5066Z" fill="black"/>
<path d="M43.9885 50.1953C43.9767 50.1953 43.9645 50.1931 43.9531 50.1885C42.4998 49.6057 42.9364 48.1538 42.9409 48.139C42.9565 48.0892 43.0089 48.0615 43.0598 48.0771C43.1096 48.0927 43.1377 48.1459 43.1222 48.196C43.1058 48.2492 42.7354 49.4955 44.0234 50.0118C44.0721 50.0316 44.096 50.0867 44.0762 50.1353C44.0618 50.1729 44.0261 50.1953 43.9885 50.1953Z" fill="black"/>
<path d="M41.5938 52.4555C41.5938 52.4555 44.103 58.4733 46.9371 60.0645C49.7712 61.6558 53.4506 61.9404 53.4506 61.9404L56.4698 54.3344C56.4698 54.3344 51.0638 54.1729 49.5721 53.0665C48.0804 51.9597 45.6939 49.5439 45.6939 49.5439L41.5938 52.4555Z" fill="#AF4D04"/>
<path d="M49.3734 55.5984C49.2377 55.5984 49.1693 55.5288 49.1355 55.4707C48.8935 55.0493 49.7389 53.5561 49.9106 53.2613C49.9323 53.2244 49.9748 53.2058 50.0163 53.2172C50.0573 53.2275 50.0865 53.2639 50.0881 53.3061C50.09 53.3749 50.134 54.9927 49.6808 55.4601C49.5918 55.552 49.4881 55.5984 49.3734 55.5984ZM49.8977 53.6747C49.539 54.3438 49.1826 55.1702 49.3004 55.3757C49.3073 55.3871 49.319 55.4084 49.3734 55.4084C49.4357 55.4084 49.4915 55.3822 49.5444 55.3279C49.8058 55.0581 49.8837 54.2286 49.8977 53.6747Z" fill="#F7C537"/>
<path d="M61.1589 54.7245C61.1589 54.7245 64.6637 56.0403 67.7421 55.8918C70.8205 55.7436 73.4266 53.0664 73.4266 53.0664L76.6482 56.6581C76.6482 56.6581 74.5756 62.3917 69.673 63.5574C64.7708 64.7234 60.8721 61.5995 60.8721 61.5995L61.1589 54.7245Z" fill="#AF4D04"/>
<path d="M69.1592 57.5192C69.0453 57.5192 68.9415 57.4835 68.8492 57.412C68.3978 57.0621 68.4081 55.9382 68.4088 55.8903C68.4092 55.8542 68.4305 55.8212 68.4632 55.8056C68.4958 55.7908 68.535 55.795 68.5631 55.8174C68.7565 55.9713 69.7163 56.7635 69.6205 57.2274C69.6019 57.3182 69.5354 57.4386 69.3253 57.4956C69.2679 57.5116 69.2124 57.5192 69.1592 57.5192ZM68.6041 56.0985C68.6243 56.4701 68.7094 57.0632 68.9658 57.262C69.0529 57.3292 69.1547 57.3452 69.2751 57.3129C69.4169 57.2741 69.4302 57.2103 69.4343 57.1898C69.4837 56.9508 69.0016 56.442 68.6041 56.0985Z" fill="#F7C537"/>
<path d="M64.6203 63.5134C64.5736 63.5134 64.533 63.4788 64.5265 63.4313L64.0219 59.8039C64.0147 59.7518 64.0508 59.7039 64.1028 59.6967C64.1541 59.6921 64.2032 59.726 64.21 59.778L64.7146 63.4054C64.7218 63.4575 64.6857 63.5054 64.6336 63.5126C64.6295 63.513 64.6249 63.5134 64.6203 63.5134Z" fill="#F7C537"/>
<path d="M61.3252 108.784C61.3252 109.278 61.1341 109.843 60.7427 109.986C60.3514 110.128 57.1848 110.425 54.4142 110.215C51.7617 110.013 51.2112 109.843 51.0155 109.634C50.9197 109.527 51.1067 109.032 51.3202 108.554C51.3339 108.53 51.343 108.503 51.3567 108.479C51.4657 108.238 51.5797 108.004 51.6614 107.838C51.7431 107.68 51.8434 107.53 51.9616 107.383C52.2481 107.04 52.8169 106.328 52.9624 105.96C53.1535 105.47 53.4445 104.41 53.6402 103.912C53.8359 103.422 54.3135 103.319 54.3135 103.319C54.3135 103.319 56.157 101.912 60.1599 103.28C60.6337 103.441 60.7424 105.893 60.7424 106.245V106.597C60.7424 106.925 61.0019 107.573 61.1702 108.111C61.2158 108.246 61.2522 108.372 61.2792 108.487C61.307 108.602 61.3252 108.701 61.3252 108.784Z" fill="#353333"/>
<path d="M83.1939 109.41C83.3383 109.39 83.4348 109.247 83.4082 109.096C83.2824 108.383 82.8394 106.391 81.7045 105.552C80.3093 104.521 77.3988 104.124 76.3365 103.438C75.2741 102.752 74.0795 101.085 73.4507 101.407C72.8219 101.729 71.6425 103.194 69.9228 102.998C68.2031 102.801 67.4071 102.391 66.9474 102.81C66.4876 103.23 66.2638 109.059 66.4645 109.404C66.6651 109.75 69.0831 109.413 69.2944 109.467C69.5056 109.522 70.0907 108.13 70.4886 108.336C70.8864 108.541 71.375 109.189 71.9613 109.484C72.508 109.759 81.4632 109.655 83.1939 109.41Z" fill="#353333"/>
<path d="M75.4234 104.277C75.4097 104.277 75.3964 104.274 75.3835 104.268C75.3375 104.247 75.3166 104.193 75.3356 104.146C75.3535 104.102 75.5328 103.665 75.8125 103.174C76.2494 102.224 76.7198 101.019 76.5484 100.638C76.5264 100.589 76.4956 100.562 76.4489 100.551C76.3562 100.528 76.2718 100.546 76.1905 100.607C75.733 100.945 75.5503 102.447 75.5188 102.998C75.5157 103.05 75.477 103.092 75.4184 103.087C75.366 103.084 75.3257 103.039 75.3288 102.986C75.3337 102.902 75.4549 100.915 76.0773 100.453C76.2046 100.359 76.3448 100.33 76.4937 100.366C76.5967 100.391 76.6757 100.458 76.7217 100.561C76.8695 100.888 76.6617 101.62 76.3771 102.346C76.7323 101.927 77.1457 101.632 77.569 101.755C77.8 101.821 77.8764 101.961 77.8996 102.066C78.0462 102.728 76.4914 104.099 76.314 104.254C76.2745 104.288 76.2145 104.283 76.1799 104.244C76.1457 104.205 76.1495 104.144 76.1894 104.11C76.6484 103.712 77.8179 102.575 77.7141 102.107C77.7027 102.055 77.6697 101.982 77.5169 101.938C76.9892 101.787 76.4078 102.524 75.991 103.246C75.7642 103.736 75.5628 104.123 75.5077 104.226C75.4906 104.258 75.4576 104.277 75.4234 104.277Z" fill="#FFA63B"/>
<path d="M56.1575 106.58C56.1461 106.58 56.1343 106.578 56.1229 106.573C55.9815 106.518 54.7391 106.018 54.5928 105.519C54.5613 105.412 54.5791 105.307 54.6445 105.217C54.7117 105.124 54.8086 105.068 54.9321 105.051C55.2437 105.009 55.6928 105.239 56.0359 105.456C55.6533 104.913 55.1331 104.073 55.2805 103.696C55.3113 103.617 55.3842 103.517 55.5571 103.491C56.4413 103.344 57.0371 105.91 57.102 106.202C57.1134 106.253 57.0811 106.304 57.0298 106.315C56.9782 106.327 56.9276 106.294 56.9166 106.243C56.6867 105.208 56.1252 103.603 55.586 103.679C55.4967 103.693 55.4705 103.733 55.4576 103.766C55.3261 104.101 56.0545 105.204 56.5443 105.82C56.5743 105.858 56.5712 105.912 56.5367 105.947C56.5025 105.981 56.4477 105.984 56.4101 105.954C56.1404 105.737 55.3519 105.181 54.9576 105.24C54.8865 105.25 54.8345 105.279 54.7984 105.329C54.7672 105.372 54.76 105.414 54.7752 105.465C54.877 105.813 55.833 106.255 56.1924 106.397C56.2414 106.416 56.2654 106.471 56.2464 106.52C56.2316 106.557 56.1955 106.58 56.1575 106.58Z" fill="#FFA63B"/>
<path d="M58.5194 55.4807C57.4039 55.4807 56.5132 54.8724 56.5011 54.864C56.4581 54.834 56.4475 54.7751 56.4775 54.7318C56.5072 54.6885 56.566 54.6775 56.6097 54.7079C56.6249 54.7185 58.171 55.7725 59.6881 55.021C59.7349 54.9978 59.7922 55.0168 59.8154 55.0639C59.8386 55.111 59.8196 55.168 59.7725 55.1916C59.3462 55.4028 58.9184 55.4807 58.5194 55.4807Z" fill="#F7C537"/>
<path d="M75.433 53.9307C75.4167 53.9307 75.4004 53.9266 75.3852 53.9178C75.3396 53.8916 75.3244 53.8331 75.351 53.7879C75.9122 52.8258 75.9331 51.7855 75.9331 51.7752C75.9338 51.7228 75.976 51.6814 76.0281 51.6814C76.082 51.6822 76.1238 51.7251 76.123 51.7775C76.1227 51.822 76.1021 52.8771 75.5151 53.8836C75.4973 53.914 75.4657 53.9307 75.433 53.9307Z" fill="black"/>
<path d="M215.867 44.8438C215.867 44.8438 217.073 49.3786 218.486 49.3265C219.899 49.2745 220.774 48.7718 220.774 48.7718C220.774 48.7718 222.944 45.568 221.763 44.8936C219.917 43.8385 215.867 44.8438 215.867 44.8438Z" fill="#FF8519"/>
<path d="M220.566 45.8179C220.566 45.8179 218.376 46.4763 218.594 48.2032C218.812 49.9301 221.031 48.3666 221.031 48.3666L221.689 47.2902L221.168 45.846L220.566 45.8179Z" fill="#FF8519"/>
<path d="M218.7 47.6773C218.631 47.6655 218.597 47.6154 218.607 47.5641C218.808 46.5424 219.851 45.9823 219.896 45.9588C219.943 45.9345 220 45.9516 220.025 45.9987C220.049 46.045 220.031 46.1024 219.985 46.1271C219.975 46.1324 218.977 46.6689 218.794 47.6002C218.785 47.6462 218.745 47.6773 218.7 47.6773Z" fill="black"/>
<path d="M216.582 48.4634C216.582 48.4634 214.195 55.1191 216.584 59.1728C218.973 63.2266 226.958 62.5514 226.958 62.5514L227.72 56.11C227.72 56.11 224.086 56.2836 222.62 54.2436C221.521 52.7147 221.999 48.6499 221.999 48.6499L216.582 48.4634Z" fill="#F9BF30"/>
<path d="M221.769 55.3572C221.745 55.3572 221.72 55.3534 221.695 55.3458C221.523 55.2915 221.461 55.1794 221.44 55.0951C221.32 54.6159 222.211 53.6938 222.313 53.5901C222.342 53.5612 222.385 53.5528 222.423 53.5714C222.46 53.5897 222.481 53.6292 222.476 53.6698C222.455 53.8142 222.271 55.0859 221.908 55.3151C221.864 55.3432 221.817 55.3572 221.769 55.3572ZM222.236 53.9537C221.913 54.3245 221.566 54.8181 221.624 55.0491C221.633 55.0844 221.656 55.1346 221.752 55.165C221.765 55.1688 221.781 55.1711 221.806 55.1547C221.983 55.0422 222.145 54.4469 222.236 53.9537Z" fill="white"/>
<path d="M231.674 48.3326C231.674 48.3326 233.343 45.8868 235.678 47.274C238.012 48.6612 237.588 51.2028 239.383 51.9038C241.178 52.6048 243.401 53.9897 242.209 55.9598C241.213 57.6081 238.012 57.2038 238.012 57.2038C238.012 57.2038 236.354 59.6632 233.758 58.6248C231.163 57.5864 230.041 56.1342 230.455 53.9548C230.87 51.7754 231.674 48.3326 231.674 48.3326Z" fill="black"/>
<path d="M227.134 51.7538C227.134 51.7538 225.833 49.5721 228.835 48.1047C231.838 46.6374 233.809 49.0299 233.757 50.2466C233.705 51.4632 232.979 51.9826 232.979 51.9826C232.979 51.9826 233.085 54.6316 230.567 54.2927C228.05 53.9542 227.134 51.7538 227.134 51.7538Z" fill="black"/>
<path d="M220.648 102.812C220.648 102.812 215.791 105.395 214.384 106.842C212.977 108.287 212.942 109.233 213.13 109.689C213.318 110.146 223.553 109.253 223.553 109.253C223.553 109.253 223.545 106.432 224.645 106.568C225.745 106.703 225.255 109.252 225.255 109.252L228.354 109.092C228.354 109.092 228.379 106.285 228.107 105.196C227.814 104.02 227.059 102.448 227.059 102.448L220.648 102.812Z" fill="#353333"/>
<path d="M225.468 84.5864C225.468 84.5864 224.29 88.4957 227.043 93.4614C230.2 99.1546 232.387 102.03 232.387 102.03L237.599 100.654C237.599 100.654 232.896 88.9342 232.814 84.1893C232.732 79.4444 225.468 84.5864 225.468 84.5864Z" fill="#FF8519"/>
<path d="M220.239 82.7076C220.239 82.7076 220.009 87.8263 220.701 93.4615C221.393 99.0966 221.901 102.431 221.901 102.431L227.058 102.448C227.058 102.448 226.607 90.1365 227.448 85.4691C228.289 80.7991 220.239 82.7076 220.239 82.7076Z" fill="#FF8519"/>
<path d="M231.712 103.187C231.712 103.187 228.002 107.249 227.16 109.082C226.319 110.916 226.603 111.819 226.934 112.186C227.264 112.552 236.607 108.282 236.607 108.282C236.607 108.282 235.655 105.626 236.736 105.386C237.818 105.145 238.21 107.71 238.21 107.71L241.076 106.522C241.076 106.522 240.159 103.869 239.539 102.934C238.869 101.924 237.548 100.465 237.548 100.465L231.712 103.187Z" fill="#464646"/>
<path d="M221.672 101.948C221.672 101.948 217.508 104.535 218.297 104.752C219.086 104.969 223.484 104.825 224.753 104.302C226.022 103.779 227.043 102.398 227.043 102.398L224.06 101.136L221.672 101.948Z" fill="#FF8519"/>
<path d="M228.638 85.5644C228.129 85.5914 227.597 85.6085 227.044 85.6134C226.219 85.6207 225.435 85.5644 224.701 85.4664C222.732 85.2046 221.102 84.6267 219.895 84.0708C220.196 74.7467 224.247 66.314 224.247 66.314L226.567 66.8303L226.978 66.9208L228.638 85.5644Z" fill="#AF4D04"/>
<path d="M234.946 76.3751C234.346 82.0045 233.783 83.9559 233.783 83.9559C233.783 83.9559 233.896 84.2743 234.084 84.8203C232.791 85.1216 230.945 85.4446 228.638 85.5647C228.129 85.5916 227.598 85.6087 227.045 85.6137C226.219 85.6209 225.436 85.5647 224.701 85.4666C224.408 84.4601 224.214 83.7698 224.175 83.5836C223.95 82.5528 225.627 66.8427 225.627 66.8427L226.567 66.8306L233.008 67.5285C233.008 67.5285 235.546 70.7433 234.946 76.3751Z" fill="#AF4D04"/>
<path d="M230.835 53.8855L230.756 56.0155C230.756 56.0155 230.349 56.6136 229.099 56.6683C228.168 56.709 227.85 56.4871 227.85 56.4871L228.019 55.4133L228.186 54.3661L230.455 53.9554L230.835 53.8855Z" fill="#FF8519"/>
<path d="M230.835 53.7834C230.828 53.8416 230.803 53.9092 230.766 53.9867C230.249 55.0327 228.558 55.3846 228.02 55.4127L228.186 54.3655L230.835 53.7834Z" fill="black"/>
<path d="M227.893 49.4932C227.893 49.4932 226.675 52.1217 227.061 53.6222C227.446 55.1222 228.81 54.9174 229.628 54.6469C230.448 54.3764 230.836 53.8862 230.836 53.8862C230.836 53.8862 231.589 54.1602 232.113 53.4652C232.636 52.7703 232.341 51.9526 231.912 51.7573C231.482 51.562 230.96 51.8637 230.96 51.8637L231.381 51.1012C231.381 51.1012 229.766 47.1443 227.893 49.4932Z" fill="#FF8519"/>
<path d="M227.766 51.3445C227.725 51.3445 227.686 51.3171 227.675 51.2749C227.675 51.2742 227.647 51.1834 227.568 51.1408C227.512 51.1112 227.438 51.1104 227.348 51.1393C227.299 51.1553 227.245 51.1279 227.228 51.0781C227.212 51.028 227.24 50.9744 227.289 50.9584C227.432 50.9128 227.556 50.9185 227.66 50.9748C227.809 51.0557 227.854 51.2073 227.859 51.2244C227.872 51.2749 227.843 51.327 227.792 51.3411C227.783 51.3433 227.774 51.3445 227.766 51.3445Z" fill="black"/>
<path d="M229.344 51.5136C229.317 51.5136 229.29 51.5022 229.271 51.4791C229.048 51.2104 228.816 51.3765 228.79 51.3962C228.748 51.4285 228.689 51.4202 228.657 51.3791C228.625 51.3381 228.632 51.2788 228.673 51.2465C228.809 51.1386 229.14 51.0239 229.417 51.3578C229.451 51.3981 229.445 51.4582 229.404 51.4916C229.387 51.5064 229.366 51.5136 229.344 51.5136Z" fill="black"/>
<path d="M227.909 52.7349C227.861 52.7349 227.819 52.6984 227.814 52.6494C227.722 51.739 228.104 51.2827 228.121 51.2641C228.155 51.2242 228.215 51.2196 228.255 51.2542C228.294 51.288 228.299 51.3481 228.265 51.3879C228.262 51.3921 227.92 51.807 228.003 52.6308C228.009 52.6832 227.971 52.7299 227.918 52.7349C227.915 52.7349 227.911 52.7349 227.909 52.7349Z" fill="black"/>
<path d="M230.956 52.9538C230.92 52.9538 230.886 52.9329 230.87 52.8983C230.848 52.8505 230.869 52.7938 230.917 52.7726L231.987 52.2862C232.033 52.2638 232.091 52.2855 232.113 52.3333C232.135 52.3812 232.114 52.4374 232.066 52.4591L230.996 52.9454C230.983 52.9511 230.97 52.9538 230.956 52.9538Z" fill="black"/>
<path d="M231.91 53.2006C231.885 53.2006 231.861 53.1919 231.843 53.1733L231.371 52.707C231.334 52.6702 231.333 52.6102 231.37 52.5725C231.407 52.5349 231.467 52.5342 231.505 52.5718L231.976 53.038C232.014 53.0748 232.014 53.1349 231.977 53.1725C231.959 53.1915 231.934 53.2006 231.91 53.2006Z" fill="black"/>
<path d="M232.388 102.03C232.388 102.03 229.331 105.862 230.147 105.803C230.963 105.743 235.059 104.134 236.079 103.216C237.099 102.298 237.548 100.465 237.548 100.465H234.365L232.388 102.03Z" fill="#FF8519"/>
<path d="M226.706 92.7442C226.675 92.7442 226.645 92.729 226.627 92.7013C224.849 89.9812 224.609 85.9384 224.607 85.8982C224.604 85.8457 224.644 85.8009 224.696 85.7979C224.748 85.799 224.793 85.8351 224.797 85.8875C224.799 85.9274 225.036 89.9204 226.786 92.5972C226.815 92.6408 226.802 92.6997 226.758 92.7286C226.742 92.7393 226.724 92.7442 226.706 92.7442Z" fill="#F2705F"/>
<path d="M224.153 84.001C224.107 84.001 224.067 83.9671 224.06 83.92C223.437 79.8188 225.408 71.0794 225.596 70.261L224.21 69.2374C224.168 69.2062 224.159 69.147 224.19 69.1044C224.221 69.0622 224.281 69.0535 224.323 69.0843L225.76 70.1451C225.79 70.1679 225.804 70.2063 225.796 70.2435C225.774 70.337 223.603 79.6444 224.248 83.8919C224.256 83.9436 224.22 83.9922 224.168 83.9998C224.163 84.0006 224.158 84.001 224.153 84.001Z" fill="#FFA63B"/>
<path d="M227.134 51.7538C227.134 51.7538 227.35 50.9456 228.192 50.063C229.035 49.1803 229.035 49.1803 229.035 49.1803C229.035 49.1803 228.94 50.8514 229.688 51.5725C230.436 52.2937 230.959 51.8636 230.959 51.8636L232.391 50.6086L229.844 48.2616C229.845 48.2616 226.997 48.1529 227.134 51.7538Z" fill="black"/>
<path d="M227.721 56.1104L225.704 56.3897C225.704 56.3897 223.904 58.3495 223.856 60.5312C223.809 62.7129 224.267 63.7141 224.267 63.7141L223.565 67.1416C223.565 67.1416 225.337 68.6144 228.355 68.9286C231.373 69.2428 233.929 68.3457 233.929 68.3457C233.929 68.3457 233.481 57.582 233.481 56.6667C233.481 56.0481 227.721 56.1104 227.721 56.1104Z" fill="#F9BF30"/>
<path d="M230.5 65.1856C230.5 65.1856 226.682 64.412 225.723 64.7954C224.765 65.1787 225.531 68.3419 225.819 68.9167C226.107 69.492 230.044 68.628 230.044 68.628L231.186 66.9999L230.5 65.1856Z" fill="#FF8519"/>
<path d="M225.724 64.7954C225.724 64.7954 223.406 66.3696 223.316 67.3495C223.228 68.3294 226.078 66.2807 226.078 66.2807L225.724 64.7954Z" fill="#FF8519"/>
<path d="M227.235 68.7746C227.235 68.7746 229.195 69.2199 228.572 69.7545C227.948 70.2891 226.006 69.4152 225.819 68.9167C225.632 68.4182 227.057 67.7947 227.057 67.7947L227.235 68.7746Z" fill="#FF8519"/>
<path d="M232.459 56.3018C232.459 56.3018 240.513 57.7532 240.731 63.7937C240.896 68.3532 230.135 69.745 230.135 69.745L229.609 64.6836L232.459 56.3018Z" fill="#F9BF30"/>
<path d="M230.008 64.2434C229.972 64.2434 229.937 64.2225 229.921 64.1875C229.9 64.1393 229.921 64.0834 229.97 64.0617C230.132 63.9896 233.952 62.2908 235.587 62.2908C235.643 62.2912 235.684 62.3329 235.684 62.3858C235.684 62.4386 235.641 62.4807 235.589 62.4807C233.993 62.4807 230.086 64.2179 230.047 64.2354C230.034 64.2407 230.021 64.2434 230.008 64.2434Z" fill="white"/>
<path d="M232.933 63.0963C232.911 63.0963 232.889 63.0887 232.871 63.0735C232.839 63.0461 232.829 63.0005 232.847 62.9614C232.921 62.7995 233.591 61.3762 234.295 61.4727C234.442 61.4917 234.49 61.5662 234.504 61.6254C234.583 61.9617 233.469 62.7547 232.986 63.0795C232.97 63.0913 232.951 63.0963 232.933 63.0963ZM234.229 61.6589C233.864 61.6589 233.445 62.2547 233.192 62.7053C233.838 62.2417 234.328 61.7976 234.319 61.6714C234.315 61.6714 234.301 61.6653 234.271 61.6615C234.257 61.6596 234.243 61.6589 234.229 61.6589Z" fill="white"/>
<path d="M227.626 55.9766L226.762 56.2429C226.762 56.2429 226.473 57.8972 228.453 57.9991C230.533 58.1058 232.182 56.2676 232.182 56.2676L230.366 55.9766H227.626Z" fill="#FF8519"/>
<path d="M228.631 58.0985C227.899 58.0985 227.358 57.8998 227.023 57.5069C226.558 56.964 226.663 56.2576 226.668 56.228C226.676 56.1763 226.723 56.1425 226.776 56.149C226.828 56.157 226.863 56.2056 226.855 56.2576C226.854 56.2641 226.76 56.91 227.168 57.3846C227.466 57.7323 227.958 57.9086 228.631 57.9086C230.721 57.9044 232.093 56.2246 232.107 56.2079C232.14 56.1672 232.2 56.1604 232.24 56.1931C232.281 56.2261 232.288 56.2858 232.255 56.3268C232.241 56.3447 230.814 58.0944 228.638 58.0985C228.636 58.0985 228.634 58.0985 228.631 58.0985Z" fill="white"/>
<path d="M233.292 84.0645C232.815 84.0645 232.252 84.0208 232.156 83.8221C232.135 83.7791 232.115 83.691 232.21 83.5846C232.615 83.1309 233.71 83.7978 233.833 83.8753C233.869 83.8977 233.886 83.9395 233.875 83.9794C233.865 84.0193 233.829 84.0485 233.788 84.0508C233.66 84.0573 233.483 84.0645 233.292 84.0645ZM232.614 83.6177C232.503 83.6177 232.411 83.6443 232.351 83.7115C232.33 83.7347 232.328 83.7465 232.328 83.7465C232.377 83.827 232.862 83.8798 233.436 83.8722C233.183 83.7468 232.856 83.6177 232.614 83.6177Z" fill="#FFA63B"/>
<path d="M228.039 69.09H227.428C227.376 69.09 227.333 69.0475 227.333 68.995C227.333 68.9426 227.376 68.9001 227.428 68.9001H227.866L227.653 68.5691C227.625 68.525 227.638 68.4662 227.682 68.4377C227.726 68.4107 227.785 68.4217 227.814 68.4665L228.12 68.9438C228.138 68.973 228.14 69.0102 228.123 69.0406C228.106 69.071 228.074 69.09 228.039 69.09Z" fill="black"/>
<path d="M225.256 66.767C225.233 66.767 225.211 66.7591 225.193 66.7427C225.153 66.7078 225.151 66.6477 225.186 66.6086C225.254 66.533 225.858 65.8662 226.104 65.7792C226.154 65.7605 226.208 65.7871 226.225 65.8365C226.243 65.8863 226.217 65.9403 226.168 65.9577C226.016 66.0117 225.572 66.4631 225.327 66.7351C225.308 66.7568 225.282 66.767 225.256 66.767Z" fill="black"/>
<path d="M225.48 67.8902C225.454 67.8902 225.428 67.8799 225.41 67.859C225.374 67.8203 225.377 67.7602 225.416 67.7249L226.547 66.696C226.586 66.6603 226.646 66.6629 226.681 66.7024C226.717 66.7412 226.714 66.8012 226.675 66.8362L225.544 67.8651C225.526 67.8818 225.503 67.8902 225.48 67.8902Z" fill="black"/>
<path d="M228.522 53.5405C228.481 53.5405 228.443 53.5132 228.431 53.471C228.417 53.4204 228.446 53.3684 228.497 53.3536C228.5 53.3528 228.771 53.2738 228.958 52.9972C228.988 52.9535 229.047 52.9421 229.09 52.9721C229.134 53.0017 229.145 53.0606 229.116 53.1043C228.887 53.441 228.562 53.5333 228.548 53.5371C228.539 53.5394 228.53 53.5405 228.522 53.5405Z" fill="black"/>
<path d="M212.967 23.6505C212.967 23.6505 214.666 20.0645 217.371 18.7077C220.53 17.1233 224.727 17.757 224.727 17.757C224.727 17.757 223.309 20.672 220.53 22.193C217.751 23.714 212.967 23.6505 212.967 23.6505Z" fill="#56C269"/>
<path d="M214.226 47.417C220.803 47.417 226.135 42.0852 226.135 35.5081C226.135 28.9309 220.803 23.5991 214.226 23.5991C207.649 23.5991 202.317 28.9309 202.317 35.5081C202.317 42.0852 207.649 47.417 214.226 47.417Z" fill="#E26A00"/>
<path d="M212.984 47.4173C219.561 47.4173 224.893 42.0853 224.893 35.508C224.893 28.9306 219.561 23.5986 212.984 23.5986C206.406 23.5986 201.074 28.9306 201.074 35.508C201.074 42.0853 206.406 47.4173 212.984 47.4173Z" fill="#FF8518"/>
<path d="M212.983 23.6941C212.974 23.6941 212.964 23.6926 212.955 23.6896C212.905 23.674 212.877 23.6208 212.893 23.5706C213.669 21.0709 213.672 19.0875 212.901 17.6752C212.202 16.3944 211.099 16.0756 211.088 16.073C211.038 16.0589 211.008 16.0065 211.022 15.9559C211.036 15.9054 211.089 15.8762 211.139 15.8898C211.188 15.9035 212.331 16.2341 213.068 17.5844C213.865 19.0435 213.866 21.0766 213.075 23.6272C213.061 23.6679 213.024 23.6941 212.983 23.6941Z" fill="#56C269"/>
<path d="M204.206 29.5737C204.195 29.5737 204.183 29.5718 204.172 29.5672C204.123 29.5482 204.099 29.4935 204.118 29.4445C204.144 29.3761 204.79 27.7507 207.072 26.3558C207.117 26.3289 207.175 26.3425 207.203 26.3874C207.23 26.4322 207.216 26.4907 207.171 26.5181C204.948 27.8768 204.301 29.4965 204.295 29.5129C204.28 29.5505 204.244 29.5737 204.206 29.5737Z" fill="#EAD8CE"/>
<path d="M223.928 62.307C223.893 62.307 223.859 62.2876 223.842 62.2538C222.859 60.2564 224.688 57.6225 224.766 57.5112C224.796 57.4686 224.856 57.4576 224.898 57.4888C224.941 57.5188 224.952 57.5781 224.921 57.621C224.903 57.6472 223.08 60.2739 224.013 62.1702C224.036 62.2173 224.017 62.2739 223.97 62.2975C223.956 62.304 223.942 62.307 223.928 62.307Z" fill="white"/>
<path d="M233.679 50.8962C233.618 50.8909 233.579 50.8442 233.585 50.7925C233.783 48.7225 232.124 47.9656 232.054 47.9349C232.006 47.9132 231.984 47.8573 232.005 47.8095C232.026 47.7608 232.083 47.7407 232.13 47.7605C232.149 47.7684 233.986 48.6009 233.774 50.8104C233.769 50.8594 233.728 50.8962 233.679 50.8962Z" fill="#F9BF30"/>
<path d="M220.111 46.1888C220.111 46.1888 219.355 43.1043 220.112 43.0613C220.869 43.0184 222.33 45.52 222.266 45.9585C222.202 46.397 221.69 47.2902 221.69 47.2902L220.111 46.1888Z" fill="#FF8519"/>
<path d="M227.5 50.5789C227.454 50.5789 227.413 50.5451 227.406 50.498C227.398 50.4459 227.434 50.3973 227.486 50.3901L228.006 50.313C228.06 50.3046 228.106 50.3411 228.113 50.3927C228.121 50.4448 228.086 50.4934 228.034 50.5007L227.514 50.5778C227.51 50.5785 227.505 50.5789 227.5 50.5789Z" fill="black"/>
<path d="M229.438 50.7937C229.426 50.7937 229.414 50.7914 229.402 50.7861L228.799 50.5326C228.75 50.5121 228.727 50.4566 228.748 50.4084C228.768 50.3597 228.824 50.3362 228.872 50.3575L229.475 50.6109C229.523 50.6314 229.546 50.6869 229.526 50.7351C229.511 50.772 229.476 50.7937 229.438 50.7937Z" fill="black"/>
<path d="M180.494 58.5951C180.494 58.5951 184.98 60.1282 185.73 58.9116C186.48 57.6954 186.548 56.679 186.548 56.679C186.548 56.679 185.12 53.6952 183.891 54.3081C181.969 55.2667 180.494 58.5951 180.494 58.5951Z" fill="#FF8519"/>
<path d="M184.386 57.8476C184.362 57.8476 184.337 57.8385 184.318 57.8202C183.573 57.0782 183.689 55.8878 183.694 55.8373C183.7 55.7852 183.747 55.7483 183.798 55.7525C183.85 55.7582 183.888 55.805 183.883 55.857C183.882 55.868 183.772 57.0079 184.453 57.685C184.49 57.7222 184.49 57.7822 184.453 57.8195C184.435 57.8381 184.41 57.8476 184.386 57.8476Z" fill="black"/>
<path d="M194.312 101.626V104.739L188.654 104.52V101.626H194.312Z" fill="#FF8519"/>
<path d="M207.376 101.276V104.389L202.139 104.169V101.276H207.376Z" fill="#FF8519"/>
<path d="M194.886 67.7103C194.886 67.7103 191.918 73.657 189.499 84.3801C187.292 94.1609 186.816 102.251 186.816 102.251H196.362C196.362 102.251 197.424 94.2757 197.707 91.1205C197.99 87.965 198.931 83.7414 198.931 83.7414C198.931 83.7414 200.241 101.943 200.553 102.251C200.866 102.559 210.004 102.319 209.906 101.901C209.808 101.483 207.018 71.2975 206.771 69.3073C206.01 63.1888 194.886 67.7103 194.886 67.7103Z" fill="#F9BF30"/>
<path d="M200.838 108.995C200.838 109.545 201.016 110.173 201.381 110.331C201.746 110.489 204.699 110.819 207.283 110.586C209.757 110.362 210.271 110.173 210.453 109.94C210.542 109.822 210.368 109.272 210.169 108.74C210.156 108.714 210.148 108.683 210.135 108.657C210.033 108.388 209.927 108.129 209.851 107.945C209.774 107.769 209.681 107.602 209.571 107.439C209.303 107.057 208.773 106.266 208.637 105.857C208.459 105.312 208.187 104.134 208.005 103.581C207.823 103.036 207.377 102.921 207.377 102.921C207.377 102.921 202.289 102.561 201.925 102.877C201.564 103.189 201.382 105.782 201.382 106.174V106.565C201.382 106.93 201.14 107.651 200.983 108.248C200.94 108.398 200.906 108.538 200.881 108.666C200.855 108.793 200.838 108.903 200.838 108.995Z" fill="#353333"/>
<path d="M179.55 110.116C179.889 110.261 194.329 110.67 194.664 110.116C194.766 109.949 194.838 109.382 194.885 108.67C195.004 106.991 195.004 104.494 195.004 104.494C195.004 104.494 195.11 103.642 195.088 103.246C195.071 102.855 188.125 103.005 188.125 103.005L183.611 106.692C183.611 106.692 182.372 106.463 181.018 106.692C180.301 106.811 179.838 107.721 179.609 108.577C179.406 109.338 179.389 110.046 179.55 110.116Z" fill="#353333"/>
<path d="M198.931 83.8361C198.881 83.8361 198.84 83.7981 198.836 83.7483C198.833 83.7092 198.535 79.7881 198.448 78.049C198.375 76.5721 198.362 75.7476 198.359 75.5269L195.321 74.1256C195.273 74.1032 195.252 74.0469 195.274 73.9994C195.297 73.9516 195.354 73.931 195.401 73.9527L198.493 75.3791C198.527 75.3946 198.549 75.4285 198.549 75.4653C198.549 75.4733 198.553 76.3046 198.639 78.0391C198.725 79.7759 199.023 83.6944 199.026 83.7339C199.03 83.7863 198.991 83.8319 198.938 83.8357C198.936 83.8361 198.933 83.8361 198.931 83.8361Z" fill="white"/>
<path d="M207.245 105.629C207.236 105.629 207.228 105.628 207.22 105.626C207.2 105.62 205.213 105.073 204.218 105.251L203.187 105.434C203.147 105.443 203.104 105.42 203.085 105.381C203.066 105.343 203.076 105.297 203.107 105.269C203.183 105.202 204.973 103.637 206.045 104.113C206.093 104.135 206.115 104.191 206.094 104.239C206.072 104.287 206.016 104.309 205.968 104.287C205.238 103.963 204.054 104.767 203.516 105.182L204.184 105.063C205.224 104.877 207.187 105.419 207.271 105.442C207.322 105.456 207.351 105.508 207.337 105.559C207.325 105.601 207.287 105.629 207.245 105.629Z" fill="white"/>
<path d="M184.694 105.903C184.646 105.903 184.605 105.867 184.599 105.818C184.593 105.765 184.631 105.718 184.684 105.713L187.082 105.458L186.296 104.499C186.263 104.459 186.269 104.399 186.31 104.365C186.35 104.332 186.41 104.338 186.444 104.379L187.341 105.473C187.363 105.5 187.368 105.537 187.355 105.569C187.342 105.601 187.312 105.624 187.277 105.628L184.704 105.902C184.701 105.903 184.697 105.903 184.694 105.903Z" fill="white"/>
<path d="M198.212 53.4406C198.212 53.4406 197.857 53.5223 197.771 53.653C197.684 53.7837 197.697 54.308 197.697 54.308L194.984 61.0936L194.176 68.4101C194.176 68.4101 195.851 70.2103 200.241 70.417C204.631 70.6237 206.962 68.6073 206.962 68.6073C206.962 68.6073 205.174 56.321 204.095 54.7138C203.615 53.9999 201.582 53.8164 201.582 53.8164C201.582 53.8164 201.517 53.5595 201.442 53.5139C201.04 53.2711 198.212 53.4406 198.212 53.4406Z" fill="#56C269"/>
<path d="M198.09 49.1965C198.09 49.1965 196.481 48.5745 196.4 49.8067C196.306 51.2342 198.007 51.1883 198.007 51.1883L198.09 49.1965Z" fill="#FF8519"/>
<path d="M197.342 50.506C197.31 50.506 197.279 50.4904 197.261 50.4619L196.7 49.5732C196.672 49.5287 196.686 49.4702 196.73 49.4417C196.775 49.4151 196.833 49.4273 196.861 49.4714L197.422 50.3601C197.45 50.4045 197.437 50.463 197.393 50.4915C197.377 50.501 197.359 50.506 197.342 50.506Z" fill="black"/>
<path d="M196.717 50.2553C196.667 50.2553 196.625 50.2158 196.622 50.1652C196.62 50.1128 196.66 50.068 196.712 50.0653L197.164 50.0417C197.213 50.044 197.262 50.0797 197.264 50.1318C197.267 50.1842 197.227 50.2291 197.174 50.2317L196.722 50.2553C196.721 50.2553 196.719 50.2553 196.717 50.2553Z" fill="black"/>
<path d="M201.068 52.4795L201.139 54.1441C201.139 54.1441 200.508 54.5127 199.705 54.5541C198.621 54.6103 198.232 53.9792 198.232 53.9792L198.173 52.0266L201.068 52.4795Z" fill="#FF8519"/>
<path d="M201.068 52.4774C201.068 52.4774 200.595 53.8434 199.357 53.702C198.359 53.588 198.026 52.1902 198.026 52.1902L201.068 52.4774Z" fill="black"/>
<path d="M197.54 47.8515C197.54 47.8515 196.95 50.9235 197.87 52.2427C198.856 53.6576 200.348 53.1732 200.898 52.7199C201.639 52.1082 201.766 51.2909 201.766 51.2909C201.766 51.2909 202.82 51.463 203.139 50.5975C203.475 49.6886 202.798 48.988 202.273 48.9637C201.748 48.939 201.69 49.0366 201.69 49.0366L201.811 48.0742C201.811 48.0742 198.507 44.6489 197.54 47.8515Z" fill="#FF8519"/>
<path d="M201.906 50.413C201.88 50.413 201.855 50.4027 201.836 50.3822C201.8 50.3434 201.802 50.2834 201.842 50.2477L202.625 49.5273C202.663 49.4919 202.723 49.4946 202.759 49.5334C202.795 49.5721 202.792 49.6322 202.753 49.6679L201.97 50.3883C201.952 50.405 201.929 50.413 201.906 50.413Z" fill="black"/>
<path d="M202.657 50.5148C202.638 50.5148 202.619 50.5091 202.603 50.4977L202.114 50.1557C202.071 50.1257 202.06 50.0664 202.09 50.0231C202.12 49.9802 202.18 49.9699 202.223 49.9996L202.712 50.3415C202.755 50.3715 202.765 50.4308 202.735 50.4741C202.716 50.5007 202.687 50.5148 202.657 50.5148Z" fill="black"/>
<path d="M200.303 49.6255C200.248 49.6244 200.207 49.5807 200.208 49.5283L200.22 49.0146C200.221 48.9629 200.263 48.9219 200.315 48.9219C200.37 48.923 200.411 48.9667 200.41 49.0191L200.398 49.5328C200.397 49.5845 200.355 49.6255 200.303 49.6255Z" fill="black"/>
<path d="M198.454 49.676C198.4 49.6748 198.358 49.6311 198.359 49.5787L198.372 49.065C198.373 49.0126 198.422 48.9696 198.469 48.9723C198.522 48.9734 198.563 49.0171 198.562 49.0696L198.549 49.5833C198.548 49.6349 198.506 49.676 198.454 49.676Z" fill="black"/>
<path d="M199.29 50.9155C199.247 50.9155 199.207 50.8858 199.198 50.8421C199.01 50.0385 199.245 49.3728 199.255 49.3451C199.273 49.2957 199.327 49.271 199.377 49.2881C199.426 49.306 199.451 49.3607 199.434 49.4097C199.431 49.4162 199.208 50.0522 199.382 50.7992C199.394 50.8501 199.362 50.9014 199.311 50.9132C199.304 50.9147 199.297 50.9155 199.29 50.9155Z" fill="black"/>
<path d="M198.02 48.6377C197.996 48.6377 197.974 48.6293 197.955 48.6126C197.917 48.5765 197.915 48.5165 197.95 48.4781C198.15 48.2627 198.518 48.227 198.533 48.2254C198.586 48.2182 198.632 48.2589 198.637 48.3113C198.642 48.3637 198.603 48.4101 198.551 48.4147C198.547 48.415 198.24 48.4458 198.089 48.6073C198.07 48.6274 198.045 48.6377 198.02 48.6377Z" fill="black"/>
<path d="M200.554 48.6876C200.529 48.6876 200.503 48.6778 200.484 48.6576C200.358 48.5231 200.108 48.4745 200.022 48.4669C199.97 48.4623 199.931 48.4163 199.936 48.3643C199.94 48.3122 199.986 48.2693 200.039 48.2777C200.054 48.2788 200.422 48.313 200.623 48.5277C200.659 48.566 200.657 48.6261 200.619 48.6622C200.6 48.6793 200.577 48.6876 200.554 48.6876Z" fill="black"/>
<path d="M201.932 49.0337C201.932 49.0337 201.636 49.9847 201.513 49.9509C201.39 49.9167 201.543 48.4277 201.895 48.3555C202.247 48.2833 201.932 49.0337 201.932 49.0337Z" fill="black"/>
<path d="M201.777 48.8995C201.777 48.8995 200.723 48.7954 200.024 48.238C199.434 47.7672 199.212 47.1042 199.212 47.1042C199.212 47.1042 198.759 47.0392 198.107 47.4279C197.454 47.8162 197.386 49.0442 197.386 49.0442C197.386 49.0442 196.222 46.9446 196.802 46.2162C197.381 45.4878 198.304 46.1132 198.304 46.1132C198.304 46.1132 198.159 44.7496 200.035 45.3039C201.912 45.8583 202.318 47.491 202.318 47.491C202.318 47.491 202.963 47.4439 203.034 48.0408C203.105 48.6377 202.853 49.2399 202.853 49.2399C202.853 49.2399 202.577 48.9701 202.144 49.1233C201.712 49.2764 201.712 49.2764 201.712 49.2764L201.777 48.8995Z" fill="black"/>
<path d="M198.213 53.4409C198.213 53.4409 198.546 53.8365 199.407 53.9546C200.268 54.0724 201.103 53.4595 201.103 53.4595L201.545 54.5424L200.077 55.2286L197.793 54.7776L197.908 53.7441L198.213 53.4409Z" fill="#56C269"/>
<path d="M199.79 51.7184C199.764 51.7184 199.741 51.7165 199.721 51.713C199.669 51.7051 199.634 51.6561 199.642 51.6044C199.65 51.5527 199.699 51.5185 199.75 51.5253C199.785 51.5307 200.081 51.5599 200.176 51.1591C200.189 51.1082 200.238 51.0759 200.291 51.0884C200.342 51.1002 200.374 51.1519 200.361 51.2028C200.264 51.6143 199.975 51.7184 199.79 51.7184Z" fill="black"/>
<path d="M186.815 55.406L183.78 59.8489C183.78 59.8489 186.565 64.6849 191.624 64.5611C197.737 64.4114 198.519 58.5437 198.519 58.5437L198.014 54.3083C198.014 54.3083 196.336 54.4561 194.97 55.5633C194.002 56.3487 189.782 57.6113 186.815 55.406Z" fill="#56C269"/>
<path d="M199.2 55.2158C198.119 55.2158 197.621 54.3654 197.615 54.3556C197.589 54.31 197.605 54.2518 197.651 54.226C197.696 54.1998 197.754 54.2157 197.78 54.2613C197.803 54.3009 198.348 55.22 199.579 54.9893C199.632 54.9791 199.68 55.014 199.689 55.0653C199.699 55.117 199.665 55.1668 199.613 55.1763C199.467 55.2036 199.329 55.2158 199.2 55.2158Z" fill="#F7C537"/>
<path d="M203.911 71.1356L205.575 68.4067L207.913 71.5235C207.913 71.5235 207.481 73.8644 205.818 73.8644C205.294 73.864 203.911 71.1356 203.911 71.1356Z" fill="#FF8519"/>
<path d="M206.188 74.2558C206.169 74.2558 206.149 74.2497 206.133 74.2379C204.484 73.0472 203.832 71.0345 203.805 70.9494C203.789 70.8993 203.817 70.8465 203.867 70.8305C203.916 70.8157 203.971 70.8423 203.986 70.8924C203.993 70.9126 204.647 72.9309 206.243 74.0837C206.286 74.1145 206.296 74.1737 206.265 74.2167C206.247 74.2421 206.218 74.2558 206.188 74.2558Z" fill="white"/>
<path d="M202.609 53.9868C202.609 53.9868 209.58 55.406 211.827 61.1444C214.184 67.1599 207.996 72.5412 207.996 72.5412L204.605 69.1463L202.609 53.9868Z" fill="#56C269"/>
<path d="M204.815 67.8328C204.802 67.8328 204.789 67.8301 204.777 67.8248C204.728 67.8036 204.707 67.7477 204.728 67.6998C204.742 67.6683 206.115 64.5587 207.073 63.0708C207.1 63.0264 207.16 63.0142 207.204 63.0427C207.248 63.0708 207.261 63.1297 207.232 63.1742C206.283 64.6492 204.915 67.745 204.902 67.7762C204.886 67.8115 204.851 67.8328 204.815 67.8328Z" fill="#F7C537"/>
<path d="M206.188 64.9418C206.136 64.938 206.1 64.9042 206.094 64.8601C206.043 64.5026 205.816 62.7138 206.381 62.5808C206.463 62.5603 206.537 62.5823 206.589 62.6385C206.863 62.9341 206.421 64.4251 206.279 64.8753C206.266 64.9149 206.229 64.9418 206.188 64.9418ZM206.439 62.7635C206.188 62.8213 206.167 63.6393 206.23 64.3696C206.435 63.6241 206.563 62.8897 206.449 62.7677C206.447 62.7658 206.446 62.7635 206.439 62.7635Z" fill="#F7C537"/>
<path d="M191.674 58.6459C191.65 58.6459 191.625 58.6425 191.6 58.636C191.507 58.6113 191.433 58.5513 191.381 58.4578C191.119 57.9886 191.49 56.723 191.533 56.5801C191.546 56.5394 191.579 56.5208 191.626 56.5125C191.669 56.5132 191.706 56.5421 191.716 56.5835C191.789 56.8639 192.139 58.2785 191.839 58.5787C191.794 58.6231 191.737 58.6459 191.674 58.6459ZM191.619 56.9969C191.511 57.457 191.404 58.1086 191.547 58.3651C191.574 58.4134 191.606 58.4407 191.649 58.4521C191.687 58.4628 191.698 58.451 191.705 58.4441C191.84 58.3085 191.751 57.606 191.619 56.9969Z" fill="#F7C537"/>
<path d="M194.662 63.873C194.603 63.8692 194.563 63.8236 194.567 63.7711L194.699 61.9014C194.703 61.8489 194.752 61.8163 194.801 61.8132C194.853 61.817 194.893 61.8626 194.889 61.9151L194.757 63.7848C194.753 63.835 194.711 63.873 194.662 63.873Z" fill="#F7C537"/>
<path d="M179.331 78.5428H79.4822C77.7279 78.5428 76.3062 77.121 76.3062 75.3667V16.0093C76.3062 14.255 77.7279 12.8333 79.4822 12.8333H179.332C181.085 12.8333 182.508 14.2554 182.508 16.0093V75.3664C182.507 77.1206 181.085 78.5428 179.331 78.5428Z" fill="#FFF3E8"/>
<path d="M94.033 30.5675H85.1892C84.3449 30.5675 83.6606 29.8832 83.6606 29.0389V20.1951C83.6606 19.3508 84.3449 18.6665 85.1892 18.6665H94.033C94.8773 18.6665 95.5616 19.3508 95.5616 20.1951V29.0389C95.5616 29.8832 94.8773 30.5675 94.033 30.5675Z" fill="white"/>
<path d="M94.033 45.0492H85.1892C84.3449 45.0492 83.6606 44.3649 83.6606 43.5206V34.6768C83.6606 33.8325 84.3449 33.1482 85.1892 33.1482H94.033C94.8773 33.1482 95.5616 33.8325 95.5616 34.6768V43.5206C95.5616 44.3645 94.8773 45.0492 94.033 45.0492Z" fill="white"/>
<path d="M94.033 59.5304H85.1892C84.3449 59.5304 83.6606 58.8461 83.6606 58.0018V49.158C83.6606 48.3137 84.3449 47.6294 85.1892 47.6294H94.033C94.8773 47.6294 95.5616 48.3137 95.5616 49.158V58.0018C95.5616 58.8461 94.8773 59.5304 94.033 59.5304Z" fill="white"/>
<path d="M94.033 74.0121H85.1892C84.3449 74.0121 83.6606 73.3278 83.6606 72.4835V63.6396C83.6606 62.7954 84.3449 62.1111 85.1892 62.1111H94.033C94.8773 62.1111 95.5616 62.7954 95.5616 63.6396V72.4835C95.5616 73.3278 94.8773 74.0121 94.033 74.0121Z" fill="white"/>
<path d="M89.2117 27.9062C89.0487 27.9062 88.8933 27.8363 88.7846 27.714L85.169 23.626C84.9604 23.3901 84.9824 23.0302 85.2184 22.8216C85.4543 22.6134 85.8141 22.6355 86.0227 22.871L89.1798 26.4403L93.1735 21.2236C93.3646 20.9735 93.7225 20.926 93.9725 21.1175C94.2225 21.3087 94.27 21.6666 94.0785 21.9162L89.6642 27.6824C89.5605 27.8177 89.4021 27.8998 89.2318 27.9055C89.225 27.9058 89.2185 27.9062 89.2117 27.9062Z" fill="#FF8519"/>
<path d="M89.2117 42.5517C89.0487 42.5517 88.8933 42.4818 88.7846 42.3595L85.169 38.2715C84.9604 38.0356 84.9824 37.6757 85.2184 37.4671C85.4543 37.2582 85.8141 37.2802 86.0227 37.5165L89.1798 41.0858L93.1735 35.8691C93.3646 35.619 93.7225 35.5716 93.9725 35.763C94.2225 35.9542 94.27 36.3121 94.0785 36.5621L89.6642 42.3283C89.5605 42.4636 89.4021 42.5456 89.2318 42.5513C89.225 42.5513 89.2185 42.5517 89.2117 42.5517Z" fill="#FF8519"/>
<path d="M155.085 21.8493H102.494C101.983 21.8493 101.567 21.4344 101.567 20.9226C101.567 20.4108 101.982 19.9958 102.494 19.9958H155.085C155.597 19.9958 156.012 20.4108 156.012 20.9226C156.012 21.4344 155.597 21.8493 155.085 21.8493Z" fill="#FF8519" fill-opacity="0.2"/>
<path d="M161.603 25.9206H102.494C101.983 25.9206 101.567 25.5056 101.567 24.9938C101.567 24.482 101.982 24.0671 102.494 24.0671H161.603C162.115 24.0671 162.531 24.482 162.531 24.9938C162.53 25.5056 162.115 25.9206 161.603 25.9206Z" fill="#FF8519" fill-opacity="0.2"/>
<path d="M155.085 37.9101H102.494C101.983 37.9101 101.567 37.4952 101.567 36.9834C101.567 36.4716 101.982 36.0566 102.494 36.0566H155.085C155.597 36.0566 156.012 36.4716 156.012 36.9834C156.012 37.4952 155.597 37.9101 155.085 37.9101Z" fill="#FF8519" fill-opacity="0.2"/>
<path d="M161.603 41.9818H102.494C101.983 41.9818 101.567 41.5669 101.567 41.0551C101.567 40.5433 101.982 40.1284 102.494 40.1284H161.603C162.115 40.1284 162.531 40.5433 162.531 41.0551C162.53 41.5669 162.115 41.9818 161.603 41.9818Z" fill="#FF8519" fill-opacity="0.2"/>
<path d="M167.103 29.9923H102.494C101.983 29.9923 101.567 29.5774 101.567 29.0656C101.567 28.5538 101.982 28.1389 102.494 28.1389H167.103C167.614 28.1389 168.029 28.5538 168.029 29.0656C168.029 29.5774 167.614 29.9923 167.103 29.9923Z" fill="#FF8519" fill-opacity="0.2"/>
<path d="M149.924 50.4355H102.494C101.983 50.4355 101.567 50.0205 101.567 49.5087C101.567 48.9969 101.982 48.582 102.494 48.582H149.924C150.436 48.582 150.851 48.9969 150.851 49.5087C150.851 50.0205 150.436 50.4355 149.924 50.4355Z" fill="#FF8519" fill-opacity="0.2"/>
<path d="M155.085 54.5072H102.494C101.983 54.5072 101.567 54.0923 101.567 53.5805C101.567 53.0687 101.982 52.6538 102.494 52.6538H155.085C155.597 52.6538 156.012 53.0687 156.012 53.5805C156.012 54.0923 155.597 54.5072 155.085 54.5072Z" fill="#FF8519" fill-opacity="0.2"/>
<path d="M167.103 58.5785H102.494C101.983 58.5785 101.568 58.1636 101.567 57.6518C101.567 57.14 101.982 56.7251 102.494 56.7251H167.103C167.614 56.7251 168.029 57.14 168.029 57.6518C168.029 58.1636 167.614 58.5785 167.103 58.5785Z" fill="#FF8519" fill-opacity="0.2"/>
<path d="M155.085 64.9169H102.494C101.983 64.9169 101.567 64.502 101.567 63.9902C101.567 63.4784 101.982 63.0635 102.494 63.0635H155.085C155.597 63.0635 156.012 63.4784 156.012 63.9902C156.012 64.5016 155.597 64.9169 155.085 64.9169Z" fill="#FF8519" fill-opacity="0.2"/>
<path d="M151.481 68.9887H102.494C101.983 68.9887 101.567 68.5738 101.567 68.062C101.567 67.5502 101.982 67.1353 102.494 67.1353H151.481C151.993 67.1353 152.408 67.5502 152.408 68.062C152.408 68.5734 151.993 68.9887 151.481 68.9887Z" fill="#FF8519" fill-opacity="0.2"/>
<path d="M167.103 73.0602H102.494C101.983 73.0602 101.568 72.6453 101.567 72.1335C101.567 71.6217 101.982 71.2068 102.494 71.2068H167.103C167.614 71.2068 168.029 71.6217 168.029 72.1335C168.029 72.6453 167.614 73.0602 167.103 73.0602Z" fill="#FF8519" fill-opacity="0.2"/>
<path d="M15.3634 47.283C15.3634 47.283 13.904 45.8468 12.1733 47.0189C10.4426 48.1911 11.4764 50.3762 11.4764 50.3762C11.4764 50.3762 9.98093 50.1714 9.3787 51.388C8.77685 52.6046 9.78905 53.7305 9.78905 53.7305C9.78905 53.7305 8.02416 53.8422 7.6176 55.6124C7.13696 57.7052 9.63365 59.5343 9.63365 59.5343L17.0375 57.318L17.066 49.383L15.3634 47.283Z" fill="black"/>
<path d="M19.6296 83.6945C19.6296 83.6945 20.8694 87.5788 18.2014 92.5813C15.1424 98.3168 13.0043 101.223 13.0043 101.223L7.77881 99.9335C7.77881 99.9335 12.2847 88.156 12.2889 83.4172C12.2934 78.6784 19.6296 83.6945 19.6296 83.6945Z" fill="#F48462"/>
<path d="M24.8192 81.7334C24.8192 81.7334 25.1311 86.8404 24.5319 92.4782C23.9327 98.116 23.4795 101.453 23.4795 101.453L18.3307 101.553C18.3307 101.553 18.5811 89.2539 17.6661 84.6078C16.7508 79.9583 24.8192 81.7334 24.8192 81.7334Z" fill="#F48462"/>
<path d="M17.7885 108.533C17.8793 109.482 17.9868 110.172 18.0852 110.287C18.4485 110.717 32.4517 110.846 33.1413 110.747C33.8268 110.648 33.6068 110.781 33.8268 110.648C33.997 110.544 33.8925 109.532 33.8344 109.043C33.8108 108.884 33.7964 108.78 33.7964 108.78C33.7964 108.78 33.7683 107.046 32.5106 106.22C31.253 105.399 29.1153 105.077 29.1153 105.077C29.1153 105.077 25.4092 102.603 25.1057 102.474C24.8021 102.345 24.4704 101.018 24.3355 100.974C24.201 100.934 18.0218 101.211 17.649 101.485C17.3796 101.686 17.5423 106.015 17.7885 108.533Z" fill="#353333"/>
<path d="M17.7891 108.533C17.8799 109.482 17.9874 110.172 18.0858 110.287C18.449 110.717 32.4523 110.846 33.1419 110.747C33.8274 110.648 33.6074 110.781 33.8274 110.648C33.9976 110.544 33.8931 109.532 33.835 109.043C31.9796 109.086 24.9265 109.209 21.8348 108.957C19.804 108.793 18.5197 108.638 17.7891 108.533Z" fill="#565656"/>
<path d="M24.1235 103.429C24.0897 103.429 24.0566 103.41 24.0395 103.379C24.0148 103.332 24.0323 103.275 24.0787 103.25L25.3622 102.565C25.4081 102.54 25.4655 102.557 25.4906 102.604C25.5153 102.651 25.4978 102.708 25.4514 102.733L24.1679 103.418C24.1539 103.425 24.1387 103.429 24.1235 103.429Z" fill="white"/>
<path d="M25.217 104.738C25.1786 104.738 25.1421 104.715 25.1281 104.677C25.1098 104.627 25.1345 104.573 25.1835 104.554L27.2554 103.778C27.3041 103.759 27.3592 103.784 27.3778 103.833C27.396 103.883 27.3713 103.937 27.3223 103.955L25.2504 104.732C25.2394 104.736 25.2284 104.738 25.217 104.738Z" fill="white"/>
<path d="M4.76997 104.815C4.43143 105.707 4.22321 106.373 4.26007 106.521C4.39571 107.067 16.8985 113.374 17.5612 113.59C18.2196 113.804 17.9635 113.827 18.2196 113.804C18.418 113.787 18.7717 112.833 18.9359 112.369C18.9849 112.216 19.0183 112.115 19.0183 112.115C19.0183 112.115 19.76 110.548 18.997 109.251C18.2322 107.958 16.457 106.724 16.457 106.724C16.457 106.724 14.2274 102.866 14.012 102.616C13.7966 102.366 14.0861 101.029 13.9847 100.93C13.8813 100.835 8.21692 98.3501 7.76174 98.4314C7.43118 98.4929 5.66248 102.448 4.76997 104.815Z" fill="#464646"/>
<path d="M4.76997 104.815C4.43143 105.707 4.22321 106.373 4.26007 106.521C4.39571 107.067 16.8985 113.374 17.5612 113.59C18.2196 113.804 17.9635 113.827 18.2196 113.804C18.418 113.787 18.7717 112.833 18.9359 112.369C17.253 111.587 10.8724 108.578 8.21084 106.985C6.46229 105.94 5.37866 105.233 4.76997 104.815Z" fill="#353333"/>
<path d="M12.7513 103.048C12.7 103.048 12.6578 103.008 12.6563 102.956C12.6548 102.904 12.6958 102.86 12.7482 102.858L14.2023 102.812C14.2544 102.81 14.2985 102.851 14.3004 102.904C14.3019 102.956 14.2608 103 14.2084 103.002L12.7543 103.048C12.7536 103.048 12.7524 103.048 12.7513 103.048Z" fill="white"/>
<path d="M15.355 104.926C15.3456 104.926 13.1437 104.706 13.1437 104.706C13.0917 104.701 13.0533 104.654 13.0586 104.603C13.0639 104.55 13.1129 104.512 13.1627 104.517L15.3645 104.737C15.4166 104.742 15.455 104.789 15.4497 104.841C15.4447 104.89 15.4033 104.926 15.355 104.926Z" fill="white"/>
<path d="M25.991 88.0975C26.105 95.1229 25.1535 100.029 25.1535 100.029L16.7892 100.165L16.6752 96.7191L15.2842 100.478L7.28955 97.24C7.28955 97.24 9.71101 89.6816 10.7111 84.6274C11.7107 79.5732 8.63535 76.0415 11.553 68.368C14.0919 61.6902 21.3901 65.9233 21.3901 65.9233C21.3901 65.9233 25.763 74.0734 25.991 88.0975Z" fill="#B75542"/>
<path d="M13.808 55.9922C13.808 55.9922 12.4159 56.0602 11.526 56.4573C10.6362 56.8543 9.29834 59.6645 9.29834 59.6645L12.8574 64.942L16.9271 63.2919L13.808 55.9922Z" fill="#FFA63B"/>
<path d="M34.3482 61.3922C34.3482 61.3922 31.3309 63.6552 26.6408 63.9394C21.9506 64.2236 16.8911 60.663 16.8911 60.663L18.9227 55.667C18.9227 55.667 23.6969 56.145 26.0192 56.2719C27.0542 56.3285 31.1698 57.0109 31.1698 57.0109L34.3482 61.3922Z" fill="#FFA63B"/>
<path d="M25.8115 61.1227C25.7431 61.1227 25.6622 61.1003 25.576 61.0315C25.5182 60.9856 25.4863 60.9195 25.484 60.8408C25.4718 60.4141 26.4206 59.552 26.5289 59.4555C26.5585 59.4289 26.6011 59.4247 26.6356 59.4445C26.6698 59.4642 26.6877 59.5034 26.6797 59.5421C26.6508 59.6842 26.3853 60.935 25.9232 61.103C25.8925 61.114 25.8545 61.1227 25.8115 61.1227ZM26.4312 59.7986C26.0714 60.1512 25.6614 60.6235 25.6675 60.8355C25.6683 60.8663 25.6797 60.8796 25.6903 60.8883C25.7705 60.9521 25.826 60.943 25.8609 60.9301C26.087 60.848 26.3047 60.2758 26.4312 59.7986Z" fill="white"/>
<path d="M18.9227 55.6664L19.4326 55.7922C20.4786 56.0502 21.3339 56.796 21.7344 57.7961C22.0965 58.7 22.4232 59.8813 22.3461 61.088C22.185 63.6105 21.6337 64.7284 21.6337 64.7284L23.1307 68.4314C23.1307 68.4314 20.1006 70.2974 17.0674 70.4114C14.0342 70.5254 10.6895 69.8756 10.6895 69.8756C10.6895 69.8756 13.0501 56.8899 13.1375 55.8332C13.1968 55.1204 18.9227 55.6664 18.9227 55.6664Z" fill="#FFA63B"/>
<path d="M21.462 62.85C21.4452 62.85 21.4285 62.8455 21.4133 62.8367C21.3681 62.8098 21.3537 62.7512 21.3803 62.706C22.4647 60.8963 20.8673 58.1321 20.851 58.1048C20.8244 58.0596 20.8396 58.0014 20.8848 57.9744C20.9293 57.9482 20.9878 57.9627 21.0148 58.0083C21.0835 58.1257 22.6858 60.8967 21.5433 62.8041C21.5258 62.8337 21.4943 62.85 21.462 62.85Z" fill="white"/>
<path d="M37.6937 55.1508C37.6937 55.1508 38.8332 53.8384 37.9049 53.6116C36.9767 53.3847 34.4165 55.2146 34.8007 56.1273C35.1848 57.0395 37.6937 55.1508 37.6937 55.1508Z" fill="#FF8519"/>
<path d="M38.5184 56.3288C38.5184 56.3288 39.6579 55.0164 38.7296 54.7896C37.8014 54.5627 35.2413 56.3926 35.6254 57.3052C36.0099 58.2175 38.5184 56.3288 38.5184 56.3288Z" fill="#FF8519"/>
<path d="M38.9902 57.6923C38.9902 57.6923 40.1817 56.7196 39.4066 56.3818C38.6315 56.044 36.123 57.2534 36.3206 58.1072C36.5182 58.9609 38.9902 57.6923 38.9902 57.6923Z" fill="#FF8519"/>
<path d="M36.8954 58.5162C36.6378 58.5162 36.3787 58.4322 36.2408 58.1461C36.1777 58.0157 36.1728 57.8847 36.226 57.7566C36.3776 57.3907 36.9684 57.1821 36.9935 57.1738L38.4715 56.2531C38.5129 56.2277 38.5676 56.2402 38.5938 56.282C38.6197 56.3234 38.6068 56.3785 38.5653 56.404L37.0695 57.333C36.9019 57.3934 36.4904 57.5822 36.3901 57.8246C36.357 57.9052 36.3601 57.985 36.4007 58.0689C36.6538 58.5918 37.5436 58.1875 37.5528 58.1833C37.598 58.1624 37.65 58.1822 37.6709 58.2262C37.6918 58.2707 37.6725 58.3239 37.628 58.3444C37.6025 58.3558 37.2507 58.5162 36.8954 58.5162Z" fill="black"/>
<path d="M36.1606 57.6894C36.1169 57.6894 36.0732 57.6863 36.0299 57.6791C35.8316 57.646 35.6701 57.5366 35.5512 57.3535C35.2381 56.8721 36.0257 56.0882 36.1166 56.0008L37.8484 54.8108C37.8887 54.7827 37.9438 54.7929 37.9719 54.8332C37.9996 54.8739 37.9894 54.9294 37.9491 54.9567L36.229 56.1372C36.0231 56.3382 35.5022 56.9515 35.7005 57.2558C35.7924 57.3972 35.9099 57.4781 36.0592 57.5028C36.4657 57.5735 36.9631 57.1905 36.968 57.1867C37.0072 57.157 37.0626 57.1635 37.093 57.2022C37.1231 57.241 37.1162 57.2965 37.0775 57.3269C37.0569 57.3436 36.6086 57.6894 36.1606 57.6894Z" fill="black"/>
<path d="M35.3508 56.4578C35.1312 56.4578 34.9123 56.3856 34.7345 56.1865C34.6585 56.101 34.6277 55.9957 34.6429 55.8726C34.7349 55.1382 36.6062 53.871 36.686 53.8174C36.7266 53.7909 36.7821 53.8011 36.8091 53.8418C36.8364 53.8824 36.8258 53.9379 36.7851 53.9653C36.2615 54.3179 34.8872 55.3517 34.8192 55.895C34.8101 55.9665 34.8253 56.022 34.8667 56.0679C35.3265 56.5831 36.0925 56.0178 36.1248 55.9938C36.1635 55.9634 36.2194 55.9722 36.2494 56.0113C36.279 56.0508 36.271 56.1063 36.2319 56.1356C36.0378 56.2818 35.6935 56.4578 35.3508 56.4578Z" fill="black"/>
<path d="M16.8556 96.0513C16.8469 96.0513 16.8381 96.0502 16.8298 96.0475C16.7792 96.0335 16.75 95.9806 16.7644 95.9301C16.7891 95.8439 19.2136 87.2599 19.5962 82.9843C20.0488 77.9229 19.4522 73.7605 19.4458 73.7187C19.4401 73.6791 19.4598 73.64 19.4952 73.621L21.8665 72.3615C21.9124 72.3364 21.9702 72.3542 21.9949 72.401C22.0192 72.4473 22.0017 72.5047 21.9554 72.5294L19.6426 73.7574C19.7174 74.3137 20.2083 78.2675 19.7851 83.001C19.4009 87.2945 16.9715 95.8952 16.9472 95.9818C16.935 96.024 16.897 96.0513 16.8556 96.0513Z" fill="#F9BF30"/>
<path d="M32.4997 50.4266C34.1499 47.0693 36.3274 41.6671 42.9998 44.2197C49.8458 46.8387 46.0698 58.1838 45.2769 64.0822C44.4839 69.9803 41.6635 85.7127 28.2108 83.0538C14.7581 80.3949 15.6107 66.5937 20.598 61.2687C25.5857 55.9436 30.8499 53.7839 32.4997 50.4266Z" fill="#56C269"/>
<path d="M31.5178 49.488C33.1679 46.1307 36.6419 40.9611 42.9993 44.2199C49.3567 47.4788 45.0879 57.2456 44.2949 63.1436C43.502 69.0421 40.6815 84.7741 27.2288 82.1152C13.7761 79.4563 14.6287 65.6551 19.616 60.33C24.6037 55.005 29.868 52.8453 31.5178 49.488Z" fill="#3AA14C"/>
<path d="M28.3321 75.1306C32.1007 75.1091 35.1383 72.0365 35.1168 68.2677C35.0953 64.4989 32.0229 61.4611 28.2543 61.4826C24.4857 61.5041 21.4481 64.5767 21.4696 68.3455C21.491 72.1143 24.5635 75.1521 28.3321 75.1306Z" fill="#B75542"/>
<path d="M35.3577 45.647C35.3387 45.647 35.3193 45.6413 35.3026 45.6295C35.2601 45.5991 35.2498 45.5398 35.2802 45.4969C35.292 45.4802 36.4961 43.8236 38.9069 43.8076C38.9597 43.8076 39.0019 43.8498 39.0023 43.9022C39.0026 43.9547 38.9605 43.9976 38.9076 43.9976C36.5933 44.0136 35.4462 45.5907 35.4348 45.6067C35.4166 45.6333 35.3874 45.647 35.3577 45.647Z" fill="#EAD8CE"/>
<path d="M25.5269 63.7157C25.4954 63.7157 25.4642 63.7001 25.4464 63.6716C25.4183 63.6272 25.4316 63.5686 25.476 63.5401C25.4973 63.5268 27.638 62.2035 30.3436 63.0975C30.3934 63.1138 30.4204 63.1678 30.404 63.2172C30.3869 63.2673 30.3341 63.2939 30.284 63.2776C27.668 62.4136 25.5984 63.6879 25.5775 63.7009C25.5615 63.7111 25.544 63.7157 25.5269 63.7157Z" fill="#C9B1A6"/>
<path d="M35.0556 69.2233C34.548 72.9571 31.1075 75.5746 27.3736 75.067C24.0996 74.6221 21.6846 71.9225 21.479 68.748C22.4506 70.718 24.3469 72.1809 26.6829 72.4981C30.4205 73.0061 33.8576 70.3882 34.3648 66.6544C34.4271 66.1947 34.4435 65.7364 34.4157 65.2915C34.9967 66.4678 35.2459 67.822 35.0556 69.2233Z" fill="#9B453A"/>
<path d="M20.2357 51.3559C20.2357 51.3559 21.7825 49.1917 18.7759 47.401C15.7693 45.6102 13.5052 47.9367 13.4543 49.2107C13.4033 50.4847 14.1165 51.0896 14.1165 51.0896C14.1165 51.0896 13.7776 53.8446 16.4339 53.7086C19.0901 53.5726 20.2357 51.3559 20.2357 51.3559Z" fill="black"/>
<path d="M16.1894 53.2603L16.0884 55.4898C16.0884 55.4898 16.4615 56.1491 17.7609 56.314C18.7291 56.4371 19.0801 56.2326 19.0801 56.2326L18.9958 55.0973L18.9122 53.9901L16.5804 53.3655L16.1894 53.2603Z" fill="#FF8519"/>
<path d="M16.1973 53.1543C16.2003 53.2155 16.2201 53.2884 16.2524 53.3724C16.7007 54.5088 18.4363 55.0218 18.9953 55.0974L18.9117 53.9902L16.1973 53.1543Z" fill="black"/>
<path d="M19.639 48.9311C19.639 48.9311 20.6823 51.7796 20.1508 53.3116C19.6192 54.844 18.2138 54.5123 17.3824 54.1589C16.5511 53.8059 16.1882 53.2607 16.1882 53.2607C16.1882 53.2607 15.3781 53.4814 14.8922 52.7113C14.4062 51.9407 14.7847 51.1132 15.2497 50.9464C15.7148 50.7796 16.2338 51.1398 16.2338 51.1398L15.8603 50.3077C15.8603 50.3077 17.887 46.3181 19.639 48.9311Z" fill="#FF8519"/>
<path d="M19.9634 50.0944C19.9566 50.0944 19.949 50.0936 19.9418 50.0917L19.406 49.9663C19.3551 49.9545 19.3232 49.9032 19.335 49.8523C19.3467 49.801 19.3973 49.768 19.4493 49.7813L19.9851 49.9067C20.036 49.9184 20.0679 49.9697 20.0561 50.0206C20.0455 50.0647 20.0063 50.0944 19.9634 50.0944Z" fill="black"/>
<path d="M17.9223 50.1508C17.8824 50.1508 17.8452 50.1257 17.8319 50.0851C17.8155 50.0353 17.8429 49.9817 17.8927 49.9654L18.5439 49.7526C18.5937 49.7374 18.6473 49.7633 18.6636 49.8138C18.6799 49.8636 18.6526 49.9171 18.6028 49.9335L17.9516 50.1463C17.9421 50.1493 17.9322 50.1508 17.9223 50.1508Z" fill="black"/>
<path d="M19.3503 52.3083C19.2812 52.2973 19.2473 52.2475 19.2565 52.1959C19.4153 51.3417 19.0935 50.8778 19.09 50.8736C19.0596 50.8311 19.0691 50.7714 19.1117 50.741C19.1539 50.7099 19.2131 50.7194 19.2439 50.7619C19.2595 50.7832 19.6182 51.2908 19.4434 52.2308C19.435 52.2764 19.3951 52.3083 19.3503 52.3083Z" fill="black"/>
<path d="M16.1517 52.2737C16.1358 52.2737 16.1202 52.2699 16.1054 52.2619L15.0305 51.6616C14.9845 51.6361 14.9686 51.578 14.994 51.532C15.0195 51.486 15.0776 51.4697 15.1232 51.4952L16.1981 52.0955C16.2441 52.1209 16.2604 52.1791 16.2346 52.225C16.2175 52.2562 16.1852 52.2737 16.1517 52.2737Z" fill="black"/>
<path d="M15.1357 52.4491C15.1088 52.4491 15.0814 52.4377 15.0628 52.4149C15.029 52.375 15.0343 52.3146 15.0746 52.2811L15.6073 51.8354C15.6472 51.8009 15.7076 51.8066 15.7414 51.8472C15.7752 51.8871 15.7699 51.9475 15.7296 51.981L15.1969 52.4267C15.1787 52.4419 15.157 52.4491 15.1357 52.4491Z" fill="black"/>
<path d="M20.2363 51.3561C20.2363 51.3561 20.0805 50.494 19.2773 49.5C18.4744 48.5061 18.4744 48.5061 18.4744 48.5061C18.4744 48.5061 18.4285 50.2581 17.5861 50.9462C16.7437 51.6343 16.2346 51.1403 16.2346 51.1403L14.8481 49.7067L17.7092 47.4775C17.7092 47.4775 20.6903 47.6098 20.2363 51.3561Z" fill="black"/>
<path d="M18.4921 51.2428C18.448 51.2428 18.4089 51.2124 18.3994 51.1676L18.3165 50.7747C18.3131 50.758 18.3139 50.7409 18.3192 50.725L18.4366 50.3746C18.4533 50.3245 18.5076 50.299 18.557 50.3146C18.6068 50.3313 18.6338 50.3853 18.6171 50.4347L18.5076 50.7603L18.5852 51.1281C18.5962 51.1798 18.5631 51.2299 18.5118 51.2409C18.5054 51.2421 18.4989 51.2428 18.4921 51.2428Z" fill="black"/>
<path d="M19.8744 51.166C19.8303 51.166 19.7912 51.1356 19.7817 51.0908L19.6989 50.6983C19.6954 50.6815 19.6962 50.6644 19.7015 50.6485L19.8189 50.2978C19.8356 50.2476 19.8903 50.2214 19.9394 50.2378C19.9891 50.2545 20.0161 50.3084 19.9994 50.3578L19.89 50.6838L19.9675 51.0512C19.9785 51.1025 19.9454 51.1531 19.8941 51.1641C19.8877 51.1652 19.8812 51.166 19.8744 51.166Z" fill="black"/>
<path d="M18.6567 53.2141C18.6297 53.2141 18.6027 53.2092 18.5753 53.1989C18.3599 53.1153 18.2611 52.5986 18.236 52.4424C18.2303 52.4064 18.2455 52.3706 18.2752 52.3497C18.3048 52.3288 18.3436 52.3266 18.3755 52.3437L19.0624 52.7156C19.0852 52.7278 19.102 52.7491 19.1088 52.7738C19.1156 52.7985 19.1122 52.8254 19.0989 52.8471C19.059 52.9143 18.8694 53.2141 18.6567 53.2141ZM18.4636 52.6077C18.5165 52.8228 18.5913 53.0014 18.6441 53.0219C18.689 53.0382 18.7965 52.9463 18.8805 52.8334L18.4636 52.6077Z" fill="black"/>
<path d="M14.354 67.4803C14.354 67.4803 16.6083 69.7767 18.4229 70.6662C20.2376 71.5557 21.0549 71.4482 21.2244 71.1974C21.3938 70.9466 20.3824 70.1365 20.3824 70.1365C20.3824 70.1365 22.1108 70.9257 22.4725 70.3695C22.8342 69.8132 21.3938 68.9519 21.3938 68.9519C21.3938 68.9519 22.7442 69.2608 22.732 68.6764C22.7195 68.092 19.9428 66.7348 19.9428 66.7348C19.9428 66.7348 21.526 66.9483 21.5226 66.4966C21.5192 66.0448 19.5541 64.8992 18.6733 64.8514C17.7926 64.8035 15.6063 64.6914 15.6063 64.6914L14.354 67.4803Z" fill="#FF8519"/>
<path d="M14.1916 55.4666C14.1916 55.4666 5.22353 57.0251 4.59926 63.0288C3.96397 69.14 15.3968 69.0363 15.3968 69.0363L17.3023 63.9008L10.2104 58.9538L14.1916 55.4666Z" fill="#FFA63B"/>
<path d="M15.268 63.4428C15.2452 63.4428 15.2228 63.4352 15.2045 63.4188C15.1791 63.3957 12.649 61.1361 11.1219 60.6949C11.0714 60.6805 11.0425 60.6277 11.0569 60.5772C11.0718 60.5266 11.1238 60.4966 11.1747 60.5122C12.7436 60.9651 15.227 63.1829 15.3314 63.2767C15.3706 63.3121 15.3736 63.3721 15.3387 63.4112C15.32 63.4321 15.2942 63.4428 15.268 63.4428Z" fill="white"/>
<path d="M13.5246 62.0271C13.4972 62.0271 13.4703 62.0154 13.4516 61.9929C13.0789 61.5469 12.2301 60.4769 12.3995 60.1764C12.4296 60.1232 12.4964 60.0658 12.6423 60.0878C13.3411 60.195 13.5922 61.7426 13.6184 61.9181C13.6249 61.9603 13.6021 62.0017 13.5633 62.0192C13.5508 62.0245 13.5375 62.0271 13.5246 62.0271ZM12.5808 60.2729C12.5656 60.2729 12.5595 60.2755 12.5595 60.2755C12.5154 60.3838 12.8635 60.9481 13.3578 61.5758C13.2351 61.0541 12.9858 60.3329 12.6135 60.2755C12.5998 60.2733 12.5888 60.2729 12.5808 60.2729Z" fill="white"/>
<path d="M11.942 72.4698C11.8657 72.4698 11.7878 72.4637 11.708 72.4515C11.6559 72.4435 11.6206 72.3953 11.6286 72.3432C11.6365 72.2912 11.6856 72.257 11.7369 72.2638C12.8824 72.4378 13.713 71.0229 13.7214 71.0085C13.7472 70.9629 13.8057 70.9477 13.8509 70.9735C13.8965 70.9993 13.9121 71.0578 13.8859 71.1031C13.8524 71.1627 13.0887 72.4698 11.942 72.4698Z" fill="#F9BF30"/>
<path d="M18.1056 56.4907C17.4931 56.4907 16.7001 56.3064 16.017 55.5534C15.9817 55.5146 15.9843 55.4542 16.0234 55.4189C16.0626 55.3843 16.1222 55.3866 16.1576 55.4257C17.3993 56.7932 18.9768 56.1719 19.0433 56.145C19.092 56.1248 19.1474 56.1484 19.1672 56.197C19.187 56.2456 19.1638 56.3007 19.1151 56.3209C19.1068 56.3243 18.6877 56.4907 18.1056 56.4907Z" fill="white"/>
<path d="M21.3934 69.0468C21.3816 69.0468 21.3702 69.0445 21.3584 69.04L19.2379 68.2037C19.1889 68.1843 19.1653 68.1296 19.1843 68.0806C19.2037 68.0316 19.2588 68.0088 19.3078 68.027L21.4283 68.8633C21.477 68.8827 21.5009 68.9374 21.4819 68.9864C21.4671 69.0244 21.431 69.0468 21.3934 69.0468Z" fill="black"/>
<path d="M20.3821 70.2316C20.3711 70.2316 20.3597 70.2297 20.349 70.2255L18.2034 69.4257C18.1544 69.4075 18.1293 69.3528 18.1476 69.3034C18.1658 69.254 18.2205 69.2293 18.2699 69.2479L20.4151 70.0477C20.4641 70.0659 20.4892 70.1207 20.471 70.1701C20.4569 70.208 20.4208 70.2316 20.3821 70.2316Z" fill="black"/>
<path d="M19.942 66.8298C19.9298 66.8298 19.9177 66.8275 19.9055 66.8226L19.2588 66.5547C19.2102 66.5345 19.1874 66.4791 19.2075 66.4304C19.2273 66.3818 19.2835 66.3594 19.3318 66.3788L19.9784 66.647C20.0271 66.6672 20.0499 66.7226 20.0297 66.7713C20.0149 66.8081 19.9796 66.8298 19.942 66.8298Z" fill="black"/>
<path d="M163.547 111.117H114.048C109.481 111.117 105.778 107.414 105.778 102.847H171.817C171.817 107.414 168.114 111.117 163.547 111.117Z" fill="#FFD2AA"/>
<path d="M171.816 102.847C171.816 103.562 167.908 104.206 161.627 104.666C160.57 104.74 159.446 104.815 158.264 104.878C152.808 105.184 146.079 105.361 138.797 105.361C136.188 105.361 133.655 105.338 131.223 105.294C130.972 105.29 130.724 105.286 130.477 105.282C129.142 105.255 127.838 105.224 126.573 105.184C126.203 105.172 125.838 105.16 125.477 105.149C120.897 104.996 116.859 104.764 113.653 104.477C113.21 104.438 112.781 104.394 112.369 104.355C108.233 103.935 105.777 103.413 105.777 102.847C105.777 102.415 107.203 102.01 109.71 101.657C110.012 101.614 110.326 101.574 110.66 101.531C113.013 101.24 116.124 100.989 119.781 100.789C122.197 100.663 124.852 100.557 127.684 100.478C127.767 100.478 127.849 100.474 127.932 100.474C128.58 100.459 129.232 100.443 129.896 100.427C132.041 100.38 134.272 100.353 136.57 100.341C136.9 100.337 137.233 100.337 137.567 100.337C137.976 100.333 138.384 100.333 138.797 100.333C148.645 100.333 157.487 100.663 163.536 101.186C164.314 101.248 165.044 101.319 165.724 101.394C169.561 101.802 171.816 102.305 171.816 102.847Z" fill="#FFF1E5"/>
<path d="M146.423 72.9169C146.423 72.9169 144.836 75.9383 141.378 74.6434C138.382 73.5218 137.975 70.402 137.975 70.402C137.975 70.402 134.029 70.6744 133.317 66.9349C132.524 62.7611 136.405 61.5198 136.405 61.5198C136.405 61.5198 135 57.4474 138.426 56.1525C142.568 54.5875 145.296 57.3748 145.296 57.3748C145.296 57.3748 147.645 55.3379 151.441 58.1784C155.237 61.019 153.384 65.0541 153.384 65.0541C153.384 65.0541 155.779 63.63 158.247 65.7133C160.182 67.3479 159.345 69.7238 159.345 69.7238C159.345 69.7238 163.559 67.794 165.969 70.9279C168.379 74.0617 164.707 77.6542 164.707 77.6542C164.707 77.6542 166.206 79.774 164.245 82.2646C161.134 86.215 157.524 82.7426 157.524 82.7426C157.524 82.7426 155.647 84.1264 152.446 82.1438C149.301 80.1969 150.936 74.6776 150.936 74.6776C150.936 74.6776 148.979 75.3213 146.423 72.9169Z" fill="#4A6D43"/>
<path d="M141.669 69.7848C141.543 69.8126 141.453 69.9197 141.446 70.0481C141.379 71.2663 141.642 78.8202 141.512 79.4752C141.366 80.2047 138.564 87.6602 138.449 88.237C138.086 90.0608 138.707 91.2273 140.189 92.0719C140.257 92.1107 140.329 92.1483 140.405 92.1844C142.181 93.0305 144.297 92.0343 144.897 90.16L147.654 81.7276C147.711 81.5479 147.845 81.4031 148.02 81.3313L157.517 77.4372C157.616 77.403 157.638 77.2726 157.555 77.2096C157.214 76.9519 156.501 76.4477 156.111 76.4265C155.586 76.398 149.243 78.7385 148.717 78.7096C148.192 78.6811 153.235 74.1099 153.248 72.899C153.252 72.5464 152.123 71.31 151.511 71.9088C150.899 72.5076 145.537 78.1146 145.172 78.042C144.807 77.9695 144.945 69.6541 144.376 69.4653C143.91 69.3107 142.258 69.6538 141.669 69.7848Z" fill="#6E9D76"/>
<path d="M144.977 72.9215C144.977 72.9215 143.39 75.943 139.931 74.6481C136.935 73.5264 136.528 70.4066 136.528 70.4066C136.528 70.4066 132.582 70.6787 131.871 66.9395C131.077 62.7657 134.958 61.5244 134.958 61.5244C134.958 61.5244 134.663 57.5645 138.089 56.2696C142.23 54.7046 144.017 58.4308 144.017 58.4308C144.017 58.4308 146.199 55.3425 149.994 58.1831C153.79 61.0236 151.622 66.0151 151.622 66.0151C151.622 66.0151 154.333 63.6347 156.8 65.718C158.736 67.3525 157.898 69.7284 157.898 69.7284C157.898 69.7284 162.112 67.7986 164.522 70.9325C166.932 74.0663 163.26 77.6588 163.26 77.6588C163.26 77.6588 165.106 79.5362 162.798 82.2688C160.714 84.7363 157.43 82.1868 157.43 82.1868C157.43 82.1868 155.302 83.7818 152.1 81.7992C148.956 79.8523 149.489 74.6819 149.489 74.6819C149.489 74.6819 147.532 75.3259 144.977 72.9215Z" fill="#56C269"/>
<path d="M135.06 69.3943C135.049 69.3943 135.037 69.3924 135.026 69.3879C132.825 68.5455 132.752 65.9668 132.752 65.9409C132.751 65.8881 132.793 65.8452 132.845 65.844C132.908 65.8425 132.941 65.8843 132.942 65.9371C132.942 65.9618 133.014 68.4144 135.094 69.2104C135.143 69.2291 135.168 69.2838 135.149 69.3332C135.135 69.3715 135.099 69.3943 135.06 69.3943Z" fill="#9AB27D"/>
<path d="M154.7 81.8646C153.662 81.8646 152.842 81.488 152.829 81.4819C152.79 81.4633 152.773 81.4166 152.791 81.3775C152.809 81.3383 152.857 81.3224 152.895 81.3395C152.915 81.3482 154.904 82.2609 156.568 81.1806C156.603 81.1567 156.653 81.167 156.677 81.2038C156.7 81.2403 156.69 81.2889 156.653 81.3125C156.008 81.7323 155.316 81.8646 154.7 81.8646Z" fill="#75996D"/>
<path d="M139.953 86.8784C139.944 86.8784 139.935 86.8768 139.926 86.8734C139.885 86.8582 139.864 86.8134 139.879 86.7723L141.693 81.8493C141.708 81.8086 141.752 81.7873 141.794 81.8025C141.835 81.8177 141.855 81.8626 141.841 81.9036L140.027 86.8267C140.015 86.8586 139.985 86.8784 139.953 86.8784Z" fill="#B0D8A7"/>
<path d="M138.239 99.7002C138.011 99.9319 137.783 100.144 137.567 100.337C135.838 101.853 134.479 102.124 133.596 102.053C132.845 101.994 132.437 101.692 132.437 101.692C132.437 101.692 132.15 101.986 131.682 102.399C130.956 103.047 129.785 103.99 128.587 104.559C128.563 104.567 128.536 104.583 128.508 104.599C128.449 104.622 128.394 104.649 128.335 104.673C128.155 104.755 127.959 104.826 127.75 104.889C127.617 104.928 127.483 104.968 127.354 104.999C127.307 105.011 127.263 105.023 127.22 105.031C125.692 105.365 125.739 104.705 125.755 104.602C125.735 104.649 125.645 104.854 125.476 105.148C120.896 104.995 116.858 104.763 113.652 104.477C112.682 103.589 111.673 102.591 110.659 101.53C104.712 95.3082 98.5959 86.8276 98.7297 84.1919C98.8159 82.5303 99.4053 81.3832 100.258 80.6017C101.707 79.2741 103.891 78.991 105.635 79.0226C105.808 79.0226 105.977 79.0306 106.138 79.0382C106.295 79.0461 106.448 79.0579 106.594 79.0655C107.635 79.1521 108.365 79.3129 108.408 79.3208C108.338 79.1871 107.12 76.7793 110.467 74.3203C110.769 74.0965 111.115 73.8723 111.5 73.6485C112.128 73.2872 112.725 73.0238 113.295 72.8434C115.388 72.1754 117.066 72.6036 118.142 73.1184C118.228 73.1618 118.311 73.2009 118.389 73.248C118.444 73.2716 118.495 73.2989 118.542 73.3305C118.609 73.3658 118.672 73.4011 118.731 73.4407C119.214 73.7393 119.473 73.9905 119.473 73.9905C119.473 73.9905 119.725 71.6416 121.103 69.8619C122.192 68.4594 123.971 67.4108 126.874 68.1296C132.303 69.4773 141.098 96.7973 138.239 99.7002Z" fill="#D84435"/>
<path d="M105.093 82.7516C105.093 82.7516 107.504 80.6463 109.792 79.5197C112.08 78.3931 116.153 77.4163 116.153 77.4163C116.153 77.4163 117.339 74.5867 118.106 73.956C118.873 73.3253 118.873 73.3253 118.873 73.3253C118.873 73.3253 117.805 72.8659 115.121 72.7781C112.621 72.6961 111.322 73.2991 111.322 73.2991C111.322 73.2991 105.751 66.3284 104.556 66.3181C103.361 66.3083 101.117 70.7226 101.779 71.2283C102.441 71.734 108.264 74.8918 108.264 74.8918C108.264 74.8918 104.407 79.082 105.093 82.7516Z" fill="#4A6D43"/>
<path d="M106.003 81.5632C106.003 81.5632 108.414 79.4579 110.702 78.3313C112.99 77.2047 117.063 76.2282 117.063 76.2282C117.063 76.2282 118.249 73.3987 119.016 72.768C119.783 72.1372 119.783 72.1372 119.783 72.1372C119.783 72.1372 118.714 71.6779 116.031 71.5901C113.531 71.508 112.232 72.1114 112.232 72.1114C112.232 72.1114 105.752 66.3292 104.557 66.3194C103.362 66.3095 102.026 69.5349 102.689 70.0406C103.351 70.5464 109.174 73.7042 109.174 73.7042C109.174 73.7042 105.316 77.8936 106.003 81.5632Z" fill="#56C269"/>
<path d="M136.569 100.341C136.538 100.388 136.502 100.431 136.467 100.47C135.744 101.287 134.644 101.77 133.596 102.053C132.892 102.246 132.209 102.348 131.682 102.399C131.089 102.461 130.688 102.461 130.661 102.461C130.661 102.461 130.147 103.765 128.587 104.559C128.563 104.567 128.536 104.583 128.508 104.598C128.449 104.622 128.394 104.649 128.335 104.673C128.155 104.755 127.959 104.826 127.75 104.889C127.617 104.928 127.483 104.968 127.354 104.999C127.307 105.011 127.263 105.022 127.22 105.03C126.992 105.093 126.776 105.14 126.572 105.183C126.202 105.172 125.837 105.16 125.476 105.148C120.896 104.995 116.858 104.763 113.652 104.476C113.209 104.437 112.78 104.394 112.368 104.355C111.5 103.534 110.604 102.623 109.708 101.656C104.029 95.5402 98.2661 87.2287 98.4033 84.6005C98.5093 82.5579 99.2517 81.3246 100.257 80.6019C101.817 79.4784 103.985 79.5844 105.352 79.8085C105.584 79.8439 105.792 79.883 105.969 79.9225C106.389 80.0168 106.641 80.0954 106.641 80.0954C106.641 80.0954 106.539 79.6907 106.594 79.0661C106.7 77.8601 107.379 75.8372 110.467 74.3212C110.546 74.2817 110.628 74.2426 110.714 74.2034C114.285 72.5575 116.917 74.1837 117.553 74.6472C117.651 74.7179 117.702 74.7612 117.702 74.7612C117.702 74.7612 117.797 74.4903 117.989 74.0659C118.091 73.8341 118.225 73.5552 118.39 73.249C118.398 73.2292 118.41 73.2057 118.425 73.1863C118.626 72.8052 118.873 72.3812 119.168 71.9568C119.679 71.2105 120.323 70.4521 121.104 69.8632C122.177 69.0619 123.508 68.5786 125.103 68.9008C130.033 69.8978 139.59 96.1216 136.569 100.341Z" fill="#F2513B"/>
<path d="M123.166 103.871C123.146 103.871 123.127 103.865 123.11 103.853C114.476 97.5546 107.256 81.7397 107.184 81.5809C107.163 81.533 107.184 81.4768 107.232 81.4551C107.279 81.4327 107.336 81.4547 107.358 81.5022C107.429 81.661 114.628 97.4303 123.222 103.7C123.264 103.73 123.274 103.79 123.243 103.833C123.224 103.858 123.195 103.871 123.166 103.871Z" fill="#FFA63B"/>
<path d="M130.249 101.605C130.209 101.605 130.172 101.579 130.159 101.539C125.497 86.9008 118.543 76.2685 118.473 76.1629C118.444 76.1192 118.456 76.0603 118.5 76.0311C118.543 76.003 118.603 76.014 118.632 76.0581C118.702 76.1637 125.67 86.8165 130.34 101.481C130.356 101.531 130.328 101.584 130.278 101.6C130.269 101.603 130.259 101.605 130.249 101.605Z" fill="#FFA63B"/>
<path d="M165.724 101.393C164.42 102.556 163.049 103.656 161.627 104.665C160.57 104.74 159.447 104.814 158.264 104.877C152.808 105.183 146.079 105.36 138.797 105.36C136.188 105.36 133.655 105.337 131.223 105.294C130.972 105.29 130.725 105.286 130.477 105.282C129.637 104.257 128.969 103.149 128.474 101.998C128.258 101.499 128.077 100.988 127.932 100.474C125.822 93.1715 130.386 84.7459 142.426 83.4811C153.582 82.3104 166.144 68.3303 173.945 72.8712C174.228 73.0323 174.507 73.2246 174.778 73.4369C174.825 73.4761 174.872 73.5156 174.919 73.5509C175.017 73.6372 175.116 73.7238 175.214 73.8142C176.031 74.5764 176.647 75.4207 177.08 76.3516C180.222 82.9624 174.503 93.5921 165.724 101.393Z" fill="#573B63"/>
<path d="M163.535 101.185C161.858 102.536 160.09 103.782 158.264 104.878C152.807 105.184 146.079 105.361 138.796 105.361C136.188 105.361 133.654 105.337 131.223 105.294C130.107 104.3 129.192 103.185 128.473 101.998C128.175 101.504 127.912 100.997 127.684 100.478C124.317 92.8578 128.615 83.1867 141.577 81.8276C152.921 80.6372 165.731 66.9049 173.497 72.2155C173.803 72.4237 174.098 72.6593 174.385 72.9264C174.55 73.0795 174.707 73.2406 174.856 73.4017C174.892 73.4371 174.923 73.4724 174.951 73.5078C175.045 73.6062 175.131 73.708 175.214 73.814C175.701 74.4109 176.082 75.0435 176.373 75.7191C179.373 82.6248 172.939 93.5922 163.535 101.185Z" fill="#6A4A77"/>
<path d="M174.675 73.8557C174.675 73.8557 176.615 71.5562 177.032 69.24C177.449 66.9238 177.084 64.2466 177.084 64.2466C177.084 64.2466 175.252 68.3908 174.846 69.4835C174.441 70.5763 174.285 71.6493 174.285 71.6493C174.285 71.6493 173.922 68.0329 172.92 65.9891C171.918 63.9457 170.067 61.5698 170.067 61.5698C170.067 61.5698 170.385 64.3348 171.237 67.5062C172.09 70.6777 174.675 73.8557 174.675 73.8557Z" fill="#618C58"/>
<path d="M174.38 73.6361C174.38 73.6361 177.024 72.2013 179.377 72.2621C181.73 72.3229 184.278 73.2215 184.278 73.2215C184.278 73.2215 179.849 74.1767 178.697 74.3526C177.544 74.5289 176.462 74.464 176.462 74.464C176.462 74.464 179.93 75.5518 181.728 76.9466C183.527 78.3414 185.478 80.6348 185.478 80.6348C185.478 80.6348 182.835 79.764 179.901 78.2875C176.968 76.811 174.38 73.6361 174.38 73.6361Z" fill="#618C58"/>
<path d="M129.281 100.116C129.271 100.116 129.26 100.114 129.25 100.111C129.2 100.094 129.174 100.04 129.191 99.9906L130.152 97.1462C130.169 97.0969 130.223 97.0703 130.272 97.0866C130.322 97.1037 130.349 97.1573 130.332 97.207L129.371 100.051C129.357 100.091 129.32 100.116 129.281 100.116Z" fill="#906DA0"/>
<path d="M130.375 99.5544C130.343 99.5544 130.311 99.5381 130.293 99.5088L129.202 97.717C129.175 97.6721 129.189 97.614 129.234 97.5863C129.278 97.56 129.337 97.5737 129.365 97.6182L130.456 99.4101C130.483 99.4549 130.469 99.5134 130.424 99.5408C130.409 99.5503 130.392 99.5544 130.375 99.5544Z" fill="#906DA0"/>
<path d="M163.437 74.3671C163.403 74.3671 163.371 74.3493 163.353 74.3177C163.328 74.2714 163.345 74.2136 163.391 74.1886C167.463 71.9704 170.713 72.9191 170.745 72.929C170.796 72.9442 170.824 72.9974 170.809 73.0472C170.793 73.0977 170.739 73.1273 170.69 73.1106C170.658 73.1007 167.481 72.1767 163.483 74.3554C163.468 74.3637 163.453 74.3671 163.437 74.3671Z" fill="#906DA0"/>
<path d="M183.547 55.7868C183.547 55.7868 180.532 54.6899 180.92 54.0303C181.309 53.3707 184.083 53.7385 184.416 54.0383C184.748 54.3381 185.359 55.0794 185.359 55.0794L183.547 55.7868Z" fill="#FF8519"/>
<path d="M73.7602 51.8186C73.7602 51.8186 73.6203 50.9029 74.0113 50.5834C74.4023 50.2638 77.152 48.9393 77.6764 49.6738C77.9389 50.0416 75.9479 51.3908 75.9479 51.3908C75.9479 51.3908 75.9783 52.142 75.652 53.1249C75.3256 54.1082 74.5892 53.5797 74.5892 53.5797L73.7602 51.8186Z" fill="#FF8519"/>
<path d="M75.4773 21.5867C80.3131 19.3363 82.409 13.5918 80.1586 8.75594C77.9082 3.92012 72.1636 1.82424 67.3278 4.07466C62.492 6.32509 60.3961 12.0696 62.6465 16.9054C64.8969 21.7413 70.6415 23.8371 75.4773 21.5867Z" fill="#FF8519" fill-opacity="0.5"/>
<path d="M74.4869 20.1671C78.5374 18.464 80.4403 13.7998 78.7372 9.74953C77.0342 5.69922 72.37 3.79648 68.3194 5.49964C64.2689 7.20281 62.366 11.8669 64.0691 15.9172C65.7721 19.9675 70.4363 21.8703 74.4869 20.1671Z" fill="#FFF3E8"/>
<path d="M71.4056 13.4032C71.33 13.4032 71.2536 13.388 71.1814 13.3572C70.9827 13.2717 70.849 13.0814 70.8368 12.8652L70.5097 7.04424C70.4922 6.73002 70.7323 6.46101 71.0469 6.44353C71.3596 6.42871 71.6302 6.66618 71.648 6.98078L71.9106 11.6561L74.4578 9.48925C74.6976 9.28522 75.0574 9.31409 75.2614 9.55384C75.4654 9.7936 75.4362 10.1534 75.1968 10.3574L71.7757 13.2679C71.6704 13.3568 71.5386 13.4032 71.4056 13.4032Z" fill="white"/>
</svg>
