<svg width="56" height="56" viewBox="0 0 56 56" fill="none" xmlns="http://www.w3.org/2000/svg">
<circle cx="28" cy="28" r="28" fill="url(#paint0_linear_255_583)"/>
<path d="M29.7742 27.8L35.7942 21.794C36.0578 21.5304 36.2059 21.1728 36.2059 20.8C36.2059 20.4272 36.0578 20.0696 35.7942 19.806C35.5306 19.5424 35.173 19.3943 34.8002 19.3943C34.4274 19.3943 34.0698 19.5424 33.8062 19.806L27.8002 25.826L21.7942 19.806C21.5306 19.5424 21.173 19.3943 20.8002 19.3943C20.4274 19.3943 20.0698 19.5424 19.8062 19.806C19.5426 20.0696 19.3945 20.4272 19.3945 20.8C19.3945 21.1728 19.5426 21.5304 19.8062 21.794L25.8262 27.8L19.8062 33.806C19.675 33.9362 19.5708 34.091 19.4998 34.2616C19.4287 34.4322 19.3921 34.6152 19.3921 34.8C19.3921 34.9848 19.4287 35.1678 19.4998 35.3384C19.5708 35.509 19.675 35.6639 19.8062 35.794C19.9364 35.9252 20.0912 36.0294 20.2618 36.1005C20.4324 36.1715 20.6154 36.2081 20.8002 36.2081C20.985 36.2081 21.168 36.1715 21.3386 36.1005C21.5092 36.0294 21.6641 35.9252 21.7942 35.794L27.8002 29.774L33.8062 35.794C33.9364 35.9252 34.0912 36.0294 34.2618 36.1005C34.4324 36.1715 34.6154 36.2081 34.8002 36.2081C34.985 36.2081 35.168 36.1715 35.3386 36.1005C35.5092 36.0294 35.6641 35.9252 35.7942 35.794C35.9254 35.6639 36.0296 35.509 36.1007 35.3384C36.1717 35.1678 36.2083 34.9848 36.2083 34.8C36.2083 34.6152 36.1717 34.4322 36.1007 34.2616C36.0296 34.091 35.9254 33.9362 35.7942 33.806L29.7742 27.8Z" fill="white"/>
<defs>
<linearGradient id="paint0_linear_255_583" x1="0" y1="0" x2="60.838" y2="5.87158" gradientUnits="userSpaceOnUse">
<stop stop-color="#FFA95D"/>
<stop offset="1" stop-color="#FF993F"/>
</linearGradient>
</defs>
</svg>
