<svg width="20" height="20" viewBox="0 0 20 20" fill="none" xmlns="http://www.w3.org/2000/svg">
<path d="M17.5 4.98332C14.725 4.70832 11.9333 4.56665 9.15 4.56665C7.5 4.56665 5.85 4.64998 4.2 4.81665L2.5 4.98332" stroke="currentColor" stroke-width="1.5" stroke-linecap="round" stroke-linejoin="round"/>
<path d="M7.0835 4.1415L7.26683 3.04984C7.40016 2.25817 7.50016 1.6665 8.9085 1.6665H11.0918C12.5002 1.6665 12.6085 2.2915 12.7335 3.05817L12.9168 4.1415" stroke="currentColor" stroke-width="1.5" stroke-linecap="round" stroke-linejoin="round"/>
<path d="M15.7084 7.6167L15.1667 16.0084C15.0751 17.3167 15.0001 18.3334 12.6751 18.3334H7.32508C5.00008 18.3334 4.92508 17.3167 4.83341 16.0084L4.29175 7.6167" stroke="currentColor" stroke-width="1.5" stroke-linecap="round" stroke-linejoin="round"/>
<path d="M8.6084 13.75H11.3834" stroke="currentColor" stroke-width="1.5" stroke-linecap="round" stroke-linejoin="round"/>
<path d="M7.9165 10.4165H12.0832" stroke="currentColor" stroke-width="1.5" stroke-linecap="round" stroke-linejoin="round"/>
</svg>
