<svg width="28" height="28" viewBox="0 0 28 28" fill="none" xmlns="http://www.w3.org/2000/svg">
<path d="M14.14 14.91C14.0583 14.8983 13.9533 14.8983 13.86 14.91C11.8067 14.84 10.1733 13.16 10.1733 11.095C10.1733 8.98331 11.8767 7.26831 14 7.26831C16.1117 7.26831 17.8267 8.98331 17.8267 11.095C17.815 13.16 16.1933 14.84 14.14 14.91Z" stroke="#B3BAC4" stroke-width="1.5" stroke-linecap="round" stroke-linejoin="round"/>
<path d="M21.8634 22.6099C19.7867 24.5116 17.0334 25.6666 14.0001 25.6666C10.9667 25.6666 8.21339 24.5116 6.13672 22.6099C6.25339 21.5133 6.95339 20.4399 8.20172 19.5999C11.3984 17.4766 16.6251 17.4766 19.7984 19.5999C21.0467 20.4399 21.7467 21.5133 21.8634 22.6099Z" stroke="#B3BAC4" stroke-width="1.5" stroke-linecap="round" stroke-linejoin="round"/>
<path d="M14 25.6667C20.4434 25.6667 25.6667 20.4434 25.6667 14C25.6667 7.55672 20.4434 2.33337 14 2.33337C7.55672 2.33337 2.33337 7.55672 2.33337 14C2.33337 20.4434 7.55672 25.6667 14 25.6667Z" stroke="#B3BAC4" stroke-width="1.5" stroke-linecap="round" stroke-linejoin="round"/>
</svg>
