<svg width="341" height="177" viewBox="0 0 341 177" fill="none" xmlns="http://www.w3.org/2000/svg">
<path d="M25.9766 175.979C25.9766 175.979 -13.0737 134.051 19.3726 88.6585C48.1612 48.383 81.7258 51.1362 106.352 67.4803C116.84 74.4415 147.079 68.3383 172.817 27.3565C207.916 -28.5315 329.582 5.3647 307.398 91.3498C296.663 132.961 340.07 134.473 317.952 176.067L25.9766 175.979Z" fill="#E9F4E9"/>
<path d="M100.969 94.9229C100.969 94.9229 81.6507 67.4243 74.101 70.989C66.5512 74.5538 100.969 94.9229 100.969 94.9229Z" fill="#A8D29F"/>
<path d="M99.7407 87.5339C99.7407 87.5339 96.7899 66.8575 92.1379 67.6688C87.486 68.48 99.7407 87.5339 99.7407 87.5339Z" fill="#A8D29F"/>
<path d="M83.4079 151.978C83.4079 151.978 85.2647 142.778 78.0534 141.622C78.0534 141.622 73.1623 141.451 70.2825 143.295C70.2825 143.295 78.4614 148.017 77.4888 149.485C76.5162 150.953 68.7545 143.566 68.7545 143.566C68.7545 143.566 59.9866 147.407 58.0297 150.188C58.0297 150.188 68.3907 152.034 67.0868 153.217C65.7827 154.4 54.9121 152.979 54.9121 152.979C54.9121 152.979 47.9071 158.622 50.9581 163.113C54.0091 167.605 57.4911 167.573 58.5932 166.793C59.6954 166.012 65.0906 159.563 65.7767 160.44C66.4627 161.317 64.0886 166.762 61.28 168.524C61.28 168.524 70.1001 171.494 72.7568 167.731C75.4135 163.967 74.1847 161.041 75.8688 158.745C77.5528 156.449 79.4844 155.373 79.1393 156.948C78.7943 158.523 75.2742 161.832 75.2589 164.842C75.2437 167.851 74.9454 170.042 78.3826 167.381C81.8199 164.72 86.3857 158.566 84.8968 155.272C83.4079 151.978 83.4079 151.978 83.4079 151.978Z" fill="#56C269"/>
<path d="M54.833 161.116C54.833 161.116 75.4056 148.559 83.4081 151.978C83.4081 151.978 86.1531 154.48 90.8776 155.515L92.1201 156.582C92.1201 156.582 86.3305 154.776 84.897 155.272C84.897 155.272 82.774 146.683 54.833 161.116Z" fill="#56C269"/>
<path d="M90.8774 155.515C90.8774 155.515 97.2549 156.331 100.9 162.119L100.122 162.65C100.122 162.65 95.2358 157.289 91.2835 156.333C87.3311 155.377 90.8774 155.515 90.8774 155.515Z" fill="#56C269"/>
<path d="M89.7048 125.132C89.7048 125.132 104.644 116.767 97.6721 105.413C97.6721 105.413 92.095 98.4415 86.1195 96.6489C86.1195 96.6489 89.3065 113.58 86.1195 113.978C82.9326 114.376 83.9285 94.8562 83.9285 94.8562C83.9285 94.8562 68.1931 87.2871 62.0183 87.8847C62.0183 87.8847 71.7784 104.417 68.5914 104.019C65.4045 103.62 54.4493 86.8888 54.4493 86.8888C54.4493 86.8888 38.3155 83.9009 35.7261 93.4618C33.1368 103.023 37.3196 107.803 39.7098 108.401C42.1 108.998 57.4372 108.799 57.0387 110.791C56.6402 112.783 46.2828 115.97 40.5064 114.177C40.5064 114.177 46.8804 129.912 55.2461 129.116C63.6117 128.319 66.2011 123.14 71.38 122.742C76.5588 122.343 80.3432 123.738 77.7539 125.132C75.1645 126.526 66.4003 125.589 62.2175 129.145C58.0346 132.701 54.6485 134.892 62.4166 136.485C70.1848 138.079 84.1277 137.083 86.9163 131.108C89.7048 125.132 89.7048 125.132 89.7048 125.132Z" fill="#A8D29F"/>
<path d="M43.0957 96.45C43.0957 96.45 84.9244 109.994 89.7048 125.132C89.7048 125.132 89.5056 131.905 93.6886 139.673V142.661C93.6886 142.661 89.3065 132.502 86.9162 131.108C86.9162 131.108 96.2778 117.962 43.0957 96.45Z" fill="#56C269"/>
<path d="M93.6885 139.673C93.6885 139.673 100.139 149.468 96.4616 161.392L94.802 160.947C94.802 160.947 96.413 147.813 93.038 141.208C89.6632 134.602 93.6885 139.673 93.6885 139.673Z" fill="#56C269"/>
<path d="M104.888 55.1399L82.5368 170.693C82.0823 173.044 83.8827 175.226 86.2766 175.226H98.0647L104.888 55.1399Z" fill="#ED7D2B"/>
<path d="M253.463 88.2177C253.463 88.2177 243.409 81.8041 248.71 74.1877C248.71 74.1877 252.867 69.5626 257.093 68.5546C257.093 68.5546 254.201 80.2002 256.401 80.6045C258.602 81.0088 258.688 67.3955 258.688 67.3955C258.688 67.3955 269.932 62.7605 274.202 63.4225C274.202 63.4225 266.756 74.5288 268.988 74.379C271.22 74.2293 279.505 63.0322 279.505 63.0322C279.505 63.0322 290.843 61.5986 292.262 68.3502C293.681 75.1019 290.582 78.2591 288.896 78.5792C287.21 78.8992 276.553 78.1485 276.75 79.5495C276.948 80.9504 284.023 83.58 288.111 82.5641C288.111 82.5641 283.051 93.2516 277.266 92.3636C271.48 91.4756 269.886 87.7711 266.301 87.2874C262.716 86.8035 260.029 87.6221 261.774 88.695C263.518 89.7678 269.65 89.4659 272.417 92.1057C275.183 94.7452 277.45 96.4041 271.985 97.202C266.52 98 256.864 96.7509 255.164 92.4844C253.463 88.2177 253.463 88.2177 253.463 88.2177Z" fill="#BBE2B2"/>
<path d="M287.018 70.1335C287.018 70.1335 257.391 77.8821 253.463 88.2177C253.463 88.2177 253.331 92.935 250.112 98.1696L249.993 100.247C249.993 100.247 253.446 93.3582 255.164 92.4841C255.164 92.4841 249.178 82.9692 287.018 70.1335Z" fill="#BBE2B2"/>
<path d="M250.113 98.1696C250.113 98.1696 245.236 104.724 247.317 113.162L248.489 112.918C248.489 112.918 247.893 103.721 250.504 99.2628C253.114 94.8043 250.113 98.1696 250.113 98.1696Z" fill="#BBE2B2"/>
<path d="M226.394 60.3796C226.394 60.3796 210.946 56.9876 214.067 45.0833C214.067 45.0833 217.129 37.4262 221.93 34.2403C221.93 34.2403 223.65 50.0606 226.574 49.5587C229.498 49.0568 223.387 32.0684 223.387 32.0684C223.387 32.0684 235.269 21.1611 240.887 20.0347C240.887 20.0347 236.689 37.2642 239.4 36.0581C242.11 34.8521 247.311 17.1262 247.311 17.1262C247.311 17.1262 260.772 10.1617 265.623 17.9195C270.474 25.6773 268.058 31.0239 266.105 32.1926C264.152 33.3614 250.541 37.2951 251.427 38.9491C252.313 40.603 262.323 40.6448 266.948 37.5123C266.948 37.5123 265.53 53.1301 257.922 54.6675C250.313 56.2049 246.636 52.3208 241.952 53.3564C237.267 54.3919 234.295 56.6387 236.958 57.1773C239.621 57.716 247.117 54.5389 251.767 56.5615C256.418 58.5841 259.998 59.6135 253.558 63.1038C247.118 66.594 234.526 69.4498 230.46 64.9148C226.394 60.3796 226.394 60.3796 226.394 60.3796Z" fill="#DCF4D7"/>
<path d="M259.909 22.5356C259.909 22.5356 226.563 45.7173 226.394 60.3798C226.394 60.3798 228.384 66.313 226.768 74.3007L227.569 76.9417C227.569 76.9417 228.721 66.7878 230.46 64.9147C230.46 64.9148 218.662 55.8025 259.909 22.5356Z" fill="#DCF4D7"/>
<path d="M226.768 74.3007C226.768 74.3007 223.691 84.6884 230.137 94.2436L231.485 93.4049C231.485 93.4049 226.541 82.2267 227.755 75.4832C228.968 68.7397 226.768 74.3007 226.768 74.3007Z" fill="#DCF4D7"/>
<path d="M105.156 54.6722L90.3415 168.128C89.8503 171.89 92.7791 175.226 96.5729 175.226H118.306L106.053 54.2625L105.156 54.6722Z" fill="#C6ECCD"/>
<path d="M105.157 54.6721L98.5247 167.404C98.275 171.647 101.649 175.225 105.9 175.225H138.313L105.157 54.6721Z" fill="#93CD9D"/>
<path d="M104.908 55.5925L108.132 167.404C107.883 171.647 111.256 175.226 115.507 175.226H147.921L104.908 55.5925Z" fill="#6EAE79"/>
<path d="M260.097 175.226H132.293C129.102 175.226 126.367 172.945 125.793 169.806L106.345 63.4555C105.462 58.6269 109.171 54.1787 114.08 54.1787H240.379C243.571 54.1787 246.306 56.459 246.88 59.598L266.598 167.429C267.34 171.487 264.223 175.226 260.097 175.226Z" fill="#F0F9F0"/>
<path d="M108.875 77.2673H250.199L246.576 57.1878C246.261 55.4458 244.745 54.1787 242.975 54.1787H106.086C105.338 54.1787 104.773 54.8567 104.908 55.5925L108.875 77.2673Z" fill="#FF8519"/>
<path d="M112.18 48.1362C108.801 48.1362 106.053 50.8833 106.053 54.262H107.23C107.23 51.5323 109.45 49.3119 112.18 49.3119C114.91 49.3119 117.132 51.5323 117.132 54.262C117.132 54.8103 117.042 55.3369 116.877 55.8291C116.39 57.284 115.246 58.4395 113.799 58.9403C113.376 59.087 112.928 59.1792 112.462 59.205V60.3821C113.006 60.3576 113.53 60.2627 114.028 60.1044C116.015 59.4755 117.568 57.8566 118.104 55.8291C118.237 55.3284 118.307 54.8031 118.307 54.262C118.307 50.8833 115.559 48.1362 112.18 48.1362Z" fill="#A2C5A8"/>
<path d="M114.075 59.7505C114.075 59.8728 114.057 59.9923 114.027 60.1045C113.872 60.6658 113.358 61.0773 112.748 61.0773C112.016 61.0773 111.421 60.483 111.421 59.7505C111.421 59.0181 112.016 58.4238 112.748 58.4238C113.175 58.4238 113.555 58.6268 113.799 58.9404C113.973 59.1648 114.075 59.4455 114.075 59.7505Z" fill="#A2C5A8"/>
<path d="M134.147 48.1362C130.768 48.1362 128.02 50.8833 128.02 54.262H129.196C129.196 51.5323 131.417 49.3119 134.147 49.3119C136.877 49.3119 139.097 51.5323 139.097 54.262C139.097 54.8103 139.008 55.3369 138.843 55.8291C138.356 57.284 137.212 58.4395 135.766 58.9403C135.343 59.087 134.894 59.1792 134.428 59.205V60.3821C134.972 60.3576 135.496 60.2627 135.993 60.1044C137.982 59.4755 139.535 57.8566 140.071 55.8291C140.204 55.3284 140.274 54.8031 140.274 54.262C140.274 50.8833 137.526 48.1362 134.147 48.1362Z" fill="#A2C5A8"/>
<path d="M136.041 59.7505C136.041 59.8728 136.024 59.9923 135.994 60.1045C135.838 60.6658 135.326 61.0773 134.714 61.0773C133.982 61.0773 133.388 60.483 133.388 59.7505C133.388 59.0181 133.982 58.4238 134.714 58.4238C135.143 58.4238 135.523 58.6268 135.766 58.9404C135.939 59.1648 136.041 59.4455 136.041 59.7505Z" fill="#A2C5A8"/>
<path d="M156.115 48.1362C152.736 48.1362 149.988 50.8833 149.988 54.262H151.163C151.163 51.5323 153.384 49.3119 156.115 49.3119C158.845 49.3119 161.065 51.5323 161.065 54.262C161.065 54.8103 160.976 55.3369 160.81 55.8291C160.324 57.284 159.18 58.4395 157.734 58.9403C157.311 59.087 156.862 59.1792 156.396 59.205V60.3821C156.938 60.3576 157.463 60.2627 157.961 60.1044C159.95 59.4742 161.501 57.8566 162.038 55.8291C162.17 55.3284 162.241 54.8031 162.241 54.262C162.241 50.8833 159.492 48.1362 156.115 48.1362Z" fill="#A2C5A8"/>
<path d="M158.009 59.7505C158.009 59.8728 157.992 59.9923 157.961 60.1045C157.806 60.6658 157.292 61.0773 156.682 61.0773C155.95 61.0773 155.355 60.483 155.355 59.7505C155.355 59.0181 155.95 58.4238 156.682 58.4238C157.11 58.4238 157.489 58.6268 157.734 58.9404C157.907 59.1648 158.009 59.4455 158.009 59.7505Z" fill="#A2C5A8"/>
<path d="M178.081 48.1362C174.703 48.1362 171.956 50.8833 171.956 54.262H173.131C173.131 51.5323 175.352 49.3119 178.081 49.3119C180.811 49.3119 183.033 51.5323 183.033 54.262C183.033 54.8103 182.944 55.3369 182.778 55.8291C182.292 57.284 181.148 58.4395 179.7 58.9403C179.277 59.087 178.83 59.1792 178.363 59.205V60.3821C178.906 60.3576 179.431 60.2627 179.929 60.1044C181.918 59.4742 183.469 57.8566 184.006 55.8291C184.138 55.3284 184.209 54.8031 184.209 54.262C184.209 50.8833 181.46 48.1362 178.081 48.1362Z" fill="#A2C5A8"/>
<path d="M179.977 59.7505C179.977 59.8728 179.959 59.9923 179.929 60.1045C179.774 60.6658 179.26 61.0773 178.65 61.0773C177.917 61.0773 177.323 60.483 177.323 59.7505C177.323 59.0181 177.918 58.4238 178.65 58.4238C179.077 58.4238 179.457 58.6268 179.7 58.9404C179.875 59.1648 179.977 59.4455 179.977 59.7505Z" fill="#A2C5A8"/>
<path d="M200.049 48.1362C196.67 48.1362 193.922 50.8833 193.922 54.262H195.098C195.098 51.5323 197.319 49.3119 200.049 49.3119C202.779 49.3119 204.999 51.5323 204.999 54.262C204.999 54.8103 204.91 55.3369 204.744 55.8291C204.258 57.284 203.114 58.4395 201.666 58.9403C201.245 59.087 200.796 59.1792 200.33 59.205V60.3821C200.874 60.3576 201.397 60.2627 201.895 60.1044C203.884 59.4755 205.437 57.8566 205.973 55.8291C206.106 55.3284 206.176 54.8031 206.176 54.262C206.176 50.8833 203.428 48.1362 200.049 48.1362Z" fill="#A2C5A8"/>
<path d="M201.942 59.7505C201.942 59.8728 201.925 59.9923 201.895 60.1045C201.74 60.6658 201.227 61.0773 200.616 61.0773C199.883 61.0773 199.289 60.483 199.289 59.7505C199.289 59.0181 199.883 58.4238 200.616 58.4238C201.045 58.4238 201.424 58.6268 201.666 58.9404C201.84 59.1648 201.942 59.4455 201.942 59.7505Z" fill="#A2C5A8"/>
<path d="M222.016 48.1362C218.638 48.1362 215.889 50.8833 215.889 54.262H217.065C217.065 51.5323 219.285 49.3119 222.016 49.3119C224.746 49.3119 226.967 51.5323 226.967 54.262C226.967 54.8103 226.877 55.3369 226.712 55.8291C226.225 57.284 225.081 58.4395 223.634 58.9403C223.212 59.087 222.763 59.1792 222.297 59.205V60.3821C222.841 60.3576 223.365 60.2627 223.863 60.1044C225.85 59.4755 227.402 57.8566 227.939 55.8291C228.072 55.3284 228.142 54.8031 228.142 54.262C228.142 50.8833 225.394 48.1362 222.016 48.1362Z" fill="#A2C5A8"/>
<path d="M223.91 59.7505C223.91 59.8728 223.893 59.9923 223.863 60.1045C223.707 60.6658 223.194 61.0773 222.584 61.0773C221.851 61.0773 221.257 60.483 221.257 59.7505C221.257 59.0181 221.851 58.4238 222.584 58.4238C223.011 58.4238 223.391 58.6268 223.634 58.9404C223.808 59.1648 223.91 59.4455 223.91 59.7505Z" fill="#A2C5A8"/>
<path d="M243.983 48.1362C240.604 48.1362 237.857 50.8833 237.857 54.262H239.033C239.033 51.5323 241.253 49.3119 243.983 49.3119C246.713 49.3119 248.934 51.5323 248.934 54.262C248.934 54.8103 248.845 55.3369 248.68 55.8291C248.193 57.284 247.049 58.4395 245.602 58.9403C245.179 59.087 244.731 59.1792 244.265 59.205V60.3821C244.809 60.3576 245.333 60.2627 245.83 60.1044C247.818 59.4755 249.37 57.8566 249.907 55.8291C250.039 55.3284 250.11 54.8031 250.11 54.262C250.11 50.8833 247.362 48.1362 243.983 48.1362Z" fill="#A2C5A8"/>
<path d="M245.878 59.7505C245.878 59.8728 245.861 59.9923 245.83 60.1045C245.675 60.6658 245.161 61.0773 244.551 61.0773C243.819 61.0773 243.225 60.483 243.225 59.7505C243.225 59.0181 243.819 58.4238 244.551 58.4238C244.979 58.4238 245.359 58.6268 245.602 58.9404C245.776 59.1648 245.878 59.4455 245.878 59.7505Z" fill="#A2C5A8"/>
<path d="M190.601 114.989H183.457C182.631 114.989 181.825 114.313 181.666 113.487L180.288 106.343C180.129 105.518 180.674 104.842 181.5 104.842H188.644C189.47 104.842 190.276 105.518 190.435 106.343L191.813 113.487C191.973 114.313 191.427 114.989 190.601 114.989Z" fill="#D5EAD9"/>
<path d="M208.629 114.989H201.485C200.659 114.989 199.853 114.313 199.694 113.487L198.316 106.343C198.156 105.518 198.702 104.842 199.528 104.842H206.672C207.498 104.842 208.304 105.518 208.463 106.343L209.841 113.487C210.001 114.313 209.455 114.989 208.629 114.989Z" fill="#D5EAD9"/>
<path d="M226.657 114.989H219.512C218.687 114.989 217.881 114.313 217.721 113.487L216.343 106.343C216.184 105.518 216.729 104.842 217.555 104.842H224.699C225.525 104.842 226.331 105.518 226.49 106.343L227.868 113.487C228.028 114.313 227.482 114.989 226.657 114.989Z" fill="#A2C5A8"/>
<path d="M136.519 114.989H129.375C128.549 114.989 127.743 114.313 127.584 113.487L126.205 106.343C126.046 105.518 126.592 104.842 127.417 104.842H134.562C135.387 104.842 136.193 105.518 136.353 106.343L137.731 113.487C137.89 114.313 137.345 114.989 136.519 114.989Z" fill="#D5EAD9"/>
<path d="M128.689 93.5407H125.619C125.264 93.5407 124.918 93.2503 124.849 92.8955L124.257 89.8253C124.189 89.4704 124.423 89.1799 124.778 89.1799H127.848C128.203 89.1799 128.549 89.4704 128.618 89.8253L129.21 92.8955C129.278 93.2503 129.044 93.5407 128.689 93.5407Z" fill="#FF8519"/>
<path d="M154.547 114.989H147.403C146.577 114.989 145.771 114.313 145.611 113.487L144.233 106.343C144.074 105.518 144.619 104.842 145.445 104.842H152.589C153.415 104.842 154.221 105.518 154.38 106.343L155.759 113.487C155.918 114.313 155.373 114.989 154.547 114.989Z" fill="#D5EAD9"/>
<path d="M172.574 114.989H165.43C164.604 114.989 163.798 114.313 163.639 113.487L162.261 106.343C162.101 105.518 162.647 104.842 163.473 104.842H170.617C171.443 104.842 172.249 105.518 172.408 106.343L173.786 113.487C173.945 114.313 173.4 114.989 172.574 114.989Z" fill="#D5EAD9"/>
<path d="M244.684 114.989H237.54C236.714 114.989 235.908 114.313 235.749 113.487L234.371 106.343C234.212 105.518 234.757 104.842 235.583 104.842H242.727C243.553 104.842 244.359 105.518 244.518 106.343L245.896 113.487C246.056 114.313 245.51 114.989 244.684 114.989Z" fill="#A2C5A8"/>
<path d="M187.609 99.4726H180.465C179.639 99.4726 178.833 98.7969 178.673 97.971L177.295 90.8269C177.136 90.0009 177.681 89.3252 178.507 89.3252H185.651C186.477 89.3252 187.283 90.0009 187.443 90.8269L188.821 97.971C188.98 98.7967 188.435 99.4726 187.609 99.4726Z" fill="#D5EAD9"/>
<path d="M205.636 99.4726H198.492C197.666 99.4726 196.86 98.7969 196.701 97.971L195.323 90.8269C195.163 90.0009 195.709 89.3252 196.534 89.3252H203.679C204.505 89.3252 205.31 90.0009 205.47 90.8269L206.848 97.971C207.007 98.7967 206.462 99.4726 205.636 99.4726Z" fill="#D5EAD9"/>
<path d="M223.663 99.4726H216.519C215.693 99.4726 214.887 98.7969 214.728 97.971L213.35 90.8269C213.19 90.0009 213.736 89.3252 214.562 89.3252H221.706C222.532 89.3252 223.338 90.0009 223.497 90.8269L224.875 97.971C225.035 98.7967 224.489 99.4726 223.663 99.4726Z" fill="#A2C5A8"/>
<path d="M241.691 99.4726H234.547C233.721 99.4726 232.915 98.7969 232.756 97.971L231.378 90.8269C231.218 90.0009 231.764 89.3252 232.59 89.3252H239.734C240.56 89.3252 241.366 90.0009 241.525 90.8269L242.903 97.971C243.063 98.7967 242.517 99.4726 241.691 99.4726Z" fill="#A2C5A8"/>
<path d="M193.774 131.435H186.63C185.804 131.435 184.998 130.759 184.838 129.933L183.46 122.789C183.301 121.963 183.846 121.288 184.672 121.288H191.816C192.642 121.288 193.448 121.963 193.608 122.789L194.986 129.933C195.145 130.759 194.6 131.435 193.774 131.435Z" fill="#D5EAD9"/>
<path d="M211.802 131.435H204.658C203.832 131.435 203.026 130.759 202.866 129.933L201.488 122.789C201.329 121.963 201.874 121.288 202.7 121.288H209.844C210.67 121.288 211.476 121.963 211.635 122.789L213.014 129.933C213.173 130.759 212.628 131.435 211.802 131.435Z" fill="#D5EAD9"/>
<path d="M229.829 131.435H222.685C221.859 131.435 221.053 130.759 220.894 129.933L219.515 122.789C219.356 121.963 219.902 121.288 220.727 121.288H227.872C228.697 121.288 229.503 121.963 229.663 122.789L231.041 129.933C231.2 130.759 230.655 131.435 229.829 131.435Z" fill="#A2C5A8"/>
<path d="M139.691 131.435H132.547C131.721 131.435 130.915 130.759 130.756 129.933L129.378 122.789C129.218 121.963 129.764 121.288 130.59 121.288H137.734C138.56 121.288 139.366 121.963 139.525 122.789L140.903 129.933C141.062 130.759 140.517 131.435 139.691 131.435Z" fill="#D5EAD9"/>
<path d="M157.719 131.435H150.575C149.749 131.435 148.943 130.759 148.783 129.933L147.405 122.789C147.246 121.963 147.791 121.288 148.617 121.288H155.761C156.587 121.288 157.393 121.963 157.552 122.789L158.93 129.933C159.09 130.759 158.545 131.435 157.719 131.435Z" fill="#D5EAD9"/>
<path d="M175.746 131.435H168.602C167.776 131.435 166.97 130.759 166.811 129.933L165.433 122.789C165.274 121.963 165.819 121.288 166.645 121.288H173.789C174.615 121.288 175.421 121.963 175.58 122.789L176.958 129.933C177.118 130.759 176.572 131.435 175.746 131.435Z" fill="#D5EAD9"/>
<path d="M247.857 131.435H240.713C239.887 131.435 239.081 130.759 238.921 129.933L237.543 122.789C237.384 121.963 237.929 121.288 238.755 121.288H245.899C246.725 121.288 247.531 121.963 247.691 122.789L249.069 129.933C249.228 130.759 248.683 131.435 247.857 131.435Z" fill="#A2C5A8"/>
<path d="M196.946 147.881H189.802C188.976 147.881 188.17 147.205 188.011 146.379L186.633 139.235C186.473 138.409 187.019 137.733 187.845 137.733H194.989C195.815 137.733 196.621 138.409 196.78 139.235L198.158 146.379C198.318 147.205 197.772 147.881 196.946 147.881Z" fill="#D5EAD9"/>
<path d="M214.974 147.881H207.83C207.004 147.881 206.198 147.205 206.039 146.379L204.66 139.235C204.501 138.409 205.046 137.733 205.872 137.733H213.016C213.842 137.733 214.648 138.409 214.808 139.235L216.186 146.379C216.345 147.205 215.8 147.881 214.974 147.881Z" fill="#D5EAD9"/>
<path d="M233.001 147.881H225.857C225.031 147.881 224.225 147.205 224.066 146.379L222.688 139.235C222.528 138.409 223.074 137.733 223.9 137.733H231.044C231.87 137.733 232.676 138.409 232.835 139.235L234.213 146.379C234.373 147.205 233.827 147.881 233.001 147.881Z" fill="#A2C5A8"/>
<path d="M142.864 147.881H135.72C134.894 147.881 134.088 147.205 133.928 146.379L132.55 139.235C132.391 138.409 132.936 137.733 133.762 137.733H140.906C141.732 137.733 142.538 138.409 142.697 139.235L144.076 146.379C144.235 147.205 143.69 147.881 142.864 147.881Z" fill="#D5EAD9"/>
<path d="M160.891 147.881H153.747C152.921 147.881 152.115 147.205 151.956 146.379L150.578 139.235C150.419 138.409 150.964 137.733 151.79 137.733H158.934C159.76 137.733 160.566 138.409 160.725 139.235L162.103 146.379C162.263 147.205 161.717 147.881 160.891 147.881Z" fill="#FF8519"/>
<path d="M178.919 147.881H171.775C170.949 147.881 170.143 147.205 169.983 146.379L168.605 139.235C168.446 138.409 168.991 137.733 169.817 137.733H176.961C177.787 137.733 178.593 138.409 178.753 139.235L180.131 146.379C180.29 147.205 179.745 147.881 178.919 147.881Z" fill="#D5EAD9"/>
<path d="M251.029 147.881H243.885C243.059 147.881 242.253 147.205 242.093 146.379L240.715 139.235C240.556 138.409 241.101 137.733 241.927 137.733H249.071C249.897 137.733 250.703 138.409 250.863 139.235L252.241 146.379C252.4 147.205 251.855 147.881 251.029 147.881Z" fill="#A2C5A8"/>
<path d="M199.939 163.397H192.795C191.969 163.397 191.163 162.721 191.004 161.896L189.626 154.751C189.466 153.925 190.012 153.25 190.838 153.25H197.982C198.808 153.25 199.614 153.925 199.773 154.751L201.151 161.896C201.311 162.721 200.765 163.397 199.939 163.397Z" fill="#D5EAD9"/>
<path d="M217.967 163.397H210.823C209.997 163.397 209.191 162.721 209.032 161.896L207.654 154.751C207.494 153.925 208.04 153.25 208.866 153.25H216.01C216.836 153.25 217.642 153.925 217.801 154.751L219.179 161.896C219.338 162.721 218.793 163.397 217.967 163.397Z" fill="#D5EAD9"/>
<path d="M235.994 163.397H228.85C228.024 163.397 227.218 162.721 227.059 161.896L225.681 154.751C225.522 153.925 226.067 153.25 226.893 153.25H234.037C234.863 153.25 235.669 153.925 235.828 154.751L237.206 161.896C237.366 162.721 236.82 163.397 235.994 163.397Z" fill="#A2C5A8"/>
<path d="M145.857 163.397H138.713C137.887 163.397 137.081 162.721 136.921 161.896L135.543 154.751C135.384 153.925 135.929 153.25 136.755 153.25H143.899C144.725 153.25 145.531 153.925 145.691 154.751L147.069 161.896C147.228 162.721 146.683 163.397 145.857 163.397Z" fill="#D5EAD9"/>
<path d="M163.885 163.397H156.741C155.915 163.397 155.109 162.721 154.949 161.896L153.571 154.751C153.412 153.925 153.957 153.25 154.783 153.25H161.927C162.753 153.25 163.559 153.925 163.718 154.751L165.097 161.896C165.256 162.721 164.71 163.397 163.885 163.397Z" fill="#D5EAD9"/>
<path d="M181.912 163.397H174.768C173.942 163.397 173.136 162.721 172.977 161.896L171.598 154.751C171.439 153.925 171.985 153.25 172.81 153.25H179.955C180.78 153.25 181.586 153.925 181.746 154.751L183.124 161.896C183.283 162.721 182.738 163.397 181.912 163.397Z" fill="#D5EAD9"/>
<path d="M150.343 90.7215H131.416C131.137 90.7215 130.909 90.4932 130.909 90.2143C130.909 89.9354 131.137 89.7073 131.416 89.7073H150.343C150.621 89.7073 150.85 89.9356 150.85 90.2143C150.85 90.4932 150.621 90.7215 150.343 90.7215Z" fill="#D5EAD9"/>
<path d="M150.918 93.0137H131.991C131.712 93.0137 131.484 92.7854 131.484 92.5065C131.484 92.2277 131.712 91.9995 131.991 91.9995H150.918C151.197 91.9995 151.425 92.2278 151.425 92.5065C151.425 92.7855 151.197 93.0137 150.918 93.0137Z" fill="#D5EAD9"/>
<path d="M130.043 73.6526H123.548C123.016 73.6526 122.581 73.2173 122.581 72.6853C122.581 72.1533 123.016 71.718 123.548 71.718H130.043C130.575 71.718 131.011 72.1533 131.011 72.6853C131.011 73.2173 130.575 73.6526 130.043 73.6526Z" fill="white"/>
<path d="M147.865 73.6526H141.37C140.838 73.6526 140.402 73.2173 140.402 72.6853C140.402 72.1533 140.838 71.718 141.37 71.718H147.865C148.397 71.718 148.832 72.1533 148.832 72.6853C148.832 73.2173 148.397 73.6526 147.865 73.6526Z" fill="white"/>
<path d="M165.686 73.6526H159.191C158.659 73.6526 158.224 73.2173 158.224 72.6853C158.224 72.1533 158.659 71.718 159.191 71.718H165.686C166.218 71.718 166.654 72.1533 166.654 72.6853C166.654 73.2173 166.218 73.6526 165.686 73.6526Z" fill="white"/>
<path d="M183.508 73.6526H177.013C176.481 73.6526 176.045 73.2173 176.045 72.6853C176.045 72.1533 176.481 71.718 177.013 71.718H183.508C184.04 71.718 184.475 72.1533 184.475 72.6853C184.475 73.2173 184.04 73.6526 183.508 73.6526Z" fill="white"/>
<path d="M201.329 73.6526H194.834C194.302 73.6526 193.867 73.2173 193.867 72.6853C193.867 72.1533 194.302 71.718 194.834 71.718H201.329C201.861 71.718 202.297 72.1533 202.297 72.6853C202.297 73.2173 201.861 73.6526 201.329 73.6526Z" fill="white"/>
<path d="M219.151 73.6526H212.656C212.124 73.6526 211.688 73.2173 211.688 72.6853C211.688 72.1533 212.124 71.718 212.656 71.718H219.151C219.683 71.718 220.118 72.1533 220.118 72.6853C220.118 73.2173 219.683 73.6526 219.151 73.6526Z" fill="white"/>
<path d="M236.972 73.6526H230.478C229.945 73.6526 229.51 73.2173 229.51 72.6853C229.51 72.1533 229.945 71.718 230.478 71.718H236.972C237.504 71.718 237.94 72.1533 237.94 72.6853C237.94 73.2173 237.504 73.6526 236.972 73.6526Z" fill="white"/>
<path d="M195.895 99.6131C194.461 99.6131 193.416 99.1577 192.847 98.2744C191.756 96.5803 192.598 94.2056 195.351 91.2159C197.362 89.0328 199.71 87.3027 199.734 87.2854C199.826 87.2177 199.956 87.2376 200.023 87.3301C200.091 87.4222 200.071 87.5521 199.979 87.6197C199.887 87.6871 190.837 94.3882 193.196 98.0499C193.943 99.2098 195.543 99.2867 196.755 99.1464C198.997 98.8871 201.921 97.6794 204.576 95.9161C207.324 94.0909 209.26 92.0339 209.887 90.2725C210.298 89.1169 210.171 88.2985 209.508 87.8399C208.652 87.2472 206.863 87.2469 204.724 87.8382C202.674 88.4048 200.612 89.4247 199.341 90.5003C199.254 90.5742 199.123 90.5631 199.049 90.4759C198.975 90.3886 198.986 90.2578 199.073 90.1838C200.387 89.0721 202.51 88.0203 204.613 87.4388C206.904 86.8057 208.774 86.8276 209.744 87.4991C210.319 87.8967 210.878 88.7251 210.277 90.4117C209.621 92.2558 207.626 94.3881 204.805 96.2615C202.098 98.0595 199.107 99.2917 196.803 99.5583C196.485 99.5948 196.182 99.6131 195.895 99.6131Z" fill="#FF8519"/>
<path d="M233.396 87.8363L232.659 86.4454C232.659 86.4454 233.025 83.9667 229.919 82.3988C229.919 82.3988 228.784 81.9367 228.143 82.8624C227.553 83.7151 229.268 83.561 229.176 85.0198C229.084 86.4787 229.776 87.3345 230.74 87.8097L231.537 88.7324L233.396 87.8363Z" fill="#FFB27D"/>
<path d="M262.748 84.511C262.748 84.511 260.081 97.6017 245.403 101.879C240.822 103.214 230.413 88.13 230.413 88.13C230.413 88.13 230.779 86.7395 233.072 87.0589C233.072 87.0589 243.206 93.7683 244.482 94.4972C245.614 95.144 253.06 86.1835 256.454 84.7381C259.848 83.2927 262.748 84.511 262.748 84.511Z" fill="#369647"/>
<path d="M219.838 84.2728L220.426 87.4487L236.402 84.4901L235.814 81.3141L219.838 84.2728Z" fill="#C65447"/>
<path d="M216.411 86.552L220.419 87.4522L219.831 84.2764L216.411 86.552Z" fill="#FFB27D"/>
<path d="M237.859 82.0276L238.045 83.0316C238.159 83.6492 237.751 84.2426 237.134 84.3571L236.395 84.494L235.807 81.3182L236.61 81.1693C237.192 81.0614 237.751 81.4457 237.859 82.0276Z" fill="#FFB27D"/>
<path d="M280.27 166.803C280.27 166.803 282.091 168.464 281.736 169.645C281.38 170.826 279.737 171.613 279.515 173.056C279.293 174.499 278.405 175.286 277.606 175.286C276.806 175.286 273.795 175.286 273.795 175.286C273.795 175.286 273.206 174.27 274.627 173.964C276.048 173.658 276.584 171.963 276.495 170.388C276.406 168.814 276.629 166.715 276.629 166.715L279.648 166.016L280.27 166.803Z" fill="#202021"/>
<path d="M257.932 171.1C257.932 171.1 258.259 174.882 257.46 175.276L247.229 175.255C247.229 175.255 247.229 174.074 248.873 173.812C250.516 173.549 253.402 172.587 253.891 170.445C254.379 168.302 257.932 171.1 257.932 171.1Z" fill="#202021"/>
<path d="M249.295 117.682C249.295 117.682 249.834 124.31 250.469 132.279C251.331 143.102 252.367 156.398 252.47 158.917C252.647 163.291 253.358 170.287 253.358 170.287C253.358 170.287 255.045 171.949 258.421 171.248C258.421 171.248 261.429 161.261 262.289 150.694C262.302 150.521 262.316 150.347 262.329 150.172C263.128 139.415 264.371 116.763 264.371 116.763L249.295 117.682Z" fill="#FF8519"/>
<path d="M249.295 117.682C249.295 117.682 249.834 124.31 250.469 132.279L262.289 150.694C262.302 150.521 262.316 150.347 262.329 150.172C263.128 139.415 264.371 116.763 264.371 116.763L249.295 117.682Z" fill="#ED7D2B"/>
<path d="M251.759 118.469C251.759 118.469 261.485 142.476 267.88 153.758C274.275 165.039 276.273 168.188 276.273 168.188C276.273 168.188 279.937 166.745 280.27 165.761C280.27 165.761 277.825 143.981 273.542 138.671C271.122 135.671 268.28 126.668 268.146 123.52C268.013 120.371 267.28 114.14 267.28 114.14L251.759 118.469Z" fill="#FF8519"/>
<path d="M264.555 81.4726C264.555 81.4726 257.975 84.6477 254.181 83.4698C254.181 83.4698 255.115 82.2917 256.749 81.4152C256.618 80.6537 256.516 79.9928 256.457 79.4325C256.297 78.1395 256.297 77.4068 256.297 77.4068L258.836 75.4099L261.243 73.499C261.054 78.8722 264.555 81.4726 264.555 81.4726Z" fill="#FFB27D"/>
<path d="M248.88 118.229C248.996 118.33 249.128 118.387 249.275 118.387C250.704 118.358 254.862 119.147 258.378 118.788C261.355 118.501 263.981 117.639 266.797 116.405C267.177 116.232 268.039 115.772 268.023 115.37C268.008 114.911 267.965 114.264 267.907 113.43C267.789 111.788 267.623 109.458 267.57 106.695C267.531 104.646 267.553 102.36 267.702 99.9389C267.71 99.7764 267.719 99.6123 267.726 99.4482C267.768 98.5607 267.789 97.6664 267.789 96.7927C267.804 93.9766 267.601 91.2905 267.192 88.8915C266.476 84.7245 265.133 81.4638 263.15 80.0122C262.887 79.8105 261.252 80.6004 259.735 81.3339C258.349 82.0092 256.964 82.0811 255.651 81.8229L254.338 82.9718C252.746 84.4218 250.995 86.419 250.222 89.4368C249.581 91.9947 249.201 96.6199 248.996 101.419C248.895 103.603 248.822 105.786 248.793 107.869V107.941C248.777 108.156 248.777 108.373 248.777 108.589C248.705 113.919 248.777 118.157 248.88 118.229Z" fill="#56C269"/>
<path d="M261.287 75.5535C261.287 75.5535 259.624 78.5849 256.457 79.4325C256.297 78.1395 256.297 77.4068 256.297 77.4068L258.836 75.4099L261.287 75.5535Z" fill="#ED985F"/>
<path d="M255.139 77.3192C255.139 77.3192 261.417 78.3461 262.006 74.4868C262.596 70.6276 263.803 68.161 259.82 67.3422C255.836 66.5234 254.831 67.8805 254.316 69.1215C253.801 70.3625 253.522 76.9526 255.139 77.3192Z" fill="#FFB27D"/>
<path d="M264.287 66.8801C264.345 66.8148 264.476 66.7621 264.768 66.7461C264.768 66.7461 264.535 66.5999 264.222 66.5922C264.161 66.1854 263.944 65.4654 263.244 65.2905C263.244 65.2905 263.62 65.491 263.67 65.9236C262.859 65.0908 261.121 64.4846 256.31 64.8644C249.97 65.3648 252.06 69.4244 252.88 69.9083C253.701 70.3923 255.767 69.0656 257.297 69.1869C258.826 69.3083 259.117 71.5182 259.636 71.8214C260.155 72.1247 259.951 71.5884 260.653 71.2711C261.355 70.9538 261.421 72.117 261.219 72.8733C261.016 73.6295 261.98 74.6272 261.98 74.6272C261.98 74.6272 261.98 74.6272 262.955 73.5775C263.93 72.5277 264.848 68.0815 264.405 67.1338C264.366 67.0502 264.327 66.9655 264.287 66.8801Z" fill="#2C3A64"/>
<path d="M232.646 86.3792C232.646 86.3792 232.862 85.5262 232.27 85.1425C231.678 84.7589 231.134 83.716 230.884 83.8573C230.367 84.1499 231.167 85.06 231.021 86.1952C230.969 86.5928 231.895 87.6342 232.646 86.3792Z" fill="#FFB27D"/>
<path d="M267.57 106.695C267.53 104.646 267.553 102.36 267.702 99.9391C267.71 99.7766 267.719 99.6125 267.725 99.4483C267.129 96.492 266.226 93.8689 264.897 93.7834C264.897 93.7834 260.939 100.004 267.57 106.695Z" fill="#369647"/>
<path d="M272.806 117.421C272.806 117.421 272.476 120.629 272.114 121.236C271.752 121.843 270.211 123.781 269.554 124.162C268.897 124.542 269.955 121.607 269.821 121.036C269.687 120.465 269.281 122.078 268.991 122.116C268.702 122.154 268.776 120.702 268.766 120.174C268.756 119.645 270.174 118.34 270.674 117.215C271.174 116.09 272.806 117.421 272.806 117.421Z" fill="#FFB27D"/>
<path d="M263.147 79.9802C263.147 79.9802 267.119 81.861 269.023 84.7525C271.977 89.2378 275.402 105.584 275.465 107.098C275.528 108.611 272.966 119.298 272.966 119.298C272.966 119.298 270.367 119.126 269.696 117.815C269.696 117.815 270.215 106.835 269.887 106.129C269.558 105.423 259.052 91.4001 260.233 88.4079C261.414 85.4156 263.147 79.9802 263.147 79.9802Z" fill="#56C269"/>
<path d="M218.464 85.1853L218.674 87.0601L216.411 86.5519L218.464 85.1853Z" fill="#C65447"/>
<path d="M304.413 175.226H292.966C292.353 174.705 293.391 173.524 294.475 173.444C294.946 173.409 295.542 173.507 296.222 173.651C296.38 171.559 297.279 162.154 300.669 162.532C304.481 162.955 300.669 166.674 299.592 168.875C298.793 170.506 297.951 172.845 297.567 173.948C297.876 174.015 298.196 174.081 298.524 174.141C299.029 172.59 300.909 167.372 303.299 167.676C306.106 168.032 304.978 170.124 302.989 171.366C301.529 172.279 299.737 173.577 298.885 174.204C299.607 174.322 300.36 174.401 301.124 174.384C303.085 174.337 304.042 174.915 304.413 175.226Z" fill="#56C269"/>
<path d="M43.1177 174.682C42.511 173.729 40.6855 171.255 38.2538 171.583C35.6046 171.939 41.1798 173.686 42.8867 174.689C42.5076 174.694 42.1817 174.664 41.9423 174.578C40.8012 174.172 38.8468 174.952 38.222 175.226H49.0858C49.0107 174.966 48.815 174.541 48.309 174.232C48.1306 174.123 47.7721 174.108 47.3092 174.143C47.9552 173.382 48.4037 170.949 46.6055 171.575C45.2918 172.032 45.2953 173.518 45.4243 174.398C45.1448 174.442 44.8614 174.486 44.5813 174.526C44.0405 171.77 42.1273 163.691 38.2498 163.475C34.3188 163.257 41.5832 171.854 44.0019 174.603C43.6924 174.641 43.394 174.669 43.1177 174.682Z" fill="#56C269"/>
<path d="M340.444 176.015H0.386138C0.173718 176.015 0 175.841 0 175.629V175.497C0 175.285 0.173718 175.111 0.386138 175.111H340.444C340.657 175.111 340.83 175.285 340.83 175.497V175.629C340.831 175.841 340.657 176.015 340.444 176.015Z" fill="#2E3552"/>
</svg>
